<svg xmlns="http://www.w3.org/2000/svg" width="45" viewBox="0 0 45 45" height="45" version="1.0"><defs><clipPath id="a"><path d="M 15 8.925781 L 29 8.925781 L 29 19 L 15 19 Z M 15 8.925781"/></clipPath><clipPath id="b"><path d="M 23 33 L 29 33 L 29 38.925781 L 23 38.925781 Z M 23 33"/></clipPath><clipPath id="c"><path d="M 17 33 L 23 33 L 23 38.925781 L 17 38.925781 Z M 17 33"/></clipPath><clipPath id="d"><path d="M 20 34 L 26 34 L 26 38.925781 L 20 38.925781 Z M 20 34"/></clipPath><clipPath id="e"><path d="M 12.34375 24 L 17 24 L 17 29 L 12.34375 29 Z M 12.34375 24"/></clipPath><clipPath id="f"><path d="M 28 23 L 32.59375 23 L 32.59375 28 L 28 28 Z M 28 23"/></clipPath><clipPath id="g"><path d="M 28 23 L 32.59375 23 L 32.59375 29 L 28 29 Z M 28 23"/></clipPath><clipPath id="h"><path d="M 12.34375 20 L 17 20 L 17 25 L 12.34375 25 Z M 12.34375 20"/></clipPath><clipPath id="i"><path d="M 28 19 L 32.59375 19 L 32.59375 24 L 28 24 Z M 28 19"/></clipPath></defs><path fill="#FFF" d="M-4.5 -4.5H49.5V49.5H-4.5z"/><path fill="#FFF" d="M-4.5 -4.5H49.5V49.5H-4.5z"/><g clip-path="url(#a)"><path fill="#80CC28" d="M 24.488281 16.488281 C 26.339844 14.863281 26.054688 11.835938 26.054688 11.835938 C 26.066406 12.457031 24.945312 14.722656 23.742188 15.097656 C 23.207031 15.261719 22.675781 15.632812 22.253906 15.992188 C 22.609375 13.4375 23.199219 9.117188 23.199219 9.117188 L 22.257812 8.925781 C 22.257812 8.925781 21.472656 13.253906 20.953125 15.839844 C 20.554688 15.511719 20.082031 15.1875 19.601562 15.03125 C 18.40625 14.640625 17.3125 12.359375 17.332031 11.742188 C 17.332031 11.742188 17.007812 14.761719 18.835938 16.410156 C 18.835938 16.410156 15.15625 13.601562 15.332031 11.292969 C 15.332031 11.292969 14.878906 15.953125 17.429688 17.246094 C 19.1875 18.140625 20.894531 18.3125 21.628906 17.847656 C 22.328125 18.363281 24.070312 18.230469 25.882812 17.339844 C 28.449219 16.078125 28.058594 11.414062 28.058594 11.414062 C 28.207031 13.722656 24.488281 16.488281 24.488281 16.488281"/></g><g clip-path="url(#b)"><path fill="#D22748" d="M 28.074219 36.082031 C 27.976562 37.316406 26.902344 38.238281 25.671875 38.144531 C 24.441406 38.050781 23.519531 36.972656 23.613281 35.738281 C 23.710938 34.503906 24.785156 33.582031 26.015625 33.675781 C 27.246094 33.773438 28.167969 34.851562 28.074219 36.082031"/><path fill="#87182A" d="M 28.074219 36.082031 L 28.023438 36.078125 C 27.933594 37.230469 26.976562 38.101562 25.847656 38.101562 C 25.789062 38.101562 25.730469 38.101562 25.675781 38.09375 C 24.527344 38.007812 23.65625 37.046875 23.65625 35.914062 C 23.65625 35.855469 23.660156 35.800781 23.664062 35.742188 C 23.75 34.59375 24.710938 33.71875 25.839844 33.71875 C 25.898438 33.71875 25.953125 33.722656 26.011719 33.726562 C 27.160156 33.8125 28.03125 34.773438 28.03125 35.90625 C 28.03125 35.964844 28.027344 36.023438 28.023438 36.078125 L 28.121094 36.085938 C 28.125 36.027344 28.128906 35.96875 28.128906 35.90625 C 28.128906 34.722656 27.21875 33.722656 26.019531 33.628906 C 25.960938 33.621094 25.898438 33.621094 25.839844 33.621094 C 24.660156 33.621094 23.660156 34.535156 23.566406 35.734375 C 23.5625 35.792969 23.558594 35.855469 23.558594 35.914062 C 23.558594 37.097656 24.46875 38.101562 25.667969 38.195312 C 25.726562 38.199219 25.785156 38.199219 25.847656 38.199219 C 27.027344 38.199219 28.027344 37.289062 28.121094 36.085938 L 28.074219 36.082031"/></g><g clip-path="url(#c)"><path fill="#D22748" d="M 22.273438 35.777344 C 22.273438 37.015625 21.269531 38.019531 20.035156 38.019531 C 18.800781 38.019531 17.800781 37.015625 17.800781 35.777344 C 17.800781 34.539062 18.800781 33.539062 20.035156 33.539062 C 21.269531 33.539062 22.273438 34.539062 22.273438 35.777344"/><path fill="#87182A" d="M 22.273438 35.777344 L 22.222656 35.777344 C 22.222656 36.382812 21.980469 36.929688 21.582031 37.328125 C 21.1875 37.722656 20.640625 37.96875 20.035156 37.96875 C 19.433594 37.96875 18.886719 37.722656 18.492188 37.328125 C 18.09375 36.929688 17.851562 36.382812 17.851562 35.777344 C 17.851562 35.171875 18.09375 34.625 18.492188 34.226562 C 18.886719 33.832031 19.433594 33.585938 20.035156 33.585938 C 20.640625 33.585938 21.1875 33.832031 21.582031 34.226562 C 21.980469 34.625 22.222656 35.171875 22.222656 35.777344 L 22.320312 35.777344 C 22.320312 34.511719 21.296875 33.488281 20.035156 33.488281 C 18.773438 33.488281 17.753906 34.511719 17.753906 35.777344 C 17.753906 37.042969 18.773438 38.066406 20.035156 38.066406 C 21.296875 38.066406 22.320312 37.042969 22.320312 35.777344 L 22.273438 35.777344"/></g><g clip-path="url(#d)"><path fill="#D22748" d="M 25.273438 36.632812 C 25.273438 37.871094 24.269531 38.875 23.035156 38.875 C 21.800781 38.875 20.800781 37.871094 20.800781 36.632812 C 20.800781 35.394531 21.800781 34.394531 23.035156 34.394531 C 24.269531 34.394531 25.273438 35.394531 25.273438 36.632812"/><path fill="#87182A" d="M 25.273438 36.632812 L 25.222656 36.632812 C 25.222656 37.238281 24.976562 37.785156 24.582031 38.183594 C 24.1875 38.578125 23.640625 38.824219 23.035156 38.824219 C 22.433594 38.824219 21.886719 38.578125 21.492188 38.183594 C 21.09375 37.785156 20.851562 37.238281 20.851562 36.632812 C 20.851562 36.027344 21.09375 35.480469 21.492188 35.085938 C 21.886719 34.6875 22.433594 34.441406 23.035156 34.441406 C 23.640625 34.441406 24.1875 34.6875 24.582031 35.085938 C 24.976562 35.480469 25.222656 36.027344 25.222656 36.632812 L 25.320312 36.632812 C 25.320312 35.367188 24.296875 34.34375 23.035156 34.34375 C 21.773438 34.34375 20.75 35.367188 20.75 36.632812 C 20.75 37.898438 21.773438 38.921875 23.035156 38.921875 C 24.296875 38.921875 25.320312 37.898438 25.320312 36.632812 L 25.273438 36.632812"/></g><path fill="#D22748" d="M 20.035156 33.027344 C 20.035156 34.265625 19.035156 35.265625 17.800781 35.265625 C 16.566406 35.265625 15.566406 34.265625 15.566406 33.027344 C 15.566406 31.789062 16.566406 30.785156 17.800781 30.785156 C 19.035156 30.785156 20.035156 31.789062 20.035156 33.027344"/><path fill="#87182A" d="M 20.035156 33.027344 L 19.988281 33.027344 C 19.988281 33.632812 19.742188 34.179688 19.347656 34.574219 C 18.953125 34.972656 18.40625 35.21875 17.800781 35.21875 C 17.195312 35.21875 16.652344 34.972656 16.253906 34.574219 C 15.859375 34.179688 15.613281 33.632812 15.613281 33.027344 C 15.613281 32.421875 15.859375 31.875 16.253906 31.476562 C 16.652344 31.082031 17.195312 30.835938 17.800781 30.835938 C 18.40625 30.835938 18.953125 31.082031 19.347656 31.476562 C 19.742188 31.875 19.988281 32.421875 19.988281 33.027344 L 20.085938 33.027344 C 20.085938 31.761719 19.0625 30.738281 17.800781 30.738281 C 16.539062 30.738281 15.515625 31.761719 15.515625 33.027344 C 15.515625 34.289062 16.539062 35.316406 17.800781 35.316406 C 19.0625 35.316406 20.085938 34.289062 20.085938 33.027344 L 20.035156 33.027344"/><path fill="#D22748" d="M 23.753906 33.671875 C 23.753906 34.90625 22.753906 35.910156 21.519531 35.910156 C 20.285156 35.910156 19.285156 34.90625 19.285156 33.671875 C 19.285156 32.433594 20.285156 31.429688 21.519531 31.429688 C 22.753906 31.429688 23.753906 32.433594 23.753906 33.671875"/><path fill="#87182A" d="M 23.753906 33.671875 L 23.707031 33.671875 C 23.707031 34.273438 23.460938 34.824219 23.066406 35.21875 C 22.671875 35.617188 22.125 35.859375 21.519531 35.859375 C 20.914062 35.859375 20.371094 35.617188 19.972656 35.21875 C 19.578125 34.824219 19.332031 34.273438 19.332031 33.671875 C 19.332031 33.066406 19.578125 32.515625 19.972656 32.121094 C 20.371094 31.722656 20.914062 31.480469 21.519531 31.480469 C 22.125 31.480469 22.671875 31.722656 23.066406 32.121094 C 23.460938 32.515625 23.707031 33.066406 23.707031 33.671875 L 23.804688 33.671875 C 23.804688 32.40625 22.78125 31.378906 21.519531 31.378906 C 20.257812 31.378906 19.234375 32.40625 19.234375 33.671875 C 19.234375 34.933594 20.257812 35.960938 21.519531 35.960938 C 22.78125 35.960938 23.804688 34.933594 23.804688 33.671875 L 23.753906 33.671875"/><path fill="#D22748" d="M 27.429688 33.332031 C 27.429688 34.566406 26.425781 35.570312 25.191406 35.570312 C 23.957031 35.570312 22.957031 34.566406 22.957031 33.332031 C 22.957031 32.09375 23.957031 31.089844 25.191406 31.089844 C 26.425781 31.089844 27.429688 32.09375 27.429688 33.332031"/><path fill="#87182A" d="M 27.429688 33.332031 L 27.378906 33.332031 C 27.378906 33.9375 27.136719 34.484375 26.738281 34.878906 C 26.34375 35.277344 25.796875 35.523438 25.191406 35.523438 C 24.589844 35.523438 24.042969 35.277344 23.648438 34.878906 C 23.25 34.484375 23.007812 33.9375 23.007812 33.332031 C 23.007812 32.726562 23.25 32.179688 23.648438 31.78125 C 24.042969 31.386719 24.589844 31.140625 25.191406 31.140625 C 25.796875 31.140625 26.34375 31.386719 26.738281 31.78125 C 27.136719 32.179688 27.378906 32.726562 27.378906 33.332031 L 27.476562 33.332031 C 27.476562 32.066406 26.453125 31.042969 25.191406 31.042969 C 23.929688 31.042969 22.90625 32.066406 22.90625 33.332031 C 22.90625 34.59375 23.929688 35.621094 25.191406 35.621094 C 26.453125 35.621094 27.476562 34.59375 27.476562 33.332031 L 27.429688 33.332031"/><path fill="#D22748" d="M 30.316406 32.355469 C 30.316406 33.589844 29.3125 34.59375 28.078125 34.59375 C 26.84375 34.59375 25.84375 33.589844 25.84375 32.355469 C 25.84375 31.117188 26.84375 30.113281 28.078125 30.113281 C 29.3125 30.113281 30.316406 31.117188 30.316406 32.355469"/><path fill="#87182A" d="M 30.316406 32.355469 L 30.265625 32.355469 C 30.265625 32.960938 30.023438 33.507812 29.625 33.902344 C 29.230469 34.300781 28.683594 34.542969 28.078125 34.542969 C 27.476562 34.542969 26.929688 34.300781 26.53125 33.902344 C 26.136719 33.507812 25.890625 32.960938 25.890625 32.355469 C 25.890625 31.75 26.136719 31.199219 26.53125 30.804688 C 26.929688 30.40625 27.476562 30.164062 28.078125 30.164062 C 28.683594 30.164062 29.230469 30.40625 29.625 30.804688 C 30.023438 31.199219 30.265625 31.75 30.265625 32.355469 L 30.363281 32.355469 C 30.363281 31.089844 29.339844 30.066406 28.078125 30.0625 C 26.816406 30.066406 25.792969 31.089844 25.792969 32.355469 C 25.792969 33.617188 26.816406 34.640625 28.078125 34.640625 C 29.339844 34.640625 30.363281 33.617188 30.363281 32.355469 L 30.316406 32.355469"/><path fill="#D22748" d="M 18.5625 30.320312 C 18.5625 31.558594 17.5625 32.558594 16.328125 32.558594 C 15.09375 32.558594 14.089844 31.558594 14.089844 30.320312 C 14.089844 29.082031 15.09375 28.078125 16.328125 28.078125 C 17.5625 28.078125 18.5625 29.082031 18.5625 30.320312"/><path fill="#87182A" d="M 18.5625 30.320312 L 18.515625 30.320312 C 18.515625 30.925781 18.269531 31.472656 17.875 31.871094 C 17.476562 32.265625 16.929688 32.511719 16.328125 32.511719 C 15.722656 32.511719 15.175781 32.265625 14.78125 31.871094 C 14.386719 31.472656 14.140625 30.925781 14.140625 30.320312 C 14.140625 29.714844 14.386719 29.167969 14.78125 28.769531 C 15.175781 28.375 15.722656 28.128906 16.328125 28.128906 C 16.929688 28.128906 17.476562 28.375 17.875 28.769531 C 18.269531 29.167969 18.515625 29.714844 18.515625 30.320312 L 18.613281 30.320312 C 18.613281 29.054688 17.589844 28.03125 16.328125 28.03125 C 15.066406 28.03125 14.042969 29.054688 14.042969 30.320312 C 14.042969 31.585938 15.066406 32.609375 16.328125 32.609375 C 17.589844 32.609375 18.613281 31.585938 18.613281 30.320312 L 18.5625 30.320312"/><path fill="#D22748" d="M 21.132812 30.496094 C 21.132812 31.734375 20.128906 32.734375 18.894531 32.734375 C 17.660156 32.734375 16.660156 31.734375 16.660156 30.496094 C 16.660156 29.257812 17.660156 28.253906 18.894531 28.253906 C 20.128906 28.253906 21.132812 29.257812 21.132812 30.496094"/><path fill="#87182A" d="M 21.132812 30.496094 L 21.082031 30.496094 C 21.082031 31.101562 20.835938 31.648438 20.441406 32.046875 C 20.046875 32.441406 19.5 32.6875 18.894531 32.6875 C 18.292969 32.6875 17.746094 32.441406 17.347656 32.046875 C 16.953125 31.648438 16.707031 31.101562 16.707031 30.496094 C 16.707031 29.890625 16.953125 29.34375 17.347656 28.945312 C 17.746094 28.550781 18.292969 28.304688 18.894531 28.304688 C 19.5 28.304688 20.046875 28.550781 20.441406 28.945312 C 20.835938 29.34375 21.082031 29.890625 21.082031 30.496094 L 21.179688 30.496094 C 21.179688 29.230469 20.15625 28.207031 18.894531 28.207031 C 17.632812 28.207031 16.609375 29.230469 16.609375 30.496094 C 16.609375 31.761719 17.632812 32.785156 18.894531 32.785156 C 20.15625 32.785156 21.179688 31.761719 21.179688 30.496094 L 21.132812 30.496094"/><path fill="#D22748" d="M 23.960938 30.632812 C 23.960938 31.867188 22.960938 32.871094 21.726562 32.871094 C 20.492188 32.871094 19.488281 31.867188 19.488281 30.632812 C 19.488281 29.394531 20.492188 28.390625 21.726562 28.390625 C 22.960938 28.390625 23.960938 29.394531 23.960938 30.632812"/><path fill="#87182A" d="M 23.960938 30.632812 L 23.914062 30.632812 C 23.914062 31.234375 23.667969 31.785156 23.273438 32.179688 C 22.875 32.578125 22.328125 32.820312 21.726562 32.820312 C 21.121094 32.820312 20.574219 32.578125 20.179688 32.179688 C 19.785156 31.785156 19.539062 31.234375 19.539062 30.632812 C 19.539062 30.023438 19.785156 29.476562 20.179688 29.082031 C 20.574219 28.683594 21.121094 28.441406 21.726562 28.441406 C 22.328125 28.441406 22.875 28.683594 23.273438 29.082031 C 23.667969 29.476562 23.914062 30.023438 23.914062 30.632812 L 24.011719 30.632812 C 24.011719 29.367188 22.988281 28.34375 21.726562 28.34375 C 20.464844 28.34375 19.441406 29.367188 19.441406 30.632812 C 19.441406 31.894531 20.464844 32.921875 21.726562 32.921875 C 22.988281 32.921875 24.011719 31.894531 24.011719 30.632812 L 23.960938 30.632812"/><path fill="#D22748" d="M 26.726562 30.496094 C 26.726562 31.734375 25.726562 32.734375 24.492188 32.734375 C 23.257812 32.734375 22.257812 31.734375 22.257812 30.496094 C 22.257812 29.257812 23.257812 28.253906 24.492188 28.253906 C 25.726562 28.253906 26.726562 29.257812 26.726562 30.496094"/><path fill="#87182A" d="M 26.726562 30.496094 L 26.679688 30.496094 C 26.679688 31.101562 26.433594 31.648438 26.039062 32.046875 C 25.644531 32.441406 25.097656 32.6875 24.492188 32.6875 C 23.890625 32.6875 23.34375 32.441406 22.945312 32.046875 C 22.550781 31.648438 22.308594 31.101562 22.308594 30.496094 C 22.308594 29.890625 22.550781 29.34375 22.945312 28.945312 C 23.34375 28.550781 23.890625 28.304688 24.492188 28.304688 C 25.097656 28.304688 25.644531 28.550781 26.039062 28.945312 C 26.433594 29.34375 26.679688 29.890625 26.679688 30.496094 L 26.777344 30.496094 C 26.777344 29.230469 25.753906 28.207031 24.492188 28.207031 C 23.230469 28.207031 22.207031 29.230469 22.207031 30.496094 C 22.207031 31.761719 23.230469 32.785156 24.492188 32.785156 C 25.753906 32.785156 26.777344 31.761719 26.777344 30.496094 L 26.726562 30.496094"/><path fill="#D22748" d="M 29.664062 29.800781 C 29.664062 31.035156 28.664062 32.039062 27.429688 32.039062 C 26.195312 32.039062 25.191406 31.035156 25.191406 29.800781 C 25.191406 28.5625 26.195312 27.558594 27.429688 27.558594 C 28.664062 27.558594 29.664062 28.5625 29.664062 29.800781"/><path fill="#87182A" d="M 29.664062 29.800781 L 29.617188 29.800781 C 29.617188 30.40625 29.371094 30.953125 28.976562 31.347656 C 28.578125 31.746094 28.03125 31.992188 27.429688 31.992188 C 26.824219 31.992188 26.277344 31.746094 25.882812 31.347656 C 25.488281 30.953125 25.242188 30.40625 25.242188 29.800781 C 25.242188 29.195312 25.488281 28.648438 25.882812 28.25 C 26.277344 27.851562 26.824219 27.609375 27.429688 27.609375 C 28.03125 27.609375 28.578125 27.851562 28.976562 28.25 C 29.371094 28.648438 29.617188 29.195312 29.617188 29.800781 L 29.714844 29.800781 C 29.714844 28.535156 28.691406 27.507812 27.429688 27.507812 C 26.167969 27.507812 25.144531 28.535156 25.144531 29.800781 C 25.144531 31.0625 26.167969 32.089844 27.429688 32.089844 C 28.691406 32.089844 29.714844 31.0625 29.714844 29.800781 L 29.664062 29.800781"/><path fill="#D22748" d="M 31.613281 29.433594 C 31.613281 30.671875 30.609375 31.671875 29.375 31.671875 C 28.140625 31.671875 27.140625 30.671875 27.140625 29.433594 C 27.140625 28.195312 28.140625 27.191406 29.375 27.191406 C 30.609375 27.191406 31.613281 28.195312 31.613281 29.433594"/><path fill="#87182A" d="M 31.613281 29.433594 L 31.5625 29.433594 C 31.5625 30.039062 31.316406 30.585938 30.921875 30.980469 C 30.527344 31.378906 29.980469 31.625 29.375 31.625 C 28.773438 31.625 28.226562 31.378906 27.828125 30.980469 C 27.433594 30.585938 27.1875 30.039062 27.1875 29.433594 C 27.1875 28.828125 27.433594 28.28125 27.828125 27.882812 C 28.226562 27.488281 28.773438 27.242188 29.375 27.242188 C 29.980469 27.242188 30.527344 27.488281 30.921875 27.882812 C 31.316406 28.28125 31.5625 28.828125 31.5625 29.433594 L 31.660156 29.433594 C 31.660156 28.167969 30.636719 27.144531 29.375 27.144531 C 28.113281 27.144531 27.089844 28.167969 27.089844 29.433594 C 27.089844 30.699219 28.113281 31.722656 29.375 31.722656 C 30.636719 31.722656 31.660156 30.699219 31.660156 29.433594 L 31.613281 29.433594"/><g clip-path="url(#e)"><path fill="#D22748" d="M 16.871094 26.558594 C 16.871094 27.796875 15.867188 28.800781 14.632812 28.800781 C 13.398438 28.800781 12.398438 27.796875 12.398438 26.558594 C 12.398438 25.324219 13.398438 24.320312 14.632812 24.320312 C 15.867188 24.320312 16.871094 25.324219 16.871094 26.558594"/><path fill="#87182A" d="M 16.871094 26.558594 L 16.820312 26.558594 C 16.820312 27.164062 16.574219 27.710938 16.179688 28.109375 C 15.785156 28.507812 15.238281 28.75 14.632812 28.75 C 14.03125 28.75 13.484375 28.507812 13.085938 28.109375 C 12.691406 27.710938 12.449219 27.164062 12.449219 26.558594 C 12.449219 25.953125 12.691406 25.40625 13.085938 25.011719 C 13.484375 24.613281 14.03125 24.367188 14.632812 24.367188 C 15.238281 24.367188 15.785156 24.613281 16.179688 25.011719 C 16.574219 25.40625 16.820312 25.953125 16.820312 26.558594 L 16.917969 26.558594 C 16.917969 25.296875 15.894531 24.269531 14.632812 24.269531 C 13.371094 24.269531 12.347656 25.296875 12.347656 26.558594 C 12.347656 27.824219 13.371094 28.847656 14.632812 28.847656 C 15.894531 28.847656 16.917969 27.824219 16.917969 26.558594 L 16.871094 26.558594"/></g><path fill="#D22748" d="M 18.5625 26.558594 C 18.5625 27.796875 17.5625 28.800781 16.328125 28.800781 C 15.09375 28.800781 14.089844 27.796875 14.089844 26.558594 C 14.089844 25.324219 15.09375 24.320312 16.328125 24.320312 C 17.5625 24.320312 18.5625 25.324219 18.5625 26.558594"/><path fill="#87182A" d="M 18.5625 26.558594 L 18.515625 26.558594 C 18.515625 27.164062 18.269531 27.710938 17.875 28.109375 C 17.476562 28.507812 16.929688 28.75 16.328125 28.75 C 15.722656 28.75 15.175781 28.507812 14.78125 28.109375 C 14.386719 27.710938 14.140625 27.164062 14.140625 26.558594 C 14.140625 25.953125 14.386719 25.40625 14.78125 25.011719 C 15.175781 24.613281 15.722656 24.367188 16.328125 24.367188 C 16.929688 24.367188 17.476562 24.613281 17.875 25.011719 C 18.269531 25.40625 18.515625 25.953125 18.515625 26.558594 L 18.613281 26.558594 C 18.613281 25.296875 17.589844 24.269531 16.328125 24.269531 C 15.066406 24.269531 14.042969 25.296875 14.042969 26.558594 C 14.042969 27.824219 15.066406 28.847656 16.328125 28.847656 C 17.589844 28.847656 18.613281 27.824219 18.613281 26.558594 L 18.5625 26.558594"/><path fill="#D22748" d="M 21.339844 26.78125 C 21.339844 28.019531 20.339844 29.023438 19.105469 29.023438 C 17.871094 29.023438 16.871094 28.019531 16.871094 26.78125 C 16.871094 25.542969 17.871094 24.542969 19.105469 24.542969 C 20.339844 24.542969 21.339844 25.542969 21.339844 26.78125"/><path fill="#87182A" d="M 21.339844 26.78125 L 21.292969 26.78125 C 21.292969 27.386719 21.046875 27.933594 20.652344 28.332031 C 20.253906 28.726562 19.707031 28.972656 19.105469 28.972656 C 18.5 28.972656 17.953125 28.726562 17.558594 28.332031 C 17.164062 27.933594 16.917969 27.386719 16.917969 26.78125 C 16.917969 26.175781 17.164062 25.628906 17.558594 25.234375 C 17.953125 24.835938 18.5 24.589844 19.105469 24.589844 C 19.707031 24.589844 20.253906 24.835938 20.652344 25.234375 C 21.046875 25.628906 21.292969 26.175781 21.292969 26.78125 L 21.390625 26.78125 C 21.390625 25.515625 20.367188 24.492188 19.105469 24.492188 C 17.84375 24.492188 16.820312 25.515625 16.820312 26.78125 C 16.820312 28.046875 17.84375 29.070312 19.105469 29.070312 C 20.367188 29.070312 21.390625 28.046875 21.390625 26.78125 L 21.339844 26.78125"/><path fill="#D22748" d="M 24.046875 27.191406 C 24.046875 28.429688 23.046875 29.433594 21.8125 29.433594 C 20.578125 29.433594 19.578125 28.429688 19.578125 27.191406 C 19.578125 25.957031 20.578125 24.953125 21.8125 24.953125 C 23.046875 24.953125 24.046875 25.957031 24.046875 27.191406"/><path fill="#87182A" d="M 24.046875 27.191406 L 24 27.191406 C 24 27.796875 23.753906 28.34375 23.359375 28.742188 C 22.960938 29.140625 22.417969 29.382812 21.8125 29.382812 C 21.207031 29.382812 20.664062 29.140625 20.265625 28.742188 C 19.871094 28.34375 19.625 27.796875 19.625 27.191406 C 19.625 26.585938 19.871094 26.039062 20.265625 25.644531 C 20.664062 25.246094 21.207031 25.003906 21.8125 25.003906 C 22.417969 25.003906 22.960938 25.246094 23.359375 25.644531 C 23.753906 26.039062 24 26.585938 24 27.191406 L 24.097656 27.191406 C 24.097656 25.929688 23.074219 24.902344 21.8125 24.902344 C 20.550781 24.902344 19.527344 25.929688 19.527344 27.191406 C 19.527344 28.457031 20.550781 29.480469 21.8125 29.480469 C 23.074219 29.480469 24.097656 28.457031 24.097656 27.191406 L 24.046875 27.191406"/><path fill="#D22748" d="M 27.019531 26.78125 C 27.019531 28.019531 26.019531 29.023438 24.785156 29.023438 C 23.550781 29.023438 22.546875 28.019531 22.546875 26.78125 C 22.546875 25.542969 23.550781 24.542969 24.785156 24.542969 C 26.019531 24.542969 27.019531 25.542969 27.019531 26.78125"/><path fill="#87182A" d="M 27.019531 26.78125 L 26.96875 26.78125 C 26.96875 27.386719 26.726562 27.933594 26.328125 28.332031 C 25.933594 28.726562 25.386719 28.972656 24.785156 28.972656 C 24.179688 28.972656 23.632812 28.726562 23.238281 28.332031 C 22.839844 27.933594 22.597656 27.386719 22.597656 26.78125 C 22.597656 26.175781 22.839844 25.628906 23.238281 25.234375 C 23.632812 24.835938 24.179688 24.589844 24.785156 24.589844 C 25.386719 24.589844 25.933594 24.835938 26.328125 25.234375 C 26.726562 25.628906 26.96875 26.175781 26.96875 26.78125 L 27.066406 26.78125 C 27.066406 25.515625 26.046875 24.492188 24.785156 24.492188 C 23.523438 24.492188 22.5 25.515625 22.5 26.78125 C 22.5 28.046875 23.523438 29.070312 24.785156 29.070312 C 26.046875 29.070312 27.066406 28.046875 27.066406 26.78125 L 27.019531 26.78125"/><path fill="#D22748" d="M 29.253906 26.257812 C 29.253906 27.492188 28.253906 28.496094 27.019531 28.496094 C 25.785156 28.496094 24.785156 27.492188 24.785156 26.257812 C 24.785156 25.019531 25.785156 24.015625 27.019531 24.015625 C 28.253906 24.015625 29.253906 25.019531 29.253906 26.257812"/><path fill="#87182A" d="M 29.253906 26.257812 L 29.207031 26.257812 C 29.207031 26.859375 28.960938 27.410156 28.566406 27.804688 C 28.167969 28.203125 27.625 28.445312 27.019531 28.445312 C 26.414062 28.445312 25.867188 28.203125 25.472656 27.804688 C 25.078125 27.410156 24.832031 26.859375 24.832031 26.257812 C 24.832031 25.652344 25.078125 25.101562 25.472656 24.707031 C 25.867188 24.308594 26.414062 24.066406 27.019531 24.0625 C 27.625 24.066406 28.167969 24.308594 28.566406 24.707031 C 28.960938 25.101562 29.207031 25.652344 29.207031 26.257812 L 29.304688 26.257812 C 29.304688 24.992188 28.28125 23.964844 27.019531 23.964844 C 25.757812 23.964844 24.734375 24.992188 24.734375 26.257812 C 24.734375 27.519531 25.757812 28.542969 27.019531 28.542969 C 28.28125 28.542969 29.304688 27.519531 29.304688 26.257812 L 29.253906 26.257812"/><g clip-path="url(#f)"><path fill="#D22748" d="M 32.550781 25.753906 C 32.550781 26.992188 31.550781 27.992188 30.316406 27.992188 C 29.082031 27.992188 28.078125 26.992188 28.078125 25.753906 C 28.078125 24.515625 29.082031 23.511719 30.316406 23.511719 C 31.550781 23.511719 32.550781 24.515625 32.550781 25.753906"/></g><g clip-path="url(#g)"><path fill="#87182A" d="M 32.550781 25.753906 L 32.503906 25.753906 C 32.503906 26.359375 32.257812 26.90625 31.863281 27.300781 C 31.464844 27.699219 30.917969 27.945312 30.316406 27.945312 C 29.710938 27.945312 29.164062 27.699219 28.769531 27.300781 C 28.375 26.90625 28.128906 26.359375 28.128906 25.753906 C 28.128906 25.148438 28.375 24.601562 28.769531 24.203125 C 29.164062 23.808594 29.710938 23.5625 30.316406 23.5625 C 30.917969 23.5625 31.464844 23.808594 31.863281 24.203125 C 32.257812 24.601562 32.503906 25.148438 32.503906 25.753906 L 32.601562 25.753906 C 32.601562 24.488281 31.578125 23.464844 30.316406 23.464844 C 29.054688 23.464844 28.03125 24.488281 28.03125 25.753906 C 28.03125 27.019531 29.054688 28.042969 30.316406 28.042969 C 31.578125 28.042969 32.601562 27.019531 32.601562 25.753906 L 32.550781 25.753906"/></g><path fill="#D22748" d="M 18.683594 19.464844 C 18.683594 20.699219 17.683594 21.703125 16.449219 21.703125 C 15.214844 21.703125 14.210938 20.699219 14.210938 19.464844 C 14.210938 18.226562 15.214844 17.222656 16.449219 17.222656 C 17.683594 17.222656 18.683594 18.226562 18.683594 19.464844"/><path fill="#87182A" d="M 18.683594 19.464844 L 18.632812 19.464844 C 18.632812 20.070312 18.390625 20.617188 17.996094 21.011719 C 17.597656 21.410156 17.050781 21.65625 16.449219 21.65625 C 15.84375 21.65625 15.296875 21.410156 14.902344 21.011719 C 14.503906 20.617188 14.261719 20.070312 14.261719 19.464844 C 14.261719 18.859375 14.503906 18.3125 14.902344 17.914062 C 15.296875 17.519531 15.84375 17.273438 16.449219 17.273438 C 17.050781 17.273438 17.597656 17.519531 17.996094 17.914062 C 18.390625 18.3125 18.632812 18.859375 18.632812 19.464844 L 18.734375 19.464844 C 18.734375 18.199219 17.710938 17.175781 16.449219 17.175781 C 15.1875 17.175781 14.164062 18.199219 14.164062 19.464844 C 14.164062 20.726562 15.1875 21.753906 16.449219 21.753906 C 17.710938 21.753906 18.734375 20.726562 18.734375 19.464844 L 18.683594 19.464844"/><g clip-path="url(#h)"><path fill="#D22748" d="M 16.871094 22.546875 C 16.871094 23.785156 15.867188 24.789062 14.632812 24.789062 C 13.398438 24.789062 12.398438 23.785156 12.398438 22.546875 C 12.398438 21.308594 13.398438 20.304688 14.632812 20.304688 C 15.867188 20.304688 16.871094 21.308594 16.871094 22.546875"/><path fill="#87182A" d="M 16.871094 22.546875 L 16.820312 22.546875 C 16.820312 23.152344 16.574219 23.699219 16.179688 24.097656 C 15.785156 24.492188 15.238281 24.738281 14.632812 24.738281 C 14.03125 24.738281 13.484375 24.492188 13.085938 24.097656 C 12.691406 23.699219 12.449219 23.152344 12.449219 22.546875 C 12.449219 21.941406 12.691406 21.394531 13.085938 20.996094 C 13.484375 20.601562 14.03125 20.355469 14.632812 20.355469 C 15.238281 20.355469 15.785156 20.601562 16.179688 20.996094 C 16.574219 21.394531 16.820312 21.941406 16.820312 22.546875 L 16.917969 22.546875 C 16.917969 21.28125 15.894531 20.257812 14.632812 20.257812 C 13.371094 20.257812 12.347656 21.28125 12.347656 22.546875 C 12.347656 23.8125 13.371094 24.835938 14.632812 24.835938 C 15.894531 24.835938 16.917969 23.8125 16.917969 22.546875 L 16.871094 22.546875"/></g><path fill="#D22748" d="M 19.625 22.953125 C 19.625 24.191406 18.625 25.191406 17.390625 25.191406 C 16.15625 25.191406 15.15625 24.191406 15.15625 22.953125 C 15.15625 21.714844 16.15625 20.710938 17.390625 20.710938 C 18.625 20.710938 19.625 21.714844 19.625 22.953125"/><path fill="#87182A" d="M 19.625 22.953125 L 19.578125 22.953125 C 19.578125 23.558594 19.332031 24.105469 18.9375 24.503906 C 18.542969 24.898438 17.996094 25.144531 17.390625 25.144531 C 16.789062 25.144531 16.242188 24.898438 15.84375 24.503906 C 15.449219 24.105469 15.203125 23.558594 15.203125 22.953125 C 15.203125 22.347656 15.449219 21.800781 15.84375 21.402344 C 16.242188 21.007812 16.789062 20.761719 17.390625 20.761719 C 17.996094 20.761719 18.542969 21.007812 18.9375 21.402344 C 19.332031 21.800781 19.578125 22.347656 19.578125 22.953125 L 19.675781 22.953125 C 19.675781 21.6875 18.652344 20.664062 17.390625 20.664062 C 16.128906 20.664062 15.105469 21.6875 15.105469 22.953125 C 15.105469 24.21875 16.128906 25.242188 17.390625 25.242188 C 18.652344 25.242188 19.675781 24.21875 19.675781 22.953125 L 19.625 22.953125"/><path fill="#D22748" d="M 22.824219 23.511719 C 22.824219 24.75 21.824219 25.753906 20.589844 25.753906 C 19.355469 25.753906 18.351562 24.75 18.351562 23.511719 C 18.351562 22.277344 19.355469 21.273438 20.589844 21.273438 C 21.824219 21.273438 22.824219 22.277344 22.824219 23.511719"/><path fill="#87182A" d="M 22.824219 23.511719 L 22.773438 23.511719 C 22.773438 24.117188 22.53125 24.664062 22.136719 25.0625 C 21.738281 25.460938 21.191406 25.703125 20.589844 25.703125 C 19.984375 25.703125 19.4375 25.460938 19.042969 25.0625 C 18.648438 24.664062 18.402344 24.117188 18.402344 23.511719 C 18.402344 22.90625 18.648438 22.359375 19.042969 21.964844 C 19.4375 21.566406 19.984375 21.320312 20.589844 21.320312 C 21.191406 21.320312 21.738281 21.566406 22.136719 21.964844 C 22.53125 22.359375 22.773438 22.90625 22.773438 23.511719 L 22.875 23.511719 C 22.875 22.25 21.851562 21.222656 20.589844 21.222656 C 19.328125 21.222656 18.304688 22.25 18.304688 23.511719 C 18.304688 24.777344 19.328125 25.800781 20.589844 25.800781 C 21.851562 25.800781 22.875 24.777344 22.875 23.511719 L 22.824219 23.511719"/><path fill="#D22748" d="M 26.144531 23.640625 C 26.144531 24.878906 25.144531 25.878906 23.910156 25.878906 C 22.675781 25.878906 21.671875 24.878906 21.671875 23.640625 C 21.671875 22.402344 22.675781 21.398438 23.910156 21.398438 C 25.144531 21.398438 26.144531 22.402344 26.144531 23.640625"/><path fill="#87182A" d="M 26.144531 23.640625 L 26.09375 23.640625 C 26.09375 24.246094 25.851562 24.792969 25.453125 25.1875 C 25.058594 25.585938 24.511719 25.832031 23.910156 25.832031 C 23.304688 25.832031 22.757812 25.585938 22.363281 25.1875 C 21.96875 24.792969 21.722656 24.246094 21.722656 23.640625 C 21.722656 23.035156 21.96875 22.488281 22.363281 22.089844 C 22.757812 21.695312 23.304688 21.449219 23.910156 21.449219 C 24.511719 21.449219 25.058594 21.695312 25.453125 22.089844 C 25.851562 22.488281 26.09375 23.035156 26.09375 23.640625 L 26.195312 23.640625 C 26.195312 22.375 25.171875 21.351562 23.910156 21.351562 C 22.648438 21.351562 21.625 22.375 21.625 23.640625 C 21.625 24.902344 22.648438 25.929688 23.910156 25.929688 C 25.171875 25.929688 26.195312 24.902344 26.195312 23.640625 L 26.144531 23.640625"/><path fill="#D22748" d="M 29.742188 22.789062 C 29.742188 24.027344 28.742188 25.03125 27.507812 25.03125 C 26.273438 25.03125 25.273438 24.027344 25.273438 22.789062 C 25.273438 21.554688 26.273438 20.550781 27.507812 20.550781 C 28.742188 20.550781 29.742188 21.554688 29.742188 22.789062"/><path fill="#87182A" d="M 29.742188 22.789062 L 29.695312 22.789062 C 29.695312 23.394531 29.449219 23.941406 29.054688 24.339844 C 28.65625 24.738281 28.109375 24.980469 27.507812 24.980469 C 26.902344 24.980469 26.355469 24.738281 25.960938 24.339844 C 25.566406 23.941406 25.320312 23.394531 25.320312 22.789062 C 25.320312 22.183594 25.566406 21.636719 25.960938 21.242188 C 26.355469 20.84375 26.902344 20.597656 27.507812 20.597656 C 28.109375 20.597656 28.65625 20.84375 29.054688 21.242188 C 29.449219 21.636719 29.695312 22.183594 29.695312 22.789062 L 29.792969 22.789062 C 29.792969 21.527344 28.769531 20.5 27.507812 20.5 C 26.246094 20.5 25.222656 21.527344 25.222656 22.789062 C 25.222656 24.054688 26.246094 25.082031 27.507812 25.082031 C 28.769531 25.082031 29.792969 24.054688 29.792969 22.789062 L 29.742188 22.789062"/><g clip-path="url(#i)"><path fill="#D22748" d="M 32.550781 21.703125 C 32.550781 22.941406 31.550781 23.945312 30.316406 23.945312 C 29.082031 23.945312 28.078125 22.941406 28.078125 21.703125 C 28.078125 20.46875 29.082031 19.464844 30.316406 19.464844 C 31.550781 19.464844 32.550781 20.46875 32.550781 21.703125"/><path fill="#87182A" d="M 32.550781 21.703125 L 32.503906 21.703125 C 32.503906 22.308594 32.257812 22.855469 31.863281 23.253906 C 31.464844 23.648438 30.917969 23.894531 30.316406 23.894531 C 29.710938 23.894531 29.164062 23.648438 28.769531 23.253906 C 28.375 22.855469 28.128906 22.308594 28.128906 21.703125 C 28.128906 21.097656 28.375 20.550781 28.769531 20.15625 C 29.164062 19.757812 29.710938 19.511719 30.316406 19.511719 C 30.917969 19.511719 31.464844 19.757812 31.863281 20.15625 C 32.257812 20.550781 32.503906 21.097656 32.503906 21.703125 L 32.601562 21.703125 C 32.601562 20.441406 31.578125 19.414062 30.316406 19.414062 C 29.054688 19.414062 28.03125 20.441406 28.03125 21.703125 C 28.03125 22.96875 29.054688 23.992188 30.316406 23.992188 C 31.578125 23.992188 32.601562 22.96875 32.601562 21.703125 L 32.550781 21.703125"/></g><path fill="#D22748" d="M 21.460938 19.683594 C 21.460938 20.921875 20.460938 21.925781 19.226562 21.925781 C 17.992188 21.925781 16.988281 20.921875 16.988281 19.683594 C 16.988281 18.449219 17.992188 17.445312 19.226562 17.445312 C 20.460938 17.445312 21.460938 18.449219 21.460938 19.683594"/><path fill="#87182A" d="M 21.460938 19.683594 L 21.414062 19.683594 C 21.414062 20.289062 21.167969 20.835938 20.773438 21.234375 C 20.375 21.632812 19.828125 21.875 19.226562 21.875 C 18.621094 21.875 18.074219 21.632812 17.679688 21.234375 C 17.285156 20.835938 17.039062 20.289062 17.039062 19.683594 C 17.039062 19.078125 17.285156 18.53125 17.679688 18.136719 C 18.074219 17.738281 18.621094 17.492188 19.226562 17.492188 C 19.828125 17.492188 20.375 17.738281 20.773438 18.136719 C 21.167969 18.53125 21.414062 19.078125 21.414062 19.683594 L 21.511719 19.683594 C 21.511719 18.421875 20.488281 17.394531 19.226562 17.394531 C 17.964844 17.394531 16.941406 18.421875 16.941406 19.683594 C 16.941406 20.949219 17.964844 21.976562 19.226562 21.976562 C 20.488281 21.976562 21.511719 20.949219 21.511719 19.683594 L 21.460938 19.683594"/><path fill="#D22748" d="M 24.238281 19.90625 C 24.238281 21.144531 23.238281 22.148438 22.003906 22.148438 C 20.769531 22.148438 19.769531 21.144531 19.769531 19.90625 C 19.769531 18.667969 20.769531 17.667969 22.003906 17.667969 C 23.238281 17.667969 24.238281 18.667969 24.238281 19.90625"/><path fill="#87182A" d="M 24.238281 19.90625 L 24.191406 19.90625 C 24.191406 20.511719 23.945312 21.058594 23.550781 21.457031 C 23.15625 21.851562 22.609375 22.097656 22.003906 22.097656 C 21.398438 22.097656 20.855469 21.851562 20.457031 21.457031 C 20.0625 21.058594 19.816406 20.511719 19.816406 19.90625 C 19.816406 19.300781 20.0625 18.753906 20.457031 18.359375 C 20.855469 17.960938 21.398438 17.714844 22.003906 17.714844 C 22.609375 17.714844 23.15625 17.960938 23.550781 18.359375 C 23.945312 18.753906 24.191406 19.300781 24.191406 19.90625 L 24.289062 19.90625 C 24.289062 18.640625 23.265625 17.617188 22.003906 17.617188 C 20.742188 17.617188 19.71875 18.640625 19.71875 19.90625 C 19.71875 21.171875 20.742188 22.195312 22.003906 22.195312 C 23.265625 22.195312 24.289062 21.171875 24.289062 19.90625 L 24.238281 19.90625"/><path fill="#D22748" d="M 27.140625 19.683594 C 27.140625 20.921875 26.140625 21.925781 24.902344 21.925781 C 23.671875 21.925781 22.667969 20.921875 22.667969 19.683594 C 22.667969 18.449219 23.671875 17.445312 24.902344 17.445312 C 26.140625 17.445312 27.140625 18.449219 27.140625 19.683594"/><path fill="#87182A" d="M 27.140625 19.683594 L 27.089844 19.683594 C 27.089844 20.289062 26.847656 20.835938 26.449219 21.234375 C 26.054688 21.632812 25.507812 21.875 24.902344 21.875 C 24.300781 21.875 23.753906 21.632812 23.359375 21.234375 C 22.960938 20.835938 22.71875 20.289062 22.71875 19.683594 C 22.71875 19.078125 22.960938 18.53125 23.359375 18.136719 C 23.753906 17.738281 24.300781 17.492188 24.902344 17.492188 C 25.507812 17.492188 26.054688 17.738281 26.449219 18.136719 C 26.847656 18.53125 27.089844 19.078125 27.089844 19.683594 L 27.1875 19.683594 C 27.1875 18.421875 26.167969 17.394531 24.902344 17.394531 C 23.644531 17.394531 22.621094 18.421875 22.621094 19.683594 C 22.621094 20.949219 23.644531 21.976562 24.902344 21.976562 C 26.167969 21.976562 27.1875 20.949219 27.1875 19.683594 L 27.140625 19.683594"/><path fill="#D22748" d="M 29.652344 18.515625 C 29.652344 19.753906 28.648438 20.757812 27.414062 20.757812 C 26.179688 20.757812 25.179688 19.753906 25.179688 18.515625 C 25.179688 17.28125 26.179688 16.277344 27.414062 16.277344 C 28.648438 16.277344 29.652344 17.28125 29.652344 18.515625"/><path fill="#87182A" d="M 29.652344 18.515625 L 29.601562 18.515625 C 29.601562 19.121094 29.359375 19.671875 28.960938 20.066406 C 28.566406 20.464844 28.019531 20.707031 27.414062 20.707031 C 26.8125 20.707031 26.265625 20.464844 25.871094 20.066406 C 25.472656 19.671875 25.230469 19.121094 25.230469 18.515625 C 25.230469 17.914062 25.472656 17.363281 25.871094 16.96875 C 26.265625 16.570312 26.8125 16.324219 27.414062 16.324219 C 28.019531 16.324219 28.566406 16.570312 28.960938 16.96875 C 29.359375 17.363281 29.601562 17.914062 29.601562 18.515625 L 29.699219 18.515625 C 29.699219 17.253906 28.675781 16.226562 27.414062 16.226562 C 26.152344 16.226562 25.128906 17.253906 25.128906 18.515625 C 25.128906 19.78125 26.152344 20.808594 27.414062 20.808594 C 28.675781 20.808594 29.699219 19.78125 29.699219 18.515625 L 29.652344 18.515625"/></svg>