<svg xmlns="http://www.w3.org/2000/svg" width="45" viewBox="0 0 45 45" height="45" version="1.0"><defs><clipPath id="a"><path d="M 12.792969 12 L 32.292969 12 L 32.292969 34 L 12.792969 34 Z M 12.792969 12"/></clipPath><clipPath id="b"><path d="M 14 10.222656 L 29 10.222656 L 29 16 L 14 16 Z M 14 10.222656"/></clipPath></defs><path fill="#FFF" d="M-4.5 -4.5H49.5V49.5H-4.5z"/><path fill="#FFF" d="M-4.5 -4.5H49.5V49.5H-4.5z"/><g clip-path="url(#a)"><path fill="#BE1931" d="M 25.519531 32.800781 C 27.757812 32.054688 29.472656 30.835938 29.472656 26.726562 C 29.472656 24.128906 32.226562 21.238281 32.226562 18.597656 C 32.226562 16.054688 29.246094 11.867188 22.476562 12.578125 C 15.515625 13.3125 12.855469 15.40625 12.855469 19.992188 C 12.855469 23.183594 16.277344 25.421875 18.101562 28.75 C 19.3125 30.957031 22.898438 34.964844 25.519531 32.800781 Z M 25.519531 32.800781"/></g><g clip-path="url(#b)"><path fill="#77B255" d="M 27.871094 12.539062 C 27.046875 11.863281 25.753906 11.535156 24.414062 11.453125 C 24.589844 11.429688 24.765625 11.402344 24.945312 11.390625 C 25.574219 11.351562 27.277344 10.59375 25.847656 10.6875 C 25.222656 10.726562 24.621094 10.855469 24.015625 10.960938 C 24.171875 10.863281 24.328125 10.761719 24.496094 10.675781 C 24.480469 10.222656 21.894531 10.222656 20.589844 11.316406 C 20.261719 11.246094 19.957031 10.871094 18.019531 10.871094 C 16.730469 10.871094 14.996094 11.472656 16.082031 11.519531 C 16.675781 11.546875 17.375 11.519531 17.28125 11.757812 C 16.859375 11.796875 14.792969 12.167969 14.792969 12.816406 C 14.792969 13.046875 16.574219 12.703125 16.730469 12.816406 C 15.617188 13.234375 14.792969 14.113281 14.792969 14.761719 C 14.792969 15.035156 16.21875 14.226562 16.730469 14.113281 C 16.082031 14.761719 15.824219 15.214844 15.863281 15.683594 C 15.886719 15.992188 17.40625 15.625 17.5625 15.574219 C 18.09375 15.398438 19.957031 14.761719 20.53125 13.808594 C 20.609375 13.996094 22.445312 14.679688 23.1875 14.761719 C 23.527344 14.796875 24.878906 14.9375 24.570312 14.300781 C 24.480469 14.113281 23.832031 13.464844 23.636719 12.832031 C 23.925781 12.820312 29 13.464844 27.871094 12.539062 Z M 27.871094 12.539062"/></g><path fill="#F4ABBA" d="M 16.949219 21.4375 C 16.859375 20.492188 15.308594 19.332031 15.441406 20.789062 C 15.53125 21.734375 17.082031 22.894531 16.949219 21.4375 Z M 21.765625 21.796875 C 21.71875 21.390625 21.582031 21.023438 21.320312 20.714844 C 21.019531 20.355469 20.625 20.476562 20.523438 20.917969 C 20.402344 21.433594 20.578125 22.054688 20.914062 22.453125 L 20.941406 22.484375 C 20.804688 22.144531 20.664062 21.804688 20.527344 21.464844 L 20.53125 21.496094 C 20.578125 21.910156 20.789062 22.617188 21.265625 22.730469 C 21.75 22.847656 21.796875 22.089844 21.765625 21.796875 Z M 25.480469 18.660156 C 25.785156 18.039062 25.589844 16.09375 24.941406 17.394531 C 24.636719 18.011719 24.832031 19.960938 25.480469 18.660156 Z M 30.136719 17.714844 C 30.117188 17.484375 30.089844 17.210938 29.882812 17.0625 C 29.117188 16.503906 28.34375 18.589844 28.988281 19.054688 C 29 19.0625 29.011719 19.074219 29.023438 19.082031 L 28.8125 18.484375 C 28.8125 18.496094 28.8125 18.507812 28.8125 18.519531 C 28.84375 18.886719 29.054688 19.410156 29.511719 19.132812 C 29.945312 18.871094 30.175781 18.199219 30.136719 17.714844 Z M 29.265625 23.265625 C 29.921875 22.25 28.914062 21.03125 28.117188 22.265625 C 27.460938 23.28125 28.46875 24.5 29.265625 23.265625 Z M 25.554688 25.140625 C 25.667969 23.886719 24.0625 23.359375 23.933594 24.820312 C 23.824219 26.074219 25.425781 26.601562 25.554688 25.140625 Z M 19.164062 24.355469 L 19.132812 24.359375 L 20.011719 24.820312 C 20.007812 24.820312 20.003906 24.8125 20 24.808594 C 19.804688 24.628906 19.125 24.109375 18.847656 24.425781 C 18.5625 24.75 19.167969 25.347656 19.367188 25.53125 C 19.585938 25.734375 19.964844 26.023438 20.289062 26.003906 C 21.214844 25.941406 19.78125 24.316406 19.164062 24.355469 Z M 27.707031 28.183594 C 28.332031 27.492188 28.175781 25.558594 27.191406 26.644531 C 26.566406 27.332031 26.722656 29.265625 27.707031 28.183594 Z M 19.054688 19.136719 C 19.113281 19.132812 19.175781 19.128906 19.234375 19.121094 C 19.6875 19.09375 19.882812 18.179688 19.90625 17.859375 C 19.933594 17.488281 19.878906 16.914062 19.398438 16.945312 L 19.21875 16.957031 C 18.765625 16.988281 18.570312 17.902344 18.546875 18.222656 C 18.515625 18.59375 18.574219 19.167969 19.054688 19.136719 Z M 24.121094 29.019531 C 24.375 29.515625 24.28125 30.070312 23.914062 30.261719 C 23.542969 30.457031 23.039062 30.210938 22.78125 29.71875 C 22.527344 29.222656 22.617188 28.664062 22.988281 28.472656 C 23.359375 28.28125 23.863281 28.527344 24.121094 29.019531 Z M 24.121094 29.019531"/></svg>