<?xml version="1.0" encoding="UTF-8"?><svg xmlns="http://www.w3.org/2000/svg" xmlns:xlink="http://www.w3.org/1999/xlink" contentScriptType="text/ecmascript" width="45" zoomAndPan="magnify" contentStyleType="text/css" viewBox="0 0 45 44.999999" height="44.999999" preserveAspectRatio="xMidYMid meet" version="1.0"><defs><clipPath id="clip-0"><path d="M 2.394531 13.089844 L 39.894531 13.089844 L 39.894531 35.589844 L 2.394531 35.589844 Z M 2.394531 13.089844 " clip-rule="nonzero"/></clipPath><clipPath id="clip-1"><path d="M 21 2 L 34 2 L 34 19 L 21 19 Z M 21 2 " clip-rule="nonzero"/></clipPath><clipPath id="clip-2"><path d="M 26.738281 2.191406 L 46.226562 10.003906 L 40.644531 23.929688 L 21.15625 16.113281 Z M 26.738281 2.191406 " clip-rule="nonzero"/></clipPath><clipPath id="clip-3"><path d="M 26.738281 2.191406 L 46.226562 10.003906 L 40.644531 23.929688 L 21.15625 16.113281 Z M 26.738281 2.191406 " clip-rule="nonzero"/></clipPath><clipPath id="clip-4"><path d="M 26.738281 2.191406 L 46.226562 10.003906 L 40.644531 23.929688 L 21.15625 16.113281 Z M 26.738281 2.191406 " clip-rule="nonzero"/></clipPath><clipPath id="clip-5"><path d="M 27 4 L 40 4 L 40 22 L 27 22 Z M 27 4 " clip-rule="nonzero"/></clipPath><clipPath id="clip-6"><path d="M 26.738281 2.191406 L 46.226562 10.003906 L 40.644531 23.929688 L 21.15625 16.113281 Z M 26.738281 2.191406 " clip-rule="nonzero"/></clipPath><clipPath id="clip-7"><path d="M 26.738281 2.191406 L 46.226562 10.003906 L 40.644531 23.929688 L 21.15625 16.113281 Z M 26.738281 2.191406 " clip-rule="nonzero"/></clipPath><clipPath id="clip-8"><path d="M 26.738281 2.191406 L 46.226562 10.003906 L 40.644531 23.929688 L 21.15625 16.113281 Z M 26.738281 2.191406 " clip-rule="nonzero"/></clipPath><clipPath id="clip-9"><path d="M 34 7 L 45 7 L 45 24 L 34 24 Z M 34 7 " clip-rule="nonzero"/></clipPath><clipPath id="clip-10"><path d="M 26.738281 2.191406 L 46.226562 10.003906 L 40.644531 23.929688 L 21.15625 16.113281 Z M 26.738281 2.191406 " clip-rule="nonzero"/></clipPath><clipPath id="clip-11"><path d="M 26.738281 2.191406 L 46.226562 10.003906 L 40.644531 23.929688 L 21.15625 16.113281 Z M 26.738281 2.191406 " clip-rule="nonzero"/></clipPath><clipPath id="clip-12"><path d="M 26.738281 2.191406 L 46.226562 10.003906 L 40.644531 23.929688 L 21.15625 16.113281 Z M 26.738281 2.191406 " clip-rule="nonzero"/></clipPath></defs><rect x="-4.5" width="54" fill="rgb(100%, 100%, 100%)" y="-4.5" height="53.999999" fill-opacity="1"/><rect x="-4.5" width="54" fill="rgb(100%, 100%, 100%)" y="-4.5" height="53.999999" fill-opacity="1"/><g clip-path="url(#clip-0)"><path fill="rgb(0%, 0%, 0%)" d="M 5.136719 13.480469 C 3.835938 13.480469 2.773438 14.539062 2.773438 15.839844 L 2.773438 32.835938 C 2.773438 34.136719 3.835938 35.195312 5.136719 35.195312 L 37.152344 35.195312 C 38.457031 35.195312 39.515625 34.136719 39.515625 32.835938 L 39.515625 15.839844 C 39.515625 14.539062 38.457031 13.480469 37.152344 13.480469 Z M 37.152344 35.574219 L 5.136719 35.574219 C 3.625 35.574219 2.394531 34.34375 2.394531 32.835938 L 2.394531 15.839844 C 2.394531 14.328125 3.625 13.101562 5.136719 13.101562 L 37.152344 13.101562 C 38.664062 13.101562 39.894531 14.328125 39.894531 15.839844 L 39.894531 32.835938 C 39.894531 34.34375 38.664062 35.574219 37.152344 35.574219 " fill-opacity="1" fill-rule="nonzero"/></g><path fill="rgb(0%, 0%, 0%)" d="M 11.082031 21.34375 C 9.679688 21.34375 8.535156 22.480469 8.535156 23.878906 C 8.535156 25.277344 9.679688 26.417969 11.082031 26.417969 C 12.484375 26.417969 13.625 25.277344 13.625 23.878906 C 13.625 22.480469 12.484375 21.34375 11.082031 21.34375 Z M 11.082031 26.796875 C 9.46875 26.796875 8.15625 25.488281 8.15625 23.878906 C 8.15625 22.273438 9.46875 20.964844 11.082031 20.964844 C 12.695312 20.964844 14.007812 22.273438 14.007812 23.878906 C 14.007812 25.488281 12.695312 26.796875 11.082031 26.796875 " fill-opacity="1" fill-rule="nonzero"/><path fill="rgb(0%, 0%, 0%)" d="M 7.886719 29.921875 C 7.878906 29.921875 7.867188 29.921875 7.859375 29.917969 C 7.757812 29.902344 7.683594 29.808594 7.699219 29.703125 C 7.933594 28.128906 8.519531 26.753906 9.3125 25.9375 C 9.386719 25.863281 9.507812 25.859375 9.582031 25.933594 C 9.65625 26.003906 9.660156 26.125 9.585938 26.199219 C 8.847656 26.960938 8.296875 28.261719 8.074219 29.757812 C 8.0625 29.851562 7.980469 29.921875 7.886719 29.921875 " fill-opacity="1" fill-rule="nonzero"/><path fill="rgb(0%, 0%, 0%)" d="M 14.277344 29.921875 C 14.179688 29.921875 14.097656 29.847656 14.085938 29.753906 C 13.863281 28.257812 13.316406 26.960938 12.578125 26.199219 C 12.503906 26.125 12.503906 26.003906 12.582031 25.933594 C 12.65625 25.859375 12.777344 25.863281 12.847656 25.9375 C 13.640625 26.753906 14.230469 28.128906 14.464844 29.703125 C 14.464844 29.714844 14.464844 29.722656 14.464844 29.730469 C 14.464844 29.835938 14.378906 29.921875 14.277344 29.921875 " fill-opacity="1" fill-rule="nonzero"/><path fill="rgb(0%, 0%, 0%)" d="M 11.082031 18.265625 C 9.453125 18.265625 7.921875 18.894531 6.773438 20.042969 C 5.621094 21.191406 4.988281 22.714844 4.988281 24.335938 C 4.988281 25.960938 5.621094 27.484375 6.773438 28.632812 C 7.921875 29.78125 9.453125 30.410156 11.082031 30.410156 C 12.707031 30.410156 14.238281 29.78125 15.390625 28.632812 C 16.539062 27.484375 17.175781 25.960938 17.175781 24.335938 C 17.175781 22.714844 16.539062 21.191406 15.390625 20.042969 C 14.238281 18.894531 12.707031 18.265625 11.082031 18.265625 Z M 11.082031 30.789062 C 9.351562 30.789062 7.726562 30.117188 6.503906 28.898438 C 5.28125 27.679688 4.609375 26.0625 4.609375 24.335938 C 4.609375 22.613281 5.28125 20.996094 6.503906 19.777344 C 7.726562 18.558594 9.351562 17.886719 11.082031 17.886719 C 12.808594 17.886719 14.4375 18.558594 15.65625 19.777344 C 16.878906 20.996094 17.554688 22.613281 17.554688 24.335938 C 17.554688 26.0625 16.878906 27.679688 15.65625 28.898438 C 14.4375 30.117188 12.808594 30.789062 11.082031 30.789062 " fill-opacity="1" fill-rule="nonzero"/><path fill="rgb(0%, 0%, 0%)" d="M 33.277344 17.929688 L 19.96875 17.929688 L 19.96875 17.550781 L 33.277344 17.550781 L 33.277344 17.929688 " fill-opacity="1" fill-rule="nonzero"/><path fill="rgb(0%, 0%, 0%)" d="M 23.292969 19.480469 L 19.96875 19.480469 L 19.96875 19.101562 L 23.292969 19.101562 L 23.292969 19.480469 " fill-opacity="1" fill-rule="nonzero"/><path fill="rgb(0%, 0%, 0%)" d="M 26.621094 21.03125 L 19.96875 21.03125 L 19.96875 20.652344 L 26.621094 20.652344 L 26.621094 21.03125 " fill-opacity="1" fill-rule="nonzero"/><path fill="rgb(0%, 0%, 0%)" d="M 21.476562 29.785156 L 19.96875 29.785156 L 19.96875 29.410156 L 21.476562 29.410156 L 21.476562 29.785156 " fill-opacity="1" fill-rule="nonzero"/><path fill="rgb(0%, 0%, 0%)" d="M 24.199219 29.785156 L 22.691406 29.785156 L 22.691406 29.410156 L 24.199219 29.410156 L 24.199219 29.785156 " fill-opacity="1" fill-rule="nonzero"/><path fill="rgb(0%, 0%, 0%)" d="M 26.917969 29.785156 L 25.414062 29.785156 L 25.414062 29.410156 L 26.917969 29.410156 L 26.917969 29.785156 " fill-opacity="1" fill-rule="nonzero"/><path fill="rgb(0%, 0%, 0%)" d="M 21.476562 31.125 L 19.96875 31.125 L 19.96875 30.746094 L 21.476562 30.746094 L 21.476562 31.125 " fill-opacity="1" fill-rule="nonzero"/><path fill="rgb(0%, 0%, 0%)" d="M 24.199219 31.125 L 22.691406 31.125 L 22.691406 30.746094 L 24.199219 30.746094 L 24.199219 31.125 " fill-opacity="1" fill-rule="nonzero"/><path fill="rgb(0%, 0%, 0%)" d="M 26.917969 31.125 L 25.414062 31.125 L 25.414062 30.746094 L 26.917969 30.746094 L 26.917969 31.125 " fill-opacity="1" fill-rule="nonzero"/><path fill="rgb(0%, 0%, 0%)" d="M 32.046875 29.785156 L 30.539062 29.785156 L 30.539062 29.410156 L 32.046875 29.410156 L 32.046875 29.785156 " fill-opacity="1" fill-rule="nonzero"/><path fill="rgb(0%, 0%, 0%)" d="M 34.769531 29.785156 L 33.261719 29.785156 L 33.261719 29.410156 L 34.769531 29.410156 L 34.769531 29.785156 " fill-opacity="1" fill-rule="nonzero"/><path fill="rgb(0%, 0%, 0%)" d="M 37.492188 29.785156 L 35.984375 29.785156 L 35.984375 29.410156 L 37.492188 29.410156 L 37.492188 29.785156 " fill-opacity="1" fill-rule="nonzero"/><path fill="rgb(0%, 0%, 0%)" d="M 32.046875 31.125 L 30.539062 31.125 L 30.539062 30.746094 L 32.046875 30.746094 L 32.046875 31.125 " fill-opacity="1" fill-rule="nonzero"/><path fill="rgb(0%, 0%, 0%)" d="M 34.769531 31.125 L 33.261719 31.125 L 33.261719 30.746094 L 34.769531 30.746094 L 34.769531 31.125 " fill-opacity="1" fill-rule="nonzero"/><path fill="rgb(0%, 0%, 0%)" d="M 37.492188 31.125 L 35.984375 31.125 L 35.984375 30.746094 L 37.492188 30.746094 L 37.492188 31.125 " fill-opacity="1" fill-rule="nonzero"/><g clip-path="url(#clip-1)"><g clip-path="url(#clip-2)"><g clip-path="url(#clip-3)"><g clip-path="url(#clip-4)"><path fill="rgb(7.839966%, 7.839966%, 7.839966%)" d="M 28.910156 3.0625 C 27.714844 2.582031 26.359375 3.152344 25.886719 4.335938 L 22.023438 13.972656 C 21.546875 15.15625 22.132812 16.503906 23.328125 16.984375 L 27.65625 18.71875 L 33.238281 4.796875 Z M 28.910156 3.0625 " fill-opacity="1" fill-rule="nonzero"/></g></g></g></g><g clip-path="url(#clip-5)"><g clip-path="url(#clip-6)"><g clip-path="url(#clip-7)"><g clip-path="url(#clip-8)"><path fill="rgb(99.609375%, 90.979004%, 19.999695%)" d="M 33.238281 4.796875 L 39.726562 7.398438 L 34.144531 21.320312 L 27.65625 18.71875 Z M 33.238281 4.796875 " fill-opacity="1" fill-rule="nonzero"/></g></g></g></g><g clip-path="url(#clip-9)"><g clip-path="url(#clip-10)"><g clip-path="url(#clip-11)"><g clip-path="url(#clip-12)"><path fill="rgb(93.328857%, 13.729858%, 17.248535%)" d="M 44.054688 9.132812 L 39.726562 7.398438 L 34.144531 21.320312 L 38.472656 23.058594 C 39.667969 23.535156 41.023438 22.964844 41.496094 21.78125 L 45.359375 12.144531 C 45.835938 10.960938 45.25 9.613281 44.054688 9.132812 Z M 44.054688 9.132812 " fill-opacity="1" fill-rule="nonzero"/></g></g></g></g></svg>