<?xml version="1.0" encoding="UTF-8"?><svg xmlns="http://www.w3.org/2000/svg" xmlns:xlink="http://www.w3.org/1999/xlink" contentScriptType="text/ecmascript" width="45" zoomAndPan="magnify" contentStyleType="text/css" viewBox="0 0 45 44.999999" height="44.999999" preserveAspectRatio="xMidYMid meet" version="1.0"><defs><clipPath id="clip-0"><path d="M 0.0078125 12.050781 L 40.492188 12.050781 L 40.492188 23.300781 L 0.0078125 23.300781 Z M 0.0078125 12.050781 " clip-rule="nonzero"/></clipPath><clipPath id="clip-1"><path d="M 21.105469 32.640625 L 44.945312 32.640625 L 44.945312 40.011719 L 21.105469 40.011719 Z M 21.105469 32.640625 " clip-rule="nonzero"/></clipPath><clipPath id="clip-2"><path d="M 20.195312 36.003906 L 44.945312 36.003906 L 44.945312 43.765625 L 20.195312 43.765625 Z M 20.195312 36.003906 " clip-rule="nonzero"/></clipPath><clipPath id="clip-3"><path d="M 34 14.515625 L 40 14.515625 L 40 19 L 34 19 Z M 34 14.515625 " clip-rule="nonzero"/></clipPath></defs><rect x="-4.5" width="54" fill="rgb(100%, 100%, 100%)" y="-4.5" height="53.999999" fill-opacity="1"/><rect x="-4.5" width="54" fill="rgb(100%, 100%, 100%)" y="-4.5" height="53.999999" fill-opacity="1"/><g clip-path="url(#clip-0)"><path fill="rgb(13.328552%, 12.548828%, 12.548828%)" d="M 27.808594 23.300781 L 28.917969 23.300781 L 28.917969 22.785156 L 28.953125 22.785156 L 29.078125 22.628906 L 29.339844 22.628906 L 29.339844 21.609375 L 29.578125 21.609375 L 29.578125 21.25 L 29.703125 21.074219 L 29.703125 21.015625 C 29.703125 21.011719 29.703125 21.003906 29.707031 21 C 29.757812 20.761719 29.941406 20.589844 30.179688 20.589844 C 30.207031 20.589844 30.238281 20.589844 30.265625 20.589844 L 30.445312 20.597656 L 30.445312 20.085938 L 30.46875 19.816406 L 31.449219 19.816406 L 31.449219 19.691406 L 31.488281 19.691406 L 31.488281 17.707031 L 31.589844 17.707031 L 31.589844 17.296875 L 31.660156 17.296875 L 31.660156 16.398438 L 31.722656 16.398438 L 31.722656 16.019531 C 31.722656 15.953125 31.78125 15.894531 31.847656 15.894531 C 31.914062 15.894531 31.96875 15.953125 31.96875 16.019531 L 31.96875 16.398438 L 32.03125 16.398438 L 32.03125 16.78125 L 32.359375 16.78125 L 32.40625 16.679688 C 32.441406 16.605469 32.484375 16.535156 32.53125 16.46875 C 32.683594 16.25 32.902344 16.074219 33.152344 15.988281 L 33.273438 15.945312 L 33.273438 15.808594 L 33.335938 15.808594 L 33.335938 15.351562 C 33.34375 15.273438 33.390625 15.160156 33.480469 15.15625 L 33.492188 15.15625 C 33.578125 15.160156 33.628906 15.273438 33.632812 15.351562 L 33.636719 15.355469 L 33.636719 15.808594 L 33.699219 15.808594 L 33.699219 15.945312 L 33.816406 15.988281 C 34.066406 16.074219 34.289062 16.25 34.441406 16.46875 C 34.488281 16.535156 34.527344 16.605469 34.566406 16.679688 L 34.613281 16.78125 L 34.941406 16.78125 L 34.941406 16.398438 L 35.003906 16.398438 L 35.003906 16.019531 C 35.003906 15.953125 35.058594 15.894531 35.125 15.894531 C 35.191406 15.894531 35.246094 15.953125 35.246094 16.019531 L 35.246094 16.398438 L 35.3125 16.398438 L 35.3125 17.296875 L 35.382812 17.296875 L 35.382812 17.707031 L 35.484375 17.707031 L 35.484375 19.691406 L 35.523438 19.691406 L 35.523438 19.816406 L 36.503906 19.816406 L 36.527344 20.085938 L 36.527344 20.597656 L 36.707031 20.589844 C 36.734375 20.589844 36.761719 20.589844 36.792969 20.589844 C 37.03125 20.589844 37.214844 20.761719 37.265625 21 C 37.265625 21.003906 37.269531 21.011719 37.269531 21.015625 L 37.269531 21.074219 L 37.390625 21.25 L 37.390625 21.609375 L 37.632812 21.609375 L 37.632812 22.628906 L 37.894531 22.628906 L 38.019531 22.785156 L 38.054688 22.785156 L 38.054688 23.300781 L 40.492188 23.300781 L 40.492188 23.121094 L 38.230469 23.121094 L 38.230469 22.746094 L 38.199219 22.746094 L 38.199219 22.722656 L 37.894531 22.347656 L 37.808594 22.453125 L 37.808594 21.429688 L 37.566406 21.429688 L 37.566406 21.1875 L 37.46875 21.050781 L 37.445312 21.015625 C 37.445312 21 37.441406 20.980469 37.4375 20.957031 C 37.371094 20.640625 37.113281 20.40625 36.792969 20.40625 C 36.761719 20.40625 36.730469 20.410156 36.703125 20.410156 L 36.703125 20.367188 L 36.726562 20.367188 L 36.667969 19.679688 L 36.65625 19.503906 L 36.554688 19.503906 L 36.566406 19.632812 L 35.699219 19.632812 L 35.699219 19.511719 L 35.660156 19.511719 L 35.660156 17.523438 L 35.558594 17.523438 L 35.558594 17.113281 L 35.488281 17.113281 L 35.488281 16.214844 L 35.421875 16.214844 L 35.421875 16.019531 C 35.421875 15.851562 35.289062 15.710938 35.125 15.710938 C 34.960938 15.710938 34.828125 15.851562 34.828125 16.019531 L 34.828125 16.214844 L 34.761719 16.214844 L 34.761719 16.601562 L 34.722656 16.601562 C 34.683594 16.515625 34.636719 16.4375 34.585938 16.363281 C 34.410156 16.109375 34.160156 15.914062 33.875 15.816406 L 33.875 15.660156 C 33.875 15.644531 33.863281 15.628906 33.847656 15.628906 L 33.8125 15.628906 L 33.8125 15.339844 L 33.808594 15.339844 C 33.796875 15.140625 33.664062 14.984375 33.5 14.972656 L 33.5 14.769531 L 33.550781 14.769531 C 33.558594 14.769531 33.566406 14.761719 33.566406 14.753906 C 33.566406 14.742188 33.558594 14.734375 33.550781 14.734375 L 33.5 14.734375 L 33.5 14.691406 C 33.5 14.679688 33.496094 14.671875 33.484375 14.671875 C 33.476562 14.671875 33.46875 14.679688 33.46875 14.691406 L 33.46875 14.734375 L 33.421875 14.734375 C 33.414062 14.734375 33.40625 14.742188 33.40625 14.753906 C 33.40625 14.761719 33.414062 14.769531 33.421875 14.769531 L 33.46875 14.769531 L 33.46875 14.972656 C 33.308594 14.984375 33.175781 15.140625 33.160156 15.339844 L 33.160156 15.628906 L 33.125 15.628906 C 33.109375 15.628906 33.097656 15.644531 33.097656 15.660156 L 33.097656 15.816406 C 32.8125 15.914062 32.5625 16.109375 32.386719 16.363281 C 32.335938 16.4375 32.289062 16.515625 32.25 16.601562 L 32.207031 16.601562 L 32.207031 16.214844 L 32.144531 16.214844 L 32.144531 16.019531 C 32.144531 15.851562 32.011719 15.710938 31.847656 15.710938 C 31.679688 15.710938 31.546875 15.851562 31.546875 16.019531 L 31.546875 16.214844 L 31.484375 16.214844 L 31.484375 17.113281 L 31.414062 17.113281 L 31.414062 17.523438 L 31.3125 17.523438 L 31.3125 19.511719 L 31.273438 19.511719 L 31.273438 19.632812 L 30.40625 19.632812 L 30.417969 19.503906 L 30.316406 19.503906 L 30.304688 19.679688 L 30.242188 20.367188 L 30.269531 20.367188 L 30.269531 20.410156 C 30.238281 20.410156 30.210938 20.40625 30.179688 20.40625 C 29.855469 20.40625 29.601562 20.640625 29.53125 20.957031 C 29.527344 20.980469 29.527344 21 29.527344 21.015625 L 29.503906 21.050781 L 29.40625 21.1875 L 29.402344 21.191406 L 29.402344 21.429688 L 29.164062 21.429688 L 29.164062 22.453125 L 29.078125 22.347656 L 28.773438 22.722656 L 28.773438 22.746094 L 28.742188 22.746094 L 28.742188 23.121094 L 27.984375 23.121094 L 27.984375 20.351562 L 27.9375 20.351562 L 27.9375 20.429688 L 27.859375 20.429688 L 27.859375 20.351562 L 27.808594 20.351562 L 27.808594 20.429688 L 27.730469 20.429688 L 27.730469 20.351562 L 27.679688 20.351562 L 27.679688 20.429688 L 27.601562 20.429688 L 27.601562 20.351562 L 27.554688 20.351562 L 27.554688 20.699219 L 27.472656 20.699219 L 26.699219 19.902344 L 26.6875 19.757812 L 26.675781 19.601562 L 26.664062 19.757812 L 26.652344 19.890625 L 25.53125 19.890625 L 25.53125 19.433594 L 25.570312 19.332031 L 25.59375 19.332031 L 25.59375 17.980469 L 25.535156 17.980469 L 25.535156 18.039062 L 25.492188 18.039062 L 25.492188 17.980469 L 25.429688 17.980469 L 25.429688 18.039062 L 25.386719 18.039062 L 25.386719 17.980469 L 25.351562 17.980469 L 25.351562 16.398438 L 25.371094 16.355469 L 25.371094 15.007812 L 25.324219 14.667969 L 25.257812 14.207031 L 25.191406 14.667969 L 25.183594 14.71875 L 25.183594 13.816406 L 25.234375 13.722656 L 25.234375 12.300781 L 25.230469 12.300781 L 25.214844 12.179688 L 25.199219 12.050781 L 25.179688 12.179688 L 25.164062 12.300781 L 25.160156 12.300781 L 25.160156 12.367188 L 24.820312 12.367188 L 24.820312 12.300781 L 24.816406 12.300781 L 24.800781 12.179688 L 24.78125 12.050781 L 24.765625 12.179688 L 24.75 12.300781 L 24.746094 12.300781 L 24.746094 12.367188 L 24.359375 12.367188 L 24.359375 12.300781 L 24.351562 12.300781 L 24.335938 12.179688 L 24.320312 12.050781 L 24.304688 12.179688 L 24.285156 12.300781 L 24.28125 12.300781 L 24.28125 12.367188 L 23.945312 12.367188 L 23.945312 12.300781 L 23.9375 12.300781 L 23.921875 12.179688 L 23.90625 12.050781 L 23.890625 12.179688 L 23.871094 12.300781 L 23.867188 12.300781 L 23.867188 13.722656 L 23.921875 13.816406 L 23.921875 14.71875 L 23.914062 14.667969 L 23.847656 14.207031 L 23.78125 14.667969 L 23.730469 15.007812 L 23.730469 16.355469 L 23.75 16.398438 L 23.75 17.980469 L 23.71875 17.980469 L 23.71875 18.039062 L 23.675781 18.039062 L 23.675781 17.980469 L 23.613281 17.980469 L 23.613281 18.039062 L 23.570312 18.039062 L 23.570312 17.980469 L 23.507812 17.980469 L 23.507812 19.332031 L 23.535156 19.332031 L 23.570312 19.433594 L 23.570312 19.890625 L 22.453125 19.890625 L 22.441406 19.757812 L 22.429688 19.601562 L 22.417969 19.757812 L 22.40625 19.902344 L 21.632812 20.699219 L 21.546875 20.699219 L 21.546875 20.351562 L 21.503906 20.351562 L 21.503906 20.429688 L 21.425781 20.429688 L 21.425781 20.351562 L 21.375 20.351562 L 21.375 20.429688 L 21.296875 20.429688 L 21.296875 20.351562 L 21.242188 20.351562 L 21.242188 20.429688 L 21.167969 20.429688 L 21.167969 20.351562 L 21.121094 20.351562 L 21.121094 23.121094 L 20.359375 23.121094 L 20.359375 20.886719 L 20.277344 20.886719 L 20.277344 20.511719 L 20.1875 20.511719 L 20.179688 20.472656 L 19.890625 19.273438 L 14.910156 19.273438 C 14.914062 19.257812 14.914062 19.25 14.914062 19.25 C 14.867188 19.246094 14.839844 19.183594 14.828125 19.109375 L 14.804688 19.109375 L 14.804688 18.871094 L 14.777344 18.59375 L 14.757812 18.3125 L 14.730469 18.59375 L 14.707031 18.871094 L 14.707031 18.898438 L 14.683594 18.898438 C 14.675781 18.824219 14.640625 18.753906 14.585938 18.710938 L 14.484375 18.710938 L 14.410156 17.882812 L 14.335938 18.710938 L 14.238281 18.710938 C 14.183594 18.753906 14.148438 18.824219 14.140625 18.898438 L 14.113281 18.898438 L 14.113281 18.871094 L 14.089844 18.59375 L 14.066406 18.3125 L 14.042969 18.59375 L 14.019531 18.871094 L 14.019531 19.109375 L 13.996094 19.109375 C 13.984375 19.183594 13.957031 19.246094 13.90625 19.25 C 13.90625 19.25 13.910156 19.257812 13.914062 19.273438 L 13.492188 19.273438 L 13.492188 16.570312 L 13.476562 16.570312 L 13.476562 16.222656 L 13.464844 16.222656 L 13.445312 16 L 13.417969 15.761719 L 13.394531 16 L 13.375 16.222656 L 13.363281 16.222656 L 13.363281 16.40625 L 13.3125 16.40625 L 13.3125 15.941406 L 13.253906 15.941406 L 13.253906 15.542969 L 13.207031 15.542969 L 13.207031 14.777344 L 13.15625 14.777344 L 13.15625 14.824219 L 13.125 14.824219 L 13.125 14.503906 L 13.066406 14.503906 L 13.066406 14.058594 L 12.976562 14.058594 L 12.976562 13.703125 C 12.957031 13.671875 12.925781 13.648438 12.890625 13.648438 L 12.890625 13.625 C 12.90625 13.625 12.914062 13.613281 12.914062 13.597656 C 12.914062 13.585938 12.90625 13.574219 12.890625 13.570312 L 12.890625 13.507812 C 12.902344 13.503906 12.90625 13.496094 12.90625 13.488281 C 12.90625 13.480469 12.902344 13.472656 12.890625 13.46875 L 12.890625 13.347656 C 12.890625 13.347656 12.890625 13.34375 12.886719 13.34375 C 12.886719 13.34375 12.882812 13.347656 12.882812 13.347656 L 12.882812 13.46875 C 12.875 13.472656 12.871094 13.480469 12.871094 13.488281 C 12.871094 13.496094 12.875 13.503906 12.882812 13.507812 L 12.882812 13.570312 C 12.871094 13.574219 12.859375 13.585938 12.859375 13.597656 C 12.859375 13.613281 12.871094 13.625 12.882812 13.625 L 12.882812 13.648438 C 12.851562 13.648438 12.820312 13.671875 12.800781 13.703125 L 12.800781 14.058594 L 12.707031 14.058594 L 12.707031 14.503906 L 12.652344 14.503906 L 12.652344 14.824219 L 12.621094 14.824219 L 12.621094 14.777344 L 12.570312 14.777344 L 12.570312 15.542969 L 12.523438 15.542969 L 12.523438 15.941406 L 12.464844 15.941406 L 12.464844 16.40625 L 12.414062 16.40625 L 12.414062 16.222656 L 12.402344 16.222656 L 12.378906 16 L 12.355469 15.761719 L 12.332031 16 L 12.3125 16.222656 L 12.300781 16.222656 L 12.300781 16.570312 L 12.285156 16.570312 L 12.285156 19.273438 L 8.933594 19.273438 L 8.644531 20.472656 L 8.636719 20.511719 L 8.546875 20.511719 L 8.546875 20.886719 L 8.464844 20.886719 L 8.464844 23.121094 L 7.699219 23.121094 L 7.699219 17.695312 L 7.605469 17.203125 L 7.570312 17.035156 L 7.570312 14.484375 C 7.570312 14.480469 7.570312 14.480469 7.570312 14.476562 C 7.515625 14.511719 7.457031 14.535156 7.390625 14.546875 L 7.390625 14.722656 L 7.238281 14.722656 L 7.238281 14.546875 C 7.175781 14.539062 7.113281 14.511719 7.058594 14.480469 L 7.058594 14.722656 L 6.636719 14.722656 L 6.636719 14.488281 L 6.496094 14.488281 L 6.496094 14.722656 L 6.070312 14.722656 L 6.070312 14.648438 C 6.066406 14.597656 6.027344 14.558594 5.976562 14.558594 C 5.925781 14.558594 5.882812 14.601562 5.882812 14.652344 L 5.882812 18.265625 L 5.625 17.882812 L 5.628906 17.757812 L 5.628906 17.425781 L 5.644531 17.425781 L 5.617188 17.246094 L 5.601562 17.148438 L 5.601562 17.113281 L 5.625 17.113281 C 5.628906 17.113281 5.632812 17.109375 5.632812 17.109375 C 5.636719 17.105469 5.636719 17.101562 5.636719 17.097656 C 5.636719 17.09375 5.636719 17.09375 5.632812 17.089844 C 5.632812 17.085938 5.628906 17.085938 5.625 17.085938 L 5.601562 17.085938 L 5.601562 17.058594 C 5.601562 17.054688 5.601562 17.050781 5.597656 17.050781 C 5.597656 17.046875 5.59375 17.046875 5.589844 17.046875 C 5.585938 17.046875 5.582031 17.046875 5.582031 17.050781 C 5.578125 17.050781 5.578125 17.054688 5.578125 17.058594 L 5.578125 17.085938 L 5.554688 17.085938 C 5.550781 17.085938 5.546875 17.085938 5.546875 17.089844 C 5.542969 17.09375 5.542969 17.09375 5.542969 17.097656 C 5.542969 17.101562 5.542969 17.105469 5.546875 17.109375 C 5.546875 17.109375 5.550781 17.113281 5.554688 17.113281 L 5.578125 17.113281 L 5.578125 17.148438 L 5.5625 17.246094 L 5.535156 17.425781 L 5.550781 17.425781 L 5.550781 17.769531 L 5.453125 17.625 L 5.394531 17.535156 L 5.394531 17.121094 L 5.414062 17.121094 L 5.386719 16.945312 L 5.371094 16.84375 L 5.371094 16.808594 L 5.394531 16.808594 C 5.398438 16.808594 5.398438 16.808594 5.402344 16.804688 C 5.40625 16.804688 5.40625 16.800781 5.40625 16.796875 C 5.40625 16.792969 5.40625 16.789062 5.402344 16.789062 C 5.398438 16.785156 5.398438 16.785156 5.394531 16.785156 L 5.371094 16.785156 L 5.371094 16.753906 C 5.371094 16.75 5.367188 16.75 5.367188 16.746094 C 5.363281 16.742188 5.359375 16.742188 5.359375 16.742188 C 5.355469 16.742188 5.351562 16.742188 5.347656 16.746094 C 5.347656 16.75 5.347656 16.75 5.347656 16.753906 L 5.347656 16.785156 L 5.324219 16.785156 C 5.320312 16.785156 5.316406 16.785156 5.3125 16.789062 C 5.3125 16.789062 5.308594 16.792969 5.308594 16.796875 C 5.308594 16.800781 5.3125 16.804688 5.3125 16.804688 C 5.316406 16.808594 5.320312 16.808594 5.324219 16.808594 L 5.347656 16.808594 L 5.347656 16.84375 L 5.328125 16.945312 L 5.300781 17.121094 L 5.320312 17.121094 L 5.320312 17.421875 L 5.074219 17.050781 L 5.074219 16.597656 L 5.039062 16.253906 L 5 15.882812 L 4.960938 16.253906 L 4.925781 16.597656 L 4.925781 17.050781 L 4.679688 17.421875 L 4.679688 17.121094 L 4.699219 17.121094 L 4.671875 16.945312 L 4.652344 16.84375 L 4.652344 16.808594 L 4.675781 16.808594 C 4.679688 16.808594 4.683594 16.808594 4.6875 16.804688 C 4.6875 16.804688 4.691406 16.800781 4.691406 16.796875 C 4.691406 16.792969 4.6875 16.789062 4.6875 16.789062 C 4.683594 16.785156 4.679688 16.785156 4.675781 16.785156 L 4.652344 16.785156 L 4.652344 16.753906 C 4.652344 16.75 4.652344 16.75 4.652344 16.746094 C 4.648438 16.742188 4.644531 16.742188 4.640625 16.742188 C 4.640625 16.742188 4.636719 16.742188 4.632812 16.746094 C 4.632812 16.75 4.628906 16.75 4.628906 16.753906 L 4.628906 16.785156 L 4.605469 16.785156 C 4.601562 16.785156 4.601562 16.785156 4.597656 16.789062 C 4.59375 16.789062 4.59375 16.792969 4.59375 16.796875 C 4.59375 16.800781 4.59375 16.804688 4.597656 16.804688 C 4.601562 16.808594 4.601562 16.808594 4.605469 16.808594 L 4.628906 16.808594 L 4.628906 16.84375 L 4.613281 16.945312 L 4.585938 17.121094 L 4.605469 17.121094 L 4.605469 17.535156 L 4.542969 17.625 L 4.449219 17.769531 L 4.449219 17.425781 L 4.464844 17.425781 L 4.4375 17.246094 L 4.421875 17.148438 L 4.421875 17.113281 L 4.445312 17.113281 C 4.449219 17.113281 4.453125 17.109375 4.453125 17.109375 C 4.457031 17.105469 4.457031 17.101562 4.457031 17.097656 C 4.457031 17.09375 4.457031 17.09375 4.453125 17.089844 C 4.453125 17.085938 4.449219 17.085938 4.445312 17.085938 L 4.421875 17.085938 L 4.421875 17.058594 C 4.421875 17.054688 4.421875 17.050781 4.417969 17.050781 C 4.417969 17.046875 4.414062 17.046875 4.410156 17.046875 C 4.40625 17.046875 4.402344 17.046875 4.402344 17.050781 C 4.398438 17.050781 4.398438 17.054688 4.398438 17.058594 L 4.398438 17.085938 L 4.375 17.085938 C 4.371094 17.085938 4.367188 17.085938 4.367188 17.089844 C 4.363281 17.09375 4.363281 17.09375 4.363281 17.097656 C 4.363281 17.101562 4.363281 17.105469 4.367188 17.109375 C 4.367188 17.109375 4.371094 17.113281 4.375 17.113281 L 4.398438 17.113281 L 4.398438 17.148438 L 4.382812 17.246094 L 4.355469 17.425781 L 4.371094 17.425781 L 4.371094 17.757812 L 4.375 17.882812 L 4.117188 18.265625 L 4.117188 14.652344 C 4.117188 14.601562 4.074219 14.558594 4.023438 14.558594 C 3.972656 14.558594 3.933594 14.597656 3.929688 14.648438 L 3.929688 14.722656 L 3.503906 14.722656 L 3.503906 14.488281 L 3.363281 14.488281 L 3.363281 14.722656 L 2.941406 14.722656 L 2.941406 14.480469 C 2.886719 14.511719 2.824219 14.539062 2.761719 14.546875 L 2.761719 14.722656 L 2.609375 14.722656 L 2.609375 14.546875 C 2.542969 14.535156 2.484375 14.511719 2.429688 14.476562 C 2.429688 14.480469 2.429688 14.480469 2.429688 14.484375 L 2.429688 17.035156 L 2.394531 17.203125 L 2.300781 17.695312 L 2.300781 23.121094 L 0.0078125 23.121094 L 0.0078125 23.300781 L 2.476562 23.300781 L 2.476562 17.714844 L 2.605469 17.054688 L 2.605469 14.902344 L 3.941406 14.902344 L 3.941406 18.421875 L 4.226562 18.421875 L 4.878906 17.441406 L 5 17.253906 L 5.121094 17.441406 L 5.773438 18.421875 L 6.058594 18.421875 L 6.058594 14.902344 L 7.394531 14.902344 L 7.394531 17.054688 L 7.523438 17.714844 L 7.523438 23.300781 L 8.640625 23.300781 L 8.640625 21.066406 L 8.722656 21.066406 L 8.722656 20.695312 L 8.777344 20.695312 L 8.816406 20.515625 L 9.070312 19.457031 L 12.460938 19.457031 L 12.460938 16.75 L 12.476562 16.75 L 12.476562 16.589844 L 12.640625 16.589844 L 12.640625 16.125 L 12.699219 16.125 L 12.699219 15.722656 L 12.746094 15.722656 L 12.746094 15.003906 L 12.828125 15.003906 L 12.828125 14.1875 L 12.945312 14.1875 L 12.945312 15.003906 L 13.03125 15.003906 L 13.03125 15.722656 L 13.078125 15.722656 L 13.078125 16.125 L 13.136719 16.125 L 13.136719 16.589844 L 13.300781 16.589844 L 13.300781 16.75 L 13.316406 16.75 L 13.316406 19.457031 L 14.089844 19.457031 L 14.089844 19.292969 L 14.195312 19.292969 L 14.195312 19.078125 L 14.296875 19.078125 L 14.316406 18.914062 C 14.316406 18.890625 14.328125 18.867188 14.347656 18.847656 L 14.410156 18.796875 L 14.472656 18.847656 C 14.492188 18.867188 14.507812 18.890625 14.507812 18.914062 L 14.523438 19.078125 L 14.628906 19.078125 L 14.628906 19.292969 L 14.734375 19.292969 L 14.734375 19.457031 L 19.753906 19.457031 L 20.007812 20.515625 L 20.046875 20.695312 L 20.101562 20.695312 L 20.101562 21.066406 L 20.183594 21.066406 L 20.183594 23.300781 L 21.296875 23.300781 L 21.296875 20.613281 L 21.371094 20.613281 L 21.371094 20.882812 L 21.703125 20.882812 L 22.488281 20.074219 L 23.75 20.074219 L 23.75 19.402344 L 23.6875 19.234375 L 23.6875 18.222656 L 23.894531 18.222656 L 23.894531 18.164062 L 23.929688 18.164062 L 23.929688 16.351562 L 23.90625 16.3125 L 23.90625 15.019531 L 23.925781 14.863281 L 24.097656 14.863281 L 24.097656 13.765625 L 24.042969 13.671875 L 24.042969 12.550781 L 25.058594 12.550781 L 25.058594 13.671875 L 25.007812 13.765625 L 25.007812 14.863281 L 25.179688 14.863281 L 25.195312 15.019531 L 25.195312 16.3125 L 25.175781 16.351562 L 25.175781 18.164062 L 25.210938 18.164062 L 25.210938 18.222656 L 25.417969 18.222656 L 25.417969 19.234375 L 25.355469 19.402344 L 25.355469 20.074219 L 26.613281 20.074219 L 27.398438 20.882812 L 27.730469 20.882812 L 27.730469 20.613281 L 27.808594 20.613281 L 27.808594 23.300781 " fill-opacity="1" fill-rule="evenodd"/></g><g clip-path="url(#clip-1)"><path fill="rgb(0.389099%, 67.449951%, 80.389404%)" d="M 38.832031 35.007812 C 39.894531 35.269531 40.824219 35.453125 41.785156 35.816406 C 42.5 36.082031 45.492188 36.636719 44.808594 37.816406 C 44.355469 38.59375 43.078125 38.757812 42.292969 38.875 C 41.210938 39.039062 40.242188 39.5 39.195312 39.65625 C 37.59375 39.898438 35.929688 39.996094 34.238281 40.011719 C 32.410156 40.003906 30.617188 39.957031 28.9375 39.710938 C 28.457031 39.640625 27.960938 39.535156 27.441406 39.394531 C 26.234375 39.0625 24.976562 38.566406 23.707031 38.078125 C 22.816406 37.730469 21.808594 37.414062 21.113281 36.867188 C 21.429688 36.441406 22.078125 36.183594 22.480469 35.808594 C 22.90625 35.414062 23.429688 35.203125 23.984375 34.925781 C 25.902344 33.925781 28.398438 32.539062 30.8125 32.707031 C 31.890625 32.820312 32.953125 33.160156 33.980469 33.511719 C 35.660156 34.085938 37.285156 34.636719 38.832031 35.007812 " fill-opacity="1" fill-rule="nonzero"/></g><g clip-path="url(#clip-2)"><path fill="rgb(0%, 67.059326%, 79.219055%)" d="M 42.898438 39.609375 C 42.535156 39.882812 42.179688 40.152344 41.800781 40.398438 C 40.035156 41.542969 38.078125 42.652344 35.984375 43.472656 C 34.574219 44.03125 33.398438 43.675781 32.109375 43.335938 C 30.644531 42.9375 29.285156 42.246094 27.886719 41.550781 C 26.953125 41.085938 25.878906 40.625 24.8125 40.019531 C 23.777344 39.484375 22.675781 39.167969 21.601562 38.652344 C 21.222656 38.46875 20.253906 37.972656 20.199219 37.628906 C 20.15625 37.351562 20.445312 37.246094 20.683594 37.078125 C 21.433594 36.554688 21.898438 35.851562 23.125 36.058594 C 23.574219 36.136719 23.890625 36.394531 24.34375 36.496094 C 24.847656 36.609375 25.375 36.5625 25.832031 36.449219 C 26.304688 36.890625 26.691406 37.207031 27.382812 37.433594 C 27.523438 37.480469 27.597656 37.503906 27.742188 37.511719 C 28.03125 37.527344 28.007812 37.539062 28.269531 37.726562 C 28.816406 38.132812 29.363281 38.394531 30 38.554688 C 30.265625 38.621094 30.570312 38.71875 30.847656 38.722656 C 31.011719 38.726562 31.152344 38.640625 31.308594 38.722656 C 31.640625 38.894531 31.847656 39.125 32.210938 39.234375 C 32.585938 39.347656 32.917969 39.515625 33.324219 39.515625 C 33.472656 39.515625 33.648438 39.414062 33.78125 39.421875 C 33.929688 39.429688 34.085938 39.574219 34.246094 39.605469 C 34.472656 39.648438 34.726562 39.726562 34.96875 39.714844 C 35.34375 39.699219 35.726562 39.734375 36.097656 39.636719 C 36.597656 39.507812 37.070312 39.4375 37.539062 39.230469 C 37.6875 39.164062 37.875 39.058594 38 39.054688 C 38.09375 39.054688 38.167969 39.125 38.296875 39.109375 C 38.695312 39.050781 39.1875 38.574219 39.457031 38.335938 C 39.585938 38.226562 39.683594 38.105469 39.796875 37.988281 C 40.050781 38.140625 40.304688 37.714844 40.449219 37.597656 C 40.554688 37.507812 40.707031 37.457031 40.816406 37.371094 C 40.886719 37.3125 40.898438 37.246094 40.984375 37.210938 C 40.792969 37.292969 41.855469 37.609375 41.945312 37.613281 C 42.324219 37.640625 42.753906 37.605469 43.148438 37.53125 C 43.558594 37.460938 45.203125 37.015625 44.914062 37.871094 C 44.789062 38.234375 44.285156 38.59375 43.957031 38.820312 C 43.589844 39.078125 43.242188 39.34375 42.898438 39.609375 " fill-opacity="1" fill-rule="nonzero"/></g><path fill="rgb(49.409485%, 45.098877%, 23.529053%)" d="M 36.15625 22.546875 C 35.796875 22.851562 35.261719 22.957031 34.824219 23.089844 C 34.457031 23.203125 34.089844 23.363281 33.710938 23.429688 C 33.488281 23.472656 33.28125 23.457031 33.0625 23.535156 C 32.777344 23.644531 32.046875 24.070312 32.105469 23.425781 C 32.148438 22.925781 32.441406 22.5 32.800781 22.160156 C 33.089844 21.886719 33.347656 21.5625 33.664062 21.320312 C 34.3125 20.820312 35.207031 20.515625 36.023438 20.464844 C 36.082031 21.101562 36.261719 21.894531 36.15625 22.546875 " fill-opacity="1" fill-rule="nonzero"/><path fill="rgb(49.409485%, 45.098877%, 23.529053%)" d="M 33.140625 22.992188 C 33.492188 23.003906 33.5625 24.253906 33.589844 24.488281 C 33.625 24.742188 33.636719 25.011719 33.699219 25.265625 C 33.816406 25.734375 34.175781 26.152344 34.109375 26.65625 C 34.0625 27.015625 33.679688 27.265625 33.363281 27 C 33.207031 26.867188 33.09375 26.660156 32.941406 26.515625 C 32.785156 26.367188 32.707031 26.230469 32.613281 26.027344 C 32.390625 25.527344 32.222656 25.003906 32.160156 24.453125 C 32.136719 24.265625 32.085938 23.226562 32.210938 23.203125 C 32.460938 22.914062 32.761719 22.984375 33.140625 22.992188 " fill-opacity="1" fill-rule="nonzero"/><path fill="rgb(49.409485%, 45.098877%, 23.529053%)" d="M 33.261719 26.558594 C 32.910156 26.777344 32.785156 27.328125 32.84375 27.710938 C 32.886719 27.984375 33.601562 27.292969 33.632812 27.257812 C 33.753906 27.105469 33.90625 27.015625 34.027344 26.878906 C 34.4375 26.410156 33.679688 26.304688 33.339844 26.386719 C 33.332031 26.414062 33.339844 26.433594 33.261719 26.558594 " fill-opacity="1" fill-rule="nonzero"/><path fill="rgb(50.588989%, 62.748718%, 58.428955%)" d="M 41.222656 33.371094 C 41.257812 32.175781 40.253906 31.273438 39.277344 30.753906 C 38.238281 30.199219 37.054688 29.933594 35.886719 29.851562 C 34.664062 29.769531 33.410156 29.886719 32.242188 30.257812 C 31.136719 30.605469 29.941406 31.21875 29.371094 32.273438 C 29.117188 32.742188 29.097656 33.207031 29.097656 33.726562 C 29.097656 34.226562 29.097656 34.726562 29.097656 35.226562 C 29.097656 35.746094 29.109375 36.214844 29.355469 36.683594 C 29.640625 37.222656 30.109375 37.648438 30.617188 37.980469 C 32.613281 39.277344 35.386719 39.433594 37.644531 38.851562 C 38.785156 38.554688 39.996094 38.019531 40.722656 37.0625 C 41.371094 36.199219 41.222656 35.152344 41.222656 34.136719 C 41.222656 33.882812 41.230469 33.625 41.222656 33.371094 " fill-opacity="1" fill-rule="nonzero"/><path fill="rgb(68.629456%, 81.959534%, 76.078796%)" d="M 39.449219 30.847656 C 41.816406 32.210938 41.816406 34.414062 39.449219 35.777344 C 37.078125 37.136719 33.238281 37.136719 30.871094 35.777344 C 28.503906 34.414062 28.503906 32.210938 30.871094 30.847656 C 33.238281 29.488281 37.078125 29.488281 39.449219 30.847656 " fill-opacity="1" fill-rule="nonzero"/><path fill="rgb(45.489502%, 42.349243%, 19.999695%)" d="M 36.660156 34.773438 C 37.039062 34.742188 37.414062 34.472656 37.605469 34.171875 C 37.792969 33.878906 38.125 33.386719 37.984375 33.027344 C 37.929688 32.882812 37.871094 32.851562 37.722656 32.835938 C 37.574219 32.816406 37.253906 32.847656 37.105469 32.871094 C 36.824219 32.914062 36.742188 33.042969 36.558594 33.226562 C 36.324219 33.460938 36.03125 33.558594 35.757812 33.726562 C 35.425781 33.929688 35.390625 34.59375 35.789062 34.761719 C 35.996094 34.847656 36.429688 34.792969 36.660156 34.773438 " fill-opacity="1" fill-rule="nonzero"/><path fill="rgb(45.489502%, 42.349243%, 19.999695%)" d="M 34.25 31.566406 C 34.742188 31.710938 34.480469 32.308594 34.207031 32.558594 C 33.820312 32.917969 33.132812 33.101562 32.609375 33.121094 C 31.898438 33.148438 31.515625 32.695312 32.101562 32.113281 C 32.308594 31.902344 32.636719 31.832031 32.910156 31.753906 C 33.316406 31.636719 33.828125 31.441406 34.25 31.566406 " fill-opacity="1" fill-rule="nonzero"/><path fill="rgb(45.489502%, 42.349243%, 19.999695%)" d="M 33.109375 31.054688 C 33.007812 30.765625 32.929688 30.464844 32.820312 30.179688 C 32.699219 29.859375 32.5 29.621094 32.433594 29.277344 C 32.308594 28.628906 32.511719 28.425781 33.074219 28.152344 C 33.371094 28.007812 34.109375 27.933594 34.386719 28.195312 C 34.703125 28.496094 34.621094 28.992188 34.570312 29.371094 C 34.503906 29.839844 34.441406 30.316406 34.425781 30.789062 C 34.410156 31.089844 34.570312 31.597656 34.359375 31.84375 C 33.839844 32.449219 33.242188 31.441406 33.109375 31.054688 " fill-opacity="1" fill-rule="nonzero"/><path fill="rgb(45.489502%, 42.349243%, 19.999695%)" d="M 38.285156 30.296875 C 38.304688 30.425781 38.304688 30.558594 38.285156 30.691406 C 38.238281 30.964844 38.246094 31.234375 38.214844 31.511719 C 38.171875 31.867188 37.921875 32.167969 37.894531 32.523438 C 37.871094 32.773438 38.015625 33.136719 37.789062 33.332031 C 37.582031 33.503906 37.039062 33.457031 36.851562 33.292969 C 36.699219 33.15625 36.605469 32.910156 36.5625 32.722656 C 36.402344 32.046875 36.109375 31.398438 35.980469 30.714844 C 35.898438 30.273438 35.800781 29.644531 36.207031 29.34375 C 36.53125 29.105469 37.398438 28.738281 37.773438 29.046875 C 37.933594 29.175781 38.050781 29.570312 38.128906 29.757812 C 38.203125 29.933594 38.261719 30.113281 38.285156 30.296875 " fill-opacity="1" fill-rule="nonzero"/><path fill="rgb(45.489502%, 42.349243%, 19.999695%)" d="M 35.984375 27.863281 C 35.71875 28.089844 35.421875 28.257812 35.136719 28.453125 C 34.925781 28.59375 34.808594 28.789062 34.617188 28.941406 C 34.152344 29.320312 33.515625 29.4375 32.953125 29.226562 C 32.429688 29.027344 32.5 28.46875 32.703125 28.050781 C 32.941406 27.5625 33.261719 26.984375 33.695312 26.636719 C 34.1875 26.234375 34.769531 25.832031 35.382812 25.625 C 35.601562 25.550781 35.914062 25.433594 36.128906 25.5625 C 36.417969 25.738281 36.457031 26.394531 36.46875 26.699219 C 36.480469 27.152344 36.335938 27.558594 35.984375 27.863281 " fill-opacity="1" fill-rule="nonzero"/><path fill="rgb(45.489502%, 42.349243%, 19.999695%)" d="M 38.1875 29.03125 C 38.03125 29.851562 37.550781 31.179688 36.425781 30.78125 C 36.082031 30.660156 35.933594 30.386719 35.828125 30.058594 C 35.566406 29.242188 35.785156 28.386719 35.832031 27.550781 C 35.871094 26.820312 36.515625 26.285156 37.195312 26.152344 C 37.640625 26.066406 37.804688 26.191406 38.039062 26.53125 C 38.339844 26.960938 38.464844 27.121094 38.460938 27.667969 C 38.453125 28.132812 38.28125 28.542969 38.195312 29.003906 C 38.191406 29.011719 38.191406 29.019531 38.1875 29.03125 " fill-opacity="1" fill-rule="nonzero"/><path fill="rgb(45.489502%, 42.349243%, 19.999695%)" d="M 38.839844 27.0625 C 38.875 26.597656 38.835938 26.128906 38.84375 25.667969 C 38.851562 25.285156 38.988281 24.902344 39.074219 24.527344 C 39.199219 23.953125 39.335938 23.339844 39.398438 22.761719 C 39.460938 22.167969 39.445312 21.484375 39.164062 20.945312 C 38.398438 19.472656 36.503906 19.976562 35.417969 20.6875 C 35.054688 20.929688 34.75 21.1875 34.570312 21.597656 C 34.425781 21.929688 34.503906 22.269531 34.492188 22.621094 C 34.449219 24.027344 33.675781 25.234375 34.171875 26.667969 C 35.007812 26.667969 35.753906 26.695312 36.453125 27.183594 C 36.664062 27.332031 36.886719 27.46875 37.089844 27.625 C 37.445312 27.898438 37.699219 28.523438 38.230469 28.347656 C 38.53125 28.25 38.664062 27.933594 38.742188 27.652344 C 38.796875 27.457031 38.824219 27.261719 38.839844 27.0625 " fill-opacity="1" fill-rule="nonzero"/><path fill="rgb(49.409485%, 45.098877%, 23.529053%)" d="M 39.121094 21.070312 C 39.789062 21.730469 39.851562 22.410156 39.886719 23.316406 C 39.90625 23.761719 39.898438 24.167969 39.691406 24.5625 C 39.421875 25.117188 39.527344 26.023438 39.082031 26.453125 C 38.65625 26.859375 38.019531 26.992188 37.484375 27.101562 C 36.921875 27.222656 36.5 27.464844 35.988281 27.722656 C 35.792969 27.8125 35.289062 27.90625 35.105469 27.6875 C 34.746094 27.257812 35.554688 26.886719 35.386719 26.609375 C 35.660156 26.289062 35.96875 26.21875 36.285156 26.277344 C 36.738281 26.367188 36.886719 25.976562 37.222656 25.753906 C 37.550781 25.539062 37.945312 25.46875 38.070312 24.890625 C 38.292969 23.871094 37.535156 21.117188 39.121094 21.070312 " fill-opacity="1" fill-rule="nonzero"/><path fill="rgb(49.409485%, 45.098877%, 23.529053%)" d="M 34.695312 16.371094 C 34.214844 16.8125 34.121094 18.007812 34.617188 18.492188 C 34.820312 18.6875 34.941406 18.597656 34.941406 18.941406 C 34.9375 19.195312 34.902344 19.355469 35.015625 19.582031 C 35.308594 20.1875 35.238281 20.847656 35.859375 21.269531 C 36.492188 21.699219 37.410156 21.234375 37.953125 20.871094 C 38.292969 20.640625 38.375 20.394531 38.609375 20.078125 C 38.859375 19.746094 39.191406 19.460938 39.328125 19.054688 C 39.40625 18.816406 39.449219 18.386719 39.195312 18.230469 C 39.054688 18.140625 38.863281 18.167969 38.769531 18.304688 C 39.023438 17.828125 38.945312 16.914062 38.691406 16.449219 C 37.984375 15.148438 35.578125 15.5625 34.695312 16.371094 " fill-opacity="1" fill-rule="nonzero"/><g clip-path="url(#clip-3)"><path fill="rgb(45.489502%, 42.349243%, 19.999695%)" d="M 39.355469 16.65625 C 39.328125 16.574219 39.226562 16.574219 39.191406 16.503906 C 39.160156 16.445312 39.195312 16.320312 39.164062 16.246094 C 39.136719 16.171875 39.0625 16.101562 39.035156 16.035156 C 38.988281 15.933594 39.011719 15.816406 38.925781 15.71875 C 38.859375 15.644531 38.71875 15.652344 38.667969 15.589844 C 38.527344 15.417969 38.601562 15.257812 38.351562 15.109375 C 38.273438 15.066406 38.125 15.085938 38.066406 15.039062 C 38.015625 15.003906 38.046875 14.878906 38.015625 14.859375 C 37.84375 14.761719 37.613281 14.609375 37.429688 14.804688 C 37.246094 14.519531 36.53125 14.691406 36.417969 14.976562 C 36.0625 14.835938 35.65625 15.027344 35.46875 15.335938 C 35.316406 14.964844 34.746094 15.492188 34.734375 15.777344 C 34.164062 15.585938 34.285156 16.300781 34.402344 16.59375 C 34.273438 16.597656 34.183594 16.652344 34.125 16.738281 C 34.023438 16.875 34.007812 17.085938 34.046875 17.242188 C 34.078125 17.359375 34.394531 17.988281 34.503906 17.644531 C 34.527344 18.003906 35.058594 17.574219 35.183594 17.484375 C 35.089844 18.101562 36.273438 17.585938 36.441406 17.554688 C 36.535156 17.535156 36.789062 17.4375 36.867188 17.441406 C 37 17.445312 36.992188 17.734375 37.136719 17.542969 C 36.980469 17.738281 37.097656 18.074219 37.402344 18.03125 C 37.382812 18.214844 37.5 18.753906 37.753906 18.421875 C 37.570312 18.699219 37.976562 18.875 38.121094 18.652344 C 38.371094 18.855469 38.496094 18.324219 38.667969 18.222656 C 38.917969 18.453125 39.136719 18.03125 39.242188 17.851562 C 39.460938 17.476562 39.492188 17.070312 39.355469 16.65625 " fill-opacity="1" fill-rule="nonzero"/></g><path fill="rgb(1.959229%, 61.959839%, 83.918762%)" d="M 26.398438 37.078125 C 26.375 37.0625 26.34375 37.066406 26.335938 37.101562 C 26.332031 37.113281 26.328125 37.128906 26.324219 37.144531 C 26.316406 37.144531 26.3125 37.148438 26.304688 37.152344 C 26.191406 37.203125 26.136719 37.339844 26.203125 37.453125 C 26.230469 37.496094 26.261719 37.523438 26.296875 37.539062 C 26.300781 37.589844 26.308594 37.640625 26.316406 37.691406 C 26.28125 37.699219 26.246094 37.714844 26.226562 37.746094 C 26.152344 37.863281 26.140625 37.949219 26.144531 38.089844 C 26.148438 38.136719 26.152344 38.183594 26.15625 38.234375 C 26.152344 38.246094 26.148438 38.253906 26.144531 38.269531 C 26.136719 38.398438 26.125 38.53125 26.085938 38.660156 C 26.039062 38.8125 26.296875 38.878906 26.328125 38.722656 C 26.339844 38.660156 26.34375 38.59375 26.347656 38.527344 C 26.347656 38.527344 26.347656 38.523438 26.347656 38.523438 C 26.371094 38.390625 26.398438 38.257812 26.433594 38.128906 C 26.445312 38.070312 26.472656 38.011719 26.476562 37.953125 C 26.480469 37.929688 26.476562 37.910156 26.472656 37.890625 C 26.527344 37.878906 26.574219 37.839844 26.578125 37.777344 C 26.582031 37.667969 26.601562 37.566406 26.621094 37.460938 C 26.644531 37.351562 26.644531 37.265625 26.617188 37.152344 C 26.59375 37.042969 26.472656 37.027344 26.398438 37.078125 " fill-opacity="1" fill-rule="nonzero"/><path fill="rgb(1.959229%, 61.959839%, 83.918762%)" d="M 27.121094 33.851562 C 26.984375 34.035156 26.921875 34.296875 26.835938 34.507812 C 26.816406 34.558594 26.820312 34.597656 26.835938 34.632812 C 26.832031 34.65625 26.828125 34.679688 26.828125 34.703125 C 26.804688 34.710938 26.78125 34.722656 26.765625 34.742188 C 26.738281 34.789062 26.703125 34.824219 26.664062 34.863281 C 26.582031 34.945312 26.601562 35.074219 26.6875 35.140625 C 26.667969 35.148438 26.652344 35.160156 26.644531 35.183594 C 26.636719 35.214844 26.625 35.246094 26.617188 35.273438 C 26.59375 35.359375 26.722656 35.394531 26.746094 35.3125 C 26.757812 35.28125 26.765625 35.25 26.773438 35.222656 C 26.78125 35.203125 26.777344 35.191406 26.773438 35.179688 C 26.789062 35.179688 26.808594 35.1875 26.824219 35.183594 C 26.816406 35.207031 26.8125 35.230469 26.804688 35.253906 C 26.800781 35.269531 26.820312 35.277344 26.824219 35.261719 C 26.835938 35.234375 26.84375 35.203125 26.851562 35.175781 C 26.875 35.167969 26.894531 35.160156 26.914062 35.144531 C 26.949219 35.140625 26.984375 35.125 27.007812 35.089844 C 27.1875 34.824219 27.410156 34.464844 27.375 34.132812 C 27.394531 34.066406 27.410156 33.996094 27.414062 33.929688 C 27.425781 33.757812 27.203125 33.734375 27.121094 33.851562 " fill-opacity="1" fill-rule="nonzero"/><path fill="rgb(1.959229%, 61.959839%, 83.918762%)" d="M 26.761719 35.867188 C 26.761719 35.867188 26.761719 35.863281 26.761719 35.863281 C 26.773438 35.820312 26.753906 35.789062 26.726562 35.769531 C 26.726562 35.765625 26.726562 35.765625 26.726562 35.761719 C 26.683594 35.6875 26.589844 35.6875 26.53125 35.738281 C 26.394531 35.859375 26.394531 36.039062 26.40625 36.214844 C 26.382812 36.207031 26.355469 36.210938 26.339844 36.234375 C 26.277344 36.328125 26.226562 36.429688 26.175781 36.527344 C 26.105469 36.660156 26.328125 36.746094 26.359375 36.605469 C 26.378906 36.527344 26.394531 36.453125 26.414062 36.378906 C 26.421875 36.410156 26.441406 36.433594 26.46875 36.445312 C 26.457031 36.503906 26.445312 36.566406 26.433594 36.628906 C 26.410156 36.742188 26.582031 36.789062 26.609375 36.675781 C 26.652344 36.496094 26.683594 36.316406 26.726562 36.136719 C 26.761719 36.050781 26.777344 35.957031 26.761719 35.867188 " fill-opacity="1" fill-rule="nonzero"/><path fill="rgb(1.959229%, 61.959839%, 83.918762%)" d="M 25.886719 37.660156 C 25.765625 37.761719 25.757812 37.960938 25.769531 38.109375 C 25.785156 38.265625 26.023438 38.273438 26.019531 38.109375 C 26.015625 37.957031 26.105469 37.824219 26.027344 37.679688 C 26 37.625 25.929688 37.625 25.886719 37.660156 " fill-opacity="1" fill-rule="nonzero"/><path fill="rgb(1.959229%, 61.959839%, 83.918762%)" d="M 31.816406 27.601562 C 31.625 27.554688 31.503906 27.65625 31.371094 27.777344 C 31.308594 27.835938 31.296875 27.914062 31.3125 27.988281 C 31.210938 27.980469 31.132812 27.980469 31.046875 28.042969 C 30.96875 28.09375 30.894531 28.160156 30.824219 28.21875 C 30.679688 28.339844 30.582031 28.511719 30.476562 28.660156 C 30.464844 28.675781 30.460938 28.691406 30.457031 28.707031 C 30.417969 28.703125 30.378906 28.703125 30.339844 28.703125 C 30.226562 28.710938 30.160156 28.78125 30.082031 28.851562 C 30.019531 28.910156 29.949219 28.964844 29.898438 29.039062 C 29.851562 29.105469 29.824219 29.191406 29.792969 29.265625 C 29.765625 29.324219 29.773438 29.378906 29.796875 29.421875 C 29.738281 29.464844 29.679688 29.515625 29.628906 29.574219 C 29.425781 29.582031 29.332031 29.636719 29.238281 29.828125 C 29.175781 29.957031 29.152344 30.105469 29.066406 30.222656 C 28.980469 30.347656 28.835938 30.445312 28.742188 30.570312 C 28.46875 30.917969 28.214844 31.3125 28.132812 31.75 C 28.128906 31.773438 28.136719 31.789062 28.148438 31.800781 C 28.132812 31.800781 28.117188 31.800781 28.101562 31.808594 C 27.957031 31.871094 27.914062 31.957031 27.84375 32.09375 C 27.796875 32.1875 27.746094 32.28125 27.699219 32.375 C 27.628906 32.472656 27.5625 32.574219 27.496094 32.671875 C 27.425781 32.78125 27.484375 32.882812 27.570312 32.925781 C 27.546875 32.953125 27.527344 32.980469 27.507812 33.011719 C 27.496094 33.019531 27.484375 33.027344 27.476562 33.042969 C 27.417969 33.144531 27.363281 33.25 27.304688 33.355469 C 27.226562 33.496094 27.460938 33.597656 27.511719 33.441406 C 27.511719 33.433594 27.515625 33.425781 27.515625 33.421875 C 27.5625 33.425781 27.609375 33.410156 27.632812 33.363281 C 27.6875 33.253906 27.792969 33.109375 27.777344 32.984375 C 27.777344 32.972656 27.773438 32.964844 27.769531 32.957031 C 27.8125 32.945312 27.851562 32.914062 27.871094 32.859375 C 27.96875 32.613281 28.097656 32.382812 28.222656 32.148438 C 28.25 32.097656 28.238281 32.046875 28.214844 32.011719 C 28.222656 31.96875 28.226562 31.925781 28.21875 31.875 C 28.21875 31.847656 28.203125 31.832031 28.1875 31.816406 C 28.207031 31.816406 28.222656 31.8125 28.234375 31.792969 C 28.269531 31.75 28.300781 31.707031 28.335938 31.664062 C 28.371094 31.667969 28.410156 31.65625 28.441406 31.617188 C 28.6875 31.292969 28.988281 30.980469 29.140625 30.605469 C 29.148438 30.597656 29.15625 30.589844 29.160156 30.582031 C 29.21875 30.480469 29.277344 30.382812 29.339844 30.285156 C 29.402344 30.230469 29.472656 30.1875 29.542969 30.128906 C 29.6875 30.015625 29.757812 29.945312 29.761719 29.792969 C 29.851562 29.691406 29.9375 29.601562 30.003906 29.480469 C 30.003906 29.480469 30.007812 29.480469 30.007812 29.480469 C 30.082031 29.449219 30.167969 29.421875 30.238281 29.375 C 30.3125 29.328125 30.371094 29.257812 30.433594 29.199219 C 30.515625 29.125 30.574219 29.066406 30.585938 28.953125 C 30.585938 28.945312 30.585938 28.941406 30.585938 28.9375 C 30.652344 28.875 30.722656 28.808594 30.789062 28.746094 C 30.898438 28.679688 31.007812 28.617188 31.105469 28.535156 C 31.167969 28.484375 31.238281 28.433594 31.300781 28.378906 C 31.378906 28.3125 31.402344 28.246094 31.429688 28.152344 C 31.496094 28.195312 31.578125 28.207031 31.65625 28.148438 C 31.710938 28.109375 31.765625 28.078125 31.820312 28.042969 C 31.894531 27.992188 31.925781 27.921875 31.953125 27.839844 C 31.988281 27.742188 31.917969 27.625 31.816406 27.601562 " fill-opacity="1" fill-rule="nonzero"/><path fill="rgb(1.959229%, 61.959839%, 83.918762%)" d="M 33.8125 26.894531 C 33.792969 26.898438 33.777344 26.90625 33.769531 26.917969 C 33.722656 26.925781 33.679688 26.929688 33.636719 26.9375 C 33.632812 26.9375 33.628906 26.929688 33.628906 26.929688 C 33.484375 26.804688 33.269531 26.828125 33.113281 26.929688 C 33.03125 26.980469 33 27.054688 33.007812 27.125 C 32.984375 27.109375 32.957031 27.097656 32.921875 27.105469 C 32.835938 27.121094 32.757812 27.179688 32.6875 27.242188 C 32.683594 27.242188 32.683594 27.242188 32.683594 27.242188 C 32.609375 27.261719 32.535156 27.289062 32.464844 27.316406 C 32.367188 27.207031 32.199219 27.203125 32.082031 27.304688 C 32.03125 27.347656 31.984375 27.398438 31.953125 27.453125 C 31.839844 27.65625 32.0625 27.859375 32.261719 27.761719 C 32.265625 27.761719 32.265625 27.757812 32.269531 27.757812 C 32.425781 27.738281 32.550781 27.617188 32.53125 27.464844 C 32.59375 27.4375 32.660156 27.414062 32.722656 27.394531 C 32.746094 27.386719 32.761719 27.371094 32.769531 27.355469 C 32.851562 27.339844 32.933594 27.332031 33 27.289062 C 33.023438 27.273438 33.039062 27.257812 33.046875 27.234375 C 33.113281 27.335938 33.253906 27.386719 33.386719 27.28125 C 33.371094 27.292969 33.488281 27.253906 33.503906 27.25 C 33.570312 27.222656 33.609375 27.175781 33.652344 27.117188 C 33.664062 27.101562 33.667969 27.078125 33.671875 27.058594 C 33.699219 27.050781 33.726562 27.046875 33.753906 27.039062 C 33.769531 27.070312 33.796875 27.089844 33.835938 27.089844 C 33.984375 27.089844 34.164062 27.140625 34.28125 27.042969 C 34.324219 27.007812 34.320312 26.933594 34.28125 26.898438 C 34.15625 26.792969 33.960938 26.859375 33.8125 26.894531 " fill-opacity="1" fill-rule="nonzero"/><path fill="rgb(1.959229%, 61.959839%, 83.918762%)" d="M 35.109375 26.882812 C 35.066406 26.867188 35.023438 26.851562 34.980469 26.835938 C 34.96875 26.816406 34.945312 26.804688 34.914062 26.804688 C 34.902344 26.804688 34.886719 26.804688 34.871094 26.804688 C 34.835938 26.800781 34.800781 26.796875 34.765625 26.796875 C 34.734375 26.800781 34.707031 26.800781 34.679688 26.804688 C 34.601562 26.804688 34.523438 26.804688 34.449219 26.800781 C 34.371094 26.796875 34.339844 26.867188 34.355469 26.925781 C 34.320312 27.007812 34.359375 27.117188 34.472656 27.109375 C 34.578125 27.101562 34.675781 27.121094 34.777344 27.140625 C 34.890625 27.160156 35.003906 27.125 35.109375 27.097656 C 35.222656 27.070312 35.210938 26.917969 35.109375 26.882812 " fill-opacity="1" fill-rule="nonzero"/><path fill="rgb(1.959229%, 61.959839%, 83.918762%)" d="M 27.121094 38.835938 C 27.121094 39.023438 26.710938 39.171875 26.203125 39.171875 C 25.695312 39.171875 25.28125 39.023438 25.28125 38.835938 C 25.28125 38.648438 25.695312 38.496094 26.203125 38.496094 C 26.710938 38.496094 27.121094 38.648438 27.121094 38.835938 " fill-opacity="1" fill-rule="nonzero"/></svg>