<?xml version="1.0" encoding="UTF-8"?><svg xmlns="http://www.w3.org/2000/svg" xmlns:xlink="http://www.w3.org/1999/xlink" contentScriptType="text/ecmascript" width="45" zoomAndPan="magnify" contentStyleType="text/css" viewBox="0 0 45 44.999999" height="44.999999" preserveAspectRatio="xMidYMid meet" version="1.0"><defs><clipPath id="clip-0"><path d="M 18 2.886719 L 26 2.886719 L 26 10 L 18 10 Z M 18 2.886719 " clip-rule="nonzero"/></clipPath><clipPath id="clip-1"><path d="M 12.648438 10 L 30.648438 10 L 30.648438 41.886719 L 12.648438 41.886719 Z M 12.648438 10 " clip-rule="nonzero"/></clipPath></defs><rect x="-4.5" width="54" fill="rgb(100%, 100%, 100%)" y="-4.5" height="53.999999" fill-opacity="1"/><rect x="-4.5" width="54" fill="rgb(100%, 100%, 100%)" y="-4.5" height="53.999999" fill-opacity="1"/><g clip-path="url(#clip-0)"><path fill="rgb(82.749939%, 30.198669%, 61.178589%)" d="M 21.667969 2.886719 C 23.597656 2.886719 25.164062 4.429688 25.164062 6.332031 C 25.164062 8.234375 23.597656 9.777344 21.667969 9.777344 C 19.738281 9.777344 18.175781 8.234375 18.175781 6.332031 C 18.175781 4.429688 19.738281 2.886719 21.667969 2.886719 Z M 21.667969 2.886719 " fill-opacity="1" fill-rule="nonzero"/></g><g clip-path="url(#clip-1)"><path fill="rgb(82.749939%, 30.198669%, 61.178589%)" d="M 30.570312 22.472656 L 27.800781 13.984375 C 27.78125 13.925781 27.753906 13.875 27.726562 13.824219 C 26.625 11.070312 24.171875 10.421875 23.304688 10.421875 C 22.515625 10.421875 22.695312 10.421875 21.878906 10.421875 C 21.695312 10.421875 21.542969 10.421875 21.414062 10.421875 C 20.597656 10.421875 20.777344 10.421875 19.992188 10.421875 C 19.125 10.421875 16.667969 11.070312 15.566406 13.824219 C 15.539062 13.875 15.511719 13.925781 15.492188 13.984375 L 12.722656 22.472656 C 12.484375 23.183594 12.875 23.949219 13.597656 24.183594 C 14.320312 24.417969 15.097656 24.03125 15.332031 23.320312 L 18.003906 15.144531 L 18.628906 15.144531 L 14.074219 29.167969 L 17.789062 29.167969 L 17.789062 40.285156 C 17.789062 41.167969 18.515625 41.886719 19.414062 41.886719 C 20.3125 41.886719 21.039062 41.167969 21.039062 40.285156 L 21.039062 29.171875 L 22.253906 29.171875 L 22.253906 40.285156 C 22.253906 41.167969 22.980469 41.886719 23.878906 41.886719 C 24.777344 41.886719 25.503906 41.167969 25.503906 40.285156 L 25.503906 29.171875 L 29.222656 29.171875 L 24.664062 15.144531 L 25.289062 15.144531 L 27.960938 23.324219 C 28.195312 24.03125 28.972656 24.417969 29.695312 24.183594 C 30.417969 23.949219 30.808594 23.183594 30.570312 22.472656 Z M 30.570312 22.472656 " fill-opacity="1" fill-rule="nonzero"/></g></svg>