<?xml version="1.0" encoding="UTF-8"?><svg xmlns="http://www.w3.org/2000/svg" xmlns:xlink="http://www.w3.org/1999/xlink" contentScriptType="text/ecmascript" width="45" zoomAndPan="magnify" contentStyleType="text/css" viewBox="0 0 45 44.999999" height="44.999999" preserveAspectRatio="xMidYMid meet" version="1.0"><defs><clipPath id="clip-0"><path d="M 19 4.96875 L 26 4.96875 L 26 12 L 19 12 Z M 19 4.96875 " clip-rule="nonzero"/></clipPath><clipPath id="clip-1"><path d="M 15.253906 11 L 29.503906 11 L 29.503906 40.21875 L 15.253906 40.21875 Z M 15.253906 11 " clip-rule="nonzero"/></clipPath></defs><rect x="-4.5" width="54" fill="rgb(100%, 100%, 100%)" y="-4.5" height="53.999999" fill-opacity="1"/><rect x="-4.5" width="54" fill="rgb(100%, 100%, 100%)" y="-4.5" height="53.999999" fill-opacity="1"/><g clip-path="url(#clip-0)"><path fill="rgb(17.649841%, 61.178589%, 84.309387%)" d="M 22.378906 4.96875 C 24.0625 4.96875 25.429688 6.367188 25.429688 8.085938 C 25.429688 9.808594 24.0625 11.203125 22.378906 11.203125 C 20.695312 11.203125 19.328125 9.808594 19.328125 8.085938 C 19.328125 6.367188 20.695312 4.96875 22.378906 4.96875 Z M 22.378906 4.96875 " fill-opacity="1" fill-rule="nonzero"/></g><g clip-path="url(#clip-1)"><path fill="rgb(17.649841%, 61.178589%, 84.309387%)" d="M 29.5 16.035156 C 29.488281 13.71875 27.648438 11.847656 25.382812 11.847656 L 19.375 11.847656 C 17.109375 11.847656 15.269531 13.71875 15.257812 16.035156 C 15.257812 16.039062 15.257812 16.042969 15.257812 16.046875 L 15.257812 24.289062 C 15.257812 25.03125 15.847656 25.636719 16.570312 25.636719 C 17.296875 25.636719 17.886719 25.03125 17.886719 24.289062 L 17.886719 16.652344 L 18.515625 16.652344 L 18.515625 38.414062 C 18.515625 39.410156 19.304688 40.21875 20.28125 40.21875 C 21.253906 40.21875 22.046875 39.410156 22.046875 38.414062 L 22.046875 25.625 L 22.714844 25.625 L 22.714844 38.414062 C 22.714844 39.414062 23.503906 40.21875 24.476562 40.21875 C 25.453125 40.21875 26.242188 39.414062 26.242188 38.414062 L 26.242188 16.652344 L 26.871094 16.652344 L 26.871094 24.292969 C 26.871094 25.035156 27.460938 25.636719 28.1875 25.636719 C 28.914062 25.636719 29.5 25.03125 29.5 24.292969 L 29.5 16.046875 C 29.503906 16.042969 29.5 16.039062 29.5 16.035156 Z M 29.5 16.035156 " fill-opacity="1" fill-rule="nonzero"/></g></svg>