<?xml version="1.0" encoding="UTF-8"?><svg xmlns="http://www.w3.org/2000/svg" xmlns:xlink="http://www.w3.org/1999/xlink" contentScriptType="text/ecmascript" width="45" zoomAndPan="magnify" contentStyleType="text/css" viewBox="0 0 45 44.999999" height="44.999999" preserveAspectRatio="xMidYMid meet" version="1.0"><defs><clipPath id="clip-0"><path d="M 1.664062 12 L 28 12 L 28 39 L 1.664062 39 Z M 1.664062 12 " clip-rule="nonzero"/></clipPath><clipPath id="clip-1"><path d="M 8 4.5 L 22 4.5 L 22 16 L 8 16 Z M 8 4.5 " clip-rule="nonzero"/></clipPath><clipPath id="clip-2"><path d="M 38 14 L 43.664062 14 L 43.664062 16 L 38 16 Z M 38 14 " clip-rule="nonzero"/></clipPath><clipPath id="clip-3"><path d="M 37 14 L 43.664062 14 L 43.664062 16 L 37 16 Z M 37 14 " clip-rule="nonzero"/></clipPath></defs><rect x="-4.5" width="54" fill="rgb(100%, 100%, 100%)" y="-4.5" height="53.999999" fill-opacity="1"/><rect x="-4.5" width="54" fill="rgb(100%, 100%, 100%)" y="-4.5" height="53.999999" fill-opacity="1"/><path fill="rgb(100%, 100%, 100%)" d="M 26.441406 13.523438 C 24.441406 13.578125 22.566406 14.105469 20.914062 14.992188 C 19.898438 15.535156 18.964844 16.210938 18.144531 17 C 15.703125 19.351562 14.226562 22.679688 14.328125 26.335938 C 14.425781 29.707031 15.855469 32.726562 18.09375 34.90625 C 19.105469 34.554688 20.039062 34.035156 20.859375 33.386719 C 18.761719 31.703125 17.386719 29.148438 17.304688 26.25 C 17.214844 23.136719 18.636719 20.332031 20.902344 18.539062 L 23.667969 17.019531 C 24.5625 16.707031 25.523438 16.523438 26.523438 16.492188 C 31.765625 16.34375 36.136719 20.472656 36.289062 25.710938 C 36.4375 30.949219 32.308594 35.316406 27.066406 35.464844 C 25.855469 35.5 24.691406 35.304688 23.617188 34.921875 C 22.796875 35.710938 21.863281 36.390625 20.847656 36.933594 C 22.71875 37.949219 24.871094 38.503906 27.148438 38.4375 C 34.035156 38.242188 39.457031 32.507812 39.261719 25.625 C 39.066406 18.746094 33.324219 13.328125 26.441406 13.523438 Z M 26.441406 13.523438 " fill-opacity="1" fill-rule="nonzero"/><path fill="rgb(0%, 15.289307%, 27.839661%)" d="M 26.789062 39 C 24.628906 39 22.480469 38.453125 20.582031 37.421875 C 20.402344 37.324219 20.292969 37.136719 20.292969 36.933594 C 20.292969 36.726562 20.40625 36.539062 20.585938 36.445312 C 21.554688 35.925781 22.445312 35.277344 23.230469 34.523438 C 23.382812 34.375 23.605469 34.328125 23.800781 34.398438 C 24.847656 34.769531 25.9375 34.941406 27.050781 34.910156 C 31.976562 34.769531 35.871094 30.652344 35.730469 25.726562 C 35.59375 20.859375 31.671875 17.046875 26.800781 17.046875 C 26.714844 17.046875 26.628906 17.046875 26.542969 17.050781 C 25.636719 17.074219 24.746094 17.234375 23.894531 17.527344 L 21.210938 19.003906 C 19 20.773438 17.777344 23.40625 17.859375 26.234375 C 17.933594 28.859375 19.15625 31.308594 21.207031 32.953125 C 21.339844 33.058594 21.417969 33.21875 21.417969 33.386719 C 21.414062 33.558594 21.339844 33.714844 21.207031 33.820312 C 20.324219 34.519531 19.339844 35.0625 18.277344 35.429688 C 18.082031 35.5 17.859375 35.449219 17.707031 35.304688 C 15.269531 32.929688 13.871094 29.75 13.773438 26.351562 C 13.671875 22.695312 15.125 19.140625 17.761719 16.601562 C 18.617188 15.777344 19.589844 15.070312 20.652344 14.5 C 22.445312 13.539062 24.386719 13.023438 26.425781 12.964844 C 26.550781 12.964844 26.675781 12.960938 26.800781 12.960938 C 30.203125 12.960938 33.421875 14.265625 35.867188 16.636719 C 38.316406 19.011719 39.71875 22.199219 39.816406 25.609375 C 40.019531 32.785156 34.347656 38.789062 27.164062 38.992188 C 27.039062 38.996094 26.914062 39 26.789062 39 Z M 22.019531 36.886719 C 23.519531 37.542969 25.148438 37.886719 26.789062 37.886719 C 26.90625 37.886719 27.019531 37.886719 27.132812 37.882812 C 33.699219 37.695312 38.890625 32.203125 38.707031 25.640625 C 38.519531 19.039062 33.105469 13.886719 26.457031 14.078125 C 24.59375 14.128906 22.816406 14.601562 21.175781 15.480469 C 20.207031 16 19.316406 16.648438 18.53125 17.402344 C 16.121094 19.722656 14.789062 22.972656 14.886719 26.320312 C 14.96875 29.3125 16.15625 32.117188 18.238281 34.261719 C 18.847656 34.023438 19.425781 33.71875 19.96875 33.351562 C 17.988281 31.519531 16.824219 28.976562 16.746094 26.265625 C 16.65625 23.066406 18.042969 20.09375 20.554688 18.101562 C 20.582031 18.082031 20.605469 18.066406 20.632812 18.050781 L 23.398438 16.53125 C 23.425781 16.515625 23.453125 16.503906 23.484375 16.492188 C 24.457031 16.15625 25.472656 15.96875 26.507812 15.9375 C 29.242188 15.867188 31.839844 16.875 33.796875 18.769531 C 35.6875 20.605469 36.769531 23.0625 36.84375 25.695312 C 37 31.230469 32.621094 35.863281 27.082031 36.023438 C 25.945312 36.054688 24.828125 35.894531 23.753906 35.554688 C 23.214844 36.046875 22.636719 36.492188 22.019531 36.886719 Z M 22.019531 36.886719 " fill-opacity="1" fill-rule="nonzero"/><path fill="rgb(100%, 100%, 100%)" d="M 23.667969 17.019531 C 22.65625 17.371094 21.722656 17.886719 20.902344 18.539062 C 23 20.21875 24.375 22.777344 24.460938 25.675781 C 24.546875 28.785156 23.128906 31.589844 20.859375 33.386719 C 20.039062 34.035156 19.105469 34.554688 18.09375 34.90625 C 17.199219 35.21875 16.238281 35.402344 15.238281 35.429688 C 9.996094 35.578125 5.625 31.453125 5.476562 26.214844 C 5.324219 20.976562 9.453125 16.605469 14.695312 16.457031 C 15.90625 16.421875 17.070312 16.621094 18.144531 17 C 18.964844 16.210938 19.898438 15.535156 20.914062 14.992188 C 19.042969 13.976562 16.890625 13.421875 14.613281 13.484375 C 7.726562 13.679688 2.304688 19.417969 2.5 26.296875 C 2.695312 33.179688 8.4375 38.597656 15.320312 38.402344 C 17.320312 38.34375 19.195312 37.816406 20.847656 36.933594 C 21.863281 36.390625 22.796875 35.710938 23.617188 34.921875 C 26.058594 32.574219 27.535156 29.242188 27.433594 25.589844 C 27.335938 22.21875 25.90625 19.199219 23.667969 17.019531 Z M 23.667969 17.019531 " fill-opacity="1" fill-rule="nonzero"/><g clip-path="url(#clip-0)"><path fill="rgb(0%, 15.289307%, 27.839661%)" d="M 14.960938 38.960938 C 11.558594 38.960938 8.339844 37.65625 5.894531 35.285156 C 3.445312 32.910156 2.042969 29.722656 1.945312 26.3125 C 1.742188 19.136719 7.417969 13.132812 14.597656 12.929688 C 14.722656 12.925781 14.847656 12.925781 14.972656 12.925781 C 17.132812 12.925781 19.28125 13.46875 21.179688 14.503906 C 21.359375 14.597656 21.46875 14.789062 21.46875 14.992188 C 21.46875 15.195312 21.355469 15.382812 21.175781 15.480469 C 20.207031 16 19.316406 16.644531 18.53125 17.402344 C 18.378906 17.546875 18.160156 17.59375 17.960938 17.523438 C 16.914062 17.152344 15.824219 16.980469 14.710938 17.011719 C 9.785156 17.152344 5.890625 21.273438 6.03125 26.199219 C 6.167969 31.066406 10.089844 34.878906 14.960938 34.878906 C 15.046875 34.878906 15.132812 34.878906 15.222656 34.875 C 16.140625 34.847656 17.046875 34.683594 17.914062 34.382812 C 18.855469 34.050781 19.730469 33.570312 20.515625 32.949219 C 22.75 31.179688 23.984375 28.535156 23.902344 25.691406 C 23.828125 23.066406 22.609375 20.617188 20.554688 18.972656 C 20.421875 18.867188 20.34375 18.707031 20.34375 18.535156 C 20.347656 18.367188 20.421875 18.207031 20.554688 18.101562 C 21.4375 17.40625 22.421875 16.863281 23.484375 16.492188 C 23.683594 16.425781 23.902344 16.472656 24.054688 16.621094 C 26.496094 18.996094 27.890625 22.175781 27.988281 25.574219 C 28.09375 29.230469 26.640625 32.78125 24 35.324219 C 23.144531 36.148438 22.171875 36.855469 21.109375 37.421875 C 19.320312 38.382812 17.375 38.898438 15.335938 38.957031 C 15.210938 38.960938 15.085938 38.960938 14.960938 38.960938 Z M 14.972656 14.035156 C 14.859375 14.035156 14.742188 14.039062 14.628906 14.039062 C 8.0625 14.226562 2.871094 19.71875 3.058594 26.28125 C 3.242188 32.769531 8.46875 37.851562 14.960938 37.851562 C 15.074219 37.851562 15.191406 37.851562 15.304688 37.847656 C 17.171875 37.792969 18.945312 37.320312 20.585938 36.445312 C 21.554688 35.925781 22.445312 35.277344 23.230469 34.523438 C 25.644531 32.199219 26.972656 28.949219 26.878906 25.605469 C 26.792969 22.613281 25.605469 19.804688 23.523438 17.664062 C 22.914062 17.902344 22.335938 18.207031 21.792969 18.574219 C 23.773438 20.402344 24.9375 22.949219 25.015625 25.660156 C 25.105469 28.855469 23.71875 31.832031 21.207031 33.820312 C 20.324219 34.519531 19.339844 35.058594 18.277344 35.429688 C 17.304688 35.769531 16.289062 35.957031 15.253906 35.984375 C 12.515625 36.058594 9.921875 35.050781 7.964844 33.152344 C 6.074219 31.320312 4.992188 28.859375 4.917969 26.230469 C 4.761719 20.691406 9.140625 16.058594 14.679688 15.902344 C 15.820312 15.871094 16.933594 16.027344 18.007812 16.371094 C 18.546875 15.878906 19.125 15.429688 19.742188 15.035156 C 18.242188 14.378906 16.613281 14.035156 14.972656 14.035156 Z M 14.972656 14.035156 " fill-opacity="1" fill-rule="nonzero"/></g><path fill="rgb(100%, 100%, 100%)" d="M 17.972656 5.058594 C 16.296875 5.058594 14.9375 6.246094 14.9375 7.714844 C 14.9375 6.246094 13.578125 5.058594 11.898438 5.058594 C 10.492188 5.058594 9.015625 6.230469 8.929688 7.632812 C 8.816406 9.503906 10.183594 11.253906 11.453125 12.46875 C 12.363281 13.34375 13.386719 14.15625 14.433594 14.859375 C 14.472656 14.886719 14.875 15.195312 14.9375 15.160156 C 17.425781 13.765625 21.011719 10.898438 21.011719 7.714844 C 21.011719 6.246094 19.652344 5.058594 17.972656 5.058594 Z M 17.972656 5.058594 " fill-opacity="1" fill-rule="nonzero"/><g clip-path="url(#clip-1)"><path fill="rgb(0%, 15.289307%, 27.839661%)" d="M 14.921875 15.71875 C 14.699219 15.71875 14.507812 15.605469 14.140625 15.332031 L 14.113281 15.316406 C 13 14.5625 11.972656 13.738281 11.066406 12.871094 C 9.179688 11.058594 8.273438 9.285156 8.375 7.597656 C 8.476562 5.949219 10.125 4.5 11.898438 4.5 C 13.175781 4.5 14.300781 5.101562 14.9375 6 C 15.574219 5.101562 16.699219 4.5 17.972656 4.5 C 19.953125 4.5 21.566406 5.941406 21.566406 7.714844 C 21.566406 10.9375 18.28125 13.921875 15.207031 15.644531 C 15.125 15.691406 15.019531 15.71875 14.921875 15.71875 Z M 11.898438 5.613281 C 10.722656 5.613281 9.550781 6.609375 9.484375 7.664062 C 9.382812 9.339844 10.707031 10.984375 11.835938 12.070312 C 12.683594 12.882812 13.6875 13.6875 14.742188 14.398438 C 14.753906 14.40625 14.773438 14.417969 14.796875 14.4375 C 14.847656 14.472656 14.886719 14.503906 14.921875 14.527344 C 17.53125 13.007812 20.453125 10.371094 20.453125 7.714844 C 20.453125 6.554688 19.339844 5.613281 17.972656 5.613281 C 16.605469 5.613281 15.492188 6.554688 15.492188 7.714844 C 15.492188 8.023438 15.242188 8.269531 14.9375 8.269531 C 14.628906 8.269531 14.378906 8.023438 14.378906 7.714844 C 14.378906 6.554688 13.269531 5.613281 11.898438 5.613281 Z M 11.898438 5.613281 " fill-opacity="1" fill-rule="nonzero"/></g><path fill="rgb(100%, 100%, 100%)" d="M 16.601562 12.390625 C 16.210938 12.753906 16.234375 12.722656 15.714844 13.054688 " fill-opacity="1" fill-rule="nonzero"/><path fill="rgb(0%, 15.289307%, 27.839661%)" d="M 15.714844 13.453125 C 15.582031 13.453125 15.453125 13.386719 15.378906 13.269531 C 15.261719 13.082031 15.316406 12.835938 15.5 12.71875 L 15.648438 12.625 C 16.007812 12.398438 16.007812 12.398438 16.332031 12.101562 C 16.492188 11.953125 16.746094 11.960938 16.894531 12.125 C 17.042969 12.285156 17.03125 12.535156 16.871094 12.683594 C 16.503906 13.023438 16.464844 13.046875 16.074219 13.296875 L 15.925781 13.390625 C 15.859375 13.429688 15.785156 13.453125 15.714844 13.453125 Z M 15.714844 13.453125 " fill-opacity="1" fill-rule="nonzero"/><path fill="rgb(100%, 100%, 100%)" d="M 18.722656 9.742188 C 18.722656 9.742188 18.742188 10.480469 17.570312 11.558594 " fill-opacity="1" fill-rule="nonzero"/><path fill="rgb(0%, 15.289307%, 27.839661%)" d="M 17.570312 11.957031 C 17.460938 11.957031 17.355469 11.914062 17.277344 11.828125 C 17.128906 11.667969 17.140625 11.417969 17.300781 11.269531 C 18.292969 10.355469 18.328125 9.746094 18.328125 9.742188 C 18.320312 9.523438 18.492188 9.34375 18.710938 9.339844 C 18.933594 9.335938 19.113281 9.511719 19.121094 9.730469 C 19.121094 9.824219 19.109375 10.683594 17.835938 11.851562 C 17.761719 11.921875 17.664062 11.957031 17.570312 11.957031 Z M 17.570312 11.957031 " fill-opacity="1" fill-rule="nonzero"/><path fill="rgb(100%, 100%, 100%)" d="M 39.199219 10.449219 L 36.402344 13.6875 " fill-opacity="1" fill-rule="nonzero"/><path fill="rgb(0%, 15.289307%, 27.839661%)" d="M 36.402344 14.246094 C 36.273438 14.246094 36.144531 14.199219 36.039062 14.109375 C 35.808594 13.910156 35.78125 13.558594 35.980469 13.328125 L 38.777344 10.085938 C 38.980469 9.851562 39.328125 9.828125 39.5625 10.027344 C 39.792969 10.226562 39.820312 10.578125 39.621094 10.8125 L 36.824219 14.050781 C 36.714844 14.179688 36.558594 14.246094 36.402344 14.246094 Z M 36.402344 14.246094 " fill-opacity="1" fill-rule="nonzero"/><path fill="rgb(100%, 100%, 100%)" d="M 34.355469 7.308594 L 34.710938 12.226562 " fill-opacity="1" fill-rule="nonzero"/><path fill="rgb(0%, 15.289307%, 27.839661%)" d="M 34.710938 12.785156 C 34.421875 12.785156 34.179688 12.5625 34.15625 12.269531 L 33.800781 7.347656 C 33.777344 7.042969 34.007812 6.777344 34.3125 6.753906 C 34.621094 6.734375 34.886719 6.964844 34.910156 7.269531 L 35.265625 12.1875 C 35.289062 12.496094 35.058594 12.761719 34.75 12.78125 C 34.738281 12.785156 34.722656 12.785156 34.710938 12.785156 Z M 34.710938 12.785156 " fill-opacity="1" fill-rule="nonzero"/><g clip-path="url(#clip-2)"><path fill="rgb(100%, 100%, 100%)" d="M 43.007812 14.785156 L 38.085938 15.144531 " fill-opacity="1" fill-rule="nonzero"/></g><g clip-path="url(#clip-3)"><path fill="rgb(0%, 15.289307%, 27.839661%)" d="M 38.085938 15.699219 C 37.796875 15.699219 37.550781 15.476562 37.53125 15.183594 C 37.507812 14.878906 37.738281 14.609375 38.046875 14.589844 L 42.964844 14.230469 C 43.269531 14.210938 43.539062 14.441406 43.5625 14.746094 C 43.582031 15.050781 43.351562 15.316406 43.046875 15.339844 L 38.125 15.695312 C 38.113281 15.699219 38.097656 15.699219 38.085938 15.699219 Z M 38.085938 15.699219 " fill-opacity="1" fill-rule="nonzero"/></g><path fill="rgb(0%, 15.289307%, 27.839661%)" d="M 14.71875 37.335938 C 12.945312 37.335938 11.425781 36.859375 10.308594 36.347656 C 10.109375 36.257812 10.023438 36.023438 10.113281 35.824219 C 10.207031 35.625 10.441406 35.535156 10.640625 35.628906 C 12.285156 36.378906 14.875 37.054688 17.851562 35.992188 C 18.058594 35.917969 18.285156 36.023438 18.359375 36.230469 C 18.433594 36.4375 18.328125 36.664062 18.121094 36.738281 C 16.917969 37.167969 15.773438 37.335938 14.71875 37.335938 Z M 14.71875 37.335938 " fill-opacity="1" fill-rule="nonzero"/><path fill="rgb(0%, 15.289307%, 27.839661%)" d="M 9.472656 35.867188 C 9.40625 35.867188 9.339844 35.847656 9.273438 35.8125 C 8.207031 35.191406 7.589844 34.613281 7.5625 34.589844 C 7.40625 34.441406 7.398438 34.1875 7.546875 34.027344 C 7.699219 33.871094 7.949219 33.863281 8.109375 34.011719 C 8.113281 34.019531 8.691406 34.554688 9.675781 35.125 C 9.863281 35.238281 9.929688 35.480469 9.816406 35.667969 C 9.746094 35.796875 9.613281 35.867188 9.472656 35.867188 Z M 9.472656 35.867188 " fill-opacity="1" fill-rule="nonzero"/></svg>