<?xml version="1.0" encoding="UTF-8"?><svg xmlns="http://www.w3.org/2000/svg" xmlns:xlink="http://www.w3.org/1999/xlink" contentScriptType="text/ecmascript" width="45" zoomAndPan="magnify" contentStyleType="text/css" viewBox="0 0 45 44.999999" height="44.999999" preserveAspectRatio="xMidYMid meet" version="1.0"><defs><clipPath id="clip-0"><path d="M 1 9.578125 L 44.328125 9.578125 L 44.328125 35.078125 L 1 35.078125 Z M 1 9.578125 " clip-rule="nonzero"/></clipPath><clipPath id="clip-1"><path d="M 13 14 L 21 14 L 21 24 L 13 24 Z M 13 14 " clip-rule="nonzero"/></clipPath><clipPath id="clip-2"><path d="M 5.476562 18.121094 L 17.515625 13.929688 L 20.476562 22.429688 L 8.4375 26.621094 Z M 5.476562 18.121094 " clip-rule="nonzero"/></clipPath><clipPath id="clip-3"><path d="M 5.476562 18.121094 L 17.515625 13.929688 L 20.476562 22.429688 L 8.4375 26.621094 Z M 5.476562 18.121094 " clip-rule="nonzero"/></clipPath><clipPath id="clip-4"><path d="M 5 16 L 13 16 L 13 27 L 5 27 Z M 5 16 " clip-rule="nonzero"/></clipPath><clipPath id="clip-5"><path d="M 5.476562 18.121094 L 17.515625 13.929688 L 20.476562 22.429688 L 8.4375 26.621094 Z M 5.476562 18.121094 " clip-rule="nonzero"/></clipPath><clipPath id="clip-6"><path d="M 5.476562 18.121094 L 17.515625 13.929688 L 20.476562 22.429688 L 8.4375 26.621094 Z M 5.476562 18.121094 " clip-rule="nonzero"/></clipPath><clipPath id="clip-7"><path d="M 9 15 L 17 15 L 17 26 L 9 26 Z M 9 15 " clip-rule="nonzero"/></clipPath><clipPath id="clip-8"><path d="M 5.476562 18.121094 L 17.515625 13.929688 L 20.476562 22.429688 L 8.4375 26.621094 Z M 5.476562 18.121094 " clip-rule="nonzero"/></clipPath><clipPath id="clip-9"><path d="M 5.476562 18.121094 L 17.515625 13.929688 L 20.476562 22.429688 L 8.4375 26.621094 Z M 5.476562 18.121094 " clip-rule="nonzero"/></clipPath><clipPath id="clip-10"><path d="M 24 14 L 39 14 L 39 24 L 24 24 Z M 24 14 " clip-rule="nonzero"/></clipPath><clipPath id="clip-11"><path d="M 25.683594 13.855469 L 39.054688 15.71875 L 37.816406 24.632812 L 24.445312 22.769531 Z M 25.683594 13.855469 " clip-rule="nonzero"/></clipPath><clipPath id="clip-12"><path d="M 25.683594 13.855469 L 39.054688 15.71875 L 37.816406 24.632812 L 24.445312 22.769531 Z M 25.683594 13.855469 " clip-rule="nonzero"/></clipPath><clipPath id="clip-13"><path d="M 25.683594 13.855469 L 39.054688 15.71875 L 37.816406 24.632812 L 24.445312 22.769531 Z M 25.683594 13.855469 " clip-rule="nonzero"/></clipPath><clipPath id="clip-14"><path d="M 24 15 L 39 15 L 39 24 L 24 24 Z M 24 15 " clip-rule="nonzero"/></clipPath><clipPath id="clip-15"><path d="M 25.683594 13.855469 L 39.054688 15.71875 L 37.816406 24.632812 L 24.445312 22.769531 Z M 25.683594 13.855469 " clip-rule="nonzero"/></clipPath><clipPath id="clip-16"><path d="M 25.683594 13.855469 L 39.054688 15.71875 L 37.816406 24.632812 L 24.445312 22.769531 Z M 25.683594 13.855469 " clip-rule="nonzero"/></clipPath><clipPath id="clip-17"><path d="M 25.683594 13.855469 L 39.054688 15.71875 L 37.816406 24.632812 L 24.445312 22.769531 Z M 25.683594 13.855469 " clip-rule="nonzero"/></clipPath></defs><rect x="-4.5" width="54" fill="rgb(100%, 100%, 100%)" y="-4.5" height="53.999999" fill-opacity="1"/><rect x="-4.5" width="54" fill="rgb(100%, 100%, 100%)" y="-4.5" height="53.999999" fill-opacity="1"/><g clip-path="url(#clip-0)"><path fill="rgb(93.328857%, 93.328857%, 93.328857%)" d="M 39.046875 10.652344 C 35.984375 9.792969 32.261719 10.4375 29.089844 10.222656 C 21.867188 9.578125 14.644531 10.117188 7.421875 10.117188 L 7.203125 10.222656 C 0.964844 10.222656 0.855469 15.710938 1.074219 20.765625 C 1.183594 22.917969 1.183594 25.714844 2.609375 27.542969 C 3.703125 28.941406 5.015625 28.835938 6.65625 29.050781 C 13.988281 30.125 21.320312 29.910156 28.652344 29.265625 C 30.269531 29.046875 31.933594 28.976562 33.585938 28.953125 C 34.574219 30.710938 33.765625 33.539062 33.027344 35.074219 C 34.753906 33.671875 36.066406 31.308594 36.652344 28.957031 C 38.414062 29.027344 40.871094 29.269531 42.21875 28.511719 C 43.644531 27.652344 43.972656 25.5 44.082031 23.886719 C 44.300781 19.582031 44.300781 11.945312 39.046875 10.652344 " fill-opacity="1" fill-rule="nonzero"/></g><g clip-path="url(#clip-1)"><g clip-path="url(#clip-2)"><g clip-path="url(#clip-3)"><path fill="rgb(92.939758%, 16.079712%, 22.349548%)" d="M 20.015625 21.121094 C 20.269531 21.84375 19.875 22.636719 19.136719 22.894531 L 16.460938 23.828125 L 13.5 15.328125 L 16.175781 14.394531 C 16.914062 14.140625 17.714844 14.515625 17.96875 15.238281 Z M 20.015625 21.121094 " fill-opacity="1" fill-rule="nonzero"/></g></g></g><g clip-path="url(#clip-4)"><g clip-path="url(#clip-5)"><g clip-path="url(#clip-6)"><path fill="rgb(0%, 14.118958%, 58.428955%)" d="M 6.816406 17.65625 C 6.078125 17.914062 5.683594 18.707031 5.933594 19.429688 L 7.984375 25.3125 C 8.234375 26.035156 9.039062 26.414062 9.777344 26.15625 L 12.449219 25.222656 L 9.492188 16.726562 Z M 6.816406 17.65625 " fill-opacity="1" fill-rule="nonzero"/></g></g></g><g clip-path="url(#clip-7)"><g clip-path="url(#clip-8)"><g clip-path="url(#clip-9)"><path fill="rgb(100%, 100%, 100%)" d="M 9.492188 16.726562 L 13.5 15.328125 L 16.460938 23.828125 L 12.449219 25.222656 Z M 9.492188 16.726562 " fill-opacity="1" fill-rule="nonzero"/></g></g></g><g clip-path="url(#clip-10)"><g clip-path="url(#clip-11)"><g clip-path="url(#clip-12)"><g clip-path="url(#clip-13)"><path fill="rgb(0%, 14.118958%, 49.01886%)" d="M 25.5625 14.796875 C 27.875 14.480469 30.101562 14.789062 32.238281 15.726562 C 34.378906 16.660156 36.601562 16.96875 38.914062 16.65625 L 37.9375 23.691406 C 35.625 24.007812 33.398438 23.699219 31.261719 22.761719 C 29.121094 21.828125 26.894531 21.519531 24.582031 21.832031 Z M 25.5625 14.796875 " fill-opacity="1" fill-rule="nonzero"/><path fill="rgb(100%, 100%, 100%)" d="M 25.5625 14.796875 C 26.078125 14.726562 26.59375 14.6875 27.101562 14.679688 C 28.738281 15.5625 30.324219 16.820312 31.859375 18.457031 C 33.644531 18.273438 35.484375 17.710938 37.378906 16.773438 C 37.886719 16.765625 38.398438 16.726562 38.914062 16.65625 L 38.804688 17.441406 C 36.882812 18.597656 35.015625 19.375 33.195312 19.777344 C 34.761719 21.199219 36.378906 22.238281 38.046875 22.90625 L 37.9375 23.691406 C 37.417969 23.761719 36.90625 23.800781 36.398438 23.808594 C 34.757812 22.925781 33.171875 21.667969 31.640625 20.03125 C 29.851562 20.214844 28.011719 20.777344 26.121094 21.714844 C 25.613281 21.722656 25.101562 21.761719 24.582031 21.832031 L 24.691406 21.046875 C 26.613281 19.890625 28.484375 19.113281 30.300781 18.710938 C 28.738281 17.289062 27.121094 16.25 25.453125 15.582031 Z M 25.5625 14.796875 " fill-opacity="1" fill-rule="nonzero"/><path fill="rgb(81.17981%, 7.839966%, 16.859436%)" d="M 25.5625 14.796875 C 27.710938 15.652344 29.773438 17.136719 31.75 19.242188 C 31.429688 19.105469 31.109375 18.980469 30.789062 18.867188 C 29.085938 17.230469 27.320312 16.050781 25.488281 15.320312 Z M 31.824219 18.71875 C 33.78125 18.515625 35.800781 17.863281 37.886719 16.753906 C 38.226562 16.734375 38.570312 16.703125 38.914062 16.65625 C 36.441406 18.144531 34.050781 19.007812 31.75 19.242188 Z M 37.9375 23.691406 C 35.785156 22.835938 33.726562 21.351562 31.75 19.242188 C 32.066406 19.382812 32.390625 19.507812 32.710938 19.621094 C 34.414062 21.253906 36.179688 22.4375 38.007812 23.167969 Z M 31.675781 19.769531 C 29.71875 19.972656 27.695312 20.625 25.613281 21.734375 C 25.269531 21.753906 24.929688 21.785156 24.582031 21.832031 C 27.058594 20.34375 29.449219 19.480469 31.75 19.242188 Z M 31.675781 19.769531 " fill-opacity="1" fill-rule="nonzero"/></g></g></g></g><g clip-path="url(#clip-14)"><g clip-path="url(#clip-15)"><g clip-path="url(#clip-16)"><g clip-path="url(#clip-17)"><path fill="rgb(100%, 100%, 100%)" d="M 31.164062 15.308594 C 31.523438 15.429688 31.882812 15.570312 32.238281 15.726562 C 32.59375 15.882812 32.953125 16.019531 33.316406 16.140625 L 32.988281 18.488281 C 34.796875 19.09375 36.660156 19.261719 38.589844 19 L 38.261719 21.347656 C 36.335938 21.609375 34.46875 21.4375 32.664062 20.832031 L 32.335938 23.179688 C 31.976562 23.058594 31.617188 22.917969 31.261719 22.761719 C 30.902344 22.605469 30.542969 22.46875 30.183594 22.347656 L 30.507812 20 C 28.703125 19.394531 26.835938 19.226562 24.910156 19.488281 L 25.234375 17.140625 C 27.164062 16.878906 29.03125 17.050781 30.835938 17.65625 Z M 31.164062 15.308594 " fill-opacity="1" fill-rule="nonzero"/><path fill="rgb(81.17981%, 7.839966%, 16.859436%)" d="M 31.59375 15.464844 C 31.808594 15.542969 32.023438 15.632812 32.238281 15.726562 C 32.453125 15.820312 32.667969 15.90625 32.882812 15.988281 L 32.492188 18.800781 C 34.433594 19.53125 36.441406 19.753906 38.523438 19.46875 L 38.328125 20.875 C 36.246094 21.160156 34.234375 20.9375 32.296875 20.210938 L 31.902344 23.023438 C 31.6875 22.945312 31.472656 22.855469 31.261719 22.761719 C 31.046875 22.667969 30.832031 22.582031 30.617188 22.5 L 31.007812 19.6875 C 29.066406 18.957031 27.054688 18.734375 24.976562 19.019531 L 25.171875 17.609375 C 27.253906 17.328125 29.261719 17.550781 31.203125 18.277344 Z M 31.59375 15.464844 " fill-opacity="1" fill-rule="nonzero"/></g></g></g></g></svg>