<svg xmlns="http://www.w3.org/2000/svg" width="70" viewBox="0 0 375 375" height="70" version="1.0"><defs><clipPath id="a"><path d="M 107 104 L 268.59375 104 L 268.59375 278 L 107 278 Z M 107 104"/></clipPath></defs><g clip-path="url(#a)"><path fill="#BE1931" d="M 212.335938 271.972656 C 230.898438 265.785156 245.136719 255.710938 245.152344 221.734375 C 245.164062 200.234375 268.027344 176.324219 268.023438 154.460938 C 268.015625 133.445312 243.277344 98.804688 187.050781 104.6875 C 129.261719 110.738281 107.160156 128.085938 107.15625 165.996094 C 107.15625 192.402344 135.597656 210.917969 150.734375 238.449219 C 160.78125 256.722656 190.546875 289.886719 212.335938 271.972656 Z M 212.335938 271.972656"/></g><path fill="#77B255" d="M 231.84375 104.351562 C 224.988281 98.753906 214.253906 96.042969 203.15625 95.363281 C 204.617188 95.164062 206.0625 94.953125 207.550781 94.859375 C 212.769531 94.519531 226.929688 88.253906 215.058594 89.03125 C 209.863281 89.371094 204.867188 90.421875 199.847656 91.300781 C 201.117188 90.472656 202.414062 89.660156 203.816406 88.929688 C 203.679688 85.203125 182.230469 85.203125 171.40625 94.253906 C 168.660156 93.652344 166.144531 90.566406 150.058594 90.566406 C 139.332031 90.566406 124.9375 95.527344 133.972656 95.925781 C 138.886719 96.144531 144.695312 95.925781 143.933594 97.882812 C 140.421875 98.203125 123.246094 101.285156 123.246094 106.644531 C 123.246094 108.535156 138.046875 105.71875 139.332031 106.644531 C 130.101562 110.097656 123.246094 117.363281 123.246094 122.722656 C 123.246094 124.992188 135.101562 118.300781 139.332031 117.363281 C 133.972656 122.722656 131.828125 126.480469 132.136719 130.375 C 132.339844 132.917969 144.941406 129.890625 146.25 129.46875 C 150.660156 128.019531 166.144531 122.722656 170.917969 114.867188 C 171.542969 116.394531 186.804688 122.054688 192.957031 122.722656 C 195.792969 123.035156 207.003906 124.191406 204.4375 118.914062 C 203.679688 117.363281 198.320312 112.003906 196.683594 106.777344 C 199.074219 106.675781 241.214844 112.003906 231.84375 104.351562 Z M 231.84375 104.351562"/><path fill="#F4ABBA" d="M 141.152344 177.964844 C 140.421875 170.136719 127.53125 160.535156 128.652344 172.605469 C 129.382812 180.429688 142.273438 190.035156 141.152344 177.964844 Z M 181.144531 180.929688 C 180.773438 177.59375 179.632812 174.542969 177.460938 171.972656 C 174.960938 169.023438 171.695312 170.03125 170.84375 173.664062 C 169.839844 177.949219 171.28125 183.054688 174.089844 186.378906 L 174.3125 186.636719 C 173.167969 183.824219 172.023438 181.007812 170.867188 178.199219 L 170.902344 178.453125 C 171.28125 181.882812 173.03125 187.722656 176.992188 188.667969 C 181.035156 189.644531 181.421875 183.371094 181.144531 180.929688 Z M 211.988281 154.980469 C 214.539062 149.863281 212.898438 133.746094 207.53125 144.507812 C 204.976562 149.621094 206.613281 165.742188 211.988281 154.980469 Z M 250.652344 147.171875 C 250.492188 145.257812 250.261719 142.992188 248.558594 141.757812 C 242.179688 137.160156 235.789062 154.402344 241.128906 158.265625 C 241.238281 158.332031 241.324219 158.398438 241.425781 158.476562 L 239.652344 153.550781 C 239.652344 153.644531 239.65625 153.738281 239.667969 153.828125 C 239.929688 156.851562 241.683594 161.207031 245.480469 158.910156 C 249.054688 156.734375 250.992188 151.167969 250.652344 147.171875 Z M 243.441406 193.089844 C 248.890625 184.679688 240.519531 174.59375 233.898438 184.824219 C 228.449219 193.230469 236.824219 203.316406 243.441406 193.089844 Z M 212.621094 208.601562 C 213.546875 198.214844 200.238281 193.851562 199.160156 205.941406 C 198.234375 216.332031 211.542969 220.695312 212.621094 208.601562 Z M 159.554688 202.105469 L 159.292969 202.125 L 166.59375 205.960938 C 166.5625 205.9375 166.535156 205.898438 166.5 205.867188 C 164.859375 204.367188 159.242188 200.0625 156.910156 202.695312 C 154.550781 205.359375 159.582031 210.3125 161.222656 211.824219 C 163.054688 213.503906 166.199219 215.914062 168.886719 215.734375 C 176.589844 215.238281 164.6875 201.773438 159.554688 202.105469 Z M 230.480469 233.765625 C 235.675781 228.054688 234.367188 212.058594 226.203125 221.03125 C 221.007812 226.746094 222.320312 242.738281 230.480469 233.765625 Z M 158.632812 158.921875 C 159.132812 158.894531 159.636719 158.855469 160.132812 158.816406 C 163.902344 158.570312 165.515625 151.023438 165.722656 148.355469 C 165.957031 145.296875 165.492188 140.550781 161.511719 140.8125 L 160.003906 140.917969 C 156.242188 141.167969 154.621094 148.710938 154.417969 151.378906 C 154.183594 154.4375 154.652344 159.1875 158.632812 158.921875 Z M 200.703125 240.695312 C 202.824219 244.792969 202.054688 249.394531 198.988281 250.984375 C 195.921875 252.570312 191.710938 250.546875 189.589844 246.457031 C 187.46875 242.363281 188.238281 237.757812 191.304688 236.171875 C 194.378906 234.585938 198.582031 236.605469 200.703125 240.695312 Z M 200.703125 240.695312"/></svg>