<?xml version="1.0" encoding="UTF-8"?>
<svg xmlns="http://www.w3.org/2000/svg" xmlns:xlink="http://www.w3.org/1999/xlink" width="1125pt" height="1124.99995pt" viewBox="0 0 1125 1124.99995" version="1.2">
<defs>
<clipPath id="clip1">
  <path d="M 111.335938 111.921875 L 1012.5 111.921875 L 1012.5 1013.082031 L 111.335938 1013.082031 Z M 111.335938 111.921875 "/>
</clipPath>
<clipPath id="clip2">
  <path d="M 1012.5 562.503906 C 1012.5 811.34375 810.765625 1013.078125 561.917969 1013.078125 C 313.070312 1013.078125 111.335938 811.34375 111.335938 562.503906 C 111.335938 313.65625 313.070312 111.921875 561.917969 111.921875 C 810.765625 111.921875 1012.5 313.65625 1012.5 562.503906 Z M 1012.5 562.503906 "/>
</clipPath>
<clipPath id="clip3">
  <path d="M 224.066406 297.285156 L 843 297.285156 L 843 789 L 224.066406 789 Z M 224.066406 297.285156 "/>
</clipPath>
<clipPath id="clip4">
  <path d="M 263 324 L 899.816406 324 L 899.816406 827.535156 L 263 827.535156 Z M 263 324 "/>
</clipPath>
<clipPath id="clip5">
  <path d="M 473 400.445312 L 652 400.445312 L 652 682.445312 L 473 682.445312 Z M 473 400.445312 "/>
</clipPath>
</defs>
<g id="surface1">
<g clip-path="url(#clip1)" clip-rule="nonzero">
<g clip-path="url(#clip2)" clip-rule="nonzero">
<path style=" stroke:none;fill-rule:nonzero;fill:rgb(94.898987%,32.159424%,18.03894%);fill-opacity:1;" d="M 111.335938 111.921875 L 1012.5 111.921875 L 1012.5 1013.082031 L 111.335938 1013.082031 Z M 111.335938 111.921875 "/>
</g>
</g>
<g clip-path="url(#clip3)" clip-rule="nonzero">
<path style=" stroke:none;fill-rule:nonzero;fill:rgb(94.898987%,59.999084%,29.40979%);fill-opacity:1;" d="M 833.144531 584.574219 L 731.691406 366.574219 C 705.457031 314 646.164062 286.707031 589.160156 300.984375 L 299.707031 383.480469 C 244.996094 398.792969 213.050781 455.484375 228.320312 510.183594 L 266.820312 647.875 C 283.824219 703.679688 338.34375 739.363281 396.332031 732.613281 L 640.6875 706.496094 L 772.582031 788.46875 L 738.433594 696.058594 L 774.40625 692.113281 C 830.988281 684.203125 857.128906 636.03125 833.148438 584.578125 "/>
</g>
<g clip-path="url(#clip4)" clip-rule="nonzero">
<path style=" stroke:none;fill-rule:nonzero;fill:rgb(74.899292%,17.248535%,17.248535%);fill-opacity:1;" d="M 812.628906 827.511719 L 773.804688 724.230469 L 821.765625 719.171875 C 843.492188 717.253906 862.976562 705.078125 874.175781 686.355469 C 883.816406 666.6875 883.445312 643.566406 873.097656 624.269531 L 771.5 406.238281 C 747.148438 357.683594 692.351562 332.496094 639.605469 345.601562 L 350.152344 428.050781 C 300.078125 441.859375 270.664062 493.648438 284.480469 543.703125 L 323.449219 681.441406 C 339.234375 733.027344 389.722656 765.953125 443.355469 759.578125 L 565.648438 746.511719 L 567.335938 764.359375 L 445.273438 777.421875 C 382.984375 784.484375 324.480469 746.140625 306.171875 686.210938 L 267.664062 548.617188 C 251.082031 489.152344 285.792969 427.488281 345.273438 410.78125 L 634.6875 328.328125 C 695.996094 312.925781 759.796875 342.1875 788.082031 398.695312 L 889.488281 616.679688 C 902.367188 641.167969 902.558594 670.339844 890.097656 694.972656 C 876.140625 718.847656 851.550781 734.488281 824.054688 737.054688 L 798.996094 739.679688 L 829.535156 821.289062 L 812.628906 827.511719 "/>
</g>
<g clip-path="url(#clip5)" clip-rule="nonzero">
<path style=" stroke:none;fill-rule:nonzero;fill:rgb(100%,100%,100%);fill-opacity:1;" d="M 640.640625 428.867188 C 634.992188 426.972656 629.277344 426.046875 623.253906 426.046875 C 599.84375 426.046875 584.859375 445.257812 581.085938 480.089844 L 578.859375 499.367188 C 578.769531 500.160156 579.035156 500.953125 579.542969 501.527344 C 580.074219 502.121094 580.824219 502.453125 581.617188 502.453125 L 623.453125 502.453125 L 623.453125 520.320312 L 578.640625 520.320312 C 577.25 520.320312 576.058594 521.355469 575.878906 522.742188 L 566.964844 598.816406 C 560.171875 653.5625 541.660156 676.917969 505.054688 676.917969 C 495.367188 676.917969 485.945312 675.175781 479.304688 672.246094 L 483.917969 654.160156 C 489.410156 656.230469 495.523438 657.199219 502.824219 657.199219 C 529.082031 657.199219 537.335938 632.941406 541.636719 596.503906 L 550.175781 523.402344 C 550.265625 522.609375 550.019531 521.839844 549.492188 521.246094 C 548.960938 520.648438 548.210938 520.320312 547.417969 520.320312 L 516 520.320312 L 516 502.453125 L 550.019531 502.453125 C 551.410156 502.453125 552.582031 501.417969 552.78125 500.050781 L 555.007812 482.953125 C 559.289062 447.835938 574.578125 405.976562 623.140625 405.976562 C 632.078125 406.261719 639.976562 407.804688 645.292969 410.230469 Z M 649.882812 406.375 C 643.90625 402.957031 634.242188 400.800781 623.253906 400.445312 C 570.519531 400.445312 554.035156 444.949219 549.515625 482.269531 L 547.59375 496.921875 L 513.21875 496.921875 C 511.695312 496.921875 510.460938 498.15625 510.460938 499.699219 L 510.460938 523.074219 C 510.460938 524.613281 511.695312 525.847656 513.21875 525.847656 L 544.328125 525.847656 L 536.144531 595.863281 C 531.332031 636.554688 522.308594 651.667969 502.824219 651.667969 C 494.992188 651.667969 488.75 650.457031 483.1875 647.859375 C 482.4375 647.503906 481.578125 647.503906 480.828125 647.859375 C 480.101562 648.210938 479.546875 648.894531 479.328125 649.6875 L 473.390625 673.0625 C 473.082031 674.296875 473.65625 675.59375 474.78125 676.191406 C 482.195312 680.113281 493.515625 682.445312 505.054688 682.445312 C 555.667969 682.445312 567.671875 638.121094 572.484375 599.476562 L 581.109375 525.847656 L 626.210938 525.847656 C 627.730469 525.847656 628.988281 524.613281 628.988281 523.074219 L 628.988281 499.699219 C 628.988281 498.15625 627.730469 496.921875 626.210938 496.921875 L 584.707031 496.921875 L 586.605469 480.707031 C 588.589844 462.355469 595.980469 431.578125 623.253906 431.578125 C 629.605469 431.578125 635.585938 432.722656 641.542969 435.101562 C 642.292969 435.386719 643.109375 435.34375 643.839844 434.992188 C 644.542969 434.617188 645.074219 433.957031 645.25 433.183594 L 651.207031 409.4375 C 651.496094 408.246094 650.964844 406.988281 649.882812 406.375 "/>
</g>
</g>
</svg>
