<?xml version="1.0" encoding="UTF-8"?><svg xmlns="http://www.w3.org/2000/svg" xmlns:xlink="http://www.w3.org/1999/xlink" contentScriptType="text/ecmascript" width="49.5" zoomAndPan="magnify" contentStyleType="text/css" viewBox="0 0 49.5 49.499998" height="49.499998" preserveAspectRatio="xMidYMid meet" version="1.0"><defs><clipPath id="clip-0"><path d="M 0 0 L 49.003906 0 L 49.003906 49.003906 L 0 49.003906 Z M 0 0 " clip-rule="nonzero"/></clipPath><clipPath id="clip-1"><path d="M 1.175781 1.175781 L 48.324219 1.175781 L 48.324219 48.324219 L 1.175781 48.324219 Z M 1.175781 1.175781 " clip-rule="nonzero"/></clipPath><clipPath id="clip-2"><path d="M 48.324219 24.75 C 48.324219 37.769531 37.769531 48.324219 24.75 48.324219 C 11.730469 48.324219 1.175781 37.769531 1.175781 24.75 C 1.175781 11.730469 11.730469 1.175781 24.75 1.175781 C 37.769531 1.175781 48.324219 11.730469 48.324219 24.75 Z M 48.324219 24.75 " clip-rule="nonzero"/></clipPath><clipPath id="clip-3"><path d="M 7.074219 10.875 L 40 10.875 L 40 37 L 7.074219 37 Z M 7.074219 10.875 " clip-rule="nonzero"/></clipPath><clipPath id="clip-4"><path d="M 9 12 L 42.324219 12 L 42.324219 38.625 L 9 38.625 Z M 9 12 " clip-rule="nonzero"/></clipPath><clipPath id="clip-5"><path d="M 20.054688 16.269531 L 29.804688 16.269531 L 29.804688 31.269531 L 20.054688 31.269531 Z M 20.054688 16.269531 " clip-rule="nonzero"/></clipPath></defs><g clip-path="url(#clip-0)"><path fill="rgb(100%, 100%, 100%)" d="M 0 0 L 49.5 0 L 49.5 56.25 L 0 56.25 Z M 0 0 " fill-opacity="1" fill-rule="nonzero"/><path fill="rgb(100%, 100%, 100%)" d="M 0 0 L 49.5 0 L 49.5 49.5 L 0 49.5 Z M 0 0 " fill-opacity="1" fill-rule="nonzero"/><path fill="rgb(100%, 100%, 100%)" d="M 0 0 L 49.5 0 L 49.5 49.5 L 0 49.5 Z M 0 0 " fill-opacity="1" fill-rule="nonzero"/></g><g clip-path="url(#clip-1)"><g clip-path="url(#clip-2)"><path fill="rgb(94.898987%, 59.999084%, 29.40979%)" d="M 1.175781 1.175781 L 48.324219 1.175781 L 48.324219 48.324219 L 1.175781 48.324219 Z M 1.175781 1.175781 " fill-opacity="1" fill-rule="nonzero"/></g></g><g clip-path="url(#clip-3)"><path fill="rgb(94.898987%, 32.159424%, 18.03894%)" d="M 38.847656 25.90625 L 33.554688 14.5 C 32.183594 11.746094 29.09375 10.320312 26.117188 11.066406 L 11.015625 15.382812 C 8.160156 16.183594 6.496094 19.152344 7.292969 22.015625 L 9.300781 29.222656 C 10.1875 32.140625 13.03125 34.007812 16.058594 33.65625 L 28.804688 32.289062 L 35.6875 36.578125 L 33.90625 31.742188 L 35.78125 31.535156 C 38.734375 31.121094 40.097656 28.601562 38.847656 25.910156 " fill-opacity="1" fill-rule="nonzero"/></g><g clip-path="url(#clip-4)"><path fill="rgb(74.899292%, 17.248535%, 17.248535%)" d="M 37.777344 38.621094 L 35.75 33.21875 L 38.253906 32.953125 C 39.386719 32.851562 40.402344 32.214844 40.988281 31.234375 C 41.492188 30.207031 41.472656 28.996094 40.933594 27.984375 L 35.632812 16.574219 C 34.359375 14.035156 31.5 12.714844 28.75 13.402344 L 13.648438 17.714844 C 11.035156 18.4375 9.5 21.148438 10.222656 23.769531 L 12.253906 30.976562 C 13.078125 33.675781 15.710938 35.402344 18.511719 35.066406 L 24.890625 34.382812 L 24.980469 35.316406 L 18.609375 36 C 15.359375 36.371094 12.308594 34.363281 11.351562 31.226562 L 9.34375 24.027344 C 8.480469 20.914062 10.289062 17.6875 13.394531 16.8125 L 28.492188 12.496094 C 31.691406 11.691406 35.019531 13.222656 36.496094 16.179688 L 41.789062 27.589844 C 42.460938 28.871094 42.46875 30.398438 41.820312 31.6875 C 41.089844 32.933594 39.808594 33.753906 38.375 33.886719 L 37.066406 34.027344 L 38.660156 38.296875 L 37.777344 38.621094 " fill-opacity="1" fill-rule="nonzero"/></g><g clip-path="url(#clip-5)"><path fill="rgb(100%, 100%, 100%)" d="M 29.144531 17.78125 C 28.839844 17.683594 28.53125 17.632812 28.207031 17.632812 C 26.941406 17.632812 26.132812 18.65625 25.929688 20.507812 L 25.808594 21.53125 C 25.804688 21.574219 25.820312 21.617188 25.847656 21.648438 C 25.875 21.679688 25.914062 21.695312 25.957031 21.695312 L 28.214844 21.695312 L 28.214844 22.648438 L 25.796875 22.648438 C 25.722656 22.648438 25.660156 22.703125 25.648438 22.777344 L 25.167969 26.824219 C 24.800781 29.734375 23.800781 30.976562 21.828125 30.976562 C 21.304688 30.976562 20.796875 30.882812 20.4375 30.726562 L 20.6875 29.765625 C 20.980469 29.875 21.3125 29.929688 21.707031 29.929688 C 23.125 29.929688 23.570312 28.636719 23.800781 26.699219 L 24.261719 22.8125 C 24.265625 22.769531 24.253906 22.726562 24.226562 22.695312 C 24.195312 22.664062 24.15625 22.648438 24.113281 22.648438 L 22.417969 22.648438 L 22.417969 21.695312 L 24.253906 21.695312 C 24.328125 21.695312 24.390625 21.640625 24.402344 21.570312 L 24.523438 20.660156 C 24.753906 18.792969 25.578125 16.566406 28.199219 16.566406 C 28.683594 16.582031 29.109375 16.664062 29.394531 16.792969 Z M 29.644531 16.585938 C 29.320312 16.40625 28.796875 16.289062 28.207031 16.269531 C 25.359375 16.269531 24.46875 18.636719 24.226562 20.625 L 24.121094 21.402344 L 22.265625 21.402344 C 22.183594 21.402344 22.117188 21.46875 22.117188 21.550781 L 22.117188 22.792969 C 22.117188 22.875 22.183594 22.941406 22.265625 22.941406 L 23.945312 22.941406 L 23.503906 26.664062 C 23.246094 28.828125 22.757812 29.632812 21.707031 29.632812 C 21.285156 29.632812 20.945312 29.570312 20.644531 29.429688 C 20.605469 29.414062 20.558594 29.414062 20.519531 29.429688 C 20.480469 29.449219 20.449219 29.484375 20.4375 29.527344 L 20.117188 30.773438 C 20.101562 30.835938 20.132812 30.90625 20.191406 30.9375 C 20.59375 31.148438 21.203125 31.269531 21.828125 31.269531 C 24.558594 31.269531 25.207031 28.914062 25.464844 26.859375 L 25.929688 22.941406 L 28.363281 22.941406 C 28.445312 22.941406 28.515625 22.875 28.515625 22.792969 L 28.515625 21.550781 C 28.515625 21.46875 28.445312 21.402344 28.363281 21.402344 L 26.125 21.402344 L 26.226562 20.539062 C 26.335938 19.5625 26.734375 17.925781 28.207031 17.925781 C 28.546875 17.925781 28.871094 17.988281 29.191406 18.113281 C 29.234375 18.128906 29.277344 18.128906 29.316406 18.109375 C 29.355469 18.089844 29.382812 18.054688 29.394531 18.011719 L 29.714844 16.75 C 29.730469 16.6875 29.699219 16.617188 29.644531 16.585938 " fill-opacity="1" fill-rule="nonzero"/></g></svg>