<svg xmlns="http://www.w3.org/2000/svg" width="70" viewBox="0 0 375 375" height="70" version="1.0"><defs><clipPath id="a"><path d="M 58 113 L 314 113 L 314 333.75 L 58 333.75 Z M 58 113"/></clipPath></defs><path fill="#4F090B" d="M 159.308594 40.054688 C 159.308594 40.054688 159.675781 40.191406 160.363281 40.453125 C 170.378906 44.269531 176.667969 54.011719 180.078125 63.601562 C 184.359375 75.671875 187.132812 88.597656 188.085938 101.363281 C 188.847656 111.601562 189.074219 122.679688 187.164062 132.8125 C 186.894531 134.234375 186.300781 138.90625 184.128906 138.621094 C 180.921875 138.207031 183.242188 130.949219 183.394531 129.335938 C 183.871094 124.382812 183.632812 119.257812 182.984375 114.335938 C 181.589844 103.695312 178.339844 93.425781 174.789062 83.339844 C 171.820312 74.914062 168.253906 65.777344 161.214844 59.882812 C 156.96875 56.328125 155.179688 56.214844 155.179688 56.214844 C 155.386719 55.53125 159.472656 40.113281 159.308594 40.054688"/><path fill="#320404" d="M 163.085938 49.851562 C 164.351562 45.421875 163.09375 41.183594 160.277344 40.375 C 157.464844 39.570312 154.148438 42.503906 152.882812 46.929688 C 151.617188 51.351562 152.871094 55.597656 155.6875 56.402344 C 158.507812 57.210938 161.816406 54.273438 163.085938 49.851562"/><g clip-path="url(#a)"><path fill="#CF1E2B" d="M 312.167969 167.445312 C 318.636719 227.871094 300.003906 331.039062 220.039062 333.261719 C 204.285156 333.699219 198.585938 326.410156 185.941406 326.410156 C 173.769531 326.410156 168.324219 333.699219 152.832031 332.609375 C 80.476562 327.511719 55.902344 225.851562 59.003906 168.164062 C 62.597656 101.265625 148.90625 109.175781 185.941406 128.910156 C 233.050781 105.585938 305.132812 101.796875 312.167969 167.445312"/></g><path fill="#80CD3B" d="M 264.660156 53.894531 C 267.160156 61.335938 252.242188 79.125 229.085938 86.90625 C 205.933594 94.6875 183.296875 89.511719 180.800781 82.070312 C 178.300781 74.632812 191.933594 53.019531 215.089844 45.246094 C 238.25 37.464844 262.160156 46.460938 264.660156 53.894531"/></svg>