<svg xmlns="http://www.w3.org/2000/svg" width="70" viewBox="0 0 375 375" height="70" version="1.0"><defs><clipPath id="a"><path d="M 190.695312 79 L 241 79 L 241 149 L 190.695312 149 Z M 190.695312 79"/></clipPath><clipPath id="b"><path d="M 192.492188 116.046875 C 189.359375 123.625 188.46875 131.867188 189.359375 139.882812 C 189.804688 143.007812 191.375 146.792969 190.703125 149.90625 C 190.03125 153.703125 187.570312 156.589844 188.023438 160.828125 C 188.6875 166.398438 196.503906 170.628906 200.753906 165.285156 C 202.757812 162.832031 204.546875 160.386719 206.78125 157.933594 C 211.472656 154.816406 216.605469 152.136719 220.851562 149.246094 C 228.441406 144.121094 235.367188 137.65625 238.71875 128.96875 C 241.398438 121.84375 240.953125 114.488281 239.835938 106.917969 C 238.71875 99.78125 237.15625 92.652344 239.164062 85.753906 C 240.726562 80.183594 234.253906 77.726562 230.230469 79.511719 C 214.152344 87.082031 198.964844 99.121094 192.492188 116.046875"/></clipPath><clipPath id="c"><path d="M 99.125 138 L 275.960938 138 L 275.960938 296.816406 L 99.125 296.816406 Z M 99.125 138"/></clipPath><clipPath id="d"><path d="M 122 163 L 232 163 L 232 248 L 122 248 Z M 122 163"/></clipPath><clipPath id="e"><path d="M 136.875 143.449219 C 130.402344 146.121094 124.820312 149.90625 120.125 155.035156 C 104.71875 171.96875 97.128906 194.910156 99.578125 217.640625 C 102.257812 240.363281 112.980469 261.300781 129.957031 276.679688 C 135.757812 282.25 142.457031 286.929688 149.832031 290.273438 C 160.996094 294.945312 173.507812 295.617188 185.5625 296.285156 C 202.539062 297.175781 220.625 297.84375 235.8125 290.492188 C 250.777344 283.363281 261.496094 268.882812 266.855469 253.285156 C 272.21875 237.691406 276.902344 216.96875 275.789062 200.480469 C 274.453125 181.550781 271.546875 167.289062 258.59375 153.476562 C 251.449219 145.90625 236.484375 139.4375 225.992188 138.769531 C 215.488281 138.105469 210.574219 143.222656 201.867188 146.347656 C 191.53125 150.117188 180.738281 147.488281 169.851562 144.851562 C 158.859375 142.1875 147.753906 139.535156 136.875 143.449219"/></clipPath><clipPath id="f"><path d="M 132 234 L 228 234 L 228 270 L 132 270 Z M 132 234"/></clipPath><clipPath id="g"><path d="M 136.875 143.449219 C 130.402344 146.121094 124.820312 149.90625 120.125 155.035156 C 104.71875 171.96875 97.128906 194.910156 99.578125 217.640625 C 102.257812 240.363281 112.980469 261.300781 129.957031 276.679688 C 135.757812 282.25 142.457031 286.929688 149.832031 290.273438 C 160.996094 294.945312 173.507812 295.617188 185.5625 296.285156 C 202.539062 297.175781 220.625 297.84375 235.8125 290.492188 C 250.777344 283.363281 261.496094 268.882812 266.855469 253.285156 C 272.21875 237.691406 276.902344 216.96875 275.789062 200.480469 C 274.453125 181.550781 271.546875 167.289062 258.59375 153.476562 C 251.449219 145.90625 236.484375 139.4375 225.992188 138.769531 C 215.488281 138.105469 210.574219 143.222656 201.867188 146.347656 C 191.53125 150.117188 180.738281 147.488281 169.851562 144.851562 C 158.859375 142.1875 147.753906 139.535156 136.875 143.449219"/></clipPath><clipPath id="h"><path d="M 155 254 L 238 254 L 238 294 L 155 294 Z M 155 254"/></clipPath><clipPath id="i"><path d="M 136.875 143.449219 C 130.402344 146.121094 124.820312 149.90625 120.125 155.035156 C 104.71875 171.96875 97.128906 194.910156 99.578125 217.640625 C 102.257812 240.363281 112.980469 261.300781 129.957031 276.679688 C 135.757812 282.25 142.457031 286.929688 149.832031 290.273438 C 160.996094 294.945312 173.507812 295.617188 185.5625 296.285156 C 202.539062 297.175781 220.625 297.84375 235.8125 290.492188 C 250.777344 283.363281 261.496094 268.882812 266.855469 253.285156 C 272.21875 237.691406 276.902344 216.96875 275.789062 200.480469 C 274.453125 181.550781 271.546875 167.289062 258.59375 153.476562 C 251.449219 145.90625 236.484375 139.4375 225.992188 138.769531 C 215.488281 138.105469 210.574219 143.222656 201.867188 146.347656 C 191.53125 150.117188 180.738281 147.488281 169.851562 144.851562 C 158.859375 142.1875 147.753906 139.535156 136.875 143.449219"/></clipPath><clipPath id="j"><path d="M 198 138 L 275.960938 138 L 275.960938 232 L 198 232 Z M 198 138"/></clipPath><clipPath id="k"><path d="M 136.875 143.449219 C 130.402344 146.121094 124.820312 149.90625 120.125 155.035156 C 104.71875 171.96875 97.128906 194.910156 99.578125 217.640625 C 102.257812 240.363281 112.980469 261.300781 129.957031 276.679688 C 135.757812 282.25 142.457031 286.929688 149.832031 290.273438 C 160.996094 294.945312 173.507812 295.617188 185.5625 296.285156 C 202.539062 297.175781 220.625 297.84375 235.8125 290.492188 C 250.777344 283.363281 261.496094 268.882812 266.855469 253.285156 C 272.21875 237.691406 276.902344 216.96875 275.789062 200.480469 C 274.453125 181.550781 271.546875 167.289062 258.59375 153.476562 C 251.449219 145.90625 236.484375 139.4375 225.992188 138.769531 C 215.488281 138.105469 210.574219 143.222656 201.867188 146.347656 C 191.53125 150.117188 180.738281 147.488281 169.851562 144.851562 C 158.859375 142.1875 147.753906 139.535156 136.875 143.449219"/></clipPath><clipPath id="l"><path d="M 260 223.742188 L 275 223.742188 L 275 242 L 260 242 Z M 260 223.742188"/></clipPath><clipPath id="m"><path d="M 136.875 143.449219 C 130.402344 146.121094 124.820312 149.90625 120.125 155.035156 C 104.71875 171.96875 97.128906 194.910156 99.578125 217.640625 C 102.257812 240.363281 112.980469 261.300781 129.957031 276.679688 C 135.757812 282.25 142.457031 286.929688 149.832031 290.273438 C 160.996094 294.945312 173.507812 295.617188 185.5625 296.285156 C 202.539062 297.175781 220.625 297.84375 235.8125 290.492188 C 250.777344 283.363281 261.496094 268.882812 266.855469 253.285156 C 272.21875 237.691406 276.902344 216.96875 275.789062 200.480469 C 274.453125 181.550781 271.546875 167.289062 258.59375 153.476562 C 251.449219 145.90625 236.484375 139.4375 225.992188 138.769531 C 215.488281 138.105469 210.574219 143.222656 201.867188 146.347656 C 191.53125 150.117188 180.738281 147.488281 169.851562 144.851562 C 158.859375 142.1875 147.753906 139.535156 136.875 143.449219"/></clipPath><clipPath id="n"><path d="M 254 231 L 273 231 L 273 263 L 254 263 Z M 254 231"/></clipPath><clipPath id="o"><path d="M 136.875 143.449219 C 130.402344 146.121094 124.820312 149.90625 120.125 155.035156 C 104.71875 171.96875 97.128906 194.910156 99.578125 217.640625 C 102.257812 240.363281 112.980469 261.300781 129.957031 276.679688 C 135.757812 282.25 142.457031 286.929688 149.832031 290.273438 C 160.996094 294.945312 173.507812 295.617188 185.5625 296.285156 C 202.539062 297.175781 220.625 297.84375 235.8125 290.492188 C 250.777344 283.363281 261.496094 268.882812 266.855469 253.285156 C 272.21875 237.691406 276.902344 216.96875 275.789062 200.480469 C 274.453125 181.550781 271.546875 167.289062 258.59375 153.476562 C 251.449219 145.90625 236.484375 139.4375 225.992188 138.769531 C 215.488281 138.105469 210.574219 143.222656 201.867188 146.347656 C 191.53125 150.117188 180.738281 147.488281 169.851562 144.851562 C 158.859375 142.1875 147.753906 139.535156 136.875 143.449219"/></clipPath><clipPath id="p"><path d="M 203 245 L 270 245 L 270 296.816406 L 203 296.816406 Z M 203 245"/></clipPath><clipPath id="q"><path d="M 136.875 143.449219 C 130.402344 146.121094 124.820312 149.90625 120.125 155.035156 C 104.71875 171.96875 97.128906 194.910156 99.578125 217.640625 C 102.257812 240.363281 112.980469 261.300781 129.957031 276.679688 C 135.757812 282.25 142.457031 286.929688 149.832031 290.273438 C 160.996094 294.945312 173.507812 295.617188 185.5625 296.285156 C 202.539062 297.175781 220.625 297.84375 235.8125 290.492188 C 250.777344 283.363281 261.496094 268.882812 266.855469 253.285156 C 272.21875 237.691406 276.902344 216.96875 275.789062 200.480469 C 274.453125 181.550781 271.546875 167.289062 258.59375 153.476562 C 251.449219 145.90625 236.484375 139.4375 225.992188 138.769531 C 215.488281 138.105469 210.574219 143.222656 201.867188 146.347656 C 191.53125 150.117188 180.738281 147.488281 169.851562 144.851562 C 158.859375 142.1875 147.753906 139.535156 136.875 143.449219"/></clipPath><clipPath id="r"><path d="M 130.394531 141.308594 L 161 141.308594 L 161 163.589844 L 130.394531 163.589844 Z M 130.394531 141.308594"/></clipPath><clipPath id="s"><path d="M 136.875 143.449219 C 130.402344 146.121094 124.820312 149.90625 120.125 155.035156 C 104.71875 171.96875 97.128906 194.910156 99.578125 217.640625 C 102.257812 240.363281 112.980469 261.300781 129.957031 276.679688 C 135.757812 282.25 142.457031 286.929688 149.832031 290.273438 C 160.996094 294.945312 173.507812 295.617188 185.5625 296.285156 C 202.539062 297.175781 220.625 297.84375 235.8125 290.492188 C 250.777344 283.363281 261.496094 268.882812 266.855469 253.285156 C 272.21875 237.691406 276.902344 216.96875 275.789062 200.480469 C 274.453125 181.550781 271.546875 167.289062 258.59375 153.476562 C 251.449219 145.90625 236.484375 139.4375 225.992188 138.769531 C 215.488281 138.105469 210.574219 143.222656 201.867188 146.347656 C 191.53125 150.117188 180.738281 147.488281 169.851562 144.851562 C 158.859375 142.1875 147.753906 139.535156 136.875 143.449219"/></clipPath><clipPath id="t"><path d="M 101.359375 142 L 142 142 L 142 239 L 101.359375 239 Z M 101.359375 142"/></clipPath><clipPath id="u"><path d="M 136.875 143.449219 C 130.402344 146.121094 124.820312 149.90625 120.125 155.035156 C 104.71875 171.96875 97.128906 194.910156 99.578125 217.640625 C 102.257812 240.363281 112.980469 261.300781 129.957031 276.679688 C 135.757812 282.25 142.457031 286.929688 149.832031 290.273438 C 160.996094 294.945312 173.507812 295.617188 185.5625 296.285156 C 202.539062 297.175781 220.625 297.84375 235.8125 290.492188 C 250.777344 283.363281 261.496094 268.882812 266.855469 253.285156 C 272.21875 237.691406 276.902344 216.96875 275.789062 200.480469 C 274.453125 181.550781 271.546875 167.289062 258.59375 153.476562 C 251.449219 145.90625 236.484375 139.4375 225.992188 138.769531 C 215.488281 138.105469 210.574219 143.222656 201.867188 146.347656 C 191.53125 150.117188 180.738281 147.488281 169.851562 144.851562 C 158.859375 142.1875 147.753906 139.535156 136.875 143.449219"/></clipPath><clipPath id="v"><path d="M 99.125 190.324219 L 156 190.324219 L 156 270 L 99.125 270 Z M 99.125 190.324219"/></clipPath><clipPath id="w"><path d="M 136.875 143.449219 C 130.402344 146.121094 124.820312 149.90625 120.125 155.035156 C 104.71875 171.96875 97.128906 194.910156 99.578125 217.640625 C 102.257812 240.363281 112.980469 261.300781 129.957031 276.679688 C 135.757812 282.25 142.457031 286.929688 149.832031 290.273438 C 160.996094 294.945312 173.507812 295.617188 185.5625 296.285156 C 202.539062 297.175781 220.625 297.84375 235.8125 290.492188 C 250.777344 283.363281 261.496094 268.882812 266.855469 253.285156 C 272.21875 237.691406 276.902344 216.96875 275.789062 200.480469 C 274.453125 181.550781 271.546875 167.289062 258.59375 153.476562 C 251.449219 145.90625 236.484375 139.4375 225.992188 138.769531 C 215.488281 138.105469 210.574219 143.222656 201.867188 146.347656 C 191.53125 150.117188 180.738281 147.488281 169.851562 144.851562 C 158.859375 142.1875 147.753906 139.535156 136.875 143.449219"/></clipPath><clipPath id="x"><path d="M 103.59375 236 L 204 236 L 204 296.816406 L 103.59375 296.816406 Z M 103.59375 236"/></clipPath><clipPath id="y"><path d="M 136.875 143.449219 C 130.402344 146.121094 124.820312 149.90625 120.125 155.035156 C 104.71875 171.96875 97.128906 194.910156 99.578125 217.640625 C 102.257812 240.363281 112.980469 261.300781 129.957031 276.679688 C 135.757812 282.25 142.457031 286.929688 149.832031 290.273438 C 160.996094 294.945312 173.507812 295.617188 185.5625 296.285156 C 202.539062 297.175781 220.625 297.84375 235.8125 290.492188 C 250.777344 283.363281 261.496094 268.882812 266.855469 253.285156 C 272.21875 237.691406 276.902344 216.96875 275.789062 200.480469 C 274.453125 181.550781 271.546875 167.289062 258.59375 153.476562 C 251.449219 145.90625 236.484375 139.4375 225.992188 138.769531 C 215.488281 138.105469 210.574219 143.222656 201.867188 146.347656 C 191.53125 150.117188 180.738281 147.488281 169.851562 144.851562 C 158.859375 142.1875 147.753906 139.535156 136.875 143.449219"/></clipPath><clipPath id="z"><path d="M 189 293 L 206 293 L 206 296.816406 L 189 296.816406 Z M 189 293"/></clipPath><clipPath id="A"><path d="M 136.875 143.449219 C 130.402344 146.121094 124.820312 149.90625 120.125 155.035156 C 104.71875 171.96875 97.128906 194.910156 99.578125 217.640625 C 102.257812 240.363281 112.980469 261.300781 129.957031 276.679688 C 135.757812 282.25 142.457031 286.929688 149.832031 290.273438 C 160.996094 294.945312 173.507812 295.617188 185.5625 296.285156 C 202.539062 297.175781 220.625 297.84375 235.8125 290.492188 C 250.777344 283.363281 261.496094 268.882812 266.855469 253.285156 C 272.21875 237.691406 276.902344 216.96875 275.789062 200.480469 C 274.453125 181.550781 271.546875 167.289062 258.59375 153.476562 C 251.449219 145.90625 236.484375 139.4375 225.992188 138.769531 C 215.488281 138.105469 210.574219 143.222656 201.867188 146.347656 C 191.53125 150.117188 180.738281 147.488281 169.851562 144.851562 C 158.859375 142.1875 147.753906 139.535156 136.875 143.449219"/></clipPath><clipPath id="B"><path d="M 124 138 L 221.960938 138 L 221.960938 256 L 124 256 Z M 124 138"/></clipPath><clipPath id="C"><path d="M 136.875 143.449219 C 130.402344 146.121094 124.820312 149.90625 120.125 155.035156 C 104.71875 171.96875 97.128906 194.910156 99.578125 217.640625 C 102.257812 240.363281 112.980469 261.300781 129.957031 276.679688 C 135.757812 282.25 142.457031 286.929688 149.832031 290.273438 C 160.996094 294.945312 173.507812 295.617188 185.5625 296.285156 C 202.539062 297.175781 220.625 297.84375 235.8125 290.492188 C 250.777344 283.363281 261.496094 268.882812 266.855469 253.285156 C 272.21875 237.691406 276.902344 216.96875 275.789062 200.480469 C 274.453125 181.550781 271.546875 167.289062 258.59375 153.476562 C 251.449219 145.90625 236.484375 139.4375 225.992188 138.769531 C 215.488281 138.105469 210.574219 143.222656 201.867188 146.347656 C 191.53125 150.117188 180.738281 147.488281 169.851562 144.851562 C 158.859375 142.1875 147.753906 139.535156 136.875 143.449219"/></clipPath></defs><path fill="#276426" d="M 192.492188 116.046875 C 189.359375 123.625 188.46875 131.867188 189.359375 139.882812 C 189.804688 143.007812 191.375 146.792969 190.703125 149.90625 C 190.03125 153.703125 187.570312 156.589844 188.023438 160.828125 C 188.6875 166.398438 196.503906 170.628906 200.753906 165.285156 C 202.757812 162.832031 204.546875 160.386719 206.78125 157.933594 C 211.472656 154.816406 216.605469 152.136719 220.851562 149.246094 C 228.441406 144.121094 235.367188 137.65625 238.71875 128.96875 C 241.398438 121.84375 240.953125 114.488281 239.835938 106.917969 C 238.71875 99.78125 237.15625 92.652344 239.164062 85.753906 C 240.726562 80.183594 234.253906 77.726562 230.230469 79.511719 C 214.152344 87.082031 198.964844 99.121094 192.492188 116.046875"/><g clip-path="url(#a)"><g clip-path="url(#b)"><path fill="#97973D" d="M 190.867188 148.226562 C 190.867188 148.070312 190.859375 147.914062 190.859375 147.757812 C 191.898438 146.113281 192.980469 144.460938 194.050781 142.78125 C 194.105469 142.703125 194.15625 142.625 194.210938 142.535156 C 194.390625 142.695312 194.644531 142.78125 194.941406 142.78125 C 195.167969 142.78125 195.386719 142.78125 195.613281 142.5625 C 198.738281 140.335938 200.082031 137.4375 202.085938 134.3125 C 204.992188 129.855469 207.898438 125.628906 210.800781 121.171875 C 216.160156 113.375 220.625 105.132812 224.203125 96.4375 C 224.386719 96.351562 224.34375 96.222656 224.203125 96.117188 C 225.101562 94.742188 225.992188 93.367188 226.878906 91.984375 C 229.4375 88.109375 232.316406 83.4375 235.675781 79.375 C 237.757812 80.09375 239.410156 81.722656 239.398438 84.117188 C 239.398438 84.621094 239.328125 85.167969 239.164062 85.753906 C 238.457031 88.171875 238.195312 90.617188 238.195312 93.089844 C 238.195312 97.65625 239.113281 102.289062 239.835938 106.917969 C 240.339844 110.355469 240.707031 113.75 240.707031 117.097656 C 240.71875 121.121094 240.183594 125.078125 238.71875 128.96875 C 237.167969 132.988281 234.855469 136.523438 232.070312 139.683594 C 229.941406 139.203125 227.894531 138.890625 225.992188 138.769531 C 225.363281 138.734375 224.742188 138.714844 224.148438 138.714844 C 214.886719 138.714844 210.050781 143.414062 201.867188 146.347656 C 198.25 147.664062 194.574219 148.203125 190.867188 148.226562"/></g></g><path fill="#3E0E0B" d="M 188.023438 157.261719 C 191.820312 148.132812 193.605469 140.335938 190.921875 130.308594 C 188.6875 122.957031 182.886719 112.261719 174.171875 112.261719 C 172.164062 112.261719 170.601562 114.042969 170.601562 116.046875 C 170.601562 116.273438 170.601562 116.488281 170.601562 116.714844 C 171.492188 122.730469 177.300781 128.527344 179.980469 134.09375 C 182.886719 140.335938 185.335938 149.464844 184.21875 156.375 C 184.003906 157.488281 184.675781 158.601562 185.5625 158.820312 C 186.679688 158.820312 187.796875 158.15625 188.023438 157.261719"/><g clip-path="url(#c)"><path fill="#F68B23" d="M 136.875 143.449219 C 130.402344 146.121094 124.820312 149.90625 120.125 155.035156 C 104.71875 171.96875 97.128906 194.910156 99.578125 217.640625 C 102.257812 240.363281 112.980469 261.300781 129.957031 276.679688 C 135.757812 282.25 142.457031 286.929688 149.832031 290.273438 C 160.996094 294.945312 173.507812 295.617188 185.5625 296.285156 C 202.539062 297.175781 220.625 297.84375 235.8125 290.492188 C 250.777344 283.363281 261.496094 268.882812 266.855469 253.285156 C 272.21875 237.691406 276.902344 216.96875 275.789062 200.480469 C 274.453125 181.550781 271.546875 167.289062 258.59375 153.476562 C 251.449219 145.90625 236.484375 139.4375 225.992188 138.769531 C 215.488281 138.105469 210.574219 143.222656 201.867188 146.347656 C 191.53125 150.117188 180.738281 147.488281 169.851562 144.851562 C 158.859375 142.1875 147.753906 139.535156 136.875 143.449219"/></g><g clip-path="url(#d)"><g clip-path="url(#e)"><path fill="#F68B23" d="M 227.011719 247.019531 C 222.492188 244.976562 219.089844 242.15625 217.945312 239.25 C 216.367188 236.253906 213.4375 234.59375 210.355469 234.59375 C 209.09375 234.59375 207.792969 234.878906 206.554688 235.464844 C 195.082031 242.035156 179.265625 246.132812 163.816406 246.132812 C 152.457031 246.132812 141.289062 243.914062 132.199219 238.839844 C 129.84375 233.835938 127.898438 228.71875 126.378906 223.652344 C 121.242188 206.5 120.351562 188.007812 126.605469 171.074219 C 127.601562 168.269531 128.902344 165.617188 130.480469 163.144531 C 128.789062 171.492188 129.710938 180.402344 133.96875 188.679688 C 136.65625 193.898438 140.09375 198.320312 144.074219 201.96875 C 144.152344 203.308594 144.316406 204.570312 144.472656 205.832031 C 143.800781 214.742188 144.691406 223.652344 150.503906 231.226562 C 155.464844 237.621094 162.960938 241.722656 170.75 241.722656 C 173.828125 241.722656 176.945312 241.085938 179.980469 239.691406 C 189.855469 235.054688 194.53125 225.230469 195.449219 214.855469 C 199.304688 214.210938 203.109375 213.28125 206.78125 212.070312 C 207.601562 211.835938 208.410156 211.722656 209.207031 211.722656 C 212.941406 211.722656 216.175781 214.1875 217.277344 217.859375 C 218.6875 225.523438 224.507812 230.773438 231.398438 233.609375 C 230.109375 238.152344 228.582031 242.632812 227.011719 247.019531"/></g></g><g clip-path="url(#f)"><g clip-path="url(#g)"><path fill="#F68B23" d="M 160.5 269.769531 C 158.796875 269.769531 157.105469 269.726562 155.429688 269.648438 C 145.554688 261.667969 137.738281 250.597656 132.199219 238.839844 C 141.289062 243.914062 152.457031 246.132812 163.816406 246.132812 C 179.265625 246.132812 195.082031 242.035156 206.554688 235.464844 C 207.792969 234.878906 209.09375 234.59375 210.355469 234.59375 C 213.4375 234.59375 216.367188 236.253906 217.945312 239.25 C 219.089844 242.15625 222.492188 244.976562 227.011719 247.019531 C 226.226562 249.203125 225.433594 251.371094 224.648438 253.503906 C 224.054688 255.234375 223.878906 257.019531 224.046875 258.769531 C 223.851562 258.507812 223.679688 258.238281 223.53125 257.960938 C 222.125 255.863281 219.753906 254.730469 217.355469 254.730469 C 215.933594 254.730469 214.5 255.132812 213.253906 255.957031 C 202.269531 264.148438 180.652344 269.769531 160.5 269.769531"/></g></g><g clip-path="url(#h)"><g clip-path="url(#i)"><path fill="#F68B23" d="M 203.699219 293.589844 C 203.027344 292.554688 202.078125 291.664062 200.96875 290.933594 C 199.191406 289.375 197.175781 288.261719 194.941406 287.148438 C 190.03125 284.703125 184.890625 282.691406 179.535156 281.136719 C 171.046875 278.464844 162.785156 275.792969 155.859375 269.996094 C 155.71875 269.882812 155.570312 269.761719 155.429688 269.648438 C 157.105469 269.726562 158.796875 269.769531 160.5 269.769531 C 180.652344 269.769531 202.269531 264.148438 213.253906 255.957031 C 214.5 255.132812 215.933594 254.730469 217.355469 254.730469 C 219.753906 254.730469 222.125 255.863281 223.53125 257.960938 C 223.679688 258.238281 223.851562 258.507812 224.046875 258.769531 C 224.628906 264.929688 229.453125 270.710938 235.367188 272.441406 C 236.207031 272.667969 237.042969 272.816406 237.863281 272.894531 C 233.03125 279.59375 227.5 285.902344 219.953125 289.375 C 214.632812 291.777344 209.152344 292.753906 203.699219 293.589844"/></g></g><g clip-path="url(#j)"><g clip-path="url(#k)"><path fill="#F89A2A" d="M 263.085938 231.949219 C 264.246094 226.203125 265.03125 220.40625 265.292969 214.570312 C 274.332031 201.367188 263.355469 180.054688 253.90625 169.957031 C 252.949219 168.957031 251.902344 167.949219 250.792969 166.984375 C 249.207031 165.128906 247.488281 163.371094 245.636719 161.71875 C 242.105469 158.460938 233.921875 152.476562 227.054688 151.414062 C 224.046875 150.109375 220.921875 149.082031 217.71875 148.351562 C 214.398438 147.609375 210.757812 147.183594 207.199219 147.183594 C 206.457031 147.183594 205.726562 147.203125 204.992188 147.234375 C 203.421875 147.324219 201.929688 147.460938 200.507812 147.460938 C 199.835938 147.460938 199.171875 147.4375 198.527344 147.347656 C 199.644531 147.078125 200.761719 146.75 201.867188 146.347656 C 210.050781 143.414062 214.886719 138.714844 224.148438 138.714844 C 224.742188 138.714844 225.363281 138.734375 225.992188 138.769531 C 236.484375 139.4375 251.449219 145.90625 258.59375 153.476562 C 271.546875 167.289062 274.453125 181.550781 275.789062 200.480469 C 275.902344 202.140625 275.953125 203.847656 275.953125 205.578125 C 275.953125 211.453125 275.34375 217.71875 274.320312 223.992188 C 273.910156 224.289062 273.511719 224.621094 273.109375 224.984375 C 270.117188 227.824219 266.722656 230.164062 263.085938 231.949219"/></g></g><g clip-path="url(#l)"><g clip-path="url(#m)"><path fill="#F89A2A" d="M 260.800781 241.574219 C 261.664062 238.378906 262.429688 235.175781 263.085938 231.949219 C 266.722656 230.164062 270.117188 227.824219 273.109375 224.984375 C 273.511719 224.621094 273.910156 224.289062 274.320312 223.992188 C 273.894531 226.5625 273.40625 229.136719 272.863281 231.6875 C 272.304688 231.589844 271.75 231.539062 271.191406 231.539062 C 268.109375 231.539062 265.238281 233.042969 263.730469 236.578125 C 262.910156 238.464844 261.925781 240.121094 260.800781 241.574219"/></g></g><g clip-path="url(#n)"><g clip-path="url(#o)"><path fill="#F89A2A" d="M 254.117188 262.355469 C 254.195312 262.15625 254.273438 261.953125 254.351562 261.746094 C 256.726562 255.097656 258.96875 248.371094 260.800781 241.574219 C 261.925781 240.121094 262.910156 238.464844 263.730469 236.578125 C 265.238281 233.042969 268.109375 231.539062 271.191406 231.539062 C 271.75 231.539062 272.304688 231.589844 272.863281 231.6875 C 271.84375 236.464844 270.621094 241.171875 269.304688 245.621094 C 266.617188 245.933594 264.261719 247.558594 263.285156 250.832031 C 261.636719 256.394531 258.253906 260.09375 254.117188 262.355469"/></g></g><g clip-path="url(#p)"><g clip-path="url(#q)"><path fill="#F89A2A" d="M 205.699219 296.765625 C 205.621094 296.597656 205.53125 296.441406 205.4375 296.285156 C 205.238281 295.878906 204.84375 295.46875 204.433594 295.058594 C 204.335938 294.824219 204.222656 294.5625 204.101562 294.277344 C 203.980469 294.039062 203.847656 293.804688 203.699219 293.589844 C 209.152344 292.753906 214.632812 291.777344 219.953125 289.375 C 227.5 285.902344 233.03125 279.59375 237.863281 272.894531 C 238.363281 272.945312 238.859375 272.972656 239.347656 272.972656 C 245.953125 272.972656 251.550781 268.585938 254.117188 262.355469 C 258.253906 260.09375 261.636719 256.394531 263.285156 250.832031 C 264.261719 247.558594 266.617188 245.933594 269.304688 245.621094 C 268.519531 248.273438 267.699219 250.839844 266.855469 253.285156 C 261.496094 268.882812 250.777344 283.363281 235.8125 290.492188 C 226.550781 294.972656 216.210938 296.476562 205.699219 296.765625"/></g></g><g clip-path="url(#r)"><g clip-path="url(#s)"><path fill="#F68B23" d="M 130.480469 163.144531 C 132.085938 155.296875 136.011719 147.949219 141.671875 142.128906 C 144.054688 141.667969 146.445312 141.476562 148.835938 141.476562 C 152.804688 141.476562 156.785156 142.015625 160.761719 142.789062 C 159.871094 143.460938 159.207031 144.121094 158.320312 144.789062 C 156.304688 145.679688 154.296875 146.566406 152.0625 147.019531 C 148.042969 148.351562 144.472656 150.132812 140.898438 152.363281 C 136.683594 155.304688 133.167969 158.957031 130.480469 163.144531"/></g></g><g clip-path="url(#t)"><g clip-path="url(#u)"><path fill="#F68B23" d="M 132.199219 238.839844 C 127.652344 236.300781 123.625 233.054688 120.351562 228.996094 C 112.621094 219.46875 105.03125 204.71875 101.359375 190.480469 C 104.507812 177.410156 110.921875 165.144531 120.125 155.035156 C 124.820312 149.90625 130.402344 146.121094 136.875 143.449219 C 138.472656 142.875 140.066406 142.441406 141.671875 142.128906 C 136.011719 147.949219 132.085938 155.296875 130.480469 163.144531 C 128.902344 165.617188 127.601562 168.269531 126.605469 171.074219 C 120.351562 188.007812 121.242188 206.5 126.378906 223.652344 C 127.898438 228.71875 129.84375 233.835938 132.199219 238.839844"/></g></g><g clip-path="url(#v)"><g clip-path="url(#w)"><path fill="#F68B23" d="M 155.429688 269.648438 C 141.875 268.976562 129.484375 265.566406 122.140625 258.402344 C 116.582031 252.9375 109.742188 245.113281 103.828125 236.664062 C 101.777344 230.527344 100.347656 224.160156 99.578125 217.640625 C 99.273438 214.820312 99.125 212 99.125 209.183594 C 99.125 202.863281 99.886719 196.582031 101.359375 190.480469 C 105.03125 204.71875 112.621094 219.46875 120.351562 228.996094 C 123.625 233.054688 127.652344 236.300781 132.199219 238.839844 C 137.738281 250.597656 145.554688 261.667969 155.429688 269.648438"/></g></g><g clip-path="url(#x)"><g clip-path="url(#y)"><path fill="#F68B23" d="M 189.578125 296.488281 C 188.234375 296.417969 186.898438 296.355469 185.5625 296.285156 C 173.507812 295.617188 160.996094 294.945312 149.832031 290.273438 C 142.457031 286.929688 135.757812 282.25 129.957031 276.679688 C 117.847656 265.714844 108.921875 251.921875 103.828125 236.664062 C 109.742188 245.113281 116.582031 252.9375 122.140625 258.402344 C 129.484375 265.566406 141.875 268.976562 155.429688 269.648438 C 155.570312 269.761719 155.71875 269.882812 155.859375 269.996094 C 162.785156 275.792969 171.046875 278.464844 179.535156 281.136719 C 184.890625 282.691406 190.03125 284.703125 194.941406 287.148438 C 197.175781 288.261719 199.191406 289.375 200.96875 290.933594 C 202.078125 291.664062 203.027344 292.554688 203.699219 293.589844 C 199.558594 294.222656 195.421875 294.78125 191.375 295.832031 C 190.726562 296 190.125 296.214844 189.578125 296.488281"/></g></g><g clip-path="url(#z)"><g clip-path="url(#A)"><path fill="#F79427" d="M 201.589844 296.816406 C 197.578125 296.816406 193.554688 296.667969 189.578125 296.488281 C 190.125 296.214844 190.726562 296 191.375 295.832031 C 195.421875 294.78125 199.558594 294.222656 203.699219 293.589844 C 203.847656 293.804688 203.980469 294.039062 204.101562 294.277344 C 204.222656 294.5625 204.335938 294.824219 204.433594 295.058594 C 204.84375 295.46875 205.238281 295.878906 205.4375 296.285156 C 205.53125 296.441406 205.621094 296.597656 205.699219 296.765625 C 204.335938 296.800781 202.960938 296.816406 201.589844 296.816406"/></g></g><g clip-path="url(#B)"><g clip-path="url(#C)"><path fill="#F5A23A" d="M 213.035156 254.617188 C 221.742188 241.476562 222.1875 224.324219 220.625 209.171875 C 219.0625 192.679688 213.925781 176.640625 205.890625 162.386719 C 198.519531 149.019531 188.46875 137.4375 176.628906 127.855469 C 164.792969 118.273438 149.601562 108.917969 134.421875 106.917969 C 131.519531 106.464844 128.839844 107.359375 126.824219 109.589844 C 121.6875 116.046875 127.941406 121.171875 133.96875 123.625 C 141.125 126.296875 147.824219 129.640625 154.523438 133.199219 C 167.253906 140.550781 178.417969 150.578125 187.351562 162.386719 C 196.730469 175.085938 202.984375 189.792969 206.109375 205.160156 C 209.457031 221.199219 206.554688 237.019531 208.125 253.285156 C 208.125 255.289062 211.691406 257.070312 213.035156 254.617188"/></g></g><path fill="#F79025" d="M 183.21875 215.875 C 168.753906 215.875 154.523438 211.546875 144.074219 201.96875 C 144.046875 201.410156 144.019531 200.84375 144.019531 200.261719 C 143.800781 188.679688 148.042969 176.199219 158.535156 170.183594 C 162.425781 167.984375 166.003906 167.015625 169.277344 167.015625 C 186.882812 167.015625 195.613281 195.039062 195.613281 210.0625 C 195.640625 211.660156 195.585938 213.261719 195.449219 214.855469 C 191.410156 215.527344 187.300781 215.875 183.21875 215.875"/><path fill="#F79025" d="M 170.75 241.722656 C 162.960938 241.722656 155.464844 237.621094 150.503906 231.226562 C 144.691406 223.652344 143.800781 214.742188 144.472656 205.832031 C 144.316406 204.570312 144.152344 203.308594 144.074219 201.96875 C 154.523438 211.546875 168.753906 215.875 183.21875 215.875 C 187.300781 215.875 191.410156 215.527344 195.449219 214.855469 C 194.53125 225.230469 189.855469 235.054688 179.980469 239.691406 C 176.945312 241.085938 173.828125 241.722656 170.75 241.722656"/><path fill="#F79025" d="M 245.007812 236.160156 C 243.507812 236.160156 242.007812 236.074219 240.507812 235.90625 C 237.445312 235.578125 234.320312 234.8125 231.398438 233.609375 C 234.234375 223.601562 235.9375 213.273438 234.46875 202.933594 C 233.355469 195.136719 230.230469 188.007812 225.539062 181.550781 C 221.296875 174.867188 214.371094 165.730469 217.058594 157.488281 C 218.53125 152.929688 221.515625 151.257812 225.058594 151.257812 C 225.703125 151.257812 226.375 151.308594 227.054688 151.414062 C 231.417969 153.3125 235.5625 155.789062 239.390625 158.820312 C 240.28125 159.566406 241.136719 160.332031 241.964844 161.144531 C 240.246094 160.367188 238.484375 159.792969 236.703125 159.488281 C 236.277344 159.429688 235.847656 159.394531 235.421875 159.394531 C 231.355469 159.394531 227.457031 162.1875 228.667969 166.617188 C 228.84375 167.015625 229.070312 167.398438 229.339844 167.75 C 230.804688 170.714844 232.070312 173.683594 233.136719 176.640625 C 234.699219 180.4375 236.039062 184.441406 237.15625 188.234375 C 239.390625 196.695312 238.273438 207.613281 242.957031 215.1875 C 245.566406 219.304688 249.441406 221.207031 253.402344 221.207031 C 255.320312 221.207031 257.257812 220.757812 259.082031 219.902344 C 258.835938 224.734375 258.21875 229.535156 257.25 234.28125 C 253.296875 235.515625 249.171875 236.160156 245.007812 236.160156"/><path fill="#F79025" d="M 241.5625 250.144531 C 236.371094 250.144531 231.214844 248.917969 227.011719 247.019531 C 228.582031 242.632812 230.109375 238.152344 231.398438 233.609375 C 234.320312 234.8125 237.445312 235.578125 240.507812 235.90625 C 242.007812 236.074219 243.507812 236.160156 245.007812 236.160156 C 249.171875 236.160156 253.296875 235.515625 257.25 234.28125 C 256.699219 236.996094 256.027344 239.691406 255.242188 242.363281 C 254.621094 244.183594 253.917969 245.96875 253.132812 247.726562 C 249.535156 249.421875 245.542969 250.144531 241.5625 250.144531"/><path fill="#F79025" d="M 241.695312 265.289062 C 234.070312 265.289062 226.792969 262.511719 224.046875 258.769531 C 223.878906 257.019531 224.054688 255.234375 224.648438 253.503906 C 225.433594 251.371094 226.226562 249.203125 227.011719 247.019531 C 231.214844 248.917969 236.371094 250.144531 241.5625 250.144531 C 245.542969 250.144531 249.535156 249.421875 253.132812 247.726562 C 250.402344 253.824219 246.789062 259.605469 243.0625 265.253906 C 242.609375 265.269531 242.15625 265.289062 241.695312 265.289062"/><path fill="#F79025" d="M 237.863281 272.894531 C 237.042969 272.816406 236.207031 272.667969 235.367188 272.441406 C 229.453125 270.710938 224.628906 264.929688 224.046875 258.769531 C 226.792969 262.511719 234.070312 265.289062 241.695312 265.289062 C 242.15625 265.289062 242.609375 265.269531 243.0625 265.253906 C 242.070312 266.765625 241.058594 268.273438 240.054688 269.769531 C 239.339844 270.8125 238.613281 271.859375 237.863281 272.894531"/><path fill="#F89D2B" d="M 257.25 234.28125 C 258.21875 229.535156 258.835938 224.734375 259.082031 219.902344 C 261.234375 218.886719 263.234375 217.292969 264.847656 215.1875 C 265.003906 214.984375 265.144531 214.777344 265.292969 214.570312 C 265.03125 220.40625 264.246094 226.203125 263.085938 231.949219 C 261.199219 232.871094 259.246094 233.652344 257.25 234.28125"/><path fill="#F89D2B" d="M 253.132812 247.726562 C 253.917969 245.96875 254.621094 244.183594 255.242188 242.363281 C 256.027344 239.691406 256.699219 236.996094 257.25 234.28125 C 259.246094 233.652344 261.199219 232.871094 263.085938 231.949219 C 262.429688 235.175781 261.664062 238.378906 260.800781 241.574219 C 258.652344 244.347656 256.027344 246.351562 253.132812 247.726562"/><path fill="#F89D2B" d="M 243.0625 265.253906 C 246.789062 259.605469 250.402344 253.824219 253.132812 247.726562 C 256.027344 246.351562 258.652344 244.347656 260.800781 241.574219 C 258.96875 248.371094 256.726562 255.097656 254.351562 261.746094 C 254.273438 261.953125 254.195312 262.15625 254.117188 262.355469 C 250.757812 264.191406 246.894531 265.085938 243.0625 265.253906"/><path fill="#F89D2B" d="M 239.347656 272.972656 C 238.859375 272.972656 238.363281 272.945312 237.863281 272.894531 C 238.613281 271.859375 239.339844 270.8125 240.054688 269.769531 C 241.058594 268.273438 242.070312 266.765625 243.0625 265.253906 C 246.894531 265.085938 250.757812 264.191406 254.117188 262.355469 C 251.550781 268.585938 245.953125 272.972656 239.347656 272.972656"/><path fill="#F89D2B" d="M 250.792969 166.984375 C 248.160156 164.675781 245.140625 162.570312 241.964844 161.144531 C 241.136719 160.332031 240.28125 159.566406 239.390625 158.820312 C 235.5625 155.789062 231.417969 153.3125 227.054688 151.414062 C 233.921875 152.476562 242.105469 158.460938 245.636719 161.71875 C 247.488281 163.371094 249.207031 165.128906 250.792969 166.984375"/><path fill="#F9A848" d="M 265.292969 214.570312 C 265.613281 207.050781 265.066406 199.460938 263.285156 191.792969 C 261.15625 182.59375 256.917969 174.101562 250.792969 166.984375 C 251.902344 167.949219 252.949219 168.957031 253.90625 169.957031 C 263.355469 180.054688 274.332031 201.367188 265.292969 214.570312"/><path fill="#F8A044" d="M 253.402344 221.207031 C 249.441406 221.207031 245.566406 219.304688 242.957031 215.1875 C 238.273438 207.613281 239.390625 196.695312 237.15625 188.234375 C 236.039062 184.441406 234.699219 180.4375 233.136719 176.640625 C 232.070312 173.683594 230.804688 170.714844 229.339844 167.75 C 229.070312 167.398438 228.84375 167.015625 228.667969 166.617188 C 227.457031 162.1875 231.355469 159.394531 235.421875 159.394531 C 235.847656 159.394531 236.277344 159.429688 236.703125 159.488281 C 238.484375 159.792969 240.246094 160.367188 241.964844 161.144531 C 254.464844 173.394531 258.617188 192.671875 259.039062 209.390625 C 259.253906 212.898438 259.265625 216.40625 259.082031 219.902344 C 257.257812 220.757812 255.320312 221.207031 253.402344 221.207031"/><path fill="#F9AB49" d="M 259.082031 219.902344 C 259.265625 216.40625 259.253906 212.898438 259.039062 209.390625 C 258.617188 192.671875 254.464844 173.394531 241.964844 161.144531 C 245.140625 162.570312 248.160156 164.675781 250.792969 166.984375 C 256.917969 174.101562 261.15625 182.59375 263.285156 191.792969 C 265.066406 199.460938 265.613281 207.050781 265.292969 214.570312 C 265.144531 214.777344 265.003906 214.984375 264.847656 215.1875 C 263.234375 217.292969 261.234375 218.886719 259.082031 219.902344"/><path fill="#31752D" d="M 194.210938 142.535156 C 193.964844 142.34375 193.824219 142.039062 193.824219 141.667969 C 194.941406 133.652344 202.085938 125.183594 206.109375 118.5 C 210.800781 110.257812 216.605469 102.679688 223.304688 95.996094 C 223.390625 95.953125 223.496094 95.933594 223.601562 95.933594 C 223.828125 95.933594 224.0625 96.011719 224.203125 96.117188 C 219.464844 103.375 214.640625 110.519531 210.128906 117.832031 C 204.828125 125.992188 199.511719 134.15625 194.210938 142.535156"/><path fill="#618B37" d="M 194.941406 142.78125 C 194.644531 142.78125 194.390625 142.695312 194.210938 142.535156 C 199.511719 134.15625 204.828125 125.992188 210.128906 117.832031 C 214.640625 110.519531 219.464844 103.375 224.203125 96.117188 C 224.34375 96.222656 224.386719 96.351562 224.203125 96.4375 C 220.625 105.132812 216.160156 113.375 210.800781 121.171875 C 207.898438 125.628906 204.992188 129.855469 202.085938 134.3125 C 200.082031 137.4375 198.738281 140.335938 195.613281 142.5625 C 195.386719 142.78125 195.167969 142.78125 194.941406 142.78125"/></svg>