<svg xmlns="http://www.w3.org/2000/svg" width="70" viewBox="0 0 375 375" height="70" version="1.0"><defs><clipPath id="a"><path d="M 182 311 L 262 311 L 262 337.4375 L 182 337.4375 Z M 182 311"/></clipPath><clipPath id="b"><path d="M 183 321 L 200 321 L 200 337.4375 L 183 337.4375 Z M 183 321"/></clipPath></defs><path fill="#FFE8B6" d="M 273.433594 58.601562 C 295.433594 47.59375 314.414062 91.40625 298.023438 165.214844 C 288.957031 206.03125 257.042969 239.023438 224.261719 263.628906 C 191.476562 288.230469 134.105469 255.425781 166.890625 222.621094 C 199.671875 189.820312 232.457031 165.214844 248.847656 116.007812 C 259.535156 83.925781 257.042969 66.800781 273.433594 58.601562 Z M 273.433594 58.601562"/><path fill="#FFD983" d="M 298.023438 107.808594 C 298.023438 132.410156 289.828125 181.617188 265.238281 214.421875 C 240.652344 247.226562 207.871094 255.425781 232.457031 222.621094 C 257.042969 189.820312 273.433594 165.214844 281.632812 132.410156 C 289.828125 99.605469 298.023438 75.003906 298.023438 107.808594 Z M 298.023438 107.808594"/><path fill="#FFCC4D" d="M 224.261719 206.21875 C 221.835938 211.074219 233.824219 174.785156 199.671875 157.015625 C 183.414062 148.550781 117.714844 165.214844 166.890625 165.214844 C 191.476562 165.214844 199.671875 181.617188 183.28125 198.019531 C 180.898438 200.414062 179.273438 202.964844 178.183594 205.5 C 174.765625 208.335938 171.027344 211.3125 166.890625 214.421875 C 148.34375 228.339844 119.027344 249.089844 84.933594 271.828125 C 60.34375 288.230469 52.148438 296.433594 52.148438 304.632812 C 52.148438 329.238281 125.910156 329.238281 166.890625 312.835938 C 207.871094 296.433594 248.847656 255.425781 248.847656 255.425781 L 281.632812 222.621094 C 257.042969 189.820312 224.261719 206.21875 224.261719 206.21875 Z M 224.261719 206.21875"/><path fill="#FFE8B6" d="M 224.261719 206.21875 C 224.261719 206.21875 238.949219 167.4375 199.671875 148.8125 C 166.546875 133.097656 134.105469 140.613281 109.519531 157.015625 C 84.933594 173.417969 93.128906 189.820312 84.933594 198.019531 C 76.738281 206.21875 93.128906 214.421875 109.519531 198.019531 C 125.910156 181.617188 177.675781 157.875 199.671875 165.214844 C 224.261719 173.417969 216.066406 189.808594 224.261719 206.21875 Z M 224.261719 206.21875"/><g clip-path="url(#a)"><path fill="#A6D388" d="M 257.042969 329.238281 L 224.261719 329.238281 C 207.871094 329.238281 199.671875 337.4375 191.476562 337.4375 C 183.28125 337.4375 175.085938 321.035156 191.476562 321.035156 C 207.871094 321.035156 224.261719 321.035156 232.457031 312.835938 C 240.652344 304.632812 273.433594 329.238281 257.042969 329.238281 Z M 257.042969 329.238281"/></g><g clip-path="url(#b)"><path fill="#3E721D" d="M 199.671875 329.238281 C 199.671875 329.777344 199.621094 330.308594 199.515625 330.835938 C 199.410156 331.367188 199.253906 331.878906 199.050781 332.375 C 198.84375 332.875 198.589844 333.347656 198.292969 333.792969 C 197.992188 334.242188 197.652344 334.65625 197.273438 335.035156 C 196.890625 335.417969 196.476562 335.757812 196.03125 336.054688 C 195.582031 336.355469 195.109375 336.609375 194.613281 336.816406 C 194.117188 337.019531 193.605469 337.175781 193.078125 337.28125 C 192.546875 337.386719 192.015625 337.4375 191.476562 337.4375 C 190.941406 337.4375 190.40625 337.386719 189.878906 337.28125 C 189.351562 337.175781 188.839844 337.019531 188.339844 336.816406 C 187.84375 336.609375 187.371094 336.355469 186.925781 336.054688 C 186.476562 335.757812 186.0625 335.417969 185.683594 335.035156 C 185.300781 334.65625 184.960938 334.242188 184.664062 333.792969 C 184.363281 333.347656 184.113281 332.875 183.90625 332.375 C 183.699219 331.878906 183.542969 331.367188 183.4375 330.835938 C 183.335938 330.308594 183.28125 329.777344 183.28125 329.238281 C 183.28125 328.699219 183.335938 328.164062 183.4375 327.636719 C 183.542969 327.109375 183.699219 326.597656 183.90625 326.097656 C 184.113281 325.601562 184.363281 325.128906 184.664062 324.679688 C 184.960938 324.234375 185.300781 323.820312 185.683594 323.4375 C 186.0625 323.058594 186.476562 322.71875 186.925781 322.417969 C 187.371094 322.121094 187.84375 321.867188 188.339844 321.660156 C 188.839844 321.453125 189.351562 321.300781 189.878906 321.195312 C 190.40625 321.089844 190.941406 321.035156 191.476562 321.035156 C 192.015625 321.035156 192.546875 321.089844 193.078125 321.195312 C 193.605469 321.300781 194.117188 321.453125 194.613281 321.660156 C 195.109375 321.867188 195.582031 322.121094 196.03125 322.417969 C 196.476562 322.71875 196.890625 323.058594 197.273438 323.4375 C 197.652344 323.820312 197.992188 324.234375 198.292969 324.679688 C 198.589844 325.128906 198.84375 325.601562 199.050781 326.097656 C 199.253906 326.597656 199.410156 327.109375 199.515625 327.636719 C 199.621094 328.164062 199.671875 328.699219 199.671875 329.238281 Z M 199.671875 329.238281"/></g><path fill="#FFCC4D" d="M 307.921875 271.828125 C 307.921875 271.828125 273.433594 329.238281 257.042969 329.238281 L 224.261719 329.238281 C 207.871094 329.238281 224.261719 321.035156 232.457031 312.835938 C 240.652344 304.632812 273.433594 312.835938 273.433594 263.628906 C 273.433594 239.023438 307.921875 271.828125 307.921875 271.828125 Z M 307.921875 271.828125"/><path fill="#FFE8B6" d="M 257.042969 198.019531 C 281.632812 198.019531 322.609375 222.621094 314.414062 271.828125 C 306.21875 321.035156 273.433594 329.238281 257.042969 329.238281 L 240.652344 329.238281 C 224.261719 329.238281 232.457031 321.035156 240.652344 312.835938 C 248.847656 304.632812 273.433594 312.835938 273.433594 263.628906 C 273.433594 239.023438 240.652344 206.21875 224.261719 206.21875 C 224.261719 206.21875 240.652344 198.019531 257.042969 198.019531 Z M 257.042969 198.019531"/><path fill="#FFD983" d="M 183.28125 214.421875 C 207.871094 214.421875 224.261719 222.621094 207.871094 239.023438 C 194.910156 251.992188 158.695312 280.03125 125.910156 288.230469 C 93.128906 296.433594 60.34375 296.433594 84.933594 280.03125 C 109.519531 263.628906 164.957031 214.421875 183.28125 214.421875 Z M 183.28125 214.421875"/><path fill="#C1694F" d="M 60.34375 296.433594 C 68.542969 296.433594 68.542969 296.433594 68.542969 301.902344 C 68.542969 307.367188 68.542969 312.835938 60.34375 312.835938 C 52.148438 312.835938 52.148438 301.902344 52.148438 301.902344 C 52.148438 301.902344 52.148438 296.433594 60.34375 296.433594 Z M 60.34375 296.433594"/></svg>