<svg xmlns="http://www.w3.org/2000/svg" width="70" viewBox="0 0 375 375" height="70" version="1.0"><defs><clipPath id="a"><path d="M 184 183 L 283.761719 183 L 283.761719 283.027344 L 184 283.027344 Z M 184 183"/></clipPath><clipPath id="b"><path d="M 91.011719 183 L 191 183 L 191 283.027344 L 91.011719 283.027344 Z M 91.011719 183"/></clipPath></defs><path fill="#77B255" d="M 233.84375 208.484375 C 232.617188 208.484375 231.386719 208.117188 230.300781 207.359375 C 189.765625 178.910156 154.929688 130.542969 134.910156 99.03125 C 145.4375 164.429688 141.089844 201.265625 140.871094 203.042969 C 140.449219 206.449219 137.390625 208.820312 133.964844 208.4375 C 130.570312 208.011719 128.160156 204.914062 128.578125 201.507812 C 128.636719 201.019531 134.378906 151.609375 116.277344 66.910156 C 115.625 63.882812 117.304688 60.835938 120.203125 59.777344 C 123.089844 58.710938 126.34375 59.953125 127.800781 62.6875 C 128.289062 63.605469 177.40625 155.074219 237.402344 197.1875 C 240.207031 199.148438 240.882812 203.023438 238.925781 205.832031 C 237.722656 207.566406 235.800781 208.484375 233.84375 208.484375 Z M 233.84375 208.484375"/><path fill="#5C913B" d="M 237.238281 114.175781 C 215.703125 120.140625 205.949219 129.992188 170.644531 118.320312 C 141.40625 108.648438 127.050781 92.1875 131.335938 79.152344 C 135.625 66.121094 151.039062 59.503906 180.28125 69.175781 C 209.703125 78.910156 205.824219 90.707031 237.238281 114.175781 Z M 237.238281 114.175781"/><g clip-path="url(#a)"><path fill="#BE1931" d="M 283.414062 233.332031 C 283.414062 234.960938 283.335938 236.585938 283.175781 238.203125 C 283.015625 239.824219 282.777344 241.433594 282.460938 243.027344 C 282.144531 244.625 281.75 246.203125 281.28125 247.757812 C 280.808594 249.316406 280.261719 250.847656 279.640625 252.351562 C 279.019531 253.855469 278.328125 255.324219 277.5625 256.757812 C 276.796875 258.195312 275.964844 259.589844 275.0625 260.941406 C 274.160156 262.296875 273.195312 263.601562 272.164062 264.859375 C 271.132812 266.117188 270.046875 267.320312 268.898438 268.472656 C 267.75 269.625 266.546875 270.714844 265.292969 271.746094 C 264.039062 272.78125 262.738281 273.75 261.386719 274.652344 C 260.035156 275.558594 258.644531 276.394531 257.214844 277.160156 C 255.785156 277.925781 254.316406 278.621094 252.816406 279.246094 C 251.316406 279.867188 249.792969 280.414062 248.238281 280.886719 C 246.683594 281.359375 245.113281 281.757812 243.519531 282.074219 C 241.929688 282.390625 240.324219 282.628906 238.710938 282.789062 C 237.09375 282.949219 235.472656 283.027344 233.851562 283.027344 C 232.226562 283.027344 230.609375 282.949219 228.992188 282.789062 C 227.378906 282.628906 225.773438 282.390625 224.183594 282.074219 C 222.589844 281.757812 221.015625 281.359375 219.464844 280.886719 C 217.910156 280.414062 216.382812 279.867188 214.882812 279.246094 C 213.382812 278.621094 211.917969 277.925781 210.488281 277.160156 C 209.054688 276.394531 207.664062 275.558594 206.316406 274.652344 C 204.964844 273.75 203.664062 272.78125 202.410156 271.746094 C 201.152344 270.714844 199.953125 269.625 198.804688 268.472656 C 197.65625 267.320312 196.570312 266.117188 195.539062 264.859375 C 194.507812 263.601562 193.542969 262.296875 192.640625 260.941406 C 191.738281 259.589844 190.90625 258.195312 190.140625 256.757812 C 189.375 255.324219 188.683594 253.855469 188.0625 252.351562 C 187.441406 250.847656 186.894531 249.316406 186.421875 247.757812 C 185.953125 246.203125 185.558594 244.625 185.242188 243.027344 C 184.925781 241.433594 184.6875 239.824219 184.527344 238.203125 C 184.367188 236.585938 184.289062 234.960938 184.289062 233.332031 C 184.289062 231.707031 184.367188 230.082031 184.527344 228.460938 C 184.6875 226.84375 184.925781 225.234375 185.242188 223.636719 C 185.558594 222.042969 185.953125 220.464844 186.421875 218.90625 C 186.894531 217.351562 187.441406 215.820312 188.0625 214.316406 C 188.683594 212.8125 189.375 211.34375 190.140625 209.90625 C 190.90625 208.472656 191.738281 207.078125 192.640625 205.722656 C 193.542969 204.371094 194.507812 203.066406 195.539062 201.808594 C 196.570312 200.546875 197.65625 199.34375 198.804688 198.191406 C 199.953125 197.042969 201.152344 195.949219 202.410156 194.917969 C 203.664062 193.886719 204.964844 192.917969 206.316406 192.011719 C 207.664062 191.109375 209.054688 190.273438 210.488281 189.503906 C 211.917969 188.738281 213.382812 188.042969 214.882812 187.421875 C 216.382812 186.796875 217.910156 186.25 219.464844 185.777344 C 221.015625 185.304688 222.589844 184.910156 224.183594 184.59375 C 225.773438 184.273438 227.378906 184.035156 228.992188 183.878906 C 230.609375 183.71875 232.226562 183.636719 233.851562 183.636719 C 235.472656 183.636719 237.09375 183.71875 238.710938 183.878906 C 240.324219 184.035156 241.929688 184.273438 243.519531 184.59375 C 245.113281 184.910156 246.683594 185.304688 248.238281 185.777344 C 249.792969 186.25 251.316406 186.796875 252.816406 187.421875 C 254.316406 188.042969 255.785156 188.738281 257.214844 189.503906 C 258.644531 190.273438 260.035156 191.109375 261.386719 192.011719 C 262.738281 192.917969 264.039062 193.886719 265.292969 194.917969 C 266.546875 195.949219 267.75 197.042969 268.898438 198.191406 C 270.046875 199.34375 271.132812 200.546875 272.164062 201.808594 C 273.195312 203.066406 274.160156 204.371094 275.0625 205.722656 C 275.964844 207.078125 276.796875 208.472656 277.5625 209.90625 C 278.328125 211.34375 279.019531 212.8125 279.640625 214.316406 C 280.261719 215.820312 280.808594 217.351562 281.28125 218.90625 C 281.75 220.464844 282.144531 222.042969 282.460938 223.636719 C 282.777344 225.234375 283.015625 226.84375 283.175781 228.460938 C 283.335938 230.082031 283.414062 231.707031 283.414062 233.332031 Z M 283.414062 233.332031"/></g><g clip-path="url(#b)"><path fill="#BE1931" d="M 190.484375 233.332031 C 190.484375 234.960938 190.402344 236.585938 190.246094 238.203125 C 190.085938 239.824219 189.847656 241.433594 189.53125 243.027344 C 189.214844 244.625 188.820312 246.203125 188.351562 247.757812 C 187.878906 249.316406 187.332031 250.847656 186.710938 252.351562 C 186.089844 253.855469 185.398438 255.324219 184.632812 256.757812 C 183.867188 258.195312 183.03125 259.589844 182.132812 260.941406 C 181.230469 262.296875 180.261719 263.601562 179.234375 264.859375 C 178.203125 266.117188 177.113281 267.320312 175.96875 268.472656 C 174.820312 269.625 173.617188 270.714844 172.363281 271.746094 C 171.109375 272.78125 169.804688 273.75 168.457031 274.652344 C 167.105469 275.558594 165.714844 276.394531 164.285156 277.160156 C 162.851562 277.925781 161.386719 278.621094 159.886719 279.246094 C 158.386719 279.867188 156.863281 280.414062 155.308594 280.886719 C 153.753906 281.359375 152.183594 281.757812 150.589844 282.074219 C 149 282.390625 147.394531 282.628906 145.777344 282.789062 C 144.164062 282.949219 142.542969 283.027344 140.921875 283.027344 C 139.296875 283.027344 137.679688 282.949219 136.0625 282.789062 C 134.449219 282.628906 132.84375 282.390625 131.25 282.074219 C 129.660156 281.757812 128.085938 281.359375 126.535156 280.886719 C 124.980469 280.414062 123.453125 279.867188 121.953125 279.246094 C 120.453125 278.621094 118.988281 277.925781 117.558594 277.160156 C 116.125 276.394531 114.734375 275.558594 113.386719 274.652344 C 112.035156 273.75 110.734375 272.78125 109.480469 271.746094 C 108.222656 270.714844 107.023438 269.625 105.875 268.472656 C 104.726562 267.320312 103.636719 266.117188 102.609375 264.859375 C 101.578125 263.601562 100.613281 262.296875 99.710938 260.941406 C 98.808594 259.589844 97.976562 258.195312 97.210938 256.757812 C 96.445312 255.324219 95.753906 253.855469 95.132812 252.351562 C 94.511719 250.847656 93.964844 249.316406 93.492188 247.757812 C 93.019531 246.203125 92.628906 244.625 92.3125 243.027344 C 91.992188 241.433594 91.757812 239.824219 91.597656 238.203125 C 91.4375 236.585938 91.359375 234.960938 91.359375 233.332031 C 91.359375 231.707031 91.4375 230.082031 91.597656 228.460938 C 91.757812 226.84375 91.992188 225.234375 92.3125 223.636719 C 92.628906 222.042969 93.019531 220.464844 93.492188 218.90625 C 93.964844 217.351562 94.511719 215.820312 95.132812 214.316406 C 95.753906 212.8125 96.445312 211.34375 97.210938 209.90625 C 97.976562 208.472656 98.808594 207.078125 99.710938 205.722656 C 100.613281 204.371094 101.578125 203.066406 102.609375 201.808594 C 103.636719 200.546875 104.726562 199.34375 105.875 198.191406 C 107.023438 197.042969 108.222656 195.949219 109.480469 194.917969 C 110.734375 193.886719 112.035156 192.917969 113.386719 192.011719 C 114.734375 191.109375 116.125 190.273438 117.558594 189.503906 C 118.988281 188.738281 120.453125 188.042969 121.953125 187.421875 C 123.453125 186.796875 124.980469 186.25 126.535156 185.777344 C 128.085938 185.304688 129.660156 184.910156 131.25 184.59375 C 132.84375 184.273438 134.449219 184.035156 136.0625 183.878906 C 137.679688 183.71875 139.296875 183.636719 140.921875 183.636719 C 142.542969 183.636719 144.164062 183.71875 145.777344 183.878906 C 147.394531 184.035156 149 184.273438 150.589844 184.59375 C 152.183594 184.910156 153.753906 185.304688 155.308594 185.777344 C 156.863281 186.25 158.386719 186.796875 159.886719 187.421875 C 161.386719 188.042969 162.851562 188.738281 164.285156 189.503906 C 165.714844 190.273438 167.105469 191.109375 168.457031 192.011719 C 169.804688 192.917969 171.109375 193.886719 172.363281 194.917969 C 173.617188 195.949219 174.820312 197.042969 175.96875 198.191406 C 177.113281 199.34375 178.203125 200.546875 179.234375 201.808594 C 180.261719 203.066406 181.230469 204.371094 182.132812 205.722656 C 183.03125 207.078125 183.867188 208.472656 184.632812 209.90625 C 185.398438 211.34375 186.089844 212.8125 186.710938 214.316406 C 187.332031 215.820312 187.878906 217.351562 188.351562 218.90625 C 188.820312 220.464844 189.214844 222.042969 189.53125 223.636719 C 189.847656 225.234375 190.085938 226.84375 190.246094 228.460938 C 190.402344 230.082031 190.484375 231.707031 190.484375 233.332031 Z M 190.484375 233.332031"/></g></svg>