<svg xmlns="http://www.w3.org/2000/svg" width="70" viewBox="0 0 375 375" height="70" version="1.0"><path fill="#C1694F" d="M 240.660156 177.929688 C 254.824219 235.011719 229.285156 290.484375 183.617188 301.8125 C 137.957031 313.148438 89.464844 276.046875 75.300781 218.964844 C 61.140625 161.878906 86.671875 106.410156 132.347656 95.078125 C 177.992188 83.742188 226.5 120.835938 240.660156 177.929688 Z M 240.660156 177.929688"/><path fill="#C1694F" d="M 297.5 163.816406 C 314.058594 230.570312 253.894531 284.382812 193.960938 299.25 C 134.023438 314.117188 94.632812 274.777344 80.46875 217.683594 C 66.308594 160.597656 82.738281 107.386719 142.667969 92.519531 C 202.597656 77.636719 279.820312 92.554688 297.5 163.816406 Z M 297.5 163.816406"/><path fill="#77B255" d="M 230.324219 180.492188 C 242.714844 230.453125 220.363281 278.976562 180.417969 288.890625 C 140.464844 298.828125 98.027344 266.355469 85.628906 216.402344 C 73.242188 166.449219 95.585938 117.917969 135.546875 107.996094 C 175.484375 98.089844 217.925781 130.542969 230.324219 180.492188 Z M 230.324219 180.492188"/><path fill="#A6D388" d="M 150.136719 113.144531 C 182.78125 113.144531 213.679688 142.171875 223.605469 182.164062 C 229.222656 204.796875 227.484375 227.757812 218.707031 246.808594 C 210.179688 265.335938 195.988281 277.890625 178.753906 282.164062 C 174.53125 283.21875 170.179688 283.742188 165.816406 283.742188 C 133.179688 283.742188 102.285156 254.714844 92.359375 214.726562 C 80.902344 168.570312 101.03125 123.703125 137.214844 114.722656 C 141.433594 113.679688 145.777344 113.144531 150.136719 113.144531 M 150.136719 106.214844 C 145.273438 106.214844 140.394531 106.796875 135.546875 107.996094 C 95.585938 117.917969 73.242188 166.449219 85.632812 216.402344 C 96.523438 260.292969 130.601562 290.679688 165.808594 290.679688 C 170.671875 290.679688 175.570312 290.097656 180.417969 288.890625 C 220.355469 278.976562 242.714844 230.453125 230.324219 180.492188 C 219.429688 136.605469 185.34375 106.214844 150.136719 106.214844 Z M 150.136719 106.214844"/><path fill="#A6D388" d="M 192.40625 201 L 173.019531 210.082031 L 184.492188 238.847656 L 164.023438 222.734375 L 159.195312 251.632812 L 149.648438 223.238281 L 131.289062 235.328125 L 138.253906 207.785156 L 117.179688 196 L 136.574219 186.886719 L 125.09375 158.144531 L 145.578125 172.796875 L 150.40625 143.890625 L 159.957031 173.753906 L 178.277344 161.664062 L 171.34375 189.1875 Z M 192.40625 201"/><path fill="#A6D388" d="M 159.1875 258.558594 C 156.238281 258.558594 153.578125 256.683594 152.628906 253.835938 L 145.949219 233.964844 L 135.097656 241.113281 C 132.722656 242.695312 129.609375 242.644531 127.277344 240.96875 C 124.949219 239.320312 123.875 236.398438 124.574219 233.625 L 130.234375 211.234375 L 113.796875 202.046875 C 111.527344 200.773438 110.160156 198.347656 110.25 195.757812 C 110.339844 193.15625 111.878906 190.835938 114.226562 189.730469 L 127.714844 183.394531 L 118.652344 160.714844 C 117.511719 157.851562 118.390625 154.589844 120.816406 152.691406 C 123.238281 150.800781 126.617188 150.722656 129.121094 152.511719 L 140.570312 160.707031 L 143.5625 142.761719 C 144.089844 139.601562 146.707031 137.21875 149.890625 136.992188 C 153.160156 136.839844 156.023438 138.746094 156.992188 141.792969 L 163.757812 162.945312 L 174.453125 155.882812 C 176.835938 154.3125 179.953125 154.359375 182.273438 156.015625 C 184.601562 157.671875 185.683594 160.589844 184.984375 163.359375 L 179.351562 185.746094 L 195.789062 194.960938 C 198.046875 196.234375 199.410156 198.664062 199.320312 201.257812 C 199.222656 203.855469 197.691406 206.175781 195.34375 207.277344 L 181.871094 213.597656 L 190.925781 236.292969 C 192.089844 239.203125 191.148438 242.527344 188.640625 244.40625 C 186.125 246.28125 182.667969 246.242188 180.210938 244.300781 L 168.933594 235.417969 L 166.03125 252.78125 C 165.503906 255.914062 162.914062 258.296875 159.75 258.546875 Z M 149.648438 216.3125 C 150.410156 216.3125 151.171875 216.4375 151.90625 216.691406 C 153.9375 217.398438 155.53125 219 156.214844 221.035156 L 156.929688 223.15625 L 157.191406 221.597656 C 157.59375 219.179688 159.242188 217.164062 161.523438 216.277344 C 163.800781 215.40625 166.378906 215.785156 168.304688 217.289062 L 168.492188 217.433594 L 166.585938 212.648438 C 165.226562 209.246094 166.757812 205.367188 170.078125 203.8125 L 177.253906 200.453125 L 167.957031 195.242188 C 165.226562 193.710938 163.863281 190.539062 164.625 187.503906 L 167.203125 177.273438 L 163.765625 179.539062 C 161.957031 180.730469 159.695312 181.011719 157.648438 180.292969 C 155.605469 179.570312 154.019531 177.9375 153.355469 175.867188 L 152.523438 173.265625 L 152.414062 173.9375 C 152.019531 176.296875 150.441406 178.285156 148.230469 179.199219 C 146.027344 180.121094 143.5 179.820312 141.554688 178.4375 L 140.300781 177.542969 L 143.007812 184.324219 C 144.363281 187.734375 142.839844 191.605469 139.523438 193.164062 L 132.332031 196.539062 L 141.636719 201.734375 C 144.371094 203.265625 145.742188 206.445312 144.96875 209.480469 L 142.378906 219.726562 L 145.839844 217.449219 C 146.988281 216.691406 148.3125 216.3125 149.648438 216.3125 Z M 149.648438 216.3125"/><path fill="#C6E5B3" d="M 177.265625 197.542969 L 165.429688 203.167969 L 172.882812 220.753906 L 160.09375 211.828125 L 157.476562 229.539062 L 151.171875 211.289062 L 140.050781 218.75 L 143.96875 201.867188 L 130.796875 194.703125 L 142.613281 189.070312 L 135.144531 171.480469 L 147.972656 180.390625 L 150.558594 162.679688 L 156.867188 180.949219 L 168.019531 173.476562 L 164.09375 190.367188 Z M 177.265625 197.542969"/><path fill="#C6E5B3" d="M 157.476562 233 C 156.015625 233 154.691406 232.074219 154.207031 230.667969 L 149.371094 216.664062 L 141.988281 221.625 C 140.8125 222.414062 139.261719 222.414062 138.089844 221.597656 C 136.917969 220.792969 136.359375 219.351562 136.683594 217.96875 L 140.007812 203.652344 L 129.140625 197.75 C 127.996094 197.128906 127.296875 195.914062 127.332031 194.613281 C 127.367188 193.308594 128.128906 192.140625 129.304688 191.578125 L 138.132812 187.375 L 131.960938 172.832031 C 131.355469 171.410156 131.765625 169.761719 132.964844 168.792969 C 134.160156 167.816406 135.851562 167.757812 137.125 168.640625 L 145.355469 174.363281 L 147.128906 162.1875 C 147.355469 160.609375 148.636719 159.390625 150.230469 159.246094 C 151.8125 159.050781 153.308594 160.046875 153.832031 161.558594 L 158.683594 175.582031 L 166.101562 170.605469 C 167.285156 169.816406 168.828125 169.832031 169.992188 170.632812 C 171.164062 171.445312 171.726562 172.886719 171.398438 174.273438 L 168.074219 188.59375 L 178.9375 194.507812 C 180.078125 195.132812 180.777344 196.34375 180.742188 197.648438 C 180.707031 198.949219 179.941406 200.121094 178.769531 200.683594 L 169.925781 204.886719 L 176.089844 219.414062 C 176.691406 220.835938 176.28125 222.484375 175.078125 223.460938 C 173.878906 224.4375 172.183594 224.480469 170.914062 223.605469 L 162.714844 217.882812 L 160.914062 230.058594 C 160.675781 231.636719 159.394531 232.847656 157.808594 233 Z M 151.171875 207.824219 C 151.539062 207.824219 151.914062 207.886719 152.273438 208.003906 C 153.292969 208.34375 154.097656 209.140625 154.441406 210.160156 L 156.125 215.015625 L 156.671875 211.324219 C 156.847656 210.140625 157.628906 209.128906 158.722656 208.648438 C 159.824219 208.183594 161.085938 208.296875 162.078125 208.988281 L 164.992188 211.027344 L 162.234375 204.527344 C 161.515625 202.816406 162.261719 200.839844 163.941406 200.050781 L 169.640625 197.335938 L 162.4375 193.414062 C 161.070312 192.671875 160.367188 191.105469 160.71875 189.589844 L 162.65625 181.242188 L 158.792969 183.832031 C 157.898438 184.429688 156.769531 184.566406 155.757812 184.242188 C 154.742188 183.902344 153.9375 183.105469 153.589844 182.085938 L 151.921875 177.257812 L 151.386719 180.894531 C 151.214844 182.078125 150.441406 183.089844 149.34375 183.570312 C 148.238281 184.046875 146.976562 183.921875 145.992188 183.238281 L 143.019531 181.171875 L 145.796875 187.71875 C 146.519531 189.421875 145.777344 191.398438 144.101562 192.195312 L 138.414062 194.902344 L 145.625 198.820312 C 146.988281 199.558594 147.695312 201.132812 147.34375 202.648438 L 145.410156 210.984375 L 149.242188 208.414062 C 149.816406 208.027344 150.488281 207.824219 151.171875 207.824219 Z M 151.171875 207.824219"/><path fill="#292F33" d="M 125.441406 176.328125 C 127.027344 179.773438 126.460938 183.425781 124.160156 184.492188 C 121.859375 185.550781 118.714844 183.609375 117.121094 180.167969 C 115.535156 176.722656 116.105469 173.074219 118.402344 172.011719 C 120.695312 170.945312 123.847656 172.886719 125.441406 176.328125 Z M 171.835938 155.988281 C 170.941406 159.675781 168.226562 162.183594 165.769531 161.59375 C 163.300781 160.992188 162.042969 157.511719 162.933594 153.828125 C 163.828125 150.140625 166.542969 147.632812 169.011719 148.234375 C 171.460938 148.824219 172.730469 152.296875 171.835938 155.988281 Z M 153.523438 224.675781 C 152.628906 228.359375 149.921875 230.867188 147.460938 230.277344 C 144.988281 229.675781 143.726562 226.207031 144.621094 222.519531 C 145.515625 218.839844 148.230469 216.320312 150.695312 216.921875 C 153.148438 217.515625 154.414062 220.988281 153.523438 224.675781 Z M 175.796875 239.765625 C 177.382812 243.207031 176.816406 246.851562 174.515625 247.933594 C 172.222656 248.976562 169.070312 247.046875 167.480469 243.601562 C 165.898438 240.164062 166.453125 236.515625 168.761719 235.441406 C 171.058594 234.386719 174.210938 236.320312 175.796875 239.765625 Z M 183.5625 186.535156 C 181.457031 188.558594 178.851562 189.242188 177.722656 188.09375 C 176.609375 186.914062 177.410156 184.339844 179.511719 182.308594 C 181.609375 180.285156 184.226562 179.585938 185.351562 180.757812 C 186.472656 181.925781 185.675781 184.511719 183.5625 186.535156 Z M 147.03125 170.148438 C 148.285156 172.78125 148.125 175.46875 146.664062 176.183594 C 145.195312 176.863281 142.992188 175.289062 141.746094 172.65625 C 140.5 170.023438 140.667969 167.324219 142.132812 166.625 C 143.589844 165.921875 145.792969 167.511719 147.03125 170.148438 Z M 119.464844 219.296875 C 117.359375 221.320312 114.761719 222.015625 113.625 220.855469 C 112.515625 219.6875 113.3125 217.101562 115.410156 215.078125 C 117.511719 213.0625 120.121094 212.355469 121.25 213.519531 C 122.371094 214.691406 121.578125 217.273438 119.464844 219.296875 Z M 193.039062 212.867188 C 195.316406 215.335938 195.683594 218.703125 193.839844 220.441406 C 191.992188 222.144531 188.632812 221.542969 186.347656 219.089844 C 184.0625 216.625 183.6875 213.25 185.542969 211.511719 C 187.394531 209.792969 190.746094 210.402344 193.039062 212.867188 Z M 193.039062 212.867188"/></svg>