<svg xmlns="http://www.w3.org/2000/svg" width="70" viewBox="0 0 375 375" height="70" version="1.0"><defs><clipPath id="a"><path d="M 79 112 L 300 112 L 300 333 L 79 333 Z M 79 112"/></clipPath><clipPath id="b"><path d="M 151.554688 37.5 L 355.324219 165.714844 L 223.515625 375.195312 L 19.746094 246.980469 Z M 151.554688 37.5"/></clipPath><clipPath id="c"><path d="M 151.554688 37.5 L 355.324219 165.714844 L 223.515625 375.195312 L 19.746094 246.980469 Z M 151.554688 37.5"/></clipPath><clipPath id="d"><path d="M 151.554688 37.5 L 355.324219 165.714844 L 223.515625 375.195312 L 19.746094 246.980469 Z M 151.554688 37.5"/></clipPath><clipPath id="e"><path d="M 130 68 L 187 68 L 187 137 L 130 137 Z M 130 68"/></clipPath><clipPath id="f"><path d="M 151.554688 37.5 L 355.324219 165.714844 L 223.515625 375.195312 L 19.746094 246.980469 Z M 151.554688 37.5"/></clipPath><clipPath id="g"><path d="M 151.554688 37.5 L 355.324219 165.714844 L 223.515625 375.195312 L 19.746094 246.980469 Z M 151.554688 37.5"/></clipPath><clipPath id="h"><path d="M 151.554688 37.5 L 355.324219 165.714844 L 223.515625 375.195312 L 19.746094 246.980469 Z M 151.554688 37.5"/></clipPath><clipPath id="i"><path d="M 164 87 L 264 87 L 264 131 L 164 131 Z M 164 87"/></clipPath><clipPath id="j"><path d="M 151.554688 37.5 L 355.324219 165.714844 L 223.515625 375.195312 L 19.746094 246.980469 Z M 151.554688 37.5"/></clipPath><clipPath id="k"><path d="M 151.554688 37.5 L 355.324219 165.714844 L 223.515625 375.195312 L 19.746094 246.980469 Z M 151.554688 37.5"/></clipPath><clipPath id="l"><path d="M 151.554688 37.5 L 355.324219 165.714844 L 223.515625 375.195312 L 19.746094 246.980469 Z M 151.554688 37.5"/></clipPath></defs><g clip-path="url(#a)"><g clip-path="url(#b)"><g clip-path="url(#c)"><g clip-path="url(#d)"><path fill="#F4900C" d="M 96.578125 163.695312 C 128.941406 112.257812 196.878906 96.792969 248.3125 129.15625 C 299.75 161.519531 315.210938 229.453125 282.84375 280.894531 C 250.476562 332.332031 182.542969 347.796875 131.105469 315.429688 C 79.671875 283.066406 64.210938 215.132812 96.578125 163.695312 Z M 96.578125 163.695312"/></g></g></g></g><g clip-path="url(#e)"><g clip-path="url(#f)"><g clip-path="url(#g)"><g clip-path="url(#h)"><path fill="#662113" d="M 186.390625 126.320312 C 185.832031 123.863281 182.589844 122.378906 178.316406 122.183594 C 169.390625 95.042969 142.445312 70.839844 141.21875 69.753906 C 138.453125 67.3125 134.257812 67.554688 131.8125 70.304688 C 129.367188 73.050781 129.605469 77.265625 132.359375 79.714844 C 132.625 79.957031 157.175781 102.0625 165.28125 125.332031 C 161.863281 127.316406 159.847656 129.910156 160.382812 132.238281 C 161.195312 135.832031 167.683594 137.417969 174.867188 135.78125 C 182.046875 134.152344 187.203125 129.914062 186.390625 126.320312 Z M 186.390625 126.320312"/></g></g></g></g><g clip-path="url(#i)"><g clip-path="url(#j)"><g clip-path="url(#k)"><g clip-path="url(#l)"><path fill="#5C913B" d="M 263.886719 123.195312 C 263.886719 123.195312 231.019531 136.539062 205.527344 128.023438 C 186.132812 121.546875 163.535156 107.882812 164.574219 101.285156 C 165.613281 94.699219 187.429688 84.644531 211.777344 88.492188 C 236.117188 92.34375 263.886719 123.195312 263.886719 123.195312 Z M 263.886719 123.195312"/></g></g></g></g></svg>