<svg xmlns="http://www.w3.org/2000/svg" width="70" viewBox="0 0 375 375" height="70" version="1.0"><defs><clipPath id="a"><path d="M 79 76 L 267 76 L 267 304 L 79 304 Z M 79 76"/></clipPath><clipPath id="b"><path d="M 193.925781 10.976562 L 362.976562 168.398438 L 181.019531 363.796875 L 11.96875 206.375 Z M 193.925781 10.976562"/></clipPath><clipPath id="c"><path d="M 193.925781 10.976562 L 362.976562 168.398438 L 181.019531 363.796875 L 11.96875 206.375 Z M 193.925781 10.976562"/></clipPath><clipPath id="d"><path d="M 193.925781 10.976562 L 362.976562 168.398438 L 181.019531 363.796875 L 11.96875 206.375 Z M 193.925781 10.976562"/></clipPath><clipPath id="e"><path d="M 169 16 L 202 16 L 202 88 L 169 88 Z M 169 16"/></clipPath><clipPath id="f"><path d="M 193.925781 10.976562 L 362.976562 168.398438 L 181.019531 363.796875 L 11.96875 206.375 Z M 193.925781 10.976562"/></clipPath><clipPath id="g"><path d="M 193.925781 10.976562 L 362.976562 168.398438 L 181.019531 363.796875 L 11.96875 206.375 Z M 193.925781 10.976562"/></clipPath><clipPath id="h"><path d="M 193.925781 10.976562 L 362.976562 168.398438 L 181.019531 363.796875 L 11.96875 206.375 Z M 193.925781 10.976562"/></clipPath></defs><g clip-path="url(#a)"><g clip-path="url(#b)"><g clip-path="url(#c)"><g clip-path="url(#d)"><path fill="#A6D388" d="M 177.292969 82.65625 C 201.183594 73.8125 227.386719 110.402344 229.78125 152.957031 C 231.304688 179.890625 264.96875 200.503906 266.882812 234.910156 C 268.832031 269.816406 238.035156 300.410156 173.164062 303.214844 C 120.90625 305.476562 83.925781 271.039062 79.71875 231.441406 C 75.292969 189.714844 109.007812 173.761719 123.261719 137.945312 C 137.523438 102.125 151.722656 61.589844 177.292969 82.65625 Z M 177.292969 82.65625"/></g></g></g></g><g clip-path="url(#e)"><g clip-path="url(#f)"><g clip-path="url(#g)"><g clip-path="url(#h)"><path fill="#662113" d="M 177.765625 87.410156 C 173.289062 87.664062 169.476562 84.515625 169.242188 80.390625 C 167.445312 48.339844 185.667969 21.25 186.660156 19.886719 C 189.15625 16.425781 194.195312 15.484375 197.910156 17.75 C 201.636719 20.023438 202.621094 24.671875 200.132812 28.128906 C 199.917969 28.421875 183.933594 52.484375 185.449219 79.480469 C 185.679688 83.609375 182.242188 87.160156 177.765625 87.410156 Z M 177.765625 87.410156"/></g></g></g></g></svg>