<svg xmlns="http://www.w3.org/2000/svg" width="70" viewBox="0 0 375 375" height="70" version="1.0"><defs><clipPath id="a"><path d="M 127 74.367188 L 235 74.367188 L 235 152 L 127 152 Z M 127 74.367188"/></clipPath><clipPath id="b"><path d="M 173 287 L 212 287 L 212 324.867188 L 173 324.867188 Z M 173 287"/></clipPath><clipPath id="c"><path d="M 173 286 L 212 286 L 212 324.867188 L 173 324.867188 Z M 173 286"/></clipPath><clipPath id="d"><path d="M 102.875 202 L 142 202 L 142 241 L 102.875 241 Z M 102.875 202"/></clipPath><clipPath id="e"><path d="M 234 196 L 272.375 196 L 272.375 234 L 234 234 Z M 234 196"/></clipPath><clipPath id="f"><path d="M 234 195 L 272.375 195 L 272.375 234 L 234 234 Z M 234 195"/></clipPath><clipPath id="g"><path d="M 102.875 169 L 142 169 L 142 208 L 102.875 208 Z M 102.875 169"/></clipPath><clipPath id="h"><path d="M 234 162 L 272.375 162 L 272.375 200 L 234 200 Z M 234 162"/></clipPath><clipPath id="i"><path d="M 234 161 L 272.375 161 L 272.375 201 L 234 201 Z M 234 161"/></clipPath></defs><g clip-path="url(#a)"><path fill="#80CC28" d="M 204.519531 137.53125 C 220.019531 123.972656 217.628906 98.71875 217.628906 98.71875 C 217.730469 103.894531 208.332031 122.808594 198.28125 125.925781 C 193.789062 127.308594 189.355469 130.40625 185.816406 133.414062 C 188.777344 112.070312 193.738281 76.003906 193.738281 76.003906 L 185.863281 74.417969 C 185.863281 74.417969 179.285156 110.546875 174.921875 132.148438 C 171.605469 129.386719 167.644531 126.6875 163.601562 125.375 C 153.597656 122.132812 144.445312 103.09375 144.609375 97.929688 C 144.609375 97.929688 141.894531 123.140625 157.214844 136.898438 C 157.214844 136.898438 126.394531 113.4375 127.890625 94.175781 C 127.890625 94.175781 124.097656 133.070312 145.449219 143.882812 C 160.160156 151.339844 174.4375 152.773438 180.597656 148.882812 C 186.453125 153.203125 201.03125 152.101562 216.191406 144.667969 C 237.683594 134.128906 234.398438 95.1875 234.398438 95.1875 C 235.644531 114.46875 204.519531 137.53125 204.519531 137.53125"/></g><path fill="#D22748" d="M 234.523438 301.117188 C 233.722656 311.414062 224.722656 319.117188 214.417969 318.320312 C 204.117188 317.527344 196.40625 308.523438 197.207031 298.234375 C 198.003906 287.933594 207.003906 280.230469 217.304688 281.027344 C 227.613281 281.824219 235.320312 290.820312 234.523438 301.117188"/><path fill="#87182A" d="M 234.523438 301.117188 L 234.113281 301.085938 C 233.371094 310.679688 225.347656 317.96875 215.882812 317.96875 C 215.410156 317.96875 214.933594 317.949219 214.453125 317.910156 C 204.855469 317.171875 197.558594 309.152344 197.558594 299.691406 C 197.558594 299.21875 197.578125 298.742188 197.613281 298.265625 C 198.355469 288.671875 206.378906 281.378906 215.84375 281.378906 C 216.316406 281.378906 216.792969 281.398438 217.273438 281.4375 C 226.875 282.175781 234.171875 290.191406 234.171875 299.652344 C 234.171875 300.128906 234.152344 300.605469 234.113281 301.085938 L 234.933594 301.148438 C 234.96875 300.644531 234.992188 300.148438 234.992188 299.652344 C 234.992188 289.765625 227.371094 281.394531 217.335938 280.617188 C 216.835938 280.578125 216.339844 280.558594 215.84375 280.558594 C 205.953125 280.558594 197.574219 288.175781 196.796875 298.199219 C 196.757812 298.699219 196.738281 299.199219 196.738281 299.691406 C 196.738281 309.578125 204.359375 317.953125 214.386719 318.730469 C 214.890625 318.765625 215.386719 318.789062 215.882812 318.789062 C 225.773438 318.785156 234.152344 311.171875 234.929688 301.148438 L 234.523438 301.117188"/><path fill="#D22748" d="M 185.96875 298.570312 C 185.96875 308.898438 177.59375 317.265625 167.257812 317.265625 C 156.925781 317.265625 148.542969 308.898438 148.542969 298.570312 C 148.542969 288.238281 156.925781 279.863281 167.257812 279.863281 C 177.59375 279.863281 185.96875 288.238281 185.96875 298.570312"/><path fill="#87182A" d="M 185.96875 298.570312 L 185.558594 298.570312 C 185.558594 303.625 183.511719 308.191406 180.199219 311.5 C 176.882812 314.8125 172.3125 316.855469 167.257812 316.855469 C 162.203125 316.855469 157.628906 314.8125 154.316406 311.5 C 151 308.191406 148.953125 303.625 148.953125 298.570312 C 148.953125 293.515625 151 288.945312 154.316406 285.632812 C 157.628906 282.324219 162.203125 280.277344 167.257812 280.273438 C 172.3125 280.277344 176.882812 282.324219 180.199219 285.632812 C 183.511719 288.945312 185.558594 293.515625 185.558594 298.570312 L 186.378906 298.570312 C 186.378906 288.011719 177.820312 279.457031 167.257812 279.453125 C 156.695312 279.457031 148.136719 288.011719 148.136719 298.570312 C 148.136719 309.125 156.695312 317.675781 167.257812 317.675781 C 177.820312 317.675781 186.378906 309.125 186.378906 298.570312 L 185.96875 298.570312"/><g clip-path="url(#b)"><path fill="#D22748" d="M 211.078125 305.710938 C 211.078125 316.039062 202.699219 324.40625 192.363281 324.40625 C 182.03125 324.40625 173.652344 316.039062 173.652344 305.710938 C 173.652344 295.378906 182.03125 287.003906 192.363281 287.003906 C 202.699219 287.003906 211.078125 295.378906 211.078125 305.710938"/></g><g clip-path="url(#c)"><path fill="#87182A" d="M 211.078125 305.710938 L 210.667969 305.710938 C 210.667969 310.761719 208.617188 315.332031 205.304688 318.644531 C 201.992188 321.953125 197.417969 323.996094 192.363281 323.996094 C 187.308594 323.996094 182.734375 321.953125 179.425781 318.644531 C 176.109375 315.332031 174.0625 310.761719 174.0625 305.710938 C 174.0625 300.65625 176.109375 296.085938 179.425781 292.773438 C 182.734375 289.460938 187.308594 287.414062 192.363281 287.414062 C 197.417969 287.414062 201.992188 289.460938 205.304688 292.773438 C 208.617188 296.085938 210.667969 300.65625 210.667969 305.710938 L 211.488281 305.710938 C 211.488281 295.152344 202.925781 286.597656 192.363281 286.597656 C 181.804688 286.597656 173.242188 295.152344 173.242188 305.710938 C 173.242188 316.265625 181.804688 324.816406 192.363281 324.816406 C 202.925781 324.816406 211.488281 316.265625 211.488281 305.710938 L 211.078125 305.710938"/></g><path fill="#D22748" d="M 167.257812 275.597656 C 167.257812 285.929688 158.878906 294.296875 148.542969 294.296875 C 138.207031 294.296875 129.832031 285.929688 129.832031 275.597656 C 129.832031 265.269531 138.207031 256.894531 148.542969 256.894531 C 158.878906 256.894531 167.257812 265.269531 167.257812 275.597656"/><path fill="#87182A" d="M 167.257812 275.597656 L 166.847656 275.597656 C 166.847656 280.652344 164.800781 285.21875 161.484375 288.53125 C 158.175781 291.84375 153.597656 293.886719 148.542969 293.886719 C 143.488281 293.886719 138.914062 291.84375 135.601562 288.53125 C 132.289062 285.21875 130.242188 280.652344 130.242188 275.597656 C 130.242188 270.546875 132.289062 265.972656 135.601562 262.664062 C 138.914062 259.355469 143.488281 257.304688 148.542969 257.304688 C 153.597656 257.304688 158.175781 259.355469 161.484375 262.664062 C 164.800781 265.972656 166.847656 270.546875 166.847656 275.597656 L 167.667969 275.597656 C 167.667969 265.042969 159.105469 256.484375 148.542969 256.484375 C 137.980469 256.484375 129.421875 265.042969 129.421875 275.597656 C 129.421875 286.152344 137.980469 294.707031 148.542969 294.707031 C 159.105469 294.703125 167.667969 286.152344 167.667969 275.597656 L 167.257812 275.597656"/><path fill="#D22748" d="M 198.382812 280.972656 C 198.382812 291.296875 190.007812 299.667969 179.671875 299.667969 C 169.332031 299.667969 160.957031 291.296875 160.957031 280.972656 C 160.957031 270.644531 169.332031 262.269531 179.671875 262.269531 C 190.007812 262.269531 198.382812 270.644531 198.382812 280.972656"/><path fill="#87182A" d="M 198.382812 280.972656 L 197.972656 280.972656 C 197.972656 286.023438 195.925781 290.59375 192.613281 293.90625 C 189.300781 297.214844 184.730469 299.261719 179.671875 299.261719 C 174.613281 299.261719 170.042969 297.214844 166.726562 293.90625 C 163.414062 290.59375 161.367188 286.023438 161.367188 280.972656 C 161.367188 275.921875 163.414062 271.347656 166.726562 268.039062 C 170.042969 264.726562 174.613281 262.679688 179.671875 262.679688 C 184.730469 262.679688 189.300781 264.726562 192.613281 268.039062 C 195.925781 271.347656 197.972656 275.921875 197.972656 280.972656 L 198.789062 280.972656 C 198.789062 270.417969 190.234375 261.859375 179.671875 261.859375 C 169.105469 261.859375 160.546875 270.417969 160.546875 280.972656 C 160.546875 291.527344 169.105469 300.078125 179.671875 300.078125 C 190.234375 300.078125 198.789062 291.527344 198.789062 280.972656 L 198.382812 280.972656"/><path fill="#D22748" d="M 229.132812 278.144531 C 229.132812 288.46875 220.75 296.835938 210.417969 296.835938 C 200.085938 296.835938 191.703125 288.46875 191.703125 278.144531 C 191.703125 267.8125 200.085938 259.445312 210.417969 259.445312 C 220.75 259.445312 229.132812 267.8125 229.132812 278.144531"/><path fill="#87182A" d="M 229.132812 278.144531 L 228.722656 278.144531 C 228.722656 283.191406 226.671875 287.761719 223.359375 291.070312 C 220.042969 294.382812 215.472656 296.425781 210.417969 296.425781 C 205.363281 296.425781 200.789062 294.382812 197.472656 291.070312 C 194.164062 287.761719 192.113281 283.191406 192.113281 278.144531 C 192.113281 273.089844 194.164062 268.519531 197.472656 265.207031 C 200.789062 261.894531 205.363281 259.851562 210.417969 259.851562 C 215.472656 259.851562 220.042969 261.894531 223.359375 265.207031 C 226.671875 268.519531 228.722656 273.089844 228.722656 278.144531 L 229.542969 278.144531 C 229.542969 267.585938 220.976562 259.035156 210.417969 259.03125 C 199.859375 259.035156 191.292969 267.585938 191.292969 278.144531 C 191.292969 288.695312 199.859375 297.246094 210.417969 297.246094 C 220.976562 297.246094 229.542969 288.695312 229.542969 278.144531 L 229.132812 278.144531"/><path fill="#D22748" d="M 253.289062 269.984375 C 253.289062 280.308594 244.914062 288.675781 234.578125 288.675781 C 224.242188 288.675781 215.859375 280.308594 215.859375 269.984375 C 215.859375 259.652344 224.242188 251.285156 234.578125 251.285156 C 244.914062 251.285156 253.289062 259.652344 253.289062 269.984375"/><path fill="#87182A" d="M 253.289062 269.984375 L 252.878906 269.984375 C 252.878906 275.035156 250.832031 279.605469 247.523438 282.914062 C 244.207031 286.222656 239.636719 288.265625 234.578125 288.265625 C 229.523438 288.265625 224.949219 286.222656 221.632812 282.914062 C 218.320312 279.605469 216.269531 275.035156 216.269531 269.984375 C 216.269531 264.929688 218.320312 260.359375 221.632812 257.050781 C 224.949219 253.734375 229.523438 251.691406 234.578125 251.691406 C 239.636719 251.691406 244.207031 253.734375 247.523438 257.050781 C 250.832031 260.359375 252.878906 264.929688 252.878906 269.984375 L 253.699219 269.984375 C 253.699219 259.425781 245.140625 250.875 234.578125 250.871094 C 224.015625 250.875 215.449219 259.425781 215.449219 269.984375 C 215.449219 280.535156 224.015625 289.085938 234.578125 289.085938 C 245.140625 289.085938 253.699219 280.535156 253.699219 269.984375 L 253.289062 269.984375"/><path fill="#D22748" d="M 154.917969 253.003906 C 154.917969 263.339844 146.542969 271.703125 136.207031 271.703125 C 125.871094 271.703125 117.496094 263.339844 117.496094 253.003906 C 117.496094 242.679688 125.871094 234.308594 136.207031 234.308594 C 146.542969 234.308594 154.917969 242.679688 154.917969 253.003906"/><path fill="#87182A" d="M 154.917969 253.003906 L 154.507812 253.003906 C 154.507812 258.058594 152.460938 262.628906 149.148438 265.941406 C 145.835938 269.25 141.265625 271.292969 136.207031 271.292969 C 131.148438 271.292969 126.578125 269.25 123.265625 265.941406 C 119.953125 262.628906 117.90625 258.058594 117.90625 253.003906 C 117.90625 247.953125 119.953125 243.386719 123.265625 240.074219 C 126.578125 236.761719 131.148438 234.71875 136.207031 234.71875 C 141.265625 234.71875 145.835938 236.761719 149.148438 240.074219 C 152.460938 243.386719 154.507812 247.953125 154.507812 253.003906 L 155.328125 253.003906 C 155.328125 242.453125 146.769531 233.898438 136.207031 233.894531 C 125.640625 233.898438 117.085938 242.453125 117.085938 253.003906 C 117.085938 263.5625 125.640625 272.113281 136.207031 272.113281 C 146.769531 272.113281 155.328125 263.5625 155.328125 253.003906 L 154.917969 253.003906"/><path fill="#D22748" d="M 176.417969 254.476562 C 176.417969 264.800781 168.039062 273.175781 157.703125 273.175781 C 147.371094 273.175781 138.992188 264.800781 138.992188 254.476562 C 138.992188 244.148438 147.371094 235.773438 157.703125 235.773438 C 168.039062 235.773438 176.417969 244.148438 176.417969 254.476562"/><path fill="#87182A" d="M 176.417969 254.476562 L 176.007812 254.476562 C 176.007812 259.527344 173.960938 264.097656 170.648438 267.40625 C 167.332031 270.722656 162.761719 272.765625 157.703125 272.765625 C 152.648438 272.765625 148.074219 270.722656 144.761719 267.410156 C 141.449219 264.097656 139.402344 259.527344 139.402344 254.476562 C 139.402344 249.421875 141.449219 244.851562 144.761719 241.542969 C 148.074219 238.230469 152.648438 236.183594 157.703125 236.183594 C 162.761719 236.183594 167.332031 238.230469 170.648438 241.542969 C 173.960938 244.851562 176.007812 249.421875 176.007812 254.476562 L 176.828125 254.476562 C 176.828125 243.921875 168.265625 235.363281 157.703125 235.363281 C 147.140625 235.363281 138.582031 243.921875 138.582031 254.476562 C 138.582031 265.03125 147.140625 273.585938 157.703125 273.585938 C 168.265625 273.585938 176.828125 265.03125 176.828125 254.476562 L 176.417969 254.476562"/><path fill="#D22748" d="M 200.109375 255.601562 C 200.109375 265.933594 191.722656 274.300781 181.394531 274.300781 C 171.058594 274.300781 162.675781 265.933594 162.675781 255.601562 C 162.675781 245.273438 171.058594 236.902344 181.394531 236.902344 C 191.722656 236.902344 200.109375 245.273438 200.109375 255.601562"/><path fill="#87182A" d="M 200.109375 255.601562 L 199.699219 255.601562 C 199.699219 260.652344 197.648438 265.226562 194.335938 268.535156 C 191.019531 271.84375 186.445312 273.890625 181.394531 273.890625 C 176.339844 273.890625 171.765625 271.84375 168.449219 268.535156 C 165.136719 265.226562 163.085938 260.652344 163.085938 255.601562 C 163.085938 250.546875 165.136719 245.980469 168.449219 242.667969 C 171.765625 239.359375 176.339844 237.3125 181.394531 237.3125 C 186.445312 237.3125 191.019531 239.359375 194.335938 242.667969 C 197.648438 245.980469 199.699219 250.546875 199.699219 255.601562 L 200.515625 255.601562 C 200.515625 245.042969 191.953125 236.492188 181.394531 236.492188 C 170.832031 236.492188 162.265625 245.042969 162.265625 255.601562 C 162.265625 266.160156 170.832031 274.710938 181.394531 274.710938 C 191.953125 274.710938 200.515625 266.160156 200.515625 255.601562 L 200.109375 255.601562"/><path fill="#D22748" d="M 223.269531 254.476562 C 223.269531 264.800781 214.898438 273.175781 204.558594 273.175781 C 194.222656 273.175781 185.851562 264.800781 185.851562 254.476562 C 185.851562 244.148438 194.222656 235.773438 204.558594 235.773438 C 214.898438 235.773438 223.269531 244.148438 223.269531 254.476562"/><path fill="#87182A" d="M 223.269531 254.476562 L 222.859375 254.476562 C 222.859375 259.527344 220.8125 264.097656 217.5 267.410156 C 214.1875 270.722656 209.613281 272.765625 204.558594 272.765625 C 199.503906 272.765625 194.929688 270.722656 191.617188 267.410156 C 188.308594 264.097656 186.261719 259.527344 186.261719 254.476562 C 186.261719 249.421875 188.308594 244.851562 191.617188 241.542969 C 194.929688 238.230469 199.503906 236.183594 204.558594 236.183594 C 209.613281 236.183594 214.1875 238.230469 217.5 241.542969 C 220.8125 244.851562 222.859375 249.421875 222.859375 254.476562 L 223.679688 254.476562 C 223.679688 243.921875 215.125 235.363281 204.558594 235.363281 C 193.996094 235.363281 185.441406 243.921875 185.441406 254.476562 C 185.441406 265.03125 193.996094 273.585938 204.558594 273.585938 C 215.125 273.585938 223.679688 265.03125 223.679688 254.476562 L 223.269531 254.476562"/><path fill="#D22748" d="M 247.847656 248.660156 C 247.847656 258.988281 239.464844 267.359375 229.132812 267.359375 C 218.800781 267.359375 210.417969 258.988281 210.417969 248.660156 C 210.417969 238.332031 218.800781 229.957031 229.132812 229.957031 C 239.464844 229.957031 247.847656 238.332031 247.847656 248.660156"/><path fill="#87182A" d="M 247.847656 248.660156 L 247.4375 248.660156 C 247.4375 253.714844 245.386719 258.28125 242.078125 261.59375 C 238.761719 264.90625 234.1875 266.949219 229.132812 266.949219 C 224.078125 266.949219 219.507812 264.90625 216.191406 261.59375 C 212.878906 258.28125 210.828125 253.714844 210.828125 248.660156 C 210.828125 243.605469 212.878906 239.039062 216.191406 235.726562 C 219.507812 232.414062 224.078125 230.367188 229.132812 230.367188 C 234.1875 230.367188 238.761719 232.414062 242.078125 235.726562 C 245.386719 239.039062 247.4375 243.605469 247.4375 248.660156 L 248.257812 248.660156 C 248.257812 238.105469 239.691406 229.546875 229.132812 229.546875 C 218.574219 229.546875 210.007812 238.105469 210.007812 248.660156 C 210.007812 259.214844 218.574219 267.769531 229.132812 267.769531 C 239.691406 267.769531 248.257812 259.214844 248.257812 248.660156 L 247.847656 248.660156"/><path fill="#D22748" d="M 264.144531 245.601562 C 264.144531 255.933594 255.765625 264.300781 245.429688 264.300781 C 235.097656 264.300781 226.714844 255.933594 226.714844 245.601562 C 226.714844 235.269531 235.097656 226.902344 245.429688 226.902344 C 255.765625 226.902344 264.144531 235.269531 264.144531 245.601562"/><path fill="#87182A" d="M 264.144531 245.601562 L 263.734375 245.601562 C 263.734375 250.65625 261.683594 255.222656 258.371094 258.535156 C 255.058594 261.84375 250.484375 263.890625 245.429688 263.890625 C 240.375 263.890625 235.800781 261.84375 232.488281 258.535156 C 229.171875 255.222656 227.125 250.65625 227.125 245.601562 C 227.125 240.550781 229.171875 235.976562 232.488281 232.667969 C 235.800781 229.359375 240.375 227.3125 245.429688 227.3125 C 250.484375 227.3125 255.058594 229.359375 258.371094 232.667969 C 261.683594 235.976562 263.734375 240.546875 263.734375 245.601562 L 264.554688 245.601562 C 264.554688 235.042969 255.992188 226.492188 245.429688 226.492188 C 234.867188 226.492188 226.308594 235.042969 226.308594 245.601562 C 226.308594 256.160156 234.867188 264.710938 245.429688 264.710938 C 255.992188 264.710938 264.554688 256.160156 264.554688 245.601562 L 264.144531 245.601562"/><path fill="#D22748" d="M 140.746094 221.621094 C 140.746094 231.949219 132.367188 240.324219 122.03125 240.324219 C 111.699219 240.324219 103.320312 231.949219 103.320312 221.621094 C 103.320312 211.296875 111.699219 202.917969 122.03125 202.917969 C 132.367188 202.917969 140.746094 211.296875 140.746094 221.621094"/><g clip-path="url(#d)"><path fill="#87182A" d="M 140.746094 221.621094 L 140.335938 221.621094 C 140.335938 226.671875 138.289062 231.242188 134.976562 234.554688 C 131.660156 237.867188 127.089844 239.914062 122.03125 239.914062 C 116.976562 239.914062 112.402344 237.867188 109.089844 234.554688 C 105.777344 231.242188 103.730469 226.671875 103.730469 221.621094 C 103.730469 216.570312 105.777344 212 109.089844 208.6875 C 112.402344 205.378906 116.976562 203.328125 122.03125 203.328125 C 127.089844 203.328125 131.660156 205.378906 134.976562 208.6875 C 138.289062 212 140.335938 216.570312 140.335938 221.621094 L 141.15625 221.621094 C 141.15625 211.070312 132.597656 202.511719 122.03125 202.511719 C 111.46875 202.511719 102.910156 211.070312 102.910156 221.621094 C 102.910156 232.175781 111.46875 240.730469 122.03125 240.730469 C 132.597656 240.730469 141.15625 232.175781 141.15625 221.621094 L 140.746094 221.621094"/></g><path fill="#D22748" d="M 154.917969 221.621094 C 154.917969 231.949219 146.542969 240.324219 136.207031 240.324219 C 125.871094 240.324219 117.496094 231.949219 117.496094 221.621094 C 117.496094 211.296875 125.871094 202.917969 136.207031 202.917969 C 146.542969 202.917969 154.917969 211.296875 154.917969 221.621094"/><path fill="#87182A" d="M 154.917969 221.621094 L 154.507812 221.621094 C 154.507812 226.671875 152.460938 231.242188 149.148438 234.554688 C 145.835938 237.867188 141.265625 239.914062 136.207031 239.914062 C 131.148438 239.914062 126.578125 237.867188 123.265625 234.554688 C 119.953125 231.242188 117.90625 226.671875 117.90625 221.621094 C 117.90625 216.570312 119.953125 212 123.265625 208.6875 C 126.578125 205.378906 131.148438 203.328125 136.207031 203.328125 C 141.265625 203.328125 145.835938 205.378906 149.148438 208.6875 C 152.460938 212 154.507812 216.570312 154.507812 221.621094 L 155.328125 221.621094 C 155.328125 211.070312 146.769531 202.511719 136.207031 202.511719 C 125.640625 202.511719 117.085938 211.070312 117.085938 221.621094 C 117.085938 232.175781 125.640625 240.730469 136.207031 240.730469 C 146.769531 240.730469 155.328125 232.175781 155.328125 221.621094 L 154.917969 221.621094"/><path fill="#D22748" d="M 178.175781 223.472656 C 178.175781 233.800781 169.792969 242.167969 159.460938 242.167969 C 149.125 242.167969 140.746094 233.800781 140.746094 223.472656 C 140.746094 213.144531 149.125 204.777344 159.460938 204.777344 C 169.792969 204.777344 178.175781 213.144531 178.175781 223.472656"/><path fill="#87182A" d="M 178.175781 223.472656 L 177.765625 223.472656 C 177.765625 228.527344 175.714844 233.09375 172.402344 236.402344 C 169.085938 239.714844 164.511719 241.761719 159.460938 241.761719 C 154.402344 241.761719 149.828125 239.714844 146.515625 236.402344 C 143.203125 233.09375 141.15625 228.527344 141.15625 223.472656 C 141.15625 218.417969 143.203125 213.851562 146.515625 210.539062 C 149.828125 207.226562 154.402344 205.1875 159.460938 205.1875 C 164.511719 205.1875 169.085938 207.226562 172.402344 210.539062 C 175.714844 213.851562 177.765625 218.417969 177.765625 223.472656 L 178.585938 223.472656 C 178.585938 212.917969 170.019531 204.367188 159.460938 204.363281 C 148.898438 204.367188 140.335938 212.917969 140.335938 223.472656 C 140.335938 234.027344 148.898438 242.578125 159.460938 242.578125 C 170.019531 242.578125 178.585938 234.027344 178.585938 223.472656 L 178.175781 223.472656"/><path fill="#D22748" d="M 200.835938 226.902344 C 200.835938 237.230469 192.453125 245.601562 182.117188 245.601562 C 171.789062 245.601562 163.40625 237.230469 163.40625 226.902344 C 163.40625 216.574219 171.789062 208.203125 182.117188 208.203125 C 192.453125 208.203125 200.835938 216.574219 200.835938 226.902344"/><path fill="#87182A" d="M 200.835938 226.902344 L 200.425781 226.902344 C 200.425781 231.953125 198.375 236.527344 195.0625 239.835938 C 191.746094 243.144531 187.175781 245.191406 182.117188 245.191406 C 177.0625 245.191406 172.492188 243.144531 169.175781 239.835938 C 165.863281 236.527344 163.816406 231.953125 163.816406 226.902344 C 163.816406 221.847656 165.863281 217.28125 169.175781 213.96875 C 172.492188 210.660156 177.0625 208.613281 182.117188 208.613281 C 187.175781 208.613281 191.746094 210.660156 195.0625 213.96875 C 198.375 217.28125 200.425781 221.847656 200.425781 226.902344 L 201.246094 226.902344 C 201.246094 216.34375 192.683594 207.796875 182.117188 207.796875 C 171.558594 207.796875 162.996094 216.34375 162.996094 226.902344 C 162.996094 237.457031 171.558594 246.011719 182.117188 246.011719 C 192.683594 246.011719 201.246094 237.457031 201.246094 226.902344 L 200.835938 226.902344"/><path fill="#D22748" d="M 225.703125 223.472656 C 225.703125 233.800781 217.320312 242.167969 206.992188 242.167969 C 196.65625 242.167969 188.273438 233.800781 188.273438 223.472656 C 188.273438 213.144531 196.65625 204.777344 206.992188 204.777344 C 217.320312 204.777344 225.703125 213.144531 225.703125 223.472656"/><path fill="#87182A" d="M 225.703125 223.472656 L 225.292969 223.472656 C 225.292969 228.527344 223.246094 233.09375 219.933594 236.402344 C 216.617188 239.714844 212.042969 241.761719 206.992188 241.761719 C 201.9375 241.761719 197.363281 239.714844 194.046875 236.402344 C 190.734375 233.09375 188.683594 228.527344 188.683594 223.472656 C 188.683594 218.417969 190.734375 213.851562 194.046875 210.539062 C 197.363281 207.226562 201.9375 205.1875 206.992188 205.1875 C 212.042969 205.1875 216.617188 207.226562 219.933594 210.539062 C 223.246094 213.851562 225.292969 218.417969 225.292969 223.472656 L 226.113281 223.472656 C 226.113281 212.917969 217.550781 204.367188 206.992188 204.363281 C 196.429688 204.367188 187.863281 212.917969 187.863281 223.472656 C 187.863281 234.027344 196.429688 242.578125 206.992188 242.578125 C 217.550781 242.578125 226.113281 234.027344 226.113281 223.472656 L 225.703125 223.472656"/><path fill="#D22748" d="M 244.414062 219.082031 C 244.414062 229.40625 236.039062 237.777344 225.703125 237.777344 C 215.367188 237.777344 206.992188 229.40625 206.992188 219.082031 C 206.992188 208.75 215.367188 200.378906 225.703125 200.378906 C 236.039062 200.378906 244.414062 208.75 244.414062 219.082031"/><path fill="#87182A" d="M 244.414062 219.082031 L 244.003906 219.082031 C 244.003906 224.128906 241.957031 228.703125 238.644531 232.011719 C 235.332031 235.320312 230.757812 237.367188 225.703125 237.367188 C 220.648438 237.367188 216.074219 235.320312 212.761719 232.011719 C 209.449219 228.703125 207.402344 224.128906 207.402344 219.082031 C 207.402344 214.027344 209.449219 209.457031 212.761719 206.144531 C 216.074219 202.835938 220.648438 200.789062 225.703125 200.789062 C 230.757812 200.789062 235.332031 202.835938 238.644531 206.144531 C 241.957031 209.457031 244.003906 214.027344 244.003906 219.082031 L 244.824219 219.082031 C 244.824219 208.523438 236.265625 199.972656 225.703125 199.96875 C 215.140625 199.972656 206.582031 208.523438 206.582031 219.082031 C 206.582031 229.632812 215.140625 238.1875 225.703125 238.1875 C 236.265625 238.1875 244.824219 229.632812 244.824219 219.082031 L 244.414062 219.082031"/><g clip-path="url(#e)"><path fill="#D22748" d="M 272.007812 214.886719 C 272.007812 225.214844 263.628906 233.585938 253.289062 233.585938 C 242.960938 233.585938 234.578125 225.214844 234.578125 214.886719 C 234.578125 204.554688 242.960938 196.1875 253.289062 196.1875 C 263.628906 196.1875 272.007812 204.554688 272.007812 214.886719"/></g><g clip-path="url(#f)"><path fill="#87182A" d="M 272.007812 214.886719 L 271.597656 214.886719 C 271.597656 219.9375 269.546875 224.507812 266.234375 227.820312 C 262.917969 231.128906 258.347656 233.175781 253.289062 233.175781 C 248.234375 233.175781 243.664062 231.128906 240.351562 227.820312 C 237.039062 224.507812 234.988281 219.9375 234.988281 214.886719 C 234.988281 209.832031 237.039062 205.261719 240.351562 201.953125 C 243.664062 198.644531 248.234375 196.597656 253.289062 196.597656 C 258.347656 196.597656 262.917969 198.644531 266.234375 201.953125 C 269.546875 205.261719 271.597656 209.832031 271.597656 214.886719 L 272.417969 214.886719 C 272.417969 204.328125 263.855469 195.777344 253.289062 195.777344 C 242.734375 195.777344 234.167969 204.328125 234.167969 214.886719 C 234.167969 225.441406 242.734375 233.992188 253.289062 233.992188 C 263.855469 233.992188 272.417969 225.441406 272.417969 214.886719 L 272.007812 214.886719"/></g><path fill="#D22748" d="M 155.929688 162.378906 C 155.929688 172.714844 147.558594 181.085938 137.214844 181.085938 C 126.882812 181.085938 118.503906 172.714844 118.503906 162.378906 C 118.503906 152.054688 126.882812 143.683594 137.214844 143.683594 C 147.558594 143.683594 155.929688 152.054688 155.929688 162.378906"/><path fill="#87182A" d="M 155.929688 162.378906 L 155.523438 162.378906 C 155.523438 167.433594 153.476562 172.003906 150.164062 175.316406 C 146.847656 178.628906 142.273438 180.675781 137.214844 180.675781 C 132.160156 180.675781 127.589844 178.628906 124.277344 175.316406 C 120.960938 172.003906 118.914062 167.433594 118.914062 162.378906 C 118.914062 157.332031 120.960938 152.761719 124.277344 149.449219 C 127.589844 146.140625 132.160156 144.09375 137.214844 144.09375 C 142.273438 144.09375 146.847656 146.140625 150.164062 149.449219 C 153.476562 152.761719 155.523438 157.332031 155.523438 162.378906 L 156.339844 162.378906 C 156.339844 151.828125 147.785156 143.273438 137.214844 143.269531 C 126.65625 143.273438 118.09375 151.828125 118.09375 162.378906 C 118.09375 172.9375 126.65625 181.492188 137.214844 181.492188 C 147.785156 181.492188 156.339844 172.9375 156.339844 162.378906 L 155.929688 162.378906"/><path fill="#D22748" d="M 140.746094 188.121094 C 140.746094 198.449219 132.367188 206.820312 122.03125 206.820312 C 111.699219 206.820312 103.320312 198.449219 103.320312 188.121094 C 103.320312 177.792969 111.699219 169.417969 122.03125 169.417969 C 132.367188 169.417969 140.746094 177.792969 140.746094 188.121094"/><g clip-path="url(#g)"><path fill="#87182A" d="M 140.746094 188.121094 L 140.335938 188.121094 C 140.335938 193.171875 138.289062 197.742188 134.976562 201.054688 C 131.660156 204.363281 127.089844 206.410156 122.03125 206.410156 C 116.976562 206.410156 112.402344 204.363281 109.089844 201.054688 C 105.777344 197.742188 103.730469 193.171875 103.730469 188.121094 C 103.730469 183.070312 105.777344 178.496094 109.089844 175.183594 C 112.402344 171.875 116.976562 169.828125 122.03125 169.828125 C 127.089844 169.828125 131.660156 171.875 134.976562 175.1875 C 138.289062 178.496094 140.335938 183.070312 140.335938 188.121094 L 141.15625 188.121094 C 141.15625 177.566406 132.597656 169.007812 122.03125 169.007812 C 111.46875 169.007812 102.910156 177.566406 102.910156 188.121094 C 102.910156 198.675781 111.46875 207.226562 122.03125 207.230469 C 132.597656 207.226562 141.15625 198.675781 141.15625 188.121094 L 140.746094 188.121094"/></g><path fill="#D22748" d="M 163.828125 191.507812 C 163.828125 201.835938 155.449219 210.207031 145.117188 210.207031 C 134.78125 210.207031 126.402344 201.835938 126.402344 191.507812 C 126.402344 181.183594 134.78125 172.804688 145.117188 172.804688 C 155.449219 172.804688 163.828125 181.183594 163.828125 191.507812"/><path fill="#87182A" d="M 163.828125 191.507812 L 163.417969 191.507812 C 163.417969 196.558594 161.371094 201.128906 158.058594 204.445312 C 154.742188 207.753906 150.171875 209.800781 145.117188 209.800781 C 140.058594 209.800781 135.488281 207.753906 132.171875 204.445312 C 128.859375 201.128906 126.8125 196.558594 126.8125 191.507812 C 126.8125 186.457031 128.859375 181.886719 132.171875 178.574219 C 135.488281 175.265625 140.058594 173.214844 145.117188 173.214844 C 150.171875 173.214844 154.742188 175.265625 158.058594 178.574219 C 161.371094 181.886719 163.417969 186.457031 163.417969 191.507812 L 164.238281 191.507812 C 164.238281 180.957031 155.679688 172.394531 145.117188 172.394531 C 134.554688 172.394531 125.992188 180.957031 125.992188 191.507812 C 125.992188 202.066406 134.554688 210.617188 145.117188 210.617188 C 155.679688 210.617188 164.238281 202.066406 164.238281 191.507812 L 163.828125 191.507812"/><path fill="#D22748" d="M 190.589844 196.1875 C 190.589844 206.515625 182.21875 214.886719 171.878906 214.886719 C 161.542969 214.886719 153.167969 206.515625 153.167969 196.1875 C 153.167969 185.855469 161.542969 177.484375 171.878906 177.484375 C 182.21875 177.484375 190.589844 185.855469 190.589844 196.1875"/><path fill="#87182A" d="M 190.589844 196.1875 L 190.179688 196.1875 C 190.179688 201.238281 188.132812 205.808594 184.820312 209.117188 C 181.507812 212.429688 176.9375 214.476562 171.878906 214.476562 C 166.824219 214.476562 162.25 212.429688 158.9375 209.117188 C 155.625 205.808594 153.578125 201.238281 153.578125 196.1875 C 153.578125 191.132812 155.625 186.566406 158.9375 183.25 C 162.25 179.941406 166.824219 177.894531 171.878906 177.894531 C 176.9375 177.894531 181.507812 179.941406 184.820312 183.25 C 188.132812 186.566406 190.179688 191.132812 190.179688 196.1875 L 191 196.1875 C 191 185.628906 182.445312 177.078125 171.878906 177.078125 C 161.316406 177.078125 152.757812 185.628906 152.757812 196.1875 C 152.757812 206.738281 161.316406 215.296875 171.878906 215.296875 C 182.445312 215.296875 191 206.738281 191 196.1875 L 190.589844 196.1875"/><path fill="#D22748" d="M 218.382812 197.246094 C 218.382812 207.574219 210.003906 215.945312 199.667969 215.945312 C 189.332031 215.945312 180.957031 207.574219 180.957031 197.246094 C 180.957031 186.917969 189.332031 178.546875 199.667969 178.546875 C 210.003906 178.546875 218.382812 186.917969 218.382812 197.246094"/><path fill="#87182A" d="M 218.382812 197.246094 L 217.972656 197.246094 C 217.972656 202.296875 215.925781 206.867188 212.609375 210.175781 C 209.296875 213.488281 204.722656 215.535156 199.667969 215.535156 C 194.609375 215.535156 190.039062 213.488281 186.726562 210.175781 C 183.414062 206.867188 181.367188 202.296875 181.367188 197.246094 C 181.367188 192.191406 183.414062 187.625 186.726562 184.3125 C 190.039062 181 194.609375 178.957031 199.667969 178.957031 C 204.722656 178.957031 209.296875 181 212.609375 184.3125 C 215.925781 187.625 217.972656 192.191406 217.972656 197.246094 L 218.792969 197.246094 C 218.792969 186.691406 210.234375 178.136719 199.667969 178.136719 C 189.105469 178.136719 180.546875 186.691406 180.546875 197.246094 C 180.546875 207.796875 189.105469 216.355469 199.667969 216.355469 C 210.234375 216.355469 218.792969 207.796875 218.792969 197.246094 L 218.382812 197.246094"/><path fill="#D22748" d="M 248.5 190.15625 C 248.5 200.480469 240.121094 208.859375 229.789062 208.859375 C 219.453125 208.859375 211.078125 200.480469 211.078125 190.15625 C 211.078125 179.824219 219.453125 171.453125 229.789062 171.453125 C 240.121094 171.453125 248.5 179.824219 248.5 190.15625"/><path fill="#87182A" d="M 248.5 190.15625 L 248.09375 190.15625 C 248.09375 195.203125 246.042969 199.777344 242.730469 203.089844 C 239.417969 206.398438 234.84375 208.449219 229.789062 208.449219 C 224.730469 208.449219 220.160156 206.398438 216.847656 203.089844 C 213.535156 199.777344 211.488281 195.203125 211.488281 190.15625 C 211.488281 185.101562 213.535156 180.53125 216.847656 177.21875 C 220.160156 173.910156 224.730469 171.863281 229.789062 171.863281 C 234.84375 171.863281 239.417969 173.910156 242.730469 177.21875 C 246.042969 180.535156 248.09375 185.101562 248.09375 190.15625 L 248.910156 190.15625 C 248.910156 179.597656 240.351562 171.046875 229.789062 171.042969 C 219.222656 171.046875 210.667969 179.597656 210.667969 190.15625 C 210.667969 200.707031 219.222656 209.269531 229.789062 209.269531 C 240.351562 209.269531 248.910156 200.707031 248.910156 190.15625 L 248.5 190.15625"/><g clip-path="url(#h)"><path fill="#D22748" d="M 272.007812 181.085938 C 272.007812 191.414062 263.628906 199.789062 253.289062 199.789062 C 242.960938 199.789062 234.578125 191.414062 234.578125 181.085938 C 234.578125 170.761719 242.960938 162.378906 253.289062 162.378906 C 263.628906 162.378906 272.007812 170.761719 272.007812 181.085938"/></g><g clip-path="url(#i)"><path fill="#87182A" d="M 272.007812 181.085938 L 271.597656 181.085938 C 271.597656 186.136719 269.546875 190.707031 266.234375 194.019531 C 262.917969 197.332031 258.347656 199.375 253.289062 199.375 C 248.234375 199.375 243.664062 197.332031 240.351562 194.019531 C 237.039062 190.707031 234.988281 186.136719 234.988281 181.085938 C 234.988281 176.03125 237.039062 171.460938 240.351562 168.152344 C 243.664062 164.839844 248.234375 162.789062 253.289062 162.789062 C 258.347656 162.789062 262.917969 164.839844 266.234375 168.152344 C 269.546875 171.460938 271.597656 176.03125 271.597656 181.085938 L 272.417969 181.085938 C 272.417969 170.53125 263.855469 161.96875 253.289062 161.96875 C 242.734375 161.96875 234.167969 170.53125 234.167969 181.085938 C 234.167969 191.640625 242.734375 200.195312 253.289062 200.199219 C 263.855469 200.195312 272.417969 191.640625 272.417969 181.085938 L 272.007812 181.085938"/></g><path fill="#D22748" d="M 179.1875 164.234375 C 179.1875 174.558594 170.804688 182.933594 160.46875 182.933594 C 150.140625 182.933594 141.757812 174.558594 141.757812 164.234375 C 141.757812 153.90625 150.140625 145.53125 160.46875 145.53125 C 170.804688 145.53125 179.1875 153.90625 179.1875 164.234375"/><path fill="#87182A" d="M 179.1875 164.234375 L 178.777344 164.234375 C 178.777344 169.285156 176.726562 173.851562 173.414062 177.164062 C 170.097656 180.476562 165.523438 182.523438 160.46875 182.523438 C 155.414062 182.523438 150.84375 180.476562 147.53125 177.164062 C 144.21875 173.851562 142.167969 169.285156 142.167969 164.234375 C 142.167969 159.179688 144.21875 154.609375 147.53125 151.300781 C 150.84375 147.988281 155.414062 145.941406 160.46875 145.941406 C 165.523438 145.941406 170.097656 147.988281 173.414062 151.300781 C 176.726562 154.609375 178.777344 159.179688 178.777344 164.234375 L 179.597656 164.234375 C 179.597656 153.679688 171.03125 145.121094 160.46875 145.117188 C 149.914062 145.121094 141.347656 153.679688 141.347656 164.234375 C 141.347656 174.785156 149.914062 183.34375 160.46875 183.34375 C 171.03125 183.34375 179.597656 174.785156 179.597656 164.234375 L 179.1875 164.234375"/><path fill="#D22748" d="M 202.4375 166.082031 C 202.4375 176.414062 194.0625 184.78125 183.726562 184.78125 C 173.390625 184.78125 165.015625 176.414062 165.015625 166.082031 C 165.015625 155.753906 173.390625 147.386719 183.726562 147.386719 C 194.0625 147.386719 202.4375 155.753906 202.4375 166.082031"/><path fill="#87182A" d="M 202.4375 166.082031 L 202.03125 166.082031 C 202.03125 171.136719 199.984375 175.707031 196.671875 179.015625 C 193.355469 182.328125 188.785156 184.371094 183.726562 184.371094 C 178.671875 184.371094 174.097656 182.328125 170.785156 179.015625 C 167.472656 175.707031 165.425781 171.136719 165.425781 166.082031 C 165.425781 161.027344 167.472656 156.460938 170.785156 153.148438 C 174.097656 149.839844 178.671875 147.792969 183.726562 147.792969 C 188.785156 147.792969 193.355469 149.839844 196.671875 153.148438 C 199.984375 156.460938 202.03125 161.027344 202.03125 166.082031 L 202.847656 166.082031 C 202.847656 155.527344 194.289062 146.976562 183.726562 146.976562 C 173.164062 146.976562 164.605469 155.527344 164.605469 166.082031 C 164.605469 176.640625 173.164062 185.191406 183.726562 185.191406 C 194.289062 185.191406 202.847656 176.640625 202.847656 166.082031 L 202.4375 166.082031"/><path fill="#D22748" d="M 226.714844 164.234375 C 226.714844 174.558594 218.335938 182.933594 208 182.933594 C 197.667969 182.933594 189.285156 174.558594 189.285156 164.234375 C 189.285156 153.90625 197.667969 145.53125 208 145.53125 C 218.335938 145.53125 226.714844 153.90625 226.714844 164.234375"/><path fill="#87182A" d="M 226.714844 164.234375 L 226.308594 164.234375 C 226.308594 169.285156 224.261719 173.851562 220.945312 177.164062 C 217.628906 180.476562 213.054688 182.523438 208 182.523438 C 202.945312 182.523438 198.375 180.476562 195.058594 177.164062 C 191.746094 173.851562 189.695312 169.285156 189.695312 164.234375 C 189.695312 159.179688 191.746094 154.609375 195.058594 151.300781 C 198.375 147.988281 202.945312 145.941406 208 145.941406 C 213.054688 145.941406 217.628906 147.988281 220.945312 151.300781 C 224.261719 154.609375 226.308594 159.179688 226.308594 164.234375 L 227.125 164.234375 C 227.125 153.679688 218.566406 145.121094 208 145.117188 C 197.441406 145.121094 188.875 153.679688 188.875 164.234375 C 188.875 174.785156 197.441406 183.34375 208 183.34375 C 218.566406 183.34375 227.125 174.785156 227.125 164.234375 L 226.714844 164.234375"/><path fill="#D22748" d="M 247.738281 154.484375 C 247.738281 164.816406 239.351562 173.191406 229.019531 173.191406 C 218.6875 173.191406 210.304688 164.816406 210.304688 154.484375 C 210.304688 144.160156 218.6875 135.78125 229.019531 135.78125 C 239.351562 135.78125 247.738281 144.160156 247.738281 154.484375"/><path fill="#87182A" d="M 247.738281 154.484375 L 247.328125 154.484375 C 247.328125 159.535156 245.277344 164.109375 241.964844 167.421875 C 238.648438 170.730469 234.074219 172.777344 229.019531 172.777344 C 223.964844 172.777344 219.390625 170.730469 216.078125 167.421875 C 212.761719 164.109375 210.714844 159.535156 210.714844 154.484375 C 210.714844 149.433594 212.761719 144.863281 216.078125 141.550781 C 219.390625 138.238281 223.964844 136.191406 229.019531 136.191406 C 234.074219 136.191406 238.648438 138.238281 241.964844 141.550781 C 245.277344 144.863281 247.328125 149.433594 247.328125 154.484375 L 248.144531 154.484375 C 248.144531 143.933594 239.582031 135.371094 229.019531 135.371094 C 218.457031 135.371094 209.898438 143.933594 209.898438 154.484375 C 209.898438 165.042969 218.457031 173.597656 229.019531 173.601562 C 239.582031 173.597656 248.144531 165.042969 248.144531 154.484375 L 247.738281 154.484375"/></svg>