<svg xmlns="http://www.w3.org/2000/svg" width="375" viewBox="0 0 375 375" height="375" version="1.0"><defs><clipPath id="a"><path d="M 96 76.605469 L 336 76.605469 L 336 124 L 96 124 Z M 96 76.605469"/></clipPath><clipPath id="b"><path d="M 37.5 132 L 325 132 L 325 183 L 37.5 183 Z M 37.5 132"/></clipPath><clipPath id="c"><path d="M 37.5 235 L 325 235 L 325 286 L 37.5 286 Z M 37.5 235"/></clipPath></defs><g clip-path="url(#a)"><path fill="#697F8C" d="M 97.898438 113.121094 C 99.003906 114.335938 100.828125 114.589844 102.214844 113.703125 C 116.515625 104.539062 130.679688 102.253906 148 103.015625 C 147.972656 103.015625 148.167969 103.019531 147.953125 103.015625 C 183.835938 105.75 217.5 124.089844 253.761719 123.691406 C 283.878906 123.417969 314.363281 109.9375 334.847656 82.378906 C 335.9375 80.914062 335.664062 78.847656 334.246094 77.703125 L 334.195312 77.660156 C 332.886719 76.605469 331.007812 76.671875 329.769531 77.808594 C 308.539062 97.28125 285.976562 107.351562 255.339844 107.5 C 255.785156 107.492188 255.414062 107.496094 255.492188 107.492188 C 209.054688 105.429688 170.851562 77.296875 123.296875 92.222656 C 116.40625 94.289062 106.199219 99.792969 100.136719 105.769531 C 98.621094 107.277344 98.207031 107.660156 97.617188 108.332031 C 96.472656 109.628906 96.5 111.589844 97.667969 112.871094 L 97.898438 113.121094"/></g><g clip-path="url(#b)"><path fill="#697F8C" d="M 40.054688 182.160156 C 41.617188 182.792969 43.417969 182.1875 44.253906 180.726562 C 56.753906 158.882812 81.554688 148.289062 107.851562 148.113281 C 166.59375 147.160156 240.863281 200.253906 323.285156 141.519531 C 324.738281 140.484375 325.144531 138.5 324.21875 136.972656 L 324.148438 136.859375 C 323.273438 135.410156 321.464844 134.832031 319.910156 135.496094 C 283.078125 151.300781 256.257812 154.574219 222.902344 151.507812 C 223.050781 151.519531 222.839844 151.503906 222.878906 151.503906 C 182.625 146.386719 141.878906 128.324219 102.035156 133.410156 C 73.875 137.308594 47.640625 151.722656 38.128906 177.828125 C 37.5 179.554688 38.351562 181.476562 40.054688 182.160156"/></g><path fill="#697F8C" d="M 334.261719 181.097656 L 334.199219 181.046875 C 332.886719 179.988281 331.003906 180.058594 329.761719 181.203125 C 313.304688 196.339844 299.582031 202.996094 281.730469 207.9375 C 279.542969 208.535156 272.023438 209.96875 269.527344 210.175781 C 262.65625 210.933594 260.789062 210.855469 255.339844 210.882812 C 255.785156 210.875 255.414062 210.875 255.492188 210.875 C 207.730469 208.746094 162.648438 176.734375 115.53125 198.730469 C 107.089844 202.753906 101.933594 207.03125 97.679688 211.714844 C 96.503906 213.011719 96.519531 214.996094 97.699219 216.289062 L 97.898438 216.503906 C 99.003906 217.71875 100.828125 217.972656 102.214844 217.085938 C 116.554688 207.898438 130.710938 205.636719 148 206.398438 C 147.972656 206.398438 148.167969 206.402344 147.953125 206.398438 C 199.003906 210.277344 249.105469 247.164062 306.804688 211.765625 C 320.238281 203.414062 327.882812 195.371094 334.886719 185.738281 C 335.953125 184.277344 335.671875 182.234375 334.261719 181.097656"/><g clip-path="url(#c)"><path fill="#697F8C" d="M 324.148438 240.242188 C 323.273438 238.792969 321.460938 238.214844 319.910156 238.878906 C 283.769531 254.390625 257.003906 258.027344 222.90625 254.890625 C 223.042969 254.90625 222.84375 254.886719 222.878906 254.886719 C 180.863281 249.542969 134.777344 228.75 92.042969 238.480469 C 68 243.984375 46.425781 258.578125 38.132812 281.207031 C 37.5 282.9375 38.351562 284.859375 40.058594 285.546875 C 41.625 286.175781 43.421875 285.5625 44.261719 284.097656 C 53.980469 267.140625 71.199219 256.914062 90.507812 253.15625 C 157.125 241.042969 211.984375 298.609375 300.875 258.105469 C 311.707031 253 318.566406 248.351562 323.324219 244.898438 C 324.757812 243.855469 325.152344 241.890625 324.230469 240.375 L 324.148438 240.242188"/></g></svg>