<svg xmlns="http://www.w3.org/2000/svg" width="375" viewBox="0 0 375 375" height="375" version="1.0"><path fill="#FFF" d="M-37.5 -37.5H412.5V412.5H-37.5z"/><path fill="#FFF" d="M-37.5 -37.5H412.5V412.5H-37.5z"/><path fill="#D9D9D9" d="M-37.5 -37.5H412.5V412.5H-37.5z"/><path fill="#241740" d="M 365.480469 190.964844 C 361.886719 183.429688 355.753906 179.488281 348.703125 178.007812 C 350.535156 176.316406 352.085938 174.273438 353.496094 171.953125 C 356.882812 166.386719 358.363281 159.839844 358.503906 153.359375 C 358.785156 140.050781 353.355469 126.597656 345.035156 116.386719 C 329.171875 96.878906 300.339844 97.09375 279.398438 108.992188 C 281.65625 97.726562 280.175781 85.472656 273.828125 76.035156 C 266.425781 64.910156 253.878906 58.992188 240.976562 56.949219 C 213.832031 52.726562 179.992188 61.808594 162.367188 83.851562 C 155.878906 91.878906 153.339844 100.613281 154.117188 109.628906 C 152.003906 108.078125 149.746094 106.667969 147.773438 105.472656 C 142.0625 102.164062 135.785156 99.910156 129.230469 98.992188 C 115.765625 97.164062 101.03125 101.527344 90.59375 110.261719 C 82.488281 117.023438 75.085938 127.234375 72.265625 137.445312 C 71.066406 141.667969 70.429688 146.808594 72.125 150.964844 C 72.195312 151.175781 72.335938 151.386719 72.40625 151.667969 C 39.128906 137.726562 0 192.375 24.253906 221.882812 C 33.980469 233.710938 49.5625 238.21875 64.296875 240.191406 C 66.90625 260.964844 78.398438 279.066406 97.996094 287.9375 C 117.175781 296.671875 140.226562 295.753906 158.136719 284.417969 C 166.101562 279.347656 172.308594 272.65625 177.101562 264.910156 C 192.894531 288.078125 220.25 303.21875 248.378906 291.175781 C 265.582031 283.78125 285.675781 264.839844 288.777344 244.699219 C 304.992188 256.316406 329.878906 256.671875 346.800781 247.09375 C 365.550781 236.457031 375 210.753906 365.480469 190.964844 Z M 351.171875 227.65625 C 343.839844 237.796875 331.21875 241.316406 319.304688 240.824219 C 306.332031 240.261719 295.050781 233.78125 287.367188 223.5 C 285.675781 221.246094 283.347656 220.472656 281.304688 220.683594 C 277.636719 220.050781 273.335938 223.078125 274.746094 227.515625 C 278.414062 238.710938 276.367188 248.640625 269.8125 258.289062 C 263.394531 267.65625 253.667969 275.613281 243.089844 279.839844 C 217.992188 289.910156 193.175781 272.023438 181.894531 250.121094 C 179.355469 245.191406 173.082031 247.304688 171.320312 251.527344 C 162.15625 273.429688 139.453125 284.980469 116.257812 281.8125 C 92.710938 278.640625 74.449219 260.191406 72.828125 236.246094 C 72.6875 233.640625 70.925781 232.09375 68.386719 231.8125 C 48.574219 229.558594 22.984375 220.613281 25.097656 196.386719 C 26.507812 180.050781 38.917969 163.851562 53.792969 157.304688 C 62.253906 153.570312 72.125 153.429688 79.878906 158.921875 C 80.867188 159.628906 82.136719 158.007812 81.21875 157.164062 C 80.726562 156.738281 80.300781 156.386719 79.808594 156.035156 C 79.667969 153.289062 77.835938 150.824219 77.835938 147.796875 C 77.765625 143.640625 79.386719 139.769531 81.148438 136.105469 C 84.8125 128.570312 90.382812 121.035156 97.222656 116.105469 C 106.105469 109.699219 118.300781 106.457031 129.089844 108.640625 C 134.519531 109.769531 139.523438 112.019531 144.105469 115.050781 C 149.253906 118.429688 152.988281 123.429688 157.996094 126.808594 C 162.085938 129.558594 166.242188 124.34375 164.339844 120.472656 C 163.421875 118.570312 162.085938 116.808594 160.53125 115.121094 C 159.40625 94.839844 177.3125 78.921875 195.714844 71.949219 C 215.453125 64.484375 246.40625 60.753906 262.195312 78.359375 C 272.347656 89.628906 268.894531 104.628906 267.0625 118.078125 C 267.0625 118.148438 267.0625 118.21875 267.0625 118.289062 C 266.707031 118.640625 266.425781 118.921875 266.074219 119.273438 C 264.242188 121.246094 266.636719 124.628906 269.035156 123.078125 C 269.105469 123.007812 269.246094 122.9375 269.316406 122.867188 C 271.152344 124.203125 273.757812 124.132812 275.097656 121.457031 C 275.523438 120.683594 275.875 119.839844 276.226562 118.992188 C 295.121094 109.628906 321.207031 105.472656 335.660156 122.867188 C 342.003906 130.472656 346.164062 140.753906 346.445312 150.683594 C 346.800781 162.09375 340.949219 168.5 333.191406 175.894531 C 330.9375 178.007812 331.640625 180.753906 333.542969 182.304688 C 333.96875 183.289062 334.882812 184.0625 336.363281 183.992188 C 360.335938 183.570312 362.097656 212.445312 351.171875 227.65625 Z M 351.171875 227.65625"/></svg>