<svg xmlns="http://www.w3.org/2000/svg" width="375" viewBox="0 0 375 375" height="375" version="1.0"><defs><clipPath id="a"><path d="M 5.054688 0 L 374.804688 0 L 374.804688 206 L 5.054688 206 Z M 5.054688 0"/></clipPath><clipPath id="b"><path d="M 9 215 L 361 215 L 361 369.75 L 9 369.75 Z M 9 215"/></clipPath></defs><g clip-path="url(#a)"><path fill="#E1E8ED" d="M 292.640625 41.082031 C 284.167969 41.082031 276 42.367188 268.308594 44.75 C 259.199219 18.714844 234.484375 0 205.335938 0 C 174.074219 0 147.902344 21.527344 140.640625 50.542969 C 132.898438 44.6875 123.367188 41.082031 112.898438 41.082031 C 87.375 41.082031 66.679688 61.777344 66.679688 87.300781 C 66.679688 93.503906 67.945312 99.402344 70.164062 104.804688 C 65.757812 103.582031 61.207031 102.707031 56.410156 102.707031 C 28.042969 102.707031 5.054688 125.695312 5.054688 154.0625 C 5.054688 182.429688 28.042969 205.417969 56.410156 205.417969 L 292.640625 205.417969 C 338.015625 205.417969 374.804688 168.636719 374.804688 123.25 C 374.804688 77.875 338.015625 41.082031 292.640625 41.082031 Z M 292.640625 41.082031"/></g><g clip-path="url(#b)"><path fill="#5DADEC" d="M 72.125 274.746094 C 70.707031 272.289062 67.574219 271.457031 65.109375 272.863281 L 46.140625 283.824219 L 46.140625 261.90625 C 46.140625 259.070312 43.839844 256.769531 41.003906 256.769531 C 38.167969 256.769531 35.867188 259.070312 35.867188 261.90625 L 35.867188 283.835938 L 16.878906 272.875 C 14.421875 271.457031 11.28125 272.289062 9.863281 274.753906 C 8.433594 277.21875 9.277344 280.351562 11.742188 281.78125 L 30.722656 292.71875 L 11.742188 303.675781 C 9.289062 305.09375 8.457031 308.226562 9.863281 310.691406 C 11.28125 313.15625 14.414062 313.988281 16.878906 312.582031 L 35.867188 301.613281 L 35.867188 323.53125 C 35.867188 326.367188 38.167969 328.667969 41.003906 328.667969 C 43.839844 328.667969 46.140625 326.367188 46.140625 323.53125 L 46.140625 301.625 L 65.121094 312.582031 C 67.574219 314 70.71875 313.167969 72.136719 310.691406 C 73.550781 308.238281 72.71875 305.09375 70.253906 303.675781 L 51.273438 292.71875 L 70.253906 281.757812 C 72.710938 280.34375 73.550781 277.210938 72.125 274.746094 Z M 174.832031 315.828125 C 173.414062 313.375 170.28125 312.542969 167.816406 313.949219 L 148.847656 324.90625 L 148.847656 302.988281 C 148.847656 300.15625 146.546875 297.855469 143.710938 297.855469 C 140.878906 297.855469 138.578125 300.15625 138.578125 302.988281 L 138.578125 324.917969 L 119.585938 313.957031 C 117.132812 312.542969 113.988281 313.375 112.570312 315.839844 C 111.144531 318.304688 111.984375 321.4375 114.449219 322.863281 L 133.429688 333.824219 L 114.449219 344.78125 C 111.996094 346.199219 111.164062 349.332031 112.570312 351.796875 C 113.988281 354.261719 117.121094 355.09375 119.585938 353.6875 L 138.578125 342.695312 L 138.578125 364.613281 C 138.578125 367.449219 140.878906 369.75 143.710938 369.75 C 146.546875 369.75 148.847656 367.449219 148.847656 364.613281 L 148.847656 342.707031 L 167.828125 353.664062 C 170.28125 355.082031 173.425781 354.25 174.84375 351.777344 C 176.261719 349.320312 175.429688 346.179688 172.964844 344.761719 L 153.984375 333.800781 L 172.964844 322.84375 C 175.417969 321.425781 176.261719 318.292969 174.832031 315.828125 Z M 118.035156 282.449219 C 118.035156 285.28125 120.335938 287.582031 123.171875 287.582031 C 126.003906 287.582031 128.304688 285.28125 128.304688 282.449219 L 128.304688 260.539062 L 147.285156 271.5 C 149.742188 272.917969 152.882812 272.085938 154.300781 269.609375 C 155.71875 267.15625 154.886719 264.011719 152.421875 262.59375 L 133.441406 251.636719 L 152.421875 240.675781 C 154.875 239.25 155.71875 236.125 154.300781 233.652344 C 152.882812 231.195312 149.75 230.363281 147.285156 231.773438 L 128.304688 242.742188 L 128.304688 220.824219 C 128.304688 217.988281 126.003906 215.6875 123.171875 215.6875 C 120.335938 215.6875 118.035156 217.988281 118.035156 220.824219 L 118.035156 242.75 L 99.042969 231.792969 C 96.589844 230.375 93.445312 231.207031 92.03125 233.671875 C 90.601562 236.136719 91.445312 239.269531 93.910156 240.695312 L 112.890625 251.65625 L 93.910156 262.613281 C 91.453125 264.03125 90.621094 267.164062 92.03125 269.628906 C 93.445312 272.09375 96.578125 272.925781 99.042969 271.519531 L 118.035156 260.53125 Z M 249.996094 281.769531 C 252.449219 283.1875 255.59375 282.355469 257.011719 279.878906 C 258.425781 277.425781 257.59375 274.28125 255.128906 272.863281 L 236.148438 261.90625 L 255.128906 250.945312 C 257.585938 249.519531 258.425781 246.398438 257.011719 243.921875 C 255.59375 241.46875 252.460938 240.636719 249.996094 242.042969 L 231.015625 253.011719 L 231.015625 231.09375 C 231.015625 228.257812 228.714844 225.957031 225.878906 225.957031 C 223.042969 225.957031 220.742188 228.257812 220.742188 231.09375 L 220.742188 253.023438 L 201.753906 242.0625 C 199.296875 240.644531 196.15625 241.476562 194.738281 243.941406 C 193.308594 246.40625 194.152344 249.539062 196.617188 250.96875 L 215.597656 261.925781 L 196.617188 272.886719 C 194.164062 274.304688 193.332031 277.4375 194.738281 279.902344 C 196.15625 282.367188 199.289062 283.199219 201.753906 281.789062 L 220.742188 270.800781 L 220.742188 292.71875 C 220.742188 295.554688 223.042969 297.855469 225.878906 297.855469 C 228.714844 297.855469 231.015625 295.554688 231.015625 292.71875 L 231.015625 270.8125 Z M 357.839844 262.59375 L 338.859375 251.636719 L 357.839844 240.675781 C 360.292969 239.25 361.136719 236.125 359.71875 233.652344 C 358.300781 231.195312 355.167969 230.363281 352.703125 231.773438 L 333.722656 242.742188 L 333.722656 220.824219 C 333.722656 217.988281 331.421875 215.6875 328.585938 215.6875 C 325.753906 215.6875 323.453125 217.988281 323.453125 220.824219 L 323.453125 242.75 L 304.460938 231.792969 C 302.007812 230.375 298.863281 231.207031 297.445312 233.671875 C 296.019531 236.136719 296.859375 239.269531 299.324219 240.695312 L 318.304688 251.65625 L 299.324219 262.613281 C 296.871094 264.03125 296.039062 267.164062 297.445312 269.628906 C 298.863281 272.09375 301.996094 272.925781 304.460938 271.519531 L 323.453125 260.53125 L 323.453125 282.449219 C 323.453125 285.28125 325.753906 287.582031 328.585938 287.582031 C 331.421875 287.582031 333.722656 285.28125 333.722656 282.449219 L 333.722656 260.539062 L 352.703125 271.5 C 355.15625 272.917969 358.300781 272.085938 359.71875 269.609375 C 361.125 267.15625 360.292969 264.011719 357.839844 262.59375 Z M 308.355469 315.828125 C 306.9375 313.375 303.804688 312.542969 301.339844 313.949219 L 282.367188 324.90625 L 282.367188 302.988281 C 282.367188 300.15625 280.066406 297.855469 277.234375 297.855469 C 274.398438 297.855469 272.097656 300.15625 272.097656 302.988281 L 272.097656 324.917969 L 253.105469 313.957031 C 250.652344 312.542969 247.507812 313.375 246.09375 315.839844 C 244.664062 318.304688 245.507812 321.4375 247.972656 322.863281 L 266.953125 333.824219 L 247.972656 344.78125 C 245.515625 346.199219 244.683594 349.332031 246.09375 351.796875 C 247.507812 354.261719 250.640625 355.09375 253.105469 353.6875 L 272.097656 342.695312 L 272.097656 364.613281 C 272.097656 367.449219 274.398438 369.75 277.234375 369.75 C 280.066406 369.75 282.367188 367.449219 282.367188 364.613281 L 282.367188 342.707031 L 301.347656 353.664062 C 303.804688 355.082031 306.945312 354.25 308.363281 351.777344 C 309.78125 349.320312 308.949219 346.179688 306.484375 344.761719 L 287.503906 333.800781 L 306.484375 322.84375 C 308.9375 321.425781 309.78125 318.292969 308.355469 315.828125 Z M 308.355469 315.828125"/></g></svg>