<svg xmlns="http://www.w3.org/2000/svg" width="375" viewBox="0 0 375 375" height="375" version="1.0"><defs><clipPath id="a"><path d="M 55 103.484375 L 307 103.484375 L 307 221 L 55 221 Z M 55 103.484375"/></clipPath><clipPath id="b"><path d="M 120 175 L 372 175 L 372 292.484375 L 120 292.484375 Z M 120 175"/></clipPath><clipPath id="c"><path d="M 8.6875 134 L 260 134 L 260 252 L 8.6875 252 Z M 8.6875 134"/></clipPath></defs><path fill="#918F8F" d="M 274.949219 172.453125 C 275.429688 169.582031 275.699219 166.644531 275.699219 163.644531 C 275.699219 134.636719 252.191406 111.121094 223.195312 111.121094 C 213.710938 111.121094 204.824219 113.644531 197.148438 118.039062 C 187.917969 109.964844 175.839844 105.058594 162.601562 105.058594 C 134.96875 105.058594 112.328125 126.425781 110.269531 153.546875 L 110.097656 153.542969 C 81.09375 153.542969 57.59375 177.058594 57.59375 206.0625 C 57.59375 210.503906 58.148438 214.820312 59.1875 218.9375 L 303.707031 218.9375 C 309.648438 205.304688 297.914062 172.351562 274.949219 172.453125"/><g clip-path="url(#a)"><path fill="#FFF" d="M 274.949219 172.453125 L 276.523438 172.71875 C 277.019531 169.769531 277.296875 166.738281 277.296875 163.644531 C 277.296875 133.75 253.070312 109.523438 223.195312 109.523438 C 213.429688 109.519531 204.261719 112.125 196.351562 116.65625 L 197.148438 118.039062 L 198.199219 116.839844 C 188.695312 108.515625 176.234375 103.460938 162.601562 103.460938 C 134.125 103.464844 110.800781 125.476562 108.679688 153.425781 L 110.269531 153.546875 L 110.304688 151.949219 L 110.136719 151.945312 L 110.097656 151.945312 C 80.214844 151.945312 55.996094 176.171875 55.996094 206.0625 C 55.996094 210.636719 56.570312 215.085938 57.644531 219.328125 L 57.945312 220.535156 L 304.75 220.535156 L 305.167969 219.574219 C 306.316406 216.933594 306.832031 213.785156 306.832031 210.363281 C 306.820312 202.246094 303.925781 192.542969 298.554688 184.699219 C 295.859375 180.78125 292.535156 177.332031 288.597656 174.847656 C 284.664062 172.359375 280.097656 170.851562 275.046875 170.855469 L 274.921875 170.855469 L 274.949219 172.453125 L 276.523438 172.71875 L 274.949219 172.453125 L 274.972656 174.046875 L 275.046875 174.046875 C 279.460938 174.046875 283.398438 175.34375 286.898438 177.546875 C 292.136719 180.847656 296.359375 186.25 299.234375 192.253906 C 302.113281 198.253906 303.644531 204.847656 303.640625 210.363281 C 303.644531 213.460938 303.160156 216.207031 302.242188 218.300781 L 303.707031 218.9375 L 303.707031 217.34375 L 59.1875 217.34375 L 59.1875 218.9375 L 60.734375 218.546875 C 59.730469 214.554688 59.1875 210.371094 59.1875 206.0625 C 59.1875 191.992188 64.882812 179.273438 74.101562 170.054688 C 83.3125 160.835938 96.035156 155.136719 110.097656 155.136719 L 110.097656 153.542969 L 110.066406 155.136719 L 110.234375 155.140625 L 111.75 155.175781 L 111.859375 153.667969 C 113.855469 127.378906 135.804688 106.652344 162.601562 106.65625 C 175.441406 106.65625 187.140625 111.40625 196.097656 119.242188 L 196.957031 119.992188 L 197.941406 119.425781 C 205.382812 115.164062 213.996094 112.714844 223.195312 112.714844 C 237.253906 112.714844 249.976562 118.410156 259.195312 127.632812 C 268.40625 136.851562 274.105469 149.570312 274.105469 163.644531 C 274.105469 166.546875 273.84375 169.398438 273.375 172.183594 L 273.058594 174.078125 L 274.972656 174.046875 L 274.949219 172.453125"/></g><path fill="#BDBCBC" d="M 339.785156 244.421875 C 340.265625 241.558594 340.527344 238.617188 340.527344 235.613281 C 340.527344 206.609375 317.027344 183.09375 288.023438 183.09375 C 278.539062 183.09375 269.65625 185.621094 261.980469 190.019531 C 252.742188 181.9375 240.667969 177.03125 227.4375 177.03125 C 199.796875 177.03125 177.164062 198.398438 175.105469 225.515625 L 174.933594 225.515625 C 145.929688 225.515625 122.429688 249.03125 122.429688 278.035156 C 122.429688 282.480469 122.984375 286.792969 124.023438 290.914062 L 368.542969 290.914062 C 374.484375 277.277344 362.75 244.324219 339.785156 244.421875"/><g clip-path="url(#b)"><path fill="#FFF" d="M 339.785156 244.421875 L 341.355469 244.6875 C 341.851562 241.742188 342.125 238.710938 342.125 235.613281 C 342.125 205.726562 317.90625 181.496094 288.023438 181.496094 C 278.257812 181.496094 269.09375 184.105469 261.1875 188.628906 L 261.980469 190.019531 L 263.035156 188.8125 C 253.519531 180.496094 241.066406 175.4375 227.4375 175.4375 C 198.957031 175.441406 175.636719 197.449219 173.511719 225.394531 L 175.105469 225.515625 L 175.128906 223.921875 L 174.957031 223.917969 L 174.933594 223.917969 C 145.050781 223.917969 120.832031 248.148438 120.832031 278.035156 C 120.832031 282.613281 121.40625 287.058594 122.472656 291.304688 L 122.78125 292.507812 L 369.585938 292.507812 L 370.003906 291.554688 C 371.152344 288.910156 371.667969 285.757812 371.667969 282.339844 C 371.65625 274.21875 368.761719 264.515625 363.386719 256.671875 C 360.695312 252.757812 357.371094 249.304688 353.433594 246.820312 C 349.496094 244.335938 344.929688 242.820312 339.878906 242.824219 L 339.75 242.824219 L 339.785156 244.421875 L 341.355469 244.6875 L 339.785156 244.421875 L 339.8125 246.019531 L 339.878906 246.019531 C 344.292969 246.023438 348.230469 247.316406 351.726562 249.519531 C 356.972656 252.824219 361.191406 258.222656 364.070312 264.230469 C 366.949219 270.226562 368.480469 276.820312 368.476562 282.339844 C 368.480469 285.433594 367.992188 288.183594 367.078125 290.277344 L 368.542969 290.914062 L 368.542969 289.316406 L 124.023438 289.316406 L 124.023438 290.914062 L 125.570312 290.523438 C 124.566406 286.527344 124.023438 282.347656 124.023438 278.035156 C 124.023438 263.96875 129.71875 251.246094 138.9375 242.027344 C 148.148438 232.808594 160.871094 227.113281 174.933594 227.113281 L 174.933594 225.515625 L 174.910156 227.113281 L 175.078125 227.113281 L 176.582031 227.136719 L 176.695312 225.640625 C 178.691406 199.347656 200.640625 178.628906 227.4375 178.628906 C 240.269531 178.628906 251.972656 183.382812 260.933594 191.21875 L 261.792969 191.96875 L 262.777344 191.402344 C 270.21875 187.136719 278.824219 184.691406 288.023438 184.691406 C 302.089844 184.691406 314.804688 190.390625 324.019531 199.605469 C 333.238281 208.824219 338.933594 221.546875 338.933594 235.613281 C 338.933594 238.523438 338.679688 241.375 338.207031 244.15625 L 337.890625 246.054688 L 339.8125 246.019531 L 339.785156 244.421875"/></g><path fill="#D3D2D2" d="M 227.890625 203.820312 C 228.375 200.953125 228.644531 198.011719 228.644531 195.011719 C 228.644531 166.007812 205.132812 142.488281 176.140625 142.488281 C 166.65625 142.488281 157.765625 145.015625 150.089844 149.414062 C 140.859375 141.335938 128.78125 136.429688 115.546875 136.429688 C 87.910156 136.429688 65.273438 157.796875 63.214844 184.917969 L 63.042969 184.910156 C 34.046875 184.910156 10.535156 208.425781 10.535156 237.433594 C 10.535156 241.875 11.09375 246.1875 12.132812 250.3125 L 256.648438 250.3125 C 262.59375 236.671875 250.855469 203.722656 227.890625 203.820312"/><g clip-path="url(#c)"><path fill="#FFF" d="M 227.890625 203.820312 L 229.46875 204.085938 C 229.960938 201.140625 230.238281 198.109375 230.238281 195.011719 C 230.238281 165.121094 206.015625 140.894531 176.140625 140.890625 C 166.371094 140.890625 157.203125 143.5 149.296875 148.027344 L 150.089844 149.414062 L 151.140625 148.210938 C 141.636719 139.890625 129.179688 134.835938 115.546875 134.835938 C 87.066406 134.839844 63.742188 156.851562 61.625 184.796875 L 63.214844 184.917969 L 63.269531 183.320312 L 63.101562 183.3125 L 63.042969 183.3125 C 33.164062 183.316406 8.941406 207.542969 8.941406 237.433594 C 8.941406 242.007812 9.515625 246.453125 10.582031 250.703125 L 10.886719 251.910156 L 257.695312 251.910156 L 258.113281 250.949219 C 259.261719 248.308594 259.777344 245.15625 259.777344 241.734375 C 259.761719 233.617188 256.871094 223.910156 251.496094 216.070312 C 248.804688 212.152344 245.480469 208.703125 241.539062 206.21875 C 237.605469 203.730469 233.039062 202.21875 227.992188 202.222656 L 227.867188 202.222656 L 227.890625 203.820312 L 229.46875 204.085938 L 227.890625 203.820312 L 227.917969 205.417969 L 227.992188 205.417969 C 232.402344 205.421875 236.335938 206.714844 239.835938 208.917969 C 245.082031 212.21875 249.300781 217.621094 252.179688 223.628906 C 255.058594 229.625 256.589844 236.21875 256.582031 241.734375 C 256.589844 244.832031 256.101562 247.582031 255.1875 249.671875 L 256.648438 250.3125 L 256.648438 248.714844 L 12.132812 248.714844 L 12.132812 250.3125 L 13.679688 249.921875 C 12.671875 245.921875 12.132812 241.742188 12.132812 237.433594 C 12.132812 223.367188 17.832031 210.644531 27.042969 201.421875 C 36.261719 192.207031 48.976562 186.507812 63.042969 186.507812 L 63.042969 184.910156 L 62.984375 186.507812 L 63.15625 186.511719 L 64.691406 186.566406 L 64.804688 185.039062 C 66.804688 158.75 88.75 138.023438 115.546875 138.027344 C 128.382812 138.027344 140.085938 142.777344 149.039062 150.613281 L 149.894531 151.363281 L 150.882812 150.796875 C 158.328125 146.535156 166.941406 144.085938 176.140625 144.085938 C 190.199219 144.089844 202.914062 149.785156 212.136719 159.003906 C 221.351562 168.222656 227.046875 180.945312 227.046875 195.011719 C 227.046875 197.917969 226.785156 200.769531 226.316406 203.554688 L 226 205.445312 L 227.917969 205.417969 L 227.890625 203.820312"/></g><path fill="#9E9D9D" d="M 19.652344 248.714844 L 13.390625 248.714844 C 13.109375 247.476562 12.875 246.222656 12.683594 244.949219 C 14.972656 246.269531 17.289062 247.523438 19.652344 248.714844"/><path fill="#BDBCBD" d="M 22.917969 250.3125 L 12.132812 250.3125 C 11.605469 248.230469 11.207031 246.097656 10.941406 243.921875 C 11.515625 244.273438 12.097656 244.613281 12.683594 244.949219 C 12.875 246.222656 13.109375 247.476562 13.390625 248.714844 L 19.652344 248.714844 C 20.730469 249.261719 21.820312 249.792969 22.917969 250.3125"/><path fill="#706D6E" d="M 275.019531 183.078125 C 276.046875 181.75 277.070312 180.425781 278.09375 179.09375 C 278.933594 177.652344 279.75 176.207031 280.542969 174.75 C 282.804688 175.347656 284.917969 176.300781 286.898438 177.546875 C 288.699219 178.683594 290.378906 180.066406 291.925781 181.632812 C 290.636719 181.542969 289.335938 181.496094 288.023438 181.496094 C 288.023438 181.496094 288.019531 181.496094 288.019531 181.496094 C 283.539062 181.496094 279.183594 182.046875 275.019531 183.078125"/><path fill="#BDBCBD" d="M 294.316406 181.859375 C 293.519531 181.765625 292.726562 181.691406 291.925781 181.632812 C 290.378906 180.066406 288.699219 178.683594 286.898438 177.546875 C 284.917969 176.300781 282.804688 175.347656 280.542969 174.75 C 280.804688 174.273438 281.0625 173.792969 281.320312 173.316406 C 286.394531 174.746094 290.757812 177.847656 294.316406 181.859375"/><path fill="#908E8E" d="M 367.453125 289.316406 L 125.285156 289.316406 C 124.460938 285.6875 124.023438 281.914062 124.023438 278.035156 C 124.023438 276.019531 124.140625 274.027344 124.371094 272.070312 C 137.640625 270.285156 150.910156 268.503906 164.175781 266.71875 C 177.414062 263.007812 189.9375 258.070312 201.742188 251.910156 L 257.695312 251.910156 L 258.113281 250.949219 C 259.261719 248.308594 259.777344 245.15625 259.777344 241.734375 C 259.761719 233.617188 256.871094 223.910156 251.496094 216.070312 C 251.191406 215.625 250.878906 215.183594 250.554688 214.753906 C 257.601562 205.628906 264.65625 196.5 271.703125 187.375 C 276.824219 185.632812 282.308594 184.691406 288.023438 184.691406 C 302.089844 184.691406 314.804688 190.390625 324.019531 199.605469 C 333.238281 208.824219 338.933594 221.546875 338.933594 235.613281 C 338.933594 238.523438 338.679688 241.375 338.207031 244.15625 L 337.890625 246.054688 L 339.8125 246.019531 L 339.878906 246.019531 C 344.292969 246.023438 348.230469 247.316406 351.726562 249.519531 C 356.972656 252.824219 361.191406 258.222656 364.070312 264.230469 C 366.949219 270.226562 368.480469 276.820312 368.476562 282.339844 C 368.480469 284.980469 368.125 287.371094 367.453125 289.316406"/><path fill="#BDBCBD" d="M 368.542969 290.914062 L 124.023438 290.914062 C 122.984375 286.792969 122.429688 282.480469 122.429688 278.035156 C 122.429688 276.09375 122.535156 274.175781 122.742188 272.289062 C 123.285156 272.214844 123.824219 272.144531 124.371094 272.070312 C 124.140625 274.027344 124.023438 276.019531 124.023438 278.035156 C 124.023438 281.914062 124.460938 285.6875 125.285156 289.316406 L 367.453125 289.316406 C 368.125 287.371094 368.480469 284.980469 368.476562 282.339844 C 368.480469 276.820312 366.949219 270.226562 364.070312 264.230469 C 361.191406 258.222656 356.972656 252.824219 351.726562 249.519531 C 348.230469 247.316406 344.292969 246.023438 339.878906 246.019531 L 339.8125 246.019531 L 337.890625 246.054688 L 338.207031 244.15625 C 338.679688 241.375 338.933594 238.523438 338.933594 235.613281 C 338.933594 221.546875 333.238281 208.824219 324.019531 199.605469 C 314.804688 190.390625 302.089844 184.691406 288.023438 184.691406 C 282.308594 184.691406 276.824219 185.632812 271.703125 187.375 C 272.808594 185.941406 273.914062 184.511719 275.019531 183.078125 C 279.183594 182.046875 283.539062 181.496094 288.019531 181.496094 C 288.019531 181.496094 288.023438 181.496094 288.023438 181.496094 C 289.335938 181.496094 290.636719 181.542969 291.925781 181.632812 C 292.726562 181.691406 293.519531 181.765625 294.316406 181.859375 C 294.835938 182.445312 295.335938 183.050781 295.820312 183.671875 C 321.125 187.441406 340.527344 209.261719 340.527344 235.613281 C 340.527344 238.617188 340.265625 241.558594 339.785156 244.421875 C 339.816406 244.421875 339.847656 244.421875 339.878906 244.421875 C 362.78125 244.421875 374.476562 277.300781 368.542969 290.914062 M 339.785156 244.421875 L 341.355469 244.6875 L 339.785156 244.421875"/><path fill="#9E9D9D" d="M 255.5625 248.714844 L 207.601562 248.714844 C 222.324219 240.351562 235.886719 230.007812 248.289062 217.683594 C 248.367188 217.585938 248.441406 217.484375 248.519531 217.382812 C 249.90625 219.339844 251.132812 221.441406 252.179688 223.628906 C 255.058594 229.625 256.589844 236.21875 256.582031 241.734375 C 256.589844 244.378906 256.234375 246.769531 255.5625 248.714844"/><path fill="#BDBCBD" d="M 257.695312 251.910156 L 201.742188 251.910156 C 203.71875 250.878906 205.667969 249.8125 207.601562 248.714844 L 255.5625 248.714844 C 256.234375 246.769531 256.589844 244.378906 256.582031 241.734375 C 256.589844 236.21875 255.058594 229.625 252.179688 223.628906 C 251.132812 221.441406 249.90625 219.339844 248.519531 217.382812 C 249.199219 216.507812 249.875 215.628906 250.554688 214.753906 C 250.878906 215.183594 251.191406 215.625 251.496094 216.070312 C 256.871094 223.910156 259.761719 233.617188 259.777344 241.734375 C 259.777344 245.15625 259.261719 248.308594 258.113281 250.949219 L 257.695312 251.910156"/></svg>