<svg xmlns="http://www.w3.org/2000/svg" width="375" viewBox="0 0 375 375" height="375" version="1.0"><defs><clipPath id="a"><path d="M 38 22.164062 L 359 22.164062 L 359 191 L 38 191 Z M 38 22.164062"/></clipPath></defs><g clip-path="url(#a)"><path fill="#3E5768" d="M 358.921875 152.507812 C 358.921875 123.570312 334.449219 100.109375 304.257812 100.109375 C 304 100.109375 303.742188 100.125 303.484375 100.128906 C 303.992188 96.851562 304.257812 93.5 304.257812 90.089844 C 304.257812 52.589844 272.546875 22.191406 233.429688 22.191406 C 200.835938 22.191406 173.402344 43.304688 165.152344 72.035156 C 155.640625 64.898438 143.675781 60.632812 130.664062 60.632812 C 99.730469 60.632812 74.65625 84.671875 74.65625 114.324219 C 74.65625 117.902344 75.03125 121.398438 75.726562 124.78125 L 72.847656 124.78125 C 53.851562 124.78125 38.449219 139.542969 38.449219 157.753906 C 38.449219 175.964844 53.851562 190.730469 72.847656 190.730469 L 323.246094 190.730469 C 341.496094 190.730469 356.417969 177.105469 357.566406 159.886719 L 358.375 159.886719 C 358.730469 157.476562 358.921875 155.015625 358.921875 152.507812 Z M 358.921875 152.507812"/></g><path fill="#FFA64D" d="M 220.375 208.398438 L 248.890625 208.398438 C 251.640625 208.398438 252.957031 211.777344 250.925781 213.636719 L 227.699219 234.917969 C 226.375 236.132812 226.464844 238.246094 227.890625 239.34375 L 252.253906 258.09375 C 253.6875 259.199219 253.765625 261.335938 252.417969 262.539062 L 206.011719 304.050781 C 203.546875 306.253906 199.78125 303.675781 200.949219 300.582031 L 214.007812 265.960938 C 214.457031 264.765625 214.074219 263.417969 213.0625 262.644531 L 188.046875 243.492188 C 186.703125 242.464844 186.527344 240.511719 187.660156 239.257812 L 212.394531 211.9375 C 214.433594 209.683594 217.332031 208.398438 220.375 208.398438 Z M 220.375 208.398438"/><path fill="#ED903B" d="M 153.523438 288.03125 L 173.546875 288.03125 C 176.296875 288.03125 177.613281 291.414062 175.585938 293.269531 L 158.867188 308.589844 C 157.542969 309.800781 157.636719 311.914062 159.058594 313.011719 L 177.25 327.011719 C 178.683594 328.113281 178.761719 330.25 177.414062 331.457031 L 143.132812 362.121094 C 140.667969 364.324219 136.902344 361.746094 138.070312 358.652344 L 147.328125 334.105469 C 147.78125 332.910156 147.394531 331.5625 146.382812 330.789062 L 127.410156 316.265625 C 126.070312 315.238281 125.890625 313.28125 127.027344 312.027344 L 145.542969 291.574219 C 147.582031 289.320312 150.480469 288.03125 153.523438 288.03125 Z M 153.523438 288.03125"/><path fill="#87C3D8" d="M 66.847656 247.089844 C 69.488281 235.175781 71.402344 224.550781 72.476562 218.21875 C 72.855469 215.980469 70.308594 214.429688 68.496094 215.800781 C 63.371094 219.671875 54.824219 226.269531 45.464844 234.105469 C 40.25 238.472656 38.363281 243.207031 38.128906 247.519531 C 37.546875 258.054688 49.238281 265.152344 58.320312 259.785156 C 62.039062 257.585938 65.375 253.734375 66.847656 247.089844 Z M 66.847656 247.089844"/><path fill="#87C3D8" d="M 106.910156 299.003906 C 109.550781 287.089844 111.46875 276.464844 112.539062 270.128906 C 112.917969 267.890625 110.371094 266.34375 108.558594 267.710938 C 103.433594 271.585938 94.886719 278.183594 85.53125 286.015625 C 80.3125 290.386719 78.429688 295.121094 78.191406 299.433594 C 77.613281 309.96875 89.304688 317.070312 98.386719 311.699219 C 102.105469 309.5 105.4375 305.648438 106.910156 299.003906 Z M 106.910156 299.003906"/><path fill="#87C3D8" d="M 45.445312 350.605469 C 48.085938 338.6875 50.003906 328.0625 51.078125 321.730469 C 51.453125 319.492188 48.90625 317.945312 47.097656 319.3125 C 41.96875 323.183594 33.425781 329.78125 24.066406 337.617188 C 18.847656 341.984375 16.964844 346.71875 16.726562 351.035156 C 16.148438 361.566406 27.839844 368.667969 36.921875 363.300781 C 40.640625 361.101562 43.972656 357.246094 45.445312 350.605469 Z M 45.445312 350.605469"/><path fill="#87C3D8" d="M 322.878906 245.371094 C 325.519531 233.457031 327.4375 222.832031 328.511719 216.496094 C 328.890625 214.257812 326.34375 212.710938 324.53125 214.082031 C 319.402344 217.953125 310.859375 224.550781 301.5 232.382812 C 296.28125 236.753906 294.398438 241.488281 294.160156 245.800781 C 293.582031 256.335938 305.273438 263.4375 314.355469 258.066406 C 318.074219 255.867188 321.40625 252.015625 322.878906 245.371094 Z M 322.878906 245.371094"/><path fill="#87C3D8" d="M 353.253906 305.875 C 355.894531 293.960938 357.8125 283.335938 358.886719 277.003906 C 359.265625 274.765625 356.71875 273.21875 354.90625 274.585938 C 349.777344 278.457031 341.234375 285.054688 331.875 292.890625 C 326.65625 297.257812 324.773438 301.992188 324.535156 306.308594 C 323.957031 316.839844 335.648438 323.941406 344.730469 318.574219 C 348.449219 316.375 351.78125 312.519531 353.253906 305.875 Z M 353.253906 305.875"/><path fill="#87C3D8" d="M 294.21875 338.738281 C 296.859375 326.824219 298.777344 316.199219 299.851562 309.867188 C 300.226562 307.628906 297.679688 306.078125 295.871094 307.449219 C 290.742188 311.320312 282.199219 317.917969 272.839844 325.75 C 267.621094 330.121094 265.738281 334.855469 265.5 339.167969 C 264.921875 349.703125 276.613281 356.804688 285.695312 351.433594 C 289.414062 349.238281 292.746094 345.382812 294.21875 338.738281 Z M 294.21875 338.738281"/><path fill="#2A424C" d="M 240.378906 61.320312 L 110.957031 190.730469 L 323.246094 190.730469 C 341.496094 190.730469 356.417969 177.105469 357.566406 159.886719 L 358.375 159.886719 C 358.730469 157.476562 358.925781 155.015625 358.925781 152.507812 C 358.925781 123.570312 334.449219 100.109375 304.261719 100.109375 C 304 100.109375 303.742188 100.125 303.484375 100.128906 C 303.992188 96.851562 304.257812 93.5 304.257812 90.089844 C 300.320312 71.886719 290.304688 61.617188 280.195312 55.820312 C 267.257812 48.40625 250.921875 50.777344 240.378906 61.320312 Z M 240.378906 61.320312"/></svg>