<svg xmlns="http://www.w3.org/2000/svg" width="375" viewBox="0 0 375 375" height="375" version="1.0"><defs><clipPath id="a"><path d="M 24.28125 26 L 350.53125 26 L 350.53125 208 L 24.28125 208 Z M 24.28125 26"/></clipPath></defs><g clip-path="url(#a)"><path fill="#E1E8ED" d="M 278.03125 62.796875 C 270.554688 62.796875 263.347656 63.929688 256.5625 66.03125 C 248.523438 43.058594 226.71875 26.546875 201 26.546875 C 173.414062 26.546875 150.320312 45.539062 143.914062 71.140625 C 137.082031 65.976562 128.671875 62.796875 119.4375 62.796875 C 96.917969 62.796875 78.65625 81.058594 78.65625 103.578125 C 78.65625 109.050781 79.769531 114.253906 81.726562 119.019531 C 77.839844 117.941406 73.824219 117.171875 69.59375 117.171875 C 44.5625 117.171875 24.28125 137.453125 24.28125 162.484375 C 24.28125 187.515625 44.5625 207.796875 69.59375 207.796875 L 278.03125 207.796875 C 318.066406 207.796875 350.53125 175.34375 350.53125 135.296875 C 350.53125 95.257812 318.066406 62.796875 278.03125 62.796875 Z M 278.03125 62.796875"/></g><path fill="#5DADEC" d="M 133.019531 252.753906 L 131.996094 221.753906 L 105.988281 237.230469 C 100.207031 240.355469 96.363281 246.511719 96.597656 253.535156 C 96.933594 263.53125 105.351562 271.441406 115.414062 271.234375 C 125.464844 271.023438 133.355469 262.742188 133.019531 252.753906 Z M 115.085938 320.359375 L 114.0625 289.359375 L 88.054688 304.835938 C 82.269531 307.964844 78.429688 314.117188 78.664062 321.140625 C 79 331.136719 87.417969 339.046875 97.476562 338.839844 C 107.539062 338.632812 115.421875 330.347656 115.085938 320.359375 Z M 69.773438 279.941406 L 68.75 248.941406 L 42.742188 264.417969 C 36.957031 267.542969 33.117188 273.699219 33.351562 280.722656 C 33.6875 290.707031 42.105469 298.621094 52.164062 298.421875 C 62.226562 298.210938 70.109375 289.929688 69.773438 279.941406 Z M 232.898438 252.753906 L 231.875 221.753906 L 205.875 237.230469 C 200.082031 240.355469 196.25 246.511719 196.484375 253.535156 C 196.820312 263.53125 205.238281 271.441406 215.300781 271.234375 C 225.351562 271.023438 233.234375 262.742188 232.898438 252.753906 Z M 178.332031 289.003906 L 177.308594 258.003906 L 151.308594 273.480469 C 145.519531 276.605469 141.683594 282.761719 141.921875 289.785156 C 142.253906 299.78125 150.675781 307.691406 160.734375 307.484375 C 170.785156 307.273438 178.667969 298.992188 178.332031 289.003906 Z M 223.835938 329.421875 L 222.804688 298.421875 L 196.804688 313.898438 C 191.011719 317.027344 187.179688 323.179688 187.414062 330.203125 C 187.75 340.199219 196.167969 348.109375 206.226562 347.902344 C 216.289062 347.695312 224.171875 339.410156 223.835938 329.421875 Z M 287.082031 279.941406 L 286.058594 248.941406 L 260.058594 264.417969 C 254.269531 267.542969 250.433594 273.699219 250.671875 280.722656 C 251.003906 290.71875 259.425781 298.628906 269.484375 298.421875 C 279.535156 298.210938 287.417969 289.929688 287.082031 279.941406 Z M 287.082031 279.941406"/></svg>