<svg xmlns="http://www.w3.org/2000/svg" width="375" viewBox="0 0 375 375" height="375" version="1.0"><defs><clipPath id="a"><path d="M 35.785156 37.5 L 337.285156 37.5 L 337.285156 334.5 L 35.785156 334.5 Z M 35.785156 37.5"/></clipPath></defs><path fill="#FFD773" d="M 264.789062 186 C 264.789062 187.261719 264.757812 188.523438 264.695312 189.785156 C 264.632812 191.046875 264.539062 192.304688 264.410156 193.5625 C 264.285156 194.816406 264.128906 196.070312 263.941406 197.320312 C 263.753906 198.566406 263.535156 199.8125 263.285156 201.050781 C 263.035156 202.289062 262.753906 203.519531 262.441406 204.742188 C 262.132812 205.96875 261.789062 207.183594 261.417969 208.390625 C 261.046875 209.601562 260.644531 210.796875 260.214844 211.988281 C 259.78125 213.175781 259.320312 214.351562 258.832031 215.519531 C 258.339844 216.6875 257.824219 217.839844 257.273438 218.980469 C 256.726562 220.121094 256.152344 221.25 255.546875 222.363281 C 254.945312 223.476562 254.3125 224.574219 253.65625 225.65625 C 252.996094 226.738281 252.3125 227.804688 251.601562 228.855469 C 250.886719 229.90625 250.152344 230.9375 249.386719 231.953125 C 248.625 232.964844 247.835938 233.960938 247.023438 234.9375 C 246.210938 235.914062 245.375 236.867188 244.515625 237.804688 C 243.65625 238.738281 242.773438 239.652344 241.867188 240.546875 C 240.960938 241.4375 240.035156 242.308594 239.085938 243.15625 C 238.136719 244.003906 237.167969 244.828125 236.179688 245.628906 C 235.1875 246.429688 234.179688 247.207031 233.148438 247.957031 C 232.121094 248.710938 231.074219 249.4375 230.007812 250.136719 C 228.945312 250.839844 227.863281 251.515625 226.765625 252.164062 C 225.667969 252.8125 224.550781 253.433594 223.421875 254.03125 C 222.292969 254.625 221.148438 255.191406 219.992188 255.734375 C 218.835938 256.273438 217.664062 256.785156 216.480469 257.265625 C 215.296875 257.75 214.101562 258.203125 212.898438 258.628906 C 211.691406 259.054688 210.476562 259.449219 209.25 259.816406 C 208.023438 260.183594 206.789062 260.519531 205.546875 260.828125 C 204.304688 261.132812 203.054688 261.410156 201.800781 261.65625 C 200.542969 261.902344 199.28125 262.117188 198.015625 262.304688 C 196.75 262.488281 195.476562 262.644531 194.203125 262.765625 C 192.929688 262.890625 191.652344 262.984375 190.375 263.046875 C 189.09375 263.109375 187.8125 263.140625 186.535156 263.140625 C 185.253906 263.140625 183.972656 263.109375 182.695312 263.046875 C 181.414062 262.984375 180.136719 262.890625 178.863281 262.765625 C 177.589844 262.644531 176.316406 262.488281 175.050781 262.304688 C 173.785156 262.117188 172.523438 261.902344 171.265625 261.65625 C 170.011719 261.410156 168.761719 261.132812 167.519531 260.828125 C 166.277344 260.519531 165.042969 260.183594 163.816406 259.816406 C 162.589844 259.449219 161.375 259.054688 160.171875 258.628906 C 158.964844 258.203125 157.769531 257.75 156.585938 257.265625 C 155.402344 256.785156 154.234375 256.273438 153.074219 255.734375 C 151.917969 255.191406 150.773438 254.625 149.644531 254.03125 C 148.515625 253.433594 147.402344 252.8125 146.300781 252.164062 C 145.203125 251.515625 144.121094 250.839844 143.058594 250.136719 C 141.992188 249.4375 140.945312 248.710938 139.917969 247.957031 C 138.886719 247.207031 137.878906 246.429688 136.890625 245.628906 C 135.898438 244.828125 134.929688 244.003906 133.980469 243.15625 C 133.03125 242.308594 132.105469 241.4375 131.199219 240.546875 C 130.292969 239.652344 129.410156 238.738281 128.550781 237.804688 C 127.691406 236.867188 126.855469 235.914062 126.042969 234.9375 C 125.230469 233.960938 124.441406 232.964844 123.679688 231.953125 C 122.914062 230.9375 122.179688 229.90625 121.46875 228.855469 C 120.753906 227.804688 120.070312 226.738281 119.410156 225.65625 C 118.753906 224.574219 118.121094 223.476562 117.519531 222.363281 C 116.914062 221.25 116.339844 220.121094 115.792969 218.980469 C 115.246094 217.839844 114.726562 216.6875 114.234375 215.519531 C 113.746094 214.351562 113.285156 213.175781 112.851562 211.988281 C 112.421875 210.796875 112.019531 209.601562 111.648438 208.390625 C 111.277344 207.183594 110.933594 205.96875 110.625 204.742188 C 110.3125 203.519531 110.03125 202.289062 109.78125 201.050781 C 109.53125 199.8125 109.3125 198.566406 109.125 197.320312 C 108.9375 196.070312 108.78125 194.816406 108.65625 193.5625 C 108.53125 192.304688 108.4375 191.046875 108.371094 189.785156 C 108.308594 188.523438 108.277344 187.261719 108.277344 186 C 108.277344 184.738281 108.308594 183.476562 108.371094 182.214844 C 108.4375 180.953125 108.53125 179.695312 108.65625 178.4375 C 108.78125 177.183594 108.9375 175.929688 109.125 174.679688 C 109.3125 173.433594 109.53125 172.1875 109.78125 170.949219 C 110.03125 169.714844 110.3125 168.480469 110.625 167.257812 C 110.933594 166.03125 111.277344 164.816406 111.648438 163.609375 C 112.019531 162.398438 112.421875 161.203125 112.851562 160.011719 C 113.285156 158.824219 113.746094 157.648438 114.234375 156.480469 C 114.726562 155.3125 115.246094 154.160156 115.792969 153.019531 C 116.339844 151.878906 116.914062 150.75 117.519531 149.636719 C 118.121094 148.523438 118.753906 147.425781 119.410156 146.34375 C 120.070312 145.261719 120.753906 144.195312 121.46875 143.144531 C 122.179688 142.09375 122.914062 141.0625 123.679688 140.046875 C 124.441406 139.035156 125.230469 138.039062 126.042969 137.0625 C 126.855469 136.089844 127.691406 135.132812 128.550781 134.195312 C 129.410156 133.261719 130.292969 132.347656 131.199219 131.453125 C 132.105469 130.5625 133.03125 129.691406 133.980469 128.84375 C 134.929688 127.996094 135.898438 127.171875 136.890625 126.371094 C 137.878906 125.570312 138.886719 124.792969 139.917969 124.042969 C 140.945312 123.289062 141.992188 122.5625 143.058594 121.863281 C 144.121094 121.160156 145.203125 120.484375 146.300781 119.835938 C 147.402344 119.1875 148.515625 118.566406 149.644531 117.96875 C 150.773438 117.375 151.917969 116.808594 153.074219 116.269531 C 154.234375 115.726562 155.402344 115.214844 156.585938 114.734375 C 157.769531 114.25 158.964844 113.796875 160.171875 113.371094 C 161.375 112.945312 162.589844 112.550781 163.816406 112.183594 C 165.042969 111.816406 166.277344 111.480469 167.519531 111.171875 C 168.761719 110.867188 170.011719 110.589844 171.265625 110.34375 C 172.523438 110.097656 173.785156 109.882812 175.050781 109.695312 C 176.316406 109.511719 177.589844 109.355469 178.863281 109.234375 C 180.136719 109.109375 181.414062 109.015625 182.695312 108.953125 C 183.972656 108.890625 185.253906 108.863281 186.535156 108.863281 C 187.8125 108.863281 189.09375 108.890625 190.375 108.953125 C 191.652344 109.015625 192.929688 109.109375 194.203125 109.234375 C 195.476562 109.355469 196.75 109.511719 198.015625 109.695312 C 199.28125 109.882812 200.542969 110.097656 201.800781 110.34375 C 203.054688 110.589844 204.304688 110.867188 205.546875 111.171875 C 206.789062 111.480469 208.023438 111.816406 209.25 112.183594 C 210.476562 112.550781 211.691406 112.945312 212.898438 113.371094 C 214.101562 113.796875 215.296875 114.25 216.480469 114.734375 C 217.664062 115.214844 218.832031 115.726562 219.992188 116.269531 C 221.148438 116.808594 222.292969 117.375 223.421875 117.96875 C 224.550781 118.566406 225.664062 119.1875 226.765625 119.835938 C 227.863281 120.484375 228.945312 121.160156 230.007812 121.863281 C 231.074219 122.5625 232.121094 123.289062 233.148438 124.042969 C 234.179688 124.792969 235.1875 125.570312 236.179688 126.371094 C 237.167969 127.171875 238.136719 127.996094 239.085938 128.84375 C 240.035156 129.691406 240.960938 130.5625 241.867188 131.453125 C 242.773438 132.347656 243.65625 133.261719 244.515625 134.195312 C 245.375 135.132812 246.210938 136.089844 247.023438 137.0625 C 247.835938 138.039062 248.625 139.035156 249.386719 140.046875 C 250.152344 141.0625 250.886719 142.09375 251.601562 143.144531 C 252.3125 144.195312 252.996094 145.261719 253.65625 146.34375 C 254.3125 147.425781 254.945312 148.523438 255.546875 149.636719 C 256.152344 150.75 256.726562 151.878906 257.273438 153.019531 C 257.824219 154.160156 258.339844 155.3125 258.832031 156.480469 C 259.320312 157.648438 259.78125 158.824219 260.214844 160.011719 C 260.644531 161.203125 261.046875 162.398438 261.417969 163.609375 C 261.789062 164.816406 262.132812 166.03125 262.441406 167.257812 C 262.753906 168.480469 263.035156 169.714844 263.285156 170.949219 C 263.535156 172.1875 263.753906 173.433594 263.941406 174.679688 C 264.128906 175.929688 264.285156 177.183594 264.410156 178.4375 C 264.539062 179.695312 264.632812 180.953125 264.695312 182.214844 C 264.757812 183.476562 264.789062 184.738281 264.789062 186 Z M 264.789062 186"/><g clip-path="url(#a)"><path fill="#D1A12A" d="M 186.535156 89.738281 C 184.257812 89.738281 182.46875 87.949219 182.46875 85.671875 L 182.46875 41.570312 C 182.46875 39.289062 184.257812 37.5 186.535156 37.5 C 188.808594 37.5 190.597656 39.289062 190.597656 41.570312 L 190.597656 85.671875 C 190.597656 87.867188 188.726562 89.738281 186.535156 89.738281 Z M 190.597656 330.429688 L 190.597656 286.328125 C 190.597656 284.050781 188.808594 282.261719 186.535156 282.261719 C 184.257812 282.261719 182.46875 284.050781 182.46875 286.328125 L 182.46875 330.429688 C 182.46875 332.710938 184.257812 334.5 186.535156 334.5 C 188.808594 334.5 190.597656 332.710938 190.597656 330.429688 Z M 88.695312 186 C 88.695312 183.722656 86.90625 181.929688 84.632812 181.929688 L 39.9375 181.929688 C 37.664062 181.929688 35.875 183.722656 35.875 186 C 35.875 188.277344 37.664062 190.070312 39.9375 190.070312 L 84.632812 190.070312 C 86.90625 190.070312 88.695312 188.277344 88.695312 186 Z M 337.191406 186 C 337.191406 183.722656 335.40625 181.929688 333.128906 181.929688 L 288.433594 181.929688 C 286.160156 181.929688 284.371094 183.722656 284.371094 186 C 284.371094 188.277344 286.160156 190.070312 288.433594 190.070312 L 333.128906 190.070312 C 335.40625 190.070312 337.191406 188.277344 337.191406 186 Z M 117.378906 117.894531 C 118.921875 116.265625 118.921875 113.742188 117.296875 112.117188 L 85.6875 80.953125 C 84.0625 79.40625 81.542969 79.40625 79.917969 81.03125 C 78.375 82.660156 78.375 85.183594 80 86.808594 L 111.609375 117.976562 C 112.421875 118.789062 113.398438 119.113281 114.453125 119.113281 C 115.511719 119.113281 116.566406 118.707031 117.378906 117.894531 Z M 293.066406 291.046875 C 294.613281 289.421875 294.613281 286.898438 292.984375 285.269531 L 261.375 254.105469 C 259.75 252.5625 257.230469 252.5625 255.605469 254.1875 C 254.0625 255.816406 254.0625 258.339844 255.6875 259.964844 L 287.296875 291.128906 C 288.109375 291.945312 289.085938 292.269531 290.140625 292.269531 C 291.199219 292.269531 292.253906 291.863281 293.066406 291.046875 Z M 85.6875 291.046875 L 117.296875 259.882812 C 118.921875 258.339844 118.921875 255.734375 117.378906 254.105469 C 115.835938 252.480469 113.234375 252.480469 111.609375 254.023438 L 80 285.269531 C 78.375 286.816406 78.375 289.421875 79.917969 291.046875 C 80.730469 291.863281 81.789062 292.269531 82.84375 292.269531 C 83.898438 292.269531 84.875 291.863281 85.6875 291.046875 Z M 261.375 117.976562 L 292.984375 86.808594 C 294.613281 85.265625 294.613281 82.660156 293.066406 81.03125 C 291.523438 79.40625 288.921875 79.40625 287.296875 80.953125 L 255.6875 112.117188 C 254.0625 113.664062 254.0625 116.265625 255.605469 117.894531 C 256.417969 118.707031 257.476562 119.113281 258.53125 119.113281 C 259.585938 119.113281 260.644531 118.707031 261.375 117.976562 Z M 148.992188 96.820312 C 151.023438 95.921875 151.996094 93.5625 151.183594 91.53125 L 143.222656 72.570312 C 142.328125 70.535156 139.96875 69.558594 137.859375 70.375 C 135.824219 71.269531 134.851562 73.628906 135.664062 75.664062 L 143.628906 94.621094 C 144.277344 96.167969 145.820312 97.144531 147.367188 97.144531 C 148.015625 97.144531 148.503906 97.0625 148.992188 96.820312 Z M 235.128906 301.707031 C 237.160156 300.8125 238.132812 298.453125 237.320312 296.417969 L 229.359375 277.460938 C 228.464844 275.425781 226.109375 274.449219 223.996094 275.261719 C 221.964844 276.15625 220.988281 278.519531 221.800781 280.550781 L 229.765625 299.511719 C 230.414062 301.058594 231.957031 302.035156 233.503906 302.035156 C 234.070312 302.035156 234.640625 301.871094 235.128906 301.707031 Z M 74.472656 236.125 L 93.734375 228.230469 C 95.84375 227.417969 96.820312 224.976562 95.925781 222.941406 C 95.113281 220.828125 92.675781 219.851562 90.644531 220.746094 L 71.386719 228.636719 C 69.273438 229.453125 68.296875 231.894531 69.191406 233.925781 C 69.839844 235.472656 71.386719 236.449219 72.929688 236.449219 C 73.417969 236.449219 73.984375 236.367188 74.472656 236.125 Z M 282.339844 151.335938 L 301.601562 143.445312 C 303.710938 142.628906 304.6875 140.1875 303.792969 138.15625 C 302.980469 136.039062 300.542969 135.0625 298.511719 135.957031 L 279.253906 143.851562 C 277.140625 144.664062 276.164062 147.105469 277.058594 149.140625 C 277.707031 150.6875 279.253906 151.660156 280.796875 151.660156 C 281.367188 151.582031 281.851562 151.5 282.339844 151.335938 Z M 229.359375 94.703125 L 237.320312 75.742188 C 238.214844 73.710938 237.242188 71.269531 235.128906 70.453125 C 233.015625 69.558594 230.660156 70.535156 229.765625 72.652344 L 221.800781 91.609375 C 220.90625 93.644531 221.882812 96.085938 223.996094 96.898438 C 224.484375 97.144531 225.050781 97.226562 225.539062 97.226562 C 227.164062 97.144531 228.707031 96.25 229.359375 94.703125 Z M 143.222656 299.511719 L 151.183594 280.550781 C 152.078125 278.519531 151.101562 276.078125 148.992188 275.261719 C 146.878906 274.367188 144.519531 275.34375 143.628906 277.460938 L 135.664062 296.417969 C 134.769531 298.453125 135.746094 300.894531 137.859375 301.707031 C 138.34375 301.953125 138.914062 302.035156 139.402344 302.035156 C 141.027344 302.035156 142.570312 301.058594 143.222656 299.511719 Z M 96.007812 149.058594 C 96.820312 146.941406 95.84375 144.582031 93.8125 143.769531 L 74.554688 135.875 C 72.441406 135.0625 70.085938 136.039062 69.273438 138.074219 C 68.460938 140.1875 69.433594 142.546875 71.46875 143.363281 L 90.726562 151.253906 C 91.214844 151.5 91.78125 151.582031 92.269531 151.582031 C 93.8125 151.582031 95.359375 150.605469 96.007812 149.058594 Z M 303.875 233.925781 C 304.6875 231.8125 303.710938 229.453125 301.679688 228.636719 L 282.339844 220.746094 C 280.226562 219.929688 277.871094 220.90625 277.058594 222.941406 C 276.246094 225.058594 277.222656 227.417969 279.253906 228.230469 L 298.511719 236.125 C 299 236.367188 299.570312 236.449219 300.054688 236.449219 C 301.679688 236.449219 303.226562 235.472656 303.875 233.925781 Z M 303.875 233.925781"/></g></svg>