<svg xmlns="http://www.w3.org/2000/svg" width="45" viewBox="0 0 45 45" height="45" version="1.0"><defs><clipPath id="a"><path d="M 18 4.5 L 23 4.5 L 23 17 L 18 17 Z M 18 4.5"/></clipPath><clipPath id="b"><path d="M 18 4.5 L 20 4.5 L 20 7 L 18 7 Z M 18 4.5"/></clipPath><clipPath id="c"><path d="M 7 13 L 38 13 L 38 39.75 L 7 39.75 Z M 7 13"/></clipPath></defs><path fill="#FFF" d="M-4.5 -4.5H49.5V49.5H-4.5z"/><path fill="#FFF" d="M-4.5 -4.5H49.5V49.5H-4.5z"/><path fill="#FFF" d="M-4.5 -4.5H49.5V49.5H-4.5z"/><g clip-path="url(#a)"><path fill="#4F090B" d="M 19.082031 4.804688 C 19.082031 4.804688 19.125 4.820312 19.207031 4.851562 C 20.40625 5.304688 21.160156 6.464844 21.566406 7.605469 C 22.078125 9.042969 22.410156 10.578125 22.523438 12.097656 C 22.617188 13.316406 22.644531 14.636719 22.414062 15.839844 C 22.382812 16.011719 22.3125 16.566406 22.050781 16.53125 C 21.667969 16.484375 21.945312 15.621094 21.964844 15.425781 C 22.019531 14.835938 21.992188 14.226562 21.914062 13.640625 C 21.746094 12.375 21.359375 11.152344 20.933594 9.953125 C 20.578125 8.953125 20.152344 7.863281 19.308594 7.164062 C 18.800781 6.742188 18.585938 6.726562 18.585938 6.726562 C 18.613281 6.644531 19.101562 4.8125 19.082031 4.804688"/></g><g clip-path="url(#b)"><path fill="#320404" d="M 19.535156 5.96875 C 19.683594 5.441406 19.535156 4.9375 19.199219 4.84375 C 18.859375 4.746094 18.464844 5.09375 18.3125 5.621094 C 18.160156 6.148438 18.3125 6.652344 18.648438 6.75 C 18.984375 6.84375 19.382812 6.496094 19.535156 5.96875"/></g><g clip-path="url(#c)"><path fill="#CF1E2B" d="M 37.371094 19.960938 C 38.148438 27.152344 35.917969 39.425781 26.347656 39.691406 C 24.464844 39.742188 23.78125 38.875 22.269531 38.875 C 20.8125 38.875 20.160156 39.742188 18.304688 39.613281 C 9.648438 39.007812 6.707031 26.910156 7.078125 20.046875 C 7.507812 12.085938 17.835938 13.027344 22.269531 15.375 C 27.90625 12.601562 36.53125 12.152344 37.371094 19.960938"/></g><path fill="#80CD3B" d="M 31.6875 6.449219 C 31.988281 7.335938 30.203125 9.453125 27.429688 10.378906 C 24.660156 11.304688 21.953125 10.6875 21.652344 9.804688 C 21.355469 8.917969 22.984375 6.347656 25.757812 5.421875 C 28.527344 4.496094 31.390625 5.566406 31.6875 6.449219"/></svg>