<svg xmlns="http://www.w3.org/2000/svg" width="45" viewBox="0 0 45 45" height="45" version="1.0"><defs><clipPath id="a"><path d="M 22 9.335938 L 29 9.335938 L 29 21 L 22 21 Z M 22 9.335938"/></clipPath><clipPath id="b"><path d="M 22.757812 9.472656 L 28.851562 9.472656 L 28.851562 18 L 22.757812 18 Z M 22.757812 9.472656"/></clipPath><clipPath id="c"><path d="M 22.972656 13.921875 C 22.601562 14.828125 22.496094 15.816406 22.601562 16.777344 C 22.652344 17.152344 22.839844 17.605469 22.761719 17.980469 C 22.679688 18.433594 22.386719 18.78125 22.441406 19.289062 C 22.519531 19.957031 23.449219 20.460938 23.953125 19.824219 C 24.191406 19.527344 24.402344 19.234375 24.667969 18.941406 C 25.222656 18.566406 25.832031 18.246094 26.335938 17.898438 C 27.238281 17.285156 28.058594 16.511719 28.457031 15.46875 C 28.773438 14.613281 28.722656 13.734375 28.589844 12.824219 C 28.457031 11.96875 28.269531 11.117188 28.507812 10.289062 C 28.695312 9.621094 27.925781 9.328125 27.449219 9.542969 C 25.542969 10.449219 23.738281 11.890625 22.972656 13.921875"/></clipPath><clipPath id="d"><path d="M 11.894531 16.414062 L 32.875 16.414062 L 32.875 35.585938 L 11.894531 35.585938 Z M 11.894531 16.414062"/></clipPath><clipPath id="e"><path d="M 14.546875 19.351562 L 27.792969 19.351562 L 27.792969 29.765625 L 14.546875 29.765625 Z M 14.546875 19.351562"/></clipPath><clipPath id="f"><path d="M 16.375 17.207031 C 15.605469 17.523438 14.945312 17.980469 14.386719 18.59375 C 12.558594 20.625 11.660156 23.375 11.949219 26.097656 C 12.269531 28.820312 13.539062 31.332031 15.554688 33.175781 C 16.242188 33.84375 17.035156 34.402344 17.910156 34.804688 C 19.234375 35.363281 20.71875 35.445312 22.148438 35.523438 C 24.164062 35.628906 26.308594 35.710938 28.113281 34.828125 C 29.886719 33.976562 31.160156 32.238281 31.792969 30.371094 C 32.429688 28.5 32.984375 26.015625 32.855469 24.039062 C 32.695312 21.773438 32.351562 20.0625 30.8125 18.40625 C 29.964844 17.5 28.191406 16.722656 26.945312 16.644531 C 25.699219 16.566406 25.117188 17.179688 24.085938 17.550781 C 22.859375 18.003906 21.578125 17.6875 20.285156 17.371094 C 18.984375 17.054688 17.664062 16.734375 16.375 17.207031"/></clipPath><clipPath id="g"><path d="M 15.605469 28 L 27.261719 28 L 27.261719 32.4375 L 15.605469 32.4375 Z M 15.605469 28"/></clipPath><clipPath id="h"><path d="M 16.375 17.207031 C 15.605469 17.523438 14.945312 17.980469 14.386719 18.59375 C 12.558594 20.625 11.660156 23.375 11.949219 26.097656 C 12.269531 28.820312 13.539062 31.332031 15.554688 33.175781 C 16.242188 33.84375 17.035156 34.402344 17.910156 34.804688 C 19.234375 35.363281 20.71875 35.445312 22.148438 35.523438 C 24.164062 35.628906 26.308594 35.710938 28.113281 34.828125 C 29.886719 33.976562 31.160156 32.238281 31.792969 30.371094 C 32.429688 28.5 32.984375 26.015625 32.855469 24.039062 C 32.695312 21.773438 32.351562 20.0625 30.8125 18.40625 C 29.964844 17.5 28.191406 16.722656 26.945312 16.644531 C 25.699219 16.566406 25.117188 17.179688 24.085938 17.550781 C 22.859375 18.003906 21.578125 17.6875 20.285156 17.371094 C 18.984375 17.054688 17.664062 16.734375 16.375 17.207031"/></clipPath><clipPath id="i"><path d="M 18.519531 30.300781 L 28.585938 30.300781 L 28.585938 35.375 L 18.519531 35.375 Z M 18.519531 30.300781"/></clipPath><clipPath id="j"><path d="M 16.375 17.207031 C 15.605469 17.523438 14.945312 17.980469 14.386719 18.59375 C 12.558594 20.625 11.660156 23.375 11.949219 26.097656 C 12.269531 28.820312 13.539062 31.332031 15.554688 33.175781 C 16.242188 33.84375 17.035156 34.402344 17.910156 34.804688 C 19.234375 35.363281 20.71875 35.445312 22.148438 35.523438 C 24.164062 35.628906 26.308594 35.710938 28.113281 34.828125 C 29.886719 33.976562 31.160156 32.238281 31.792969 30.371094 C 32.429688 28.5 32.984375 26.015625 32.855469 24.039062 C 32.695312 21.773438 32.351562 20.0625 30.8125 18.40625 C 29.964844 17.5 28.191406 16.722656 26.945312 16.644531 C 25.699219 16.566406 25.117188 17.179688 24.085938 17.550781 C 22.859375 18.003906 21.578125 17.6875 20.285156 17.371094 C 18.984375 17.054688 17.664062 16.734375 16.375 17.207031"/></clipPath><clipPath id="k"><path d="M 23.554688 16.414062 L 32.875 16.414062 L 32.875 27.898438 L 23.554688 27.898438 Z M 23.554688 16.414062"/></clipPath><clipPath id="l"><path d="M 16.375 17.207031 C 15.605469 17.523438 14.945312 17.980469 14.386719 18.59375 C 12.558594 20.625 11.660156 23.375 11.949219 26.097656 C 12.269531 28.820312 13.539062 31.332031 15.554688 33.175781 C 16.242188 33.84375 17.035156 34.402344 17.910156 34.804688 C 19.234375 35.363281 20.71875 35.445312 22.148438 35.523438 C 24.164062 35.628906 26.308594 35.710938 28.113281 34.828125 C 29.886719 33.976562 31.160156 32.238281 31.792969 30.371094 C 32.429688 28.5 32.984375 26.015625 32.855469 24.039062 C 32.695312 21.773438 32.351562 20.0625 30.8125 18.40625 C 29.964844 17.5 28.191406 16.722656 26.945312 16.644531 C 25.699219 16.566406 25.117188 17.179688 24.085938 17.550781 C 22.859375 18.003906 21.578125 17.6875 20.285156 17.371094 C 18.984375 17.054688 17.664062 16.734375 16.375 17.207031"/></clipPath><clipPath id="m"><path d="M 31 26.828125 L 32.828125 26.828125 L 32.828125 29 L 31 29 Z M 31 26.828125"/></clipPath><clipPath id="n"><path d="M 16.375 17.207031 C 15.605469 17.523438 14.945312 17.980469 14.386719 18.59375 C 12.558594 20.625 11.660156 23.375 11.949219 26.097656 C 12.269531 28.820312 13.539062 31.332031 15.554688 33.175781 C 16.242188 33.84375 17.035156 34.402344 17.910156 34.804688 C 19.234375 35.363281 20.71875 35.445312 22.148438 35.523438 C 24.164062 35.628906 26.308594 35.710938 28.113281 34.828125 C 29.886719 33.976562 31.160156 32.238281 31.792969 30.371094 C 32.429688 28.5 32.984375 26.015625 32.855469 24.039062 C 32.695312 21.773438 32.351562 20.0625 30.8125 18.40625 C 29.964844 17.5 28.191406 16.722656 26.945312 16.644531 C 25.699219 16.566406 25.117188 17.179688 24.085938 17.550781 C 22.859375 18.003906 21.578125 17.6875 20.285156 17.371094 C 18.984375 17.054688 17.664062 16.734375 16.375 17.207031"/></clipPath><clipPath id="o"><path d="M 30.175781 27.628906 L 32.5625 27.628906 L 32.5625 31.636719 L 30.175781 31.636719 Z M 30.175781 27.628906"/></clipPath><clipPath id="p"><path d="M 16.375 17.207031 C 15.605469 17.523438 14.945312 17.980469 14.386719 18.59375 C 12.558594 20.625 11.660156 23.375 11.949219 26.097656 C 12.269531 28.820312 13.539062 31.332031 15.554688 33.175781 C 16.242188 33.84375 17.035156 34.402344 17.910156 34.804688 C 19.234375 35.363281 20.71875 35.445312 22.148438 35.523438 C 24.164062 35.628906 26.308594 35.710938 28.113281 34.828125 C 29.886719 33.976562 31.160156 32.238281 31.792969 30.371094 C 32.429688 28.5 32.984375 26.015625 32.855469 24.039062 C 32.695312 21.773438 32.351562 20.0625 30.8125 18.40625 C 29.964844 17.5 28.191406 16.722656 26.945312 16.644531 C 25.699219 16.566406 25.117188 17.179688 24.085938 17.550781 C 22.859375 18.003906 21.578125 17.6875 20.285156 17.371094 C 18.984375 17.054688 17.664062 16.734375 16.375 17.207031"/></clipPath><clipPath id="q"><path d="M 24.082031 29.230469 L 32.296875 29.230469 L 32.296875 35.585938 L 24.082031 35.585938 Z M 24.082031 29.230469"/></clipPath><clipPath id="r"><path d="M 16.375 17.207031 C 15.605469 17.523438 14.945312 17.980469 14.386719 18.59375 C 12.558594 20.625 11.660156 23.375 11.949219 26.097656 C 12.269531 28.820312 13.539062 31.332031 15.554688 33.175781 C 16.242188 33.84375 17.035156 34.402344 17.910156 34.804688 C 19.234375 35.363281 20.71875 35.445312 22.148438 35.523438 C 24.164062 35.628906 26.308594 35.710938 28.113281 34.828125 C 29.886719 33.976562 31.160156 32.238281 31.792969 30.371094 C 32.429688 28.5 32.984375 26.015625 32.855469 24.039062 C 32.695312 21.773438 32.351562 20.0625 30.8125 18.40625 C 29.964844 17.5 28.191406 16.722656 26.945312 16.644531 C 25.699219 16.566406 25.117188 17.179688 24.085938 17.550781 C 22.859375 18.003906 21.578125 17.6875 20.285156 17.371094 C 18.984375 17.054688 17.664062 16.734375 16.375 17.207031"/></clipPath><clipPath id="s"><path d="M 15.605469 16.949219 L 19.316406 16.949219 L 19.316406 19.617188 L 15.605469 19.617188 Z M 15.605469 16.949219"/></clipPath><clipPath id="t"><path d="M 16.375 17.207031 C 15.605469 17.523438 14.945312 17.980469 14.386719 18.59375 C 12.558594 20.625 11.660156 23.375 11.949219 26.097656 C 12.269531 28.820312 13.539062 31.332031 15.554688 33.175781 C 16.242188 33.84375 17.035156 34.402344 17.910156 34.804688 C 19.234375 35.363281 20.71875 35.445312 22.148438 35.523438 C 24.164062 35.628906 26.308594 35.710938 28.113281 34.828125 C 29.886719 33.976562 31.160156 32.238281 31.792969 30.371094 C 32.429688 28.5 32.984375 26.015625 32.855469 24.039062 C 32.695312 21.773438 32.351562 20.0625 30.8125 18.40625 C 29.964844 17.5 28.191406 16.722656 26.945312 16.644531 C 25.699219 16.566406 25.117188 17.179688 24.085938 17.550781 C 22.859375 18.003906 21.578125 17.6875 20.285156 17.371094 C 18.984375 17.054688 17.664062 16.734375 16.375 17.207031"/></clipPath><clipPath id="u"><path d="M 12.160156 17 L 17 17 L 17 28.699219 L 12.160156 28.699219 Z M 12.160156 17"/></clipPath><clipPath id="v"><path d="M 16.375 17.207031 C 15.605469 17.523438 14.945312 17.980469 14.386719 18.59375 C 12.558594 20.625 11.660156 23.375 11.949219 26.097656 C 12.269531 28.820312 13.539062 31.332031 15.554688 33.175781 C 16.242188 33.84375 17.035156 34.402344 17.910156 34.804688 C 19.234375 35.363281 20.71875 35.445312 22.148438 35.523438 C 24.164062 35.628906 26.308594 35.710938 28.113281 34.828125 C 29.886719 33.976562 31.160156 32.238281 31.792969 30.371094 C 32.429688 28.5 32.984375 26.015625 32.855469 24.039062 C 32.695312 21.773438 32.351562 20.0625 30.8125 18.40625 C 29.964844 17.5 28.191406 16.722656 26.945312 16.644531 C 25.699219 16.566406 25.117188 17.179688 24.085938 17.550781 C 22.859375 18.003906 21.578125 17.6875 20.285156 17.371094 C 18.984375 17.054688 17.664062 16.734375 16.375 17.207031"/></clipPath><clipPath id="w"><path d="M 11.894531 22.824219 L 18.785156 22.824219 L 18.785156 32.4375 L 11.894531 32.4375 Z M 11.894531 22.824219"/></clipPath><clipPath id="x"><path d="M 16.375 17.207031 C 15.605469 17.523438 14.945312 17.980469 14.386719 18.59375 C 12.558594 20.625 11.660156 23.375 11.949219 26.097656 C 12.269531 28.820312 13.539062 31.332031 15.554688 33.175781 C 16.242188 33.84375 17.035156 34.402344 17.910156 34.804688 C 19.234375 35.363281 20.71875 35.445312 22.148438 35.523438 C 24.164062 35.628906 26.308594 35.710938 28.113281 34.828125 C 29.886719 33.976562 31.160156 32.238281 31.792969 30.371094 C 32.429688 28.5 32.984375 26.015625 32.855469 24.039062 C 32.695312 21.773438 32.351562 20.0625 30.8125 18.40625 C 29.964844 17.5 28.191406 16.722656 26.945312 16.644531 C 25.699219 16.566406 25.117188 17.179688 24.085938 17.550781 C 22.859375 18.003906 21.578125 17.6875 20.285156 17.371094 C 18.984375 17.054688 17.664062 16.734375 16.375 17.207031"/></clipPath><clipPath id="y"><path d="M 12.425781 28.164062 L 24.347656 28.164062 L 24.347656 35.585938 L 12.425781 35.585938 Z M 12.425781 28.164062"/></clipPath><clipPath id="z"><path d="M 16.375 17.207031 C 15.605469 17.523438 14.945312 17.980469 14.386719 18.59375 C 12.558594 20.625 11.660156 23.375 11.949219 26.097656 C 12.269531 28.820312 13.539062 31.332031 15.554688 33.175781 C 16.242188 33.84375 17.035156 34.402344 17.910156 34.804688 C 19.234375 35.363281 20.71875 35.445312 22.148438 35.523438 C 24.164062 35.628906 26.308594 35.710938 28.113281 34.828125 C 29.886719 33.976562 31.160156 32.238281 31.792969 30.371094 C 32.429688 28.5 32.984375 26.015625 32.855469 24.039062 C 32.695312 21.773438 32.351562 20.0625 30.8125 18.40625 C 29.964844 17.5 28.191406 16.722656 26.945312 16.644531 C 25.699219 16.566406 25.117188 17.179688 24.085938 17.550781 C 22.859375 18.003906 21.578125 17.6875 20.285156 17.371094 C 18.984375 17.054688 17.664062 16.734375 16.375 17.207031"/></clipPath><clipPath id="A"><path d="M 22.492188 35.105469 L 24.613281 35.105469 L 24.613281 35.585938 L 22.492188 35.585938 Z M 22.492188 35.105469"/></clipPath><clipPath id="B"><path d="M 16.375 17.207031 C 15.605469 17.523438 14.945312 17.980469 14.386719 18.59375 C 12.558594 20.625 11.660156 23.375 11.949219 26.097656 C 12.269531 28.820312 13.539062 31.332031 15.554688 33.175781 C 16.242188 33.84375 17.035156 34.402344 17.910156 34.804688 C 19.234375 35.363281 20.71875 35.445312 22.148438 35.523438 C 24.164062 35.628906 26.308594 35.710938 28.113281 34.828125 C 29.886719 33.976562 31.160156 32.238281 31.792969 30.371094 C 32.429688 28.5 32.984375 26.015625 32.855469 24.039062 C 32.695312 21.773438 32.351562 20.0625 30.8125 18.40625 C 29.964844 17.5 28.191406 16.722656 26.945312 16.644531 C 25.699219 16.566406 25.117188 17.179688 24.085938 17.550781 C 22.859375 18.003906 21.578125 17.6875 20.285156 17.371094 C 18.984375 17.054688 17.664062 16.734375 16.375 17.207031"/></clipPath><clipPath id="C"><path d="M 14.8125 16.414062 L 26.46875 16.414062 L 26.46875 30.835938 L 14.8125 30.835938 Z M 14.8125 16.414062"/></clipPath><clipPath id="D"><path d="M 16.375 17.207031 C 15.605469 17.523438 14.945312 17.980469 14.386719 18.59375 C 12.558594 20.625 11.660156 23.375 11.949219 26.097656 C 12.269531 28.820312 13.539062 31.332031 15.554688 33.175781 C 16.242188 33.84375 17.035156 34.402344 17.910156 34.804688 C 19.234375 35.363281 20.71875 35.445312 22.148438 35.523438 C 24.164062 35.628906 26.308594 35.710938 28.113281 34.828125 C 29.886719 33.976562 31.160156 32.238281 31.792969 30.371094 C 32.429688 28.5 32.984375 26.015625 32.855469 24.039062 C 32.695312 21.773438 32.351562 20.0625 30.8125 18.40625 C 29.964844 17.5 28.191406 16.722656 26.945312 16.644531 C 25.699219 16.566406 25.117188 17.179688 24.085938 17.550781 C 22.859375 18.003906 21.578125 17.6875 20.285156 17.371094 C 18.984375 17.054688 17.664062 16.734375 16.375 17.207031"/></clipPath><clipPath id="E"><path d="M 29 20 L 32.886719 20 L 32.886719 26 L 29 26 Z M 29 20"/></clipPath></defs><path fill="#FFF" d="M-4.5 -4.5H49.5V49.5H-4.5z"/><path fill="#FFF" d="M-4.5 -4.5H49.5V49.5H-4.5z"/><g clip-path="url(#a)"><path fill="#276426" d="M 22.972656 13.921875 C 22.601562 14.828125 22.496094 15.816406 22.601562 16.777344 C 22.652344 17.152344 22.839844 17.605469 22.761719 17.980469 C 22.679688 18.433594 22.386719 18.78125 22.441406 19.289062 C 22.519531 19.957031 23.449219 20.460938 23.953125 19.824219 C 24.191406 19.527344 24.402344 19.234375 24.667969 18.941406 C 25.222656 18.566406 25.832031 18.246094 26.335938 17.898438 C 27.238281 17.285156 28.058594 16.511719 28.457031 15.46875 C 28.773438 14.613281 28.722656 13.734375 28.589844 12.824219 C 28.457031 11.96875 28.269531 11.117188 28.507812 10.289062 C 28.695312 9.621094 27.925781 9.328125 27.449219 9.542969 C 25.542969 10.449219 23.738281 11.890625 22.972656 13.921875"/></g><g clip-path="url(#b)"><g clip-path="url(#c)"><path fill="#97973D" d="M 22.78125 17.777344 C 22.78125 17.757812 22.777344 17.738281 22.777344 17.722656 C 22.902344 17.523438 23.03125 17.324219 23.15625 17.125 C 23.164062 17.117188 23.167969 17.105469 23.175781 17.09375 C 23.199219 17.113281 23.226562 17.125 23.261719 17.125 C 23.289062 17.125 23.316406 17.125 23.34375 17.097656 C 23.714844 16.832031 23.871094 16.484375 24.109375 16.109375 C 24.457031 15.574219 24.800781 15.070312 25.144531 14.535156 C 25.78125 13.601562 26.308594 12.613281 26.734375 11.570312 C 26.757812 11.558594 26.75 11.542969 26.734375 11.53125 C 26.839844 11.367188 26.945312 11.203125 27.050781 11.035156 C 27.355469 10.570312 27.695312 10.011719 28.09375 9.523438 C 28.34375 9.609375 28.539062 9.804688 28.535156 10.09375 C 28.535156 10.152344 28.527344 10.21875 28.507812 10.289062 C 28.425781 10.578125 28.394531 10.871094 28.394531 11.167969 C 28.394531 11.714844 28.503906 12.269531 28.589844 12.824219 C 28.648438 13.238281 28.691406 13.644531 28.691406 14.046875 C 28.691406 14.527344 28.628906 15.003906 28.457031 15.46875 C 28.273438 15.953125 27.996094 16.375 27.667969 16.753906 C 27.414062 16.695312 27.171875 16.660156 26.945312 16.644531 C 26.871094 16.640625 26.796875 16.636719 26.726562 16.636719 C 25.628906 16.636719 25.054688 17.199219 24.085938 17.550781 C 23.65625 17.710938 23.21875 17.773438 22.78125 17.777344"/></g></g><path fill="#3E0E0B" d="M 22.441406 18.859375 C 22.890625 17.765625 23.105469 16.832031 22.785156 15.628906 C 22.519531 14.75 21.832031 13.464844 20.796875 13.464844 C 20.5625 13.464844 20.375 13.679688 20.375 13.921875 C 20.375 13.949219 20.375 13.972656 20.375 14 C 20.480469 14.722656 21.171875 15.417969 21.488281 16.082031 C 21.832031 16.832031 22.125 17.925781 21.992188 18.753906 C 21.964844 18.886719 22.042969 19.019531 22.148438 19.046875 C 22.28125 19.046875 22.414062 18.96875 22.441406 18.859375"/><g clip-path="url(#d)"><path fill="#F68B23" d="M 16.375 17.207031 C 15.605469 17.523438 14.945312 17.980469 14.386719 18.59375 C 12.558594 20.625 11.660156 23.375 11.949219 26.097656 C 12.269531 28.820312 13.539062 31.332031 15.554688 33.175781 C 16.242188 33.84375 17.035156 34.402344 17.910156 34.804688 C 19.234375 35.363281 20.71875 35.445312 22.148438 35.523438 C 24.164062 35.628906 26.308594 35.710938 28.113281 34.828125 C 29.886719 33.976562 31.160156 32.238281 31.792969 30.371094 C 32.429688 28.5 32.984375 26.015625 32.855469 24.039062 C 32.695312 21.773438 32.351562 20.0625 30.8125 18.40625 C 29.964844 17.5 28.191406 16.722656 26.945312 16.644531 C 25.699219 16.566406 25.117188 17.179688 24.085938 17.550781 C 22.859375 18.003906 21.578125 17.6875 20.285156 17.371094 C 18.984375 17.054688 17.664062 16.734375 16.375 17.207031"/></g><g clip-path="url(#e)"><g clip-path="url(#f)"><path fill="#F68B23" d="M 27.066406 29.621094 C 26.53125 29.375 26.128906 29.035156 25.992188 28.6875 C 25.804688 28.328125 25.457031 28.128906 25.089844 28.128906 C 24.941406 28.128906 24.789062 28.164062 24.640625 28.234375 C 23.28125 29.023438 21.402344 29.511719 19.570312 29.511719 C 18.222656 29.511719 16.898438 29.246094 15.820312 28.640625 C 15.539062 28.039062 15.308594 27.425781 15.128906 26.820312 C 14.519531 24.761719 14.414062 22.546875 15.15625 20.515625 C 15.273438 20.179688 15.429688 19.863281 15.617188 19.566406 C 15.414062 20.566406 15.523438 21.632812 16.03125 22.625 C 16.347656 23.253906 16.757812 23.78125 17.226562 24.21875 C 17.238281 24.378906 17.257812 24.53125 17.277344 24.683594 C 17.195312 25.75 17.300781 26.820312 17.992188 27.726562 C 18.578125 28.492188 19.46875 28.984375 20.394531 28.984375 C 20.757812 28.984375 21.128906 28.90625 21.488281 28.742188 C 22.660156 28.183594 23.214844 27.007812 23.324219 25.765625 C 23.78125 25.6875 24.230469 25.574219 24.667969 25.429688 C 24.765625 25.402344 24.859375 25.386719 24.957031 25.386719 C 25.398438 25.386719 25.78125 25.683594 25.914062 26.125 C 26.078125 27.042969 26.769531 27.671875 27.589844 28.011719 C 27.433594 28.554688 27.253906 29.09375 27.066406 29.621094"/></g></g><g clip-path="url(#g)"><g clip-path="url(#h)"><path fill="#F68B23" d="M 19.175781 32.347656 C 18.976562 32.347656 18.773438 32.339844 18.574219 32.332031 C 17.402344 31.375 16.476562 30.046875 15.820312 28.640625 C 16.898438 29.246094 18.222656 29.511719 19.570312 29.511719 C 21.402344 29.511719 23.28125 29.023438 24.640625 28.234375 C 24.789062 28.164062 24.941406 28.128906 25.089844 28.128906 C 25.457031 28.128906 25.804688 28.328125 25.992188 28.6875 C 26.128906 29.035156 26.53125 29.375 27.066406 29.621094 C 26.972656 29.882812 26.878906 30.140625 26.785156 30.394531 C 26.714844 30.605469 26.695312 30.816406 26.714844 31.027344 C 26.691406 30.996094 26.671875 30.964844 26.65625 30.929688 C 26.488281 30.679688 26.207031 30.542969 25.921875 30.542969 C 25.753906 30.542969 25.582031 30.589844 25.433594 30.691406 C 24.132812 31.671875 21.566406 32.347656 19.175781 32.347656"/></g></g><g clip-path="url(#i)"><g clip-path="url(#j)"><path fill="#F68B23" d="M 24.300781 35.199219 C 24.222656 35.078125 24.109375 34.96875 23.976562 34.882812 C 23.765625 34.695312 23.527344 34.5625 23.261719 34.429688 C 22.679688 34.136719 22.070312 33.894531 21.433594 33.707031 C 20.429688 33.386719 19.449219 33.066406 18.625 32.375 C 18.609375 32.359375 18.59375 32.34375 18.574219 32.332031 C 18.773438 32.339844 18.976562 32.347656 19.175781 32.347656 C 21.566406 32.347656 24.132812 31.671875 25.433594 30.691406 C 25.582031 30.589844 25.753906 30.542969 25.921875 30.542969 C 26.207031 30.542969 26.488281 30.679688 26.65625 30.929688 C 26.671875 30.964844 26.691406 30.996094 26.714844 31.027344 C 26.785156 31.765625 27.355469 32.457031 28.058594 32.667969 C 28.160156 32.695312 28.257812 32.710938 28.355469 32.71875 C 27.78125 33.523438 27.125 34.28125 26.230469 34.695312 C 25.597656 34.984375 24.949219 35.101562 24.300781 35.199219"/></g></g><g clip-path="url(#k)"><g clip-path="url(#l)"><path fill="#F89A2A" d="M 31.347656 27.8125 C 31.484375 27.125 31.578125 26.429688 31.609375 25.730469 C 32.679688 24.148438 31.378906 21.59375 30.257812 20.382812 C 30.144531 20.261719 30.019531 20.140625 29.886719 20.027344 C 29.699219 19.804688 29.496094 19.59375 29.277344 19.394531 C 28.859375 19.003906 27.886719 18.285156 27.074219 18.160156 C 26.714844 18.003906 26.34375 17.878906 25.964844 17.792969 C 25.570312 17.703125 25.140625 17.652344 24.71875 17.652344 C 24.628906 17.652344 24.542969 17.65625 24.457031 17.660156 C 24.269531 17.667969 24.09375 17.6875 23.921875 17.6875 C 23.84375 17.6875 23.765625 17.683594 23.6875 17.671875 C 23.820312 17.640625 23.953125 17.601562 24.085938 17.550781 C 25.054688 17.199219 25.628906 16.636719 26.726562 16.636719 C 26.796875 16.636719 26.871094 16.640625 26.945312 16.644531 C 28.191406 16.722656 29.964844 17.5 30.8125 18.40625 C 32.351562 20.0625 32.695312 21.773438 32.855469 24.039062 C 32.867188 24.238281 32.875 24.445312 32.875 24.652344 C 32.875 25.355469 32.800781 26.105469 32.679688 26.859375 C 32.632812 26.894531 32.582031 26.933594 32.535156 26.976562 C 32.179688 27.316406 31.777344 27.597656 31.347656 27.8125"/></g></g><g clip-path="url(#m)"><g clip-path="url(#n)"><path fill="#F89A2A" d="M 31.074219 28.964844 C 31.179688 28.582031 31.269531 28.199219 31.347656 27.8125 C 31.777344 27.597656 32.179688 27.316406 32.535156 26.976562 C 32.582031 26.933594 32.632812 26.894531 32.679688 26.859375 C 32.628906 27.167969 32.570312 27.476562 32.507812 27.78125 C 32.441406 27.769531 32.375 27.761719 32.308594 27.761719 C 31.941406 27.761719 31.601562 27.945312 31.421875 28.367188 C 31.328125 28.59375 31.210938 28.792969 31.074219 28.964844"/></g></g><g clip-path="url(#o)"><g clip-path="url(#p)"><path fill="#F89A2A" d="M 30.28125 31.457031 C 30.292969 31.433594 30.300781 31.410156 30.3125 31.382812 C 30.59375 30.585938 30.859375 29.78125 31.074219 28.964844 C 31.210938 28.792969 31.328125 28.59375 31.421875 28.367188 C 31.601562 27.945312 31.941406 27.761719 32.308594 27.761719 C 32.375 27.761719 32.441406 27.769531 32.507812 27.78125 C 32.386719 28.355469 32.242188 28.917969 32.085938 29.453125 C 31.765625 29.488281 31.488281 29.683594 31.371094 30.078125 C 31.175781 30.742188 30.773438 31.1875 30.28125 31.457031"/></g></g><g clip-path="url(#q)"><g clip-path="url(#r)"><path fill="#F89A2A" d="M 24.539062 35.582031 C 24.53125 35.5625 24.519531 35.542969 24.507812 35.523438 C 24.484375 35.476562 24.4375 35.425781 24.390625 35.378906 C 24.378906 35.347656 24.363281 35.316406 24.351562 35.285156 C 24.335938 35.253906 24.320312 35.226562 24.300781 35.199219 C 24.949219 35.101562 25.597656 34.984375 26.230469 34.695312 C 27.125 34.28125 27.78125 33.523438 28.355469 32.71875 C 28.414062 32.726562 28.472656 32.730469 28.53125 32.730469 C 29.3125 32.730469 29.980469 32.203125 30.28125 31.457031 C 30.773438 31.1875 31.175781 30.742188 31.371094 30.078125 C 31.488281 29.683594 31.765625 29.488281 32.085938 29.453125 C 31.992188 29.769531 31.894531 30.078125 31.792969 30.371094 C 31.160156 32.238281 29.886719 33.976562 28.113281 34.828125 C 27.011719 35.367188 25.785156 35.546875 24.539062 35.582031"/></g></g><g clip-path="url(#s)"><g clip-path="url(#t)"><path fill="#F68B23" d="M 15.617188 19.566406 C 15.804688 18.625 16.273438 17.746094 16.945312 17.046875 C 17.226562 16.992188 17.507812 16.96875 17.792969 16.96875 C 18.265625 16.96875 18.734375 17.03125 19.207031 17.125 C 19.101562 17.207031 19.023438 17.285156 18.917969 17.367188 C 18.679688 17.472656 18.441406 17.578125 18.175781 17.632812 C 17.699219 17.792969 17.277344 18.007812 16.851562 18.273438 C 16.351562 18.625 15.933594 19.0625 15.617188 19.566406"/></g></g><g clip-path="url(#u)"><g clip-path="url(#v)"><path fill="#F68B23" d="M 15.820312 28.640625 C 15.28125 28.335938 14.800781 27.945312 14.414062 27.460938 C 13.496094 26.316406 12.597656 24.546875 12.160156 22.84375 C 12.535156 21.273438 13.296875 19.804688 14.386719 18.59375 C 14.945312 17.980469 15.605469 17.523438 16.375 17.207031 C 16.5625 17.136719 16.753906 17.085938 16.945312 17.046875 C 16.273438 17.746094 15.804688 18.625 15.617188 19.566406 C 15.429688 19.863281 15.273438 20.179688 15.15625 20.515625 C 14.414062 22.546875 14.519531 24.761719 15.128906 26.820312 C 15.308594 27.425781 15.539062 28.039062 15.820312 28.640625"/></g></g><g clip-path="url(#w)"><g clip-path="url(#x)"><path fill="#F68B23" d="M 18.574219 32.332031 C 16.96875 32.25 15.496094 31.84375 14.625 30.984375 C 13.96875 30.328125 13.15625 29.390625 12.453125 28.378906 C 12.210938 27.644531 12.042969 26.878906 11.949219 26.097656 C 11.914062 25.757812 11.894531 25.421875 11.894531 25.082031 C 11.894531 24.328125 11.984375 23.574219 12.160156 22.84375 C 12.597656 24.546875 13.496094 26.316406 14.414062 27.460938 C 14.800781 27.945312 15.28125 28.335938 15.820312 28.640625 C 16.476562 30.046875 17.402344 31.375 18.574219 32.332031"/></g></g><g clip-path="url(#y)"><g clip-path="url(#z)"><path fill="#F68B23" d="M 22.625 35.546875 C 22.46875 35.539062 22.308594 35.53125 22.148438 35.523438 C 20.71875 35.445312 19.234375 35.363281 17.910156 34.804688 C 17.035156 34.402344 16.242188 33.84375 15.554688 33.175781 C 14.117188 31.859375 13.058594 30.207031 12.453125 28.378906 C 13.15625 29.390625 13.96875 30.328125 14.625 30.984375 C 15.496094 31.84375 16.96875 32.25 18.574219 32.332031 C 18.59375 32.34375 18.609375 32.359375 18.625 32.375 C 19.449219 33.066406 20.429688 33.386719 21.433594 33.707031 C 22.070312 33.894531 22.679688 34.136719 23.261719 34.429688 C 23.527344 34.5625 23.765625 34.695312 23.976562 34.882812 C 24.109375 34.96875 24.222656 35.078125 24.300781 35.199219 C 23.808594 35.277344 23.320312 35.34375 22.839844 35.46875 C 22.761719 35.488281 22.691406 35.515625 22.625 35.546875"/></g></g><g clip-path="url(#A)"><g clip-path="url(#B)"><path fill="#F79427" d="M 24.050781 35.589844 C 23.574219 35.589844 23.097656 35.570312 22.625 35.546875 C 22.691406 35.515625 22.761719 35.488281 22.839844 35.46875 C 23.320312 35.34375 23.808594 35.277344 24.300781 35.199219 C 24.320312 35.226562 24.335938 35.253906 24.351562 35.285156 C 24.363281 35.316406 24.378906 35.347656 24.390625 35.378906 C 24.4375 35.425781 24.484375 35.476562 24.507812 35.523438 C 24.519531 35.542969 24.53125 35.5625 24.539062 35.582031 C 24.378906 35.585938 24.214844 35.589844 24.050781 35.589844"/></g></g><g clip-path="url(#C)"><g clip-path="url(#D)"><path fill="#F5A23A" d="M 25.410156 30.53125 C 26.441406 28.953125 26.496094 26.898438 26.308594 25.082031 C 26.125 23.105469 25.515625 21.183594 24.5625 19.476562 C 23.6875 17.871094 22.496094 16.484375 21.089844 15.335938 C 19.6875 14.1875 17.882812 13.066406 16.082031 12.824219 C 15.738281 12.773438 15.421875 12.878906 15.183594 13.144531 C 14.574219 13.921875 15.316406 14.535156 16.03125 14.828125 C 16.878906 15.148438 17.671875 15.550781 18.46875 15.976562 C 19.976562 16.859375 21.304688 18.058594 22.363281 19.476562 C 23.476562 20.996094 24.21875 22.757812 24.585938 24.601562 C 24.984375 26.523438 24.640625 28.421875 24.828125 30.371094 C 24.828125 30.609375 25.25 30.824219 25.410156 30.53125"/></g></g><path fill="#F79025" d="M 21.871094 25.886719 C 20.15625 25.886719 18.46875 25.367188 17.226562 24.21875 C 17.226562 24.152344 17.222656 24.085938 17.222656 24.015625 C 17.195312 22.625 17.699219 21.128906 18.945312 20.410156 C 19.40625 20.144531 19.828125 20.03125 20.21875 20.03125 C 22.308594 20.03125 23.34375 23.390625 23.34375 25.1875 C 23.347656 25.382812 23.339844 25.574219 23.324219 25.765625 C 22.84375 25.84375 22.355469 25.886719 21.871094 25.886719"/><path fill="#F79025" d="M 20.394531 28.984375 C 19.46875 28.984375 18.578125 28.492188 17.992188 27.726562 C 17.300781 26.820312 17.195312 25.75 17.277344 24.683594 C 17.257812 24.53125 17.238281 24.378906 17.226562 24.21875 C 18.46875 25.367188 20.15625 25.886719 21.871094 25.886719 C 22.355469 25.886719 22.84375 25.84375 23.324219 25.765625 C 23.214844 27.007812 22.660156 28.183594 21.488281 28.742188 C 21.128906 28.90625 20.757812 28.984375 20.394531 28.984375"/><path fill="#F79025" d="M 29.203125 28.316406 C 29.023438 28.316406 28.847656 28.308594 28.667969 28.289062 C 28.304688 28.246094 27.933594 28.15625 27.589844 28.011719 C 27.925781 26.8125 28.125 25.574219 27.953125 24.335938 C 27.820312 23.398438 27.449219 22.546875 26.890625 21.773438 C 26.390625 20.972656 25.566406 19.875 25.886719 18.886719 C 26.0625 18.339844 26.414062 18.140625 26.835938 18.140625 C 26.914062 18.140625 26.992188 18.148438 27.074219 18.160156 C 27.589844 18.386719 28.082031 18.683594 28.535156 19.046875 C 28.640625 19.136719 28.742188 19.230469 28.839844 19.324219 C 28.636719 19.234375 28.429688 19.164062 28.21875 19.128906 C 28.167969 19.121094 28.117188 19.117188 28.066406 19.117188 C 27.582031 19.117188 27.121094 19.449219 27.265625 19.980469 C 27.285156 20.03125 27.3125 20.074219 27.34375 20.117188 C 27.519531 20.472656 27.667969 20.828125 27.792969 21.183594 C 27.980469 21.636719 28.136719 22.117188 28.269531 22.574219 C 28.535156 23.585938 28.402344 24.894531 28.960938 25.804688 C 29.269531 26.296875 29.726562 26.527344 30.199219 26.527344 C 30.425781 26.527344 30.65625 26.472656 30.871094 26.367188 C 30.84375 26.949219 30.769531 27.523438 30.65625 28.09375 C 30.1875 28.242188 29.695312 28.316406 29.203125 28.316406"/><path fill="#F79025" d="M 28.792969 29.992188 C 28.179688 29.992188 27.566406 29.847656 27.066406 29.621094 C 27.253906 29.09375 27.433594 28.554688 27.589844 28.011719 C 27.933594 28.15625 28.304688 28.246094 28.667969 28.289062 C 28.847656 28.308594 29.023438 28.316406 29.203125 28.316406 C 29.695312 28.316406 30.1875 28.242188 30.65625 28.09375 C 30.589844 28.417969 30.507812 28.742188 30.417969 29.0625 C 30.34375 29.277344 30.257812 29.492188 30.167969 29.703125 C 29.738281 29.90625 29.265625 29.992188 28.792969 29.992188"/><path fill="#F79025" d="M 28.808594 31.808594 C 27.90625 31.808594 27.042969 31.476562 26.714844 31.027344 C 26.695312 30.816406 26.714844 30.605469 26.785156 30.394531 C 26.878906 30.140625 26.972656 29.882812 27.066406 29.621094 C 27.566406 29.847656 28.179688 29.992188 28.792969 29.992188 C 29.265625 29.992188 29.738281 29.90625 30.167969 29.703125 C 29.84375 30.433594 29.414062 31.128906 28.972656 31.804688 C 28.917969 31.808594 28.863281 31.808594 28.808594 31.808594"/><path fill="#F79025" d="M 28.355469 32.71875 C 28.257812 32.710938 28.160156 32.695312 28.058594 32.667969 C 27.355469 32.457031 26.785156 31.765625 26.714844 31.027344 C 27.042969 31.476562 27.90625 31.808594 28.808594 31.808594 C 28.863281 31.808594 28.917969 31.808594 28.972656 31.804688 C 28.855469 31.984375 28.734375 32.167969 28.613281 32.347656 C 28.53125 32.472656 28.445312 32.597656 28.355469 32.71875"/><path fill="#F89D2B" d="M 30.65625 28.09375 C 30.769531 27.523438 30.84375 26.949219 30.871094 26.367188 C 31.128906 26.246094 31.363281 26.054688 31.554688 25.804688 C 31.574219 25.78125 31.589844 25.753906 31.609375 25.730469 C 31.578125 26.429688 31.484375 27.125 31.347656 27.8125 C 31.125 27.921875 30.890625 28.015625 30.65625 28.09375"/><path fill="#F89D2B" d="M 30.167969 29.703125 C 30.257812 29.492188 30.34375 29.277344 30.417969 29.0625 C 30.507812 28.742188 30.589844 28.417969 30.65625 28.09375 C 30.890625 28.015625 31.125 27.921875 31.347656 27.8125 C 31.269531 28.199219 31.179688 28.582031 31.074219 28.964844 C 30.820312 29.300781 30.507812 29.539062 30.167969 29.703125"/><path fill="#F89D2B" d="M 28.972656 31.804688 C 29.414062 31.128906 29.84375 30.433594 30.167969 29.703125 C 30.507812 29.539062 30.820312 29.300781 31.074219 28.964844 C 30.859375 29.78125 30.59375 30.585938 30.3125 31.382812 C 30.300781 31.410156 30.292969 31.433594 30.28125 31.457031 C 29.882812 31.675781 29.425781 31.785156 28.972656 31.804688"/><path fill="#F89D2B" d="M 28.53125 32.730469 C 28.472656 32.730469 28.414062 32.726562 28.355469 32.71875 C 28.445312 32.597656 28.53125 32.472656 28.613281 32.347656 C 28.734375 32.167969 28.855469 31.984375 28.972656 31.804688 C 29.425781 31.785156 29.882812 31.675781 30.28125 31.457031 C 29.980469 32.203125 29.3125 32.730469 28.53125 32.730469"/><path fill="#F89D2B" d="M 29.886719 20.027344 C 29.574219 19.75 29.21875 19.496094 28.839844 19.324219 C 28.742188 19.230469 28.640625 19.136719 28.535156 19.046875 C 28.082031 18.683594 27.589844 18.386719 27.074219 18.160156 C 27.886719 18.285156 28.859375 19.003906 29.277344 19.394531 C 29.496094 19.59375 29.699219 19.804688 29.886719 20.027344"/><g clip-path="url(#E)"><path fill="#F9A848" d="M 31.609375 25.730469 C 31.648438 24.828125 31.582031 23.917969 31.371094 23 C 31.117188 21.898438 30.613281 20.878906 29.886719 20.027344 C 30.019531 20.140625 30.144531 20.261719 30.257812 20.382812 C 31.378906 21.59375 32.679688 24.148438 31.609375 25.730469"/></g><path fill="#F8A044" d="M 30.199219 26.527344 C 29.726562 26.527344 29.269531 26.296875 28.960938 25.804688 C 28.402344 24.894531 28.535156 23.585938 28.269531 22.574219 C 28.136719 22.117188 27.980469 21.636719 27.792969 21.183594 C 27.667969 20.828125 27.519531 20.472656 27.34375 20.117188 C 27.3125 20.074219 27.285156 20.03125 27.265625 19.980469 C 27.121094 19.449219 27.582031 19.117188 28.066406 19.117188 C 28.117188 19.117188 28.167969 19.121094 28.21875 19.128906 C 28.429688 19.164062 28.636719 19.234375 28.839844 19.324219 C 30.324219 20.792969 30.816406 23.105469 30.867188 25.109375 C 30.890625 25.527344 30.894531 25.949219 30.871094 26.367188 C 30.65625 26.472656 30.425781 26.527344 30.199219 26.527344"/><path fill="#F9AB49" d="M 30.871094 26.367188 C 30.894531 25.949219 30.890625 25.527344 30.867188 25.109375 C 30.816406 23.105469 30.324219 20.792969 28.839844 19.324219 C 29.21875 19.496094 29.574219 19.75 29.886719 20.027344 C 30.613281 20.878906 31.117188 21.898438 31.371094 23 C 31.582031 23.917969 31.648438 24.828125 31.609375 25.730469 C 31.589844 25.753906 31.574219 25.78125 31.554688 25.804688 C 31.363281 26.054688 31.128906 26.246094 30.871094 26.367188"/><path fill="#31752D" d="M 23.175781 17.09375 C 23.148438 17.074219 23.128906 17.035156 23.128906 16.992188 C 23.261719 16.03125 24.109375 15.015625 24.585938 14.214844 C 25.144531 13.226562 25.832031 12.316406 26.628906 11.515625 C 26.636719 11.511719 26.648438 11.507812 26.664062 11.507812 C 26.691406 11.507812 26.71875 11.519531 26.734375 11.53125 C 26.171875 12.402344 25.601562 13.257812 25.066406 14.132812 C 24.4375 15.113281 23.804688 16.089844 23.175781 17.09375"/><path fill="#618B37" d="M 23.261719 17.125 C 23.226562 17.125 23.199219 17.113281 23.175781 17.09375 C 23.804688 16.089844 24.4375 15.113281 25.066406 14.132812 C 25.601562 13.257812 26.171875 12.402344 26.734375 11.53125 C 26.75 11.542969 26.757812 11.558594 26.734375 11.570312 C 26.308594 12.613281 25.78125 13.601562 25.144531 14.535156 C 24.800781 15.070312 24.457031 15.574219 24.109375 16.109375 C 23.871094 16.484375 23.714844 16.832031 23.34375 17.097656 C 23.316406 17.125 23.289062 17.125 23.261719 17.125"/></svg>