<svg xmlns="http://www.w3.org/2000/svg" width="45" viewBox="0 0 45 45" height="45" version="1.0"><defs><clipPath id="a"><path d="M 6.105469 18 L 35 18 L 35 39 L 6.105469 39 Z M 6.105469 18"/></clipPath><clipPath id="b"><path d="M 21 37 L 32 37 L 32 40.253906 L 21 40.253906 Z M 21 37"/></clipPath><clipPath id="c"><path d="M 22 38 L 25 38 L 25 40.253906 L 22 40.253906 Z M 22 38"/></clipPath><clipPath id="d"><path d="M 6.105469 35 L 9 35 L 9 38 L 6.105469 38 Z M 6.105469 35"/></clipPath></defs><path fill="#FFF" d="M-4.5 -4.5H49.5V49.5H-4.5z"/><path fill="#FFF" d="M-4.5 -4.5H49.5V49.5H-4.5z"/><path fill="#FFE8B6" d="M 33.011719 7.023438 C 35.671875 5.710938 37.964844 10.933594 35.984375 19.730469 C 34.886719 24.59375 31.027344 28.523438 27.066406 31.457031 C 23.101562 34.386719 16.164062 30.480469 20.128906 26.570312 C 24.09375 22.660156 28.054688 19.730469 30.039062 13.863281 C 31.332031 10.042969 31.027344 8 33.011719 7.023438 Z M 33.011719 7.023438"/><path fill="#FFD983" d="M 35.984375 12.886719 C 35.984375 15.820312 34.992188 21.683594 32.019531 25.59375 C 29.046875 29.5 25.082031 30.480469 28.054688 26.570312 C 31.027344 22.660156 33.011719 19.730469 34.003906 15.820312 C 34.992188 11.910156 35.984375 8.976562 35.984375 12.886719 Z M 35.984375 12.886719"/><g clip-path="url(#a)"><path fill="#FFCC4D" d="M 27.066406 24.617188 C 26.773438 25.195312 28.222656 20.867188 24.09375 18.75 C 22.125 17.742188 14.183594 19.730469 20.128906 19.730469 C 23.101562 19.730469 24.09375 21.683594 22.109375 23.636719 C 21.820312 23.921875 21.625 24.226562 21.492188 24.527344 C 21.082031 24.867188 20.628906 25.222656 20.128906 25.59375 C 17.886719 27.25 14.339844 29.722656 10.21875 32.433594 C 7.246094 34.386719 6.253906 35.367188 6.253906 36.34375 C 6.253906 39.273438 15.171875 39.273438 20.128906 37.320312 C 25.082031 35.367188 30.039062 30.480469 30.039062 30.480469 L 34.003906 26.570312 C 31.027344 22.660156 27.066406 24.617188 27.066406 24.617188 Z M 27.066406 24.617188"/></g><path fill="#FFE8B6" d="M 27.066406 24.617188 C 27.066406 24.617188 28.839844 19.992188 24.09375 17.773438 C 20.085938 15.902344 16.164062 16.796875 13.191406 18.75 C 10.21875 20.707031 11.210938 22.660156 10.21875 23.636719 C 9.226562 24.617188 11.210938 25.59375 13.191406 23.636719 C 15.171875 21.683594 21.433594 18.855469 24.09375 19.730469 C 27.066406 20.707031 26.074219 22.660156 27.066406 24.617188 Z M 27.066406 24.617188"/><g clip-path="url(#b)"><path fill="#A6D388" d="M 31.027344 39.273438 L 27.066406 39.273438 C 25.082031 39.273438 24.09375 40.253906 23.101562 40.253906 C 22.109375 40.253906 21.117188 38.296875 23.101562 38.296875 C 25.082031 38.296875 27.066406 38.296875 28.054688 37.320312 C 29.046875 36.34375 33.011719 39.273438 31.027344 39.273438 Z M 31.027344 39.273438"/></g><g clip-path="url(#c)"><path fill="#3E721D" d="M 24.09375 39.273438 C 24.09375 39.546875 23.996094 39.777344 23.800781 39.964844 C 23.609375 40.15625 23.375 40.253906 23.101562 40.253906 C 22.828125 40.253906 22.59375 40.15625 22.398438 39.964844 C 22.207031 39.777344 22.109375 39.546875 22.109375 39.273438 C 22.109375 39.003906 22.207031 38.773438 22.398438 38.585938 C 22.59375 38.394531 22.828125 38.296875 23.101562 38.296875 C 23.375 38.296875 23.609375 38.394531 23.800781 38.585938 C 23.996094 38.773438 24.09375 39.003906 24.09375 39.273438 Z M 24.09375 39.273438"/></g><path fill="#FFCC4D" d="M 37.179688 32.433594 C 37.179688 32.433594 33.011719 39.273438 31.027344 39.273438 L 27.066406 39.273438 C 25.082031 39.273438 27.066406 38.296875 28.054688 37.320312 C 29.046875 36.34375 33.011719 37.320312 33.011719 31.457031 C 33.011719 28.523438 37.179688 32.433594 37.179688 32.433594 Z M 37.179688 32.433594"/><path fill="#FFE8B6" d="M 31.027344 23.636719 C 34.003906 23.636719 38.957031 26.570312 37.964844 32.433594 C 36.976562 38.296875 33.011719 39.273438 31.027344 39.273438 L 29.046875 39.273438 C 27.066406 39.273438 28.054688 38.296875 29.046875 37.320312 C 30.039062 36.34375 33.011719 37.320312 33.011719 31.457031 C 33.011719 28.523438 29.046875 24.617188 27.066406 24.617188 C 27.066406 24.617188 29.046875 23.636719 31.027344 23.636719 Z M 31.027344 23.636719"/><path fill="#FFD983" d="M 22.109375 25.59375 C 25.082031 25.59375 27.066406 26.570312 25.082031 28.523438 C 23.515625 30.070312 19.136719 33.410156 15.171875 34.386719 C 11.210938 35.367188 7.246094 35.367188 10.21875 33.410156 C 13.191406 31.457031 19.894531 25.59375 22.109375 25.59375 Z M 22.109375 25.59375"/><g clip-path="url(#d)"><path fill="#C1694F" d="M 7.246094 35.367188 C 8.234375 35.367188 8.234375 35.367188 8.234375 36.019531 C 8.234375 36.667969 8.234375 37.320312 7.246094 37.320312 C 6.253906 37.320312 6.253906 36.019531 6.253906 36.019531 C 6.253906 36.019531 6.253906 35.367188 7.246094 35.367188 Z M 7.246094 35.367188"/></g></svg>