<svg xmlns="http://www.w3.org/2000/svg" width="45" viewBox="0 0 45 45" height="45" version="1.0"><defs><clipPath id="a"><path d="M 13 7.054688 L 29 7.054688 L 29 26 L 13 26 Z M 13 7.054688"/></clipPath><clipPath id="b"><path d="M 15 7.054688 L 29 7.054688 L 29 15 L 15 15 Z M 15 7.054688"/></clipPath><clipPath id="c"><path d="M 22 22 L 34.171875 22 L 34.171875 34.054688 L 22 34.054688 Z M 22 22"/></clipPath><clipPath id="d"><path d="M 10.921875 22 L 23 22 L 23 34.054688 L 10.921875 34.054688 Z M 10.921875 22"/></clipPath></defs><path fill="#FFF" d="M-4.5 -4.5H49.5V49.5H-4.5z"/><path fill="#FFF" d="M-4.5 -4.5H49.5V49.5H-4.5z"/><g clip-path="url(#a)"><path fill="#77B255" d="M 28.148438 25.078125 C 28 25.078125 27.851562 25.035156 27.722656 24.941406 C 22.832031 21.515625 18.632812 15.695312 16.21875 11.898438 C 17.488281 19.773438 16.964844 24.210938 16.9375 24.421875 C 16.886719 24.832031 16.519531 25.117188 16.105469 25.074219 C 15.695312 25.019531 15.40625 24.648438 15.457031 24.238281 C 15.460938 24.179688 16.15625 18.230469 13.972656 8.03125 C 13.894531 7.667969 14.097656 7.300781 14.445312 7.171875 C 14.792969 7.046875 15.1875 7.195312 15.359375 7.523438 C 15.421875 7.632812 21.34375 18.648438 28.578125 23.71875 C 28.914062 23.953125 28.996094 24.421875 28.761719 24.757812 C 28.617188 24.96875 28.382812 25.078125 28.148438 25.078125 Z M 28.148438 25.078125"/></g><g clip-path="url(#b)"><path fill="#5C913B" d="M 28.558594 13.722656 C 25.960938 14.441406 24.785156 15.628906 20.527344 14.222656 C 17 13.058594 15.269531 11.074219 15.789062 9.507812 C 16.304688 7.9375 18.164062 7.140625 21.691406 8.304688 C 25.238281 9.476562 24.769531 10.898438 28.558594 13.722656 Z M 28.558594 13.722656"/></g><g clip-path="url(#c)"><path fill="#BE1931" d="M 34.125 28.070312 C 34.125 28.460938 34.085938 28.851562 34.011719 29.238281 C 33.933594 29.621094 33.820312 29.996094 33.671875 30.359375 C 33.519531 30.722656 33.335938 31.066406 33.117188 31.394531 C 32.898438 31.722656 32.652344 32.023438 32.375 32.300781 C 32.097656 32.578125 31.796875 32.828125 31.46875 33.046875 C 31.144531 33.261719 30.796875 33.449219 30.4375 33.597656 C 30.074219 33.75 29.699219 33.863281 29.316406 33.9375 C 28.929688 34.015625 28.542969 34.054688 28.148438 34.054688 C 27.757812 34.054688 27.367188 34.015625 26.984375 33.9375 C 26.597656 33.863281 26.226562 33.75 25.863281 33.597656 C 25.5 33.449219 25.15625 33.261719 24.828125 33.046875 C 24.503906 32.828125 24.199219 32.578125 23.921875 32.300781 C 23.644531 32.023438 23.398438 31.722656 23.179688 31.394531 C 22.960938 31.066406 22.777344 30.722656 22.628906 30.359375 C 22.476562 29.996094 22.363281 29.621094 22.289062 29.238281 C 22.210938 28.851562 22.171875 28.460938 22.171875 28.070312 C 22.171875 27.675781 22.210938 27.289062 22.289062 26.902344 C 22.363281 26.515625 22.476562 26.144531 22.628906 25.78125 C 22.777344 25.417969 22.960938 25.074219 23.179688 24.746094 C 23.398438 24.417969 23.644531 24.117188 23.921875 23.839844 C 24.199219 23.5625 24.503906 23.3125 24.828125 23.09375 C 25.15625 22.875 25.5 22.691406 25.863281 22.542969 C 26.226562 22.390625 26.597656 22.277344 26.984375 22.203125 C 27.367188 22.125 27.757812 22.085938 28.148438 22.085938 C 28.542969 22.085938 28.929688 22.125 29.316406 22.203125 C 29.699219 22.277344 30.074219 22.390625 30.4375 22.542969 C 30.796875 22.691406 31.144531 22.875 31.46875 23.09375 C 31.796875 23.3125 32.097656 23.5625 32.375 23.839844 C 32.652344 24.117188 32.898438 24.417969 33.117188 24.746094 C 33.335938 25.074219 33.519531 25.417969 33.671875 25.78125 C 33.820312 26.144531 33.933594 26.515625 34.011719 26.902344 C 34.085938 27.289062 34.125 27.675781 34.125 28.070312 Z M 34.125 28.070312"/></g><g clip-path="url(#d)"><path fill="#BE1931" d="M 22.917969 28.070312 C 22.917969 28.460938 22.882812 28.851562 22.804688 29.238281 C 22.726562 29.621094 22.613281 29.996094 22.464844 30.359375 C 22.316406 30.722656 22.128906 31.066406 21.914062 31.394531 C 21.695312 31.722656 21.445312 32.023438 21.167969 32.300781 C 20.890625 32.578125 20.589844 32.828125 20.265625 33.046875 C 19.9375 33.261719 19.59375 33.449219 19.230469 33.597656 C 18.867188 33.75 18.496094 33.863281 18.109375 33.9375 C 17.722656 34.015625 17.335938 34.054688 16.945312 34.054688 C 16.550781 34.054688 16.164062 34.015625 15.777344 33.9375 C 15.394531 33.863281 15.019531 33.75 14.65625 33.597656 C 14.292969 33.449219 13.949219 33.261719 13.625 33.046875 C 13.296875 32.828125 12.996094 32.578125 12.71875 32.300781 C 12.441406 32.023438 12.191406 31.722656 11.972656 31.394531 C 11.757812 31.066406 11.574219 30.722656 11.421875 30.359375 C 11.273438 29.996094 11.160156 29.621094 11.082031 29.238281 C 11.003906 28.851562 10.96875 28.460938 10.96875 28.070312 C 10.96875 27.675781 11.003906 27.289062 11.082031 26.902344 C 11.160156 26.515625 11.273438 26.144531 11.421875 25.78125 C 11.574219 25.417969 11.757812 25.074219 11.972656 24.746094 C 12.191406 24.417969 12.441406 24.117188 12.71875 23.839844 C 12.996094 23.5625 13.296875 23.3125 13.625 23.09375 C 13.949219 22.875 14.292969 22.691406 14.65625 22.542969 C 15.019531 22.390625 15.394531 22.277344 15.777344 22.203125 C 16.164062 22.125 16.550781 22.085938 16.945312 22.085938 C 17.335938 22.085938 17.722656 22.125 18.109375 22.203125 C 18.496094 22.277344 18.867188 22.390625 19.230469 22.542969 C 19.59375 22.691406 19.9375 22.875 20.265625 23.09375 C 20.589844 23.3125 20.890625 23.5625 21.167969 23.839844 C 21.445312 24.117188 21.695312 24.417969 21.914062 24.746094 C 22.128906 25.074219 22.316406 25.417969 22.464844 25.78125 C 22.613281 26.144531 22.726562 26.515625 22.804688 26.902344 C 22.882812 27.289062 22.917969 27.675781 22.917969 28.070312 Z M 22.917969 28.070312"/></g></svg>