<svg xmlns="http://www.w3.org/2000/svg" width="45" viewBox="0 0 45 45" height="45" version="1.0"><path fill="#FFF" d="M-4.5 -4.5H49.5V49.5H-4.5z"/><path fill="#FFF" d="M-4.5 -4.5H49.5V49.5H-4.5z"/><path fill="#C1694F" d="M 28.792969 21.414062 C 30.488281 28.300781 27.433594 34.992188 21.976562 36.359375 C 16.519531 37.726562 10.722656 33.25 9.03125 26.367188 C 7.335938 19.480469 10.390625 12.789062 15.847656 11.421875 C 21.304688 10.054688 27.101562 14.527344 28.792969 21.414062 Z M 28.792969 21.414062"/><path fill="#C1694F" d="M 35.585938 19.710938 C 37.566406 27.765625 30.375 34.257812 23.210938 36.050781 C 16.046875 37.84375 11.339844 33.097656 9.648438 26.210938 C 7.957031 19.324219 9.917969 12.90625 17.082031 11.113281 C 24.246094 9.316406 33.472656 11.117188 35.585938 19.710938 Z M 35.585938 19.710938"/><path fill="#77B255" d="M 27.558594 21.722656 C 29.039062 27.75 26.367188 33.605469 21.59375 34.800781 C 16.816406 36 11.746094 32.082031 10.265625 26.054688 C 8.785156 20.03125 11.453125 14.175781 16.230469 12.980469 C 21.003906 11.785156 26.078125 15.699219 27.558594 21.722656 Z M 27.558594 21.722656"/><path fill="#A6D388" d="M 17.972656 13.601562 C 21.875 13.601562 25.570312 17.101562 26.753906 21.925781 C 27.425781 24.65625 27.21875 27.425781 26.171875 29.726562 C 25.152344 31.960938 23.453125 33.472656 21.394531 33.988281 C 20.890625 34.117188 20.371094 34.179688 19.847656 34.179688 C 15.949219 34.179688 12.253906 30.679688 11.070312 25.855469 C 9.699219 20.285156 12.105469 14.875 16.429688 13.789062 C 16.933594 13.664062 17.453125 13.601562 17.972656 13.601562 M 17.972656 12.765625 C 17.394531 12.765625 16.808594 12.835938 16.230469 12.980469 C 11.453125 14.175781 8.785156 20.03125 10.265625 26.054688 C 11.566406 31.351562 15.640625 35.015625 19.847656 35.015625 C 20.429688 35.015625 21.015625 34.945312 21.59375 34.800781 C 26.367188 33.605469 29.039062 27.75 27.558594 21.722656 C 26.257812 16.429688 22.183594 12.765625 17.972656 12.765625 Z M 17.972656 12.765625"/><path fill="#A6D388" d="M 23.027344 24.199219 L 20.710938 25.292969 L 22.082031 28.765625 L 19.632812 26.820312 L 19.058594 30.304688 L 17.917969 26.882812 L 15.722656 28.339844 L 16.554688 25.015625 L 14.035156 23.59375 L 16.351562 22.496094 L 14.980469 19.027344 L 17.429688 20.796875 L 18.007812 17.308594 L 19.148438 20.910156 L 21.335938 19.453125 L 20.507812 22.773438 Z M 23.027344 24.199219"/><path fill="#A6D388" d="M 19.054688 31.140625 C 18.703125 31.140625 18.386719 30.914062 18.273438 30.570312 L 17.472656 28.175781 L 16.175781 29.039062 C 15.894531 29.226562 15.519531 29.222656 15.242188 29.019531 C 14.964844 28.820312 14.835938 28.46875 14.917969 28.132812 L 15.59375 25.433594 L 13.632812 24.324219 C 13.359375 24.171875 13.195312 23.878906 13.207031 23.566406 C 13.21875 23.253906 13.402344 22.972656 13.683594 22.839844 L 15.292969 22.074219 L 14.210938 19.339844 C 14.074219 18.992188 14.179688 18.597656 14.46875 18.371094 C 14.757812 18.140625 15.164062 18.132812 15.460938 18.347656 L 16.832031 19.335938 L 17.1875 17.171875 C 17.25 16.792969 17.5625 16.503906 17.945312 16.476562 C 18.335938 16.457031 18.679688 16.6875 18.792969 17.054688 L 19.601562 19.609375 L 20.878906 18.757812 C 21.164062 18.566406 21.539062 18.570312 21.816406 18.773438 C 22.09375 18.972656 22.222656 19.324219 22.140625 19.65625 L 21.464844 22.359375 L 23.429688 23.46875 C 23.699219 23.625 23.863281 23.917969 23.851562 24.230469 C 23.839844 24.542969 23.65625 24.824219 23.378906 24.957031 L 21.765625 25.71875 L 22.847656 28.457031 C 22.988281 28.808594 22.875 29.207031 22.578125 29.433594 C 22.277344 29.660156 21.863281 29.65625 21.570312 29.421875 L 20.222656 28.351562 L 19.875 30.445312 C 19.8125 30.824219 19.5 31.109375 19.125 31.140625 Z M 17.917969 26.046875 C 18.007812 26.046875 18.097656 26.0625 18.1875 26.089844 C 18.429688 26.175781 18.617188 26.371094 18.699219 26.617188 L 18.785156 26.871094 L 18.816406 26.683594 C 18.867188 26.390625 19.0625 26.148438 19.335938 26.042969 C 19.609375 25.9375 19.914062 25.980469 20.144531 26.164062 L 20.167969 26.179688 L 19.941406 25.601562 C 19.777344 25.191406 19.960938 24.726562 20.359375 24.539062 L 21.214844 24.132812 L 20.105469 23.503906 C 19.777344 23.320312 19.613281 22.9375 19.707031 22.570312 L 20.015625 21.335938 L 19.601562 21.609375 C 19.386719 21.753906 19.117188 21.789062 18.871094 21.699219 C 18.628906 21.613281 18.4375 21.417969 18.359375 21.167969 L 18.257812 20.851562 L 18.246094 20.933594 C 18.199219 21.21875 18.011719 21.457031 17.746094 21.566406 C 17.484375 21.679688 17.179688 21.644531 16.949219 21.476562 L 16.796875 21.367188 L 17.121094 22.1875 C 17.285156 22.597656 17.101562 23.066406 16.707031 23.253906 L 15.847656 23.660156 L 16.957031 24.285156 C 17.285156 24.472656 17.449219 24.855469 17.355469 25.222656 L 17.046875 26.457031 L 17.460938 26.183594 C 17.597656 26.089844 17.757812 26.046875 17.917969 26.046875 Z M 17.917969 26.046875"/><path fill="#C6E5B3" d="M 21.21875 23.78125 L 19.800781 24.460938 L 20.691406 26.582031 L 19.164062 25.503906 L 18.851562 27.640625 L 18.097656 25.441406 L 16.769531 26.339844 L 17.238281 24.304688 L 15.664062 23.4375 L 17.074219 22.757812 L 16.183594 20.636719 L 17.714844 21.710938 L 18.023438 19.574219 L 18.777344 21.78125 L 20.113281 20.878906 L 19.640625 22.914062 Z M 21.21875 23.78125"/><path fill="#C6E5B3" d="M 18.851562 28.058594 C 18.675781 28.058594 18.519531 27.945312 18.460938 27.777344 L 17.882812 26.089844 L 17 26.6875 C 16.859375 26.78125 16.675781 26.78125 16.535156 26.683594 C 16.394531 26.585938 16.328125 26.414062 16.367188 26.246094 L 16.765625 24.519531 L 15.464844 23.804688 C 15.328125 23.730469 15.246094 23.585938 15.25 23.429688 C 15.253906 23.269531 15.34375 23.128906 15.484375 23.0625 L 16.539062 22.554688 L 15.800781 20.800781 C 15.730469 20.628906 15.777344 20.429688 15.921875 20.3125 C 16.066406 20.195312 16.265625 20.1875 16.417969 20.292969 L 17.402344 20.984375 L 17.613281 19.515625 C 17.640625 19.324219 17.796875 19.179688 17.984375 19.160156 C 18.175781 19.136719 18.351562 19.257812 18.417969 19.441406 L 18.996094 21.132812 L 19.882812 20.53125 C 20.023438 20.4375 20.207031 20.4375 20.347656 20.535156 C 20.488281 20.632812 20.554688 20.808594 20.515625 20.972656 L 20.117188 22.703125 L 21.417969 23.414062 C 21.554688 23.492188 21.636719 23.636719 21.632812 23.792969 C 21.628906 23.949219 21.535156 24.09375 21.394531 24.160156 L 20.339844 24.667969 L 21.074219 26.421875 C 21.148438 26.589844 21.097656 26.789062 20.957031 26.90625 C 20.8125 27.027344 20.609375 27.03125 20.457031 26.925781 L 19.476562 26.234375 L 19.261719 27.703125 C 19.234375 27.894531 19.082031 28.039062 18.890625 28.058594 Z M 18.097656 25.023438 C 18.140625 25.023438 18.1875 25.027344 18.230469 25.042969 C 18.351562 25.085938 18.449219 25.179688 18.488281 25.304688 L 18.691406 25.890625 L 18.753906 25.445312 C 18.777344 25.300781 18.871094 25.179688 19 25.121094 C 19.132812 25.066406 19.28125 25.078125 19.402344 25.164062 L 19.75 25.40625 L 19.421875 24.625 C 19.335938 24.417969 19.421875 24.179688 19.625 24.082031 L 20.304688 23.757812 L 19.445312 23.285156 C 19.28125 23.195312 19.195312 23.003906 19.238281 22.820312 L 19.472656 21.816406 L 19.007812 22.128906 C 18.902344 22.199219 18.765625 22.214844 18.644531 22.175781 C 18.523438 22.136719 18.429688 22.039062 18.386719 21.917969 L 18.1875 21.335938 L 18.125 21.773438 C 18.101562 21.914062 18.011719 22.039062 17.878906 22.09375 C 17.746094 22.152344 17.597656 22.136719 17.480469 22.054688 L 17.125 21.804688 L 17.457031 22.597656 C 17.542969 22.800781 17.453125 23.039062 17.253906 23.136719 L 16.574219 23.464844 L 17.433594 23.933594 C 17.597656 24.023438 17.683594 24.214844 17.640625 24.398438 L 17.410156 25.402344 L 17.867188 25.09375 C 17.9375 25.046875 18.015625 25.023438 18.097656 25.023438 Z M 18.097656 25.023438"/><path fill="#292F33" d="M 15.023438 21.222656 C 15.210938 21.636719 15.144531 22.078125 14.871094 22.207031 C 14.59375 22.335938 14.21875 22.101562 14.027344 21.683594 C 13.839844 21.269531 13.90625 20.828125 14.179688 20.703125 C 14.457031 20.574219 14.832031 20.808594 15.023438 21.222656 Z M 20.566406 18.769531 C 20.460938 19.214844 20.136719 19.515625 19.84375 19.445312 C 19.546875 19.371094 19.398438 18.953125 19.503906 18.507812 C 19.609375 18.0625 19.933594 17.761719 20.230469 17.832031 C 20.523438 17.902344 20.675781 18.324219 20.566406 18.769531 Z M 18.378906 27.054688 C 18.273438 27.5 17.949219 27.800781 17.65625 27.730469 C 17.359375 27.65625 17.207031 27.238281 17.316406 26.792969 C 17.421875 26.351562 17.746094 26.046875 18.042969 26.117188 C 18.335938 26.191406 18.484375 26.609375 18.378906 27.054688 Z M 21.042969 28.875 C 21.230469 29.289062 21.164062 29.730469 20.886719 29.859375 C 20.613281 29.984375 20.238281 29.753906 20.046875 29.335938 C 19.859375 28.921875 19.925781 28.484375 20.199219 28.351562 C 20.476562 28.226562 20.851562 28.460938 21.042969 28.875 Z M 21.96875 22.453125 C 21.71875 22.699219 21.40625 22.78125 21.269531 22.640625 C 21.136719 22.5 21.234375 22.1875 21.484375 21.945312 C 21.734375 21.699219 22.046875 21.613281 22.183594 21.757812 C 22.316406 21.898438 22.222656 22.210938 21.96875 22.453125 Z M 17.601562 20.476562 C 17.753906 20.792969 17.734375 21.117188 17.558594 21.203125 C 17.382812 21.285156 17.121094 21.097656 16.972656 20.78125 C 16.824219 20.460938 16.84375 20.136719 17.019531 20.050781 C 17.191406 19.96875 17.453125 20.160156 17.601562 20.476562 Z M 14.308594 26.40625 C 14.054688 26.648438 13.746094 26.734375 13.609375 26.59375 C 13.476562 26.453125 13.574219 26.140625 13.824219 25.898438 C 14.074219 25.652344 14.386719 25.566406 14.523438 25.707031 C 14.65625 25.851562 14.5625 26.160156 14.308594 26.40625 Z M 23.101562 25.628906 C 23.375 25.925781 23.417969 26.332031 23.199219 26.542969 C 22.976562 26.75 22.574219 26.675781 22.300781 26.378906 C 22.027344 26.082031 21.984375 25.675781 22.207031 25.464844 C 22.425781 25.257812 22.828125 25.332031 23.101562 25.628906 Z M 23.101562 25.628906"/></svg>