<svg xmlns="http://www.w3.org/2000/svg" width="45" viewBox="0 0 45 45" height="45" version="1.0"><defs><clipPath id="a"><path d="M 9 13 L 36 13 L 36 40 L 9 40 Z M 9 13"/></clipPath><clipPath id="b"><path d="M 18.183594 4.5 L 42.304688 19.679688 L 26.328125 45.070312 L 2.207031 29.894531 Z M 18.183594 4.5"/></clipPath><clipPath id="c"><path d="M 18.183594 4.5 L 42.304688 19.679688 L 26.328125 45.070312 L 2.207031 29.894531 Z M 18.183594 4.5"/></clipPath><clipPath id="d"><path d="M 18.183594 4.5 L 42.304688 19.679688 L 26.328125 45.070312 L 2.207031 29.894531 Z M 18.183594 4.5"/></clipPath><clipPath id="e"><path d="M 15 8 L 23 8 L 23 17 L 15 17 Z M 15 8"/></clipPath><clipPath id="f"><path d="M 18.183594 4.5 L 42.304688 19.679688 L 26.328125 45.070312 L 2.207031 29.894531 Z M 18.183594 4.5"/></clipPath><clipPath id="g"><path d="M 18.183594 4.5 L 42.304688 19.679688 L 26.328125 45.070312 L 2.207031 29.894531 Z M 18.183594 4.5"/></clipPath><clipPath id="h"><path d="M 18.183594 4.5 L 42.304688 19.679688 L 26.328125 45.070312 L 2.207031 29.894531 Z M 18.183594 4.5"/></clipPath><clipPath id="i"><path d="M 19 10 L 32 10 L 32 16 L 19 16 Z M 19 10"/></clipPath><clipPath id="j"><path d="M 18.183594 4.5 L 42.304688 19.679688 L 26.328125 45.070312 L 2.207031 29.894531 Z M 18.183594 4.5"/></clipPath><clipPath id="k"><path d="M 18.183594 4.5 L 42.304688 19.679688 L 26.328125 45.070312 L 2.207031 29.894531 Z M 18.183594 4.5"/></clipPath><clipPath id="l"><path d="M 18.183594 4.5 L 42.304688 19.679688 L 26.328125 45.070312 L 2.207031 29.894531 Z M 18.183594 4.5"/></clipPath></defs><path fill="#FFF" d="M-4.5 -4.5H49.5V49.5H-4.5z"/><path fill="#FFF" d="M-4.5 -4.5H49.5V49.5H-4.5z"/><g clip-path="url(#a)"><g clip-path="url(#b)"><g clip-path="url(#c)"><g clip-path="url(#d)"><path fill="#F4900C" d="M 11.46875 19.765625 C 15.394531 13.53125 23.507812 11.582031 29.597656 15.414062 C 35.6875 19.246094 37.445312 27.40625 33.519531 33.640625 C 29.597656 39.875 21.480469 41.824219 15.390625 37.992188 C 9.304688 34.160156 7.546875 26 11.46875 19.765625 Z M 11.46875 19.765625"/></g></g></g></g><g clip-path="url(#e)"><g clip-path="url(#f)"><g clip-path="url(#g)"><g clip-path="url(#h)"><path fill="#662113" d="M 22.222656 15.152344 C 22.160156 14.855469 21.773438 14.683594 21.265625 14.664062 C 20.234375 11.40625 17.054688 8.527344 16.910156 8.398438 C 16.585938 8.109375 16.082031 8.144531 15.789062 8.476562 C 15.492188 8.8125 15.515625 9.316406 15.839844 9.609375 C 15.875 9.636719 18.769531 12.269531 19.707031 15.058594 C 19.296875 15.304688 19.054688 15.617188 19.113281 15.898438 C 19.207031 16.328125 19.976562 16.511719 20.835938 16.304688 C 21.695312 16.101562 22.3125 15.582031 22.222656 15.152344 Z M 22.222656 15.152344"/></g></g></g></g><g clip-path="url(#i)"><g clip-path="url(#j)"><g clip-path="url(#k)"><g clip-path="url(#l)"><path fill="#5C913B" d="M 31.460938 14.675781 C 31.460938 14.675781 27.527344 16.324219 24.5 15.332031 C 22.195312 14.578125 19.523438 12.960938 19.652344 12.164062 C 19.785156 11.371094 22.398438 10.132812 25.296875 10.566406 C 28.191406 10.996094 31.460938 14.675781 31.460938 14.675781 Z M 31.460938 14.675781"/></g></g></g></g></svg>