<svg xmlns="http://www.w3.org/2000/svg" width="45" viewBox="0 0 45 45" height="45" version="1.0"><defs><clipPath id="a"><path d="M 9 9 L 32 9 L 32 37 L 9 37 Z M 9 9"/></clipPath><clipPath id="b"><path d="M 23.269531 1.316406 L 43.578125 20.230469 L 21.597656 43.832031 L 1.289062 24.917969 Z M 23.269531 1.316406"/></clipPath><clipPath id="c"><path d="M 23.269531 1.316406 L 43.578125 20.230469 L 21.597656 43.832031 L 1.289062 24.917969 Z M 23.269531 1.316406"/></clipPath><clipPath id="d"><path d="M 23.269531 1.316406 L 43.578125 20.230469 L 21.597656 43.832031 L 1.289062 24.917969 Z M 23.269531 1.316406"/></clipPath><clipPath id="e"><path d="M 20 1 L 25 1 L 25 11 L 20 11 Z M 20 1"/></clipPath><clipPath id="f"><path d="M 23.269531 1.316406 L 43.578125 20.230469 L 21.597656 43.832031 L 1.289062 24.917969 Z M 23.269531 1.316406"/></clipPath><clipPath id="g"><path d="M 23.269531 1.316406 L 43.578125 20.230469 L 21.597656 43.832031 L 1.289062 24.917969 Z M 23.269531 1.316406"/></clipPath><clipPath id="h"><path d="M 23.269531 1.316406 L 43.578125 20.230469 L 21.597656 43.832031 L 1.289062 24.917969 Z M 23.269531 1.316406"/></clipPath></defs><path fill="#FFF" d="M-4.5 -4.5H49.5V49.5H-4.5z"/><path fill="#FFF" d="M-4.5 -4.5H49.5V49.5H-4.5z"/><g clip-path="url(#a)"><g clip-path="url(#b)"><g clip-path="url(#c)"><g clip-path="url(#d)"><path fill="#A6D388" d="M 21.242188 9.960938 C 24.121094 8.886719 27.265625 13.285156 27.539062 18.414062 C 27.714844 21.65625 31.761719 24.128906 31.980469 28.273438 C 32.207031 32.480469 28.484375 36.175781 20.671875 36.535156 C 14.378906 36.824219 9.9375 32.6875 9.441406 27.917969 C 8.921875 22.890625 12.988281 20.957031 14.71875 16.636719 C 16.445312 12.316406 18.167969 7.429688 21.242188 9.960938 Z M 21.242188 9.960938"/></g></g></g></g><g clip-path="url(#e)"><g clip-path="url(#f)"><g clip-path="url(#g)"><g clip-path="url(#h)"><path fill="#662113" d="M 21.296875 10.53125 C 20.757812 10.5625 20.300781 10.1875 20.273438 9.6875 C 20.066406 5.828125 22.269531 2.558594 22.390625 2.394531 C 22.691406 1.976562 23.300781 1.859375 23.746094 2.132812 C 24.195312 2.40625 24.3125 2.964844 24.011719 3.382812 C 23.984375 3.417969 22.050781 6.320312 22.226562 9.574219 C 22.25 10.070312 21.835938 10.5 21.296875 10.53125 Z M 21.296875 10.53125"/></g></g></g></g></svg>